<?xml version="1.0" encoding="utf-8" ?>
<svg baseProfile="full" height="300mm" version="1.1" viewBox="0,0,200,300" width="200mm" xmlns="http://www.w3.org/2000/svg" xmlns:ev="http://www.w3.org/2001/xml-events" xmlns:xlink="http://www.w3.org/1999/xlink"><defs /><rect fill="#222222" height="300" width="200" x="0" y="0" /><text fill="#FFFFFF" style="font-size:12px; font-family:Arial; font-weight:bold;" x="10" y="20">Over 10km Runs</text><text fill="#FFFFFF" style="font-size:4px; font-family:Arial" x="10" y="280">ATHLETE</text><text fill="#FFFFFF" style="font-size:9px; font-family:Arial" x="10" y="290">mikusugar</text><text fill="#FFFFFF" style="font-size:4px; font-family:Arial" x="65" y="280">SPECIAL TRACKS</text><rect fill="yellow" height="2.6" width="2.6" x="65" y="283" /><text fill="#FFFFFF" style="font-size:3px; font-family:Arial" x="70" y="285.5">Over 20.0 km</text><rect fill="red" height="2.6" width="2.6" x="65" y="287" /><text fill="#FFFFFF" style="font-size:3px; font-family:Arial" x="70" y="289.5">Over 40.0 km</text><text fill="#FFFFFF" style="font-size:4px; font-family:Arial" x="120" y="280">STATISTICS</text><text fill="#FFFFFF" style="font-size:3px; font-family:Arial" x="120" y="285">Number: 7</text><text fill="#FFFFFF" style="font-size:3px; font-family:Arial" x="120" y="290">Weekly: 1.4</text><text fill="#FFFFFF" style="font-size:3px; font-family:Arial" x="141" y="285">Total: 71.0 km</text><text fill="#FFFFFF" style="font-size:3px; font-family:Arial" x="141" y="290">Avg: 10.1 km</text><text fill="#FFFFFF" style="font-size:3px; font-family:Arial" x="167" y="285">Min: 10.0 km</text><text fill="#FFFFFF" style="font-size:3px; font-family:Arial" x="167" y="290">Max: 10.3 km</text><polyline fill="none" points="55.67824580910383,33.0 55.84903280052822,33.5545320942183 56.12229198671412,34.010039410030004 56.3784724738216,34.66359150961216 56.56633816432441,35.21811883081682 56.702967757417355,35.71323116599524 56.890833447978366,36.22814664921316 56.82251865143189,36.74306076060748 56.60049556265585,37.198560561810154 56.49802336777793,37.67386355774943 56.61757426173426,38.188773817732 56.75420385482721,38.683878543335595 56.85667604964692,39.19878611259628 56.942069545330014,39.71369231023709 57.09577783761779,40.18898912136501 57.09577783761779,40.7038926811656 57.044541740149725,41.218794869375415 57.147013935027644,41.694087979529286 57.42027312127175,42.109968492237385 57.74476840492571,42.48624056603876 57.898476697155274,42.981334284108016 58.06926368846325,43.49623040572624 58.13757848512614,44.0309287726559 57.898476697155274,44.506214968219865 57.898476697155274,45.001303512603045 58.06926368846325,45.377569958305685 58.240050679887645,45.89245969719195 58.325444175628945,46.42715143595706 58.240050679887645,46.902431739959866 58.1034210867947,47.437120685208356 57.88139799796045,47.912398506043246 57.64229621004779,48.32826564072457 57.43735182035016,48.76393501278653 57.06162043934455,49.14019413484493 56.66881035914412,49.45704335383198 56.29307897813851,49.81349810452957 56.08813458844088,50.28877008293057 55.88319019880146,50.74423796583142 55.72948190651368,51.19970477568859 55.558694915205706,51.59576199896401 55.06341264012735,51.63536767665937 54.87554694962455,52.051226802606834 54.77307475480484,52.566098766808864 54.34610727633117,52.86313966086891 54.072848090087064,53.29879881325178 54.1923989841016,53.813667454887764 54.31194987805793,54.32853472538409 54.43150077201426,54.823598115486675 54.36318597540958,55.279055314778816 54.55105166591238,55.734511441070936 54.29487117897952,56.15036174975103 53.85082500131102,56.447397136944346 53.35554272629088,56.60581582352461 52.87733915046556,56.60581582352461 52.38205687538721,56.52660649646714 51.86969590123044,56.46719947984093 51.340256227878854,56.42759479195229 50.84497395291692,56.36818774497078 50.31553427968174,56.328583036825876 49.78609460633015,56.269175959401764 49.2737336322316,56.189966494435794 48.761372658016626,56.110756997048156 48.231932984723244,56.05134985264158 47.73665070976131,55.99194269004511 47.241368434682954,55.91273311142868 46.72900746052619,55.85332590629696 46.233725185506046,55.774116270884406 45.73844291054411,55.71470902314468 45.243160635523964,55.63549933095055 44.7307996613672,55.57609204055916 44.218438687268645,55.51668473194877 43.75731381046353,55.41767251028796 43.31326763285324,55.259252850170014 42.88630015437957,55.06122809248336 42.459332675964106,54.8434006246971 42.049443896568846,54.62557291158009 41.605397719016764,54.42754750481981 41.161351541406475,54.22952189526404 40.700226664717775,54.15031159463979 40.20494438963942,54.170114172797184 39.726740813814104,54.30873216339387 39.26561593700899,54.52656023357122 38.88988455600338,54.8830056371371 38.616625369817484,55.33846269645437 38.377523581904825,55.79391868278617 38.12134309479734,56.249373596248915 37.83100520941662,56.665222797499155 37.489431226684246,57.0216642581363 37.06246374815237,57.318698306626175 36.56718147319043,57.55632521692314 36.08897789736511,57.71474299483816 35.59369562228676,57.79395183516317 35.098413347266614,57.77414962810872 34.58605237310985,57.71474299483816 34.107848797226325,57.63553412207693 33.646723920537625,57.55632521692314 33.18559904373251,57.43751179828541 32.70739546784898,57.477116279289476 32.21211319282884,57.51672075215902 31.73390961694531,57.5959296735964 31.289863439335022,57.75434741903155 30.879974660114385,58.03157816131716 30.5384006772656,58.34841280854016 30.230984092806466,58.74445538746659 30.06019710144028,59.23950747032359 29.87233141082106,59.75436029181583 29.633229622908402,60.20980587575468 29.223340843687765,60.546438878722256 28.693901170394383,60.605844641904696 28.181540196179412,60.704854206735035 27.68625792110106,60.803863720808295 27.17389694706071,60.82366561757226 26.695693371177185,60.82366561757226 26.23456849437207,60.82366561757226 25.75636491854675,60.82366561757226 25.295240041741636,60.803863720808295 24.81703646585811,60.82366561757226 24.3559115891112,60.803863720808295 23.860629314149264,60.78406182206527 23.39950443734415,60.76425992127042 22.92130086151883,60.72465611359803 22.494333383103367,60.546438878722256 22.135680701117963,60.24940978887025 21.896578913205303,59.873172286723275 21.93073631147854,59.41772590983601 21.862421514932066,59.001882628770545 21.794106718327384,58.58603845327161 21.81118541752221,58.17019338335376 21.879500214068685,57.77414962810872 21.879500214068685,57.318698306626175 21.896578913205303,56.86324591230368 21.657477125292644,56.447397136944346 21.230509646818973,56.15036174975103 20.73522737179883,55.932535509142326 20.222866397642065,55.79391868278617 19.7105054234853,55.734511441070936 19.198144449386746,55.75431385698903 18.668704776035156,55.79391868278617 18.17342250101501,55.932535509142326 17.72937632346293,56.15036174975103 17.370723641477525,56.407792445024825 16.9779135613353,56.58601349478704 17.04622835793998,56.9820596838108 17.31948754406767,57.39790730923414 17.5244319337653,57.79395183516317 17.55858933198033,58.44742352933099 17.353644942399114,58.86326800296956 16.994992260471918,59.19990335032344 16.585103481134865,59.43752794851025 16.585103481134865,59.95238024277205 16.704654375149403,60.427627297569416 16.72173307428602,60.92267507080396 16.704654375149403,61.4771270720521 16.704654375149403,61.99197393533541 16.704654375149403,62.50681942769734 16.738811773364432,63.0018618775066 16.738811773364432,63.51670468089287 16.72173307428602,64.01174454520515 16.738811773364432,64.50678314217657 16.72173307428602,64.942416059057 16.704654375149403,65.39784942280676 16.704654375149403,65.8730830935092 16.704654375149403,66.34831559626036 16.72173307428602,66.84334821127413 16.738811773364432,67.33837955897616 16.738811773364432,67.83340963941009 16.704654375149403,68.30863732437138 16.704654375149403,68.78386384142505 16.72173307428602,69.23928815771069 16.738811773364432,69.73431337188231 16.72173307428602,70.18973544971959 16.772969171695877,70.6649573440227 16.858362667320762,71.14017807038908 17.114543154486455,71.51639365054143 17.38780234067235,71.91240926002502 17.746455022657756,72.20942043495597 18.139265102799982,72.42722833996231 18.532075182942208,72.62523531341867 18.85657046653796,72.94204604937113 19.317695343284868,73.10045122263546 19.778820220089983,73.1202518601931 20.25702379597351,73.06084994149569 20.71814867266221,73.00144800456474 21.196352248545736,72.94204604937113 21.60624102782458,72.86284341399733 22.084444603708107,72.74403940024786 22.665120374411345,72.62523531341867 23.16040264943149,72.56583324268286 23.655684924451634,72.50643115365529 24.150967199529987,72.50643115365529 24.629170775355306,72.52623185208358 25.107374351238832,72.56583324268286 25.602656626258977,72.58563393494114 26.09793890127912,72.60543462523492 26.593221176357474,72.58563393494114 27.071424752182793,72.66483668386354 27.481313531519845,72.88264407590032 27.78873011597898,73.19945439013827 28.044910603086464,73.59546655300073 28.284012390999123,74.03107899558381 28.523114178911783,74.46669045693125 28.86468816170236,74.86270002488163 29.30873433931265,75.12010580919741 29.769859216059558,75.27850919844059 30.28222019021632,75.37751125085924 30.74334506696323,75.4963136468723 31.204469943710137,75.59531558777962 31.665594820515253,75.73391821990663 32.092562298930716,75.9319218078308 32.50245107815135,76.14972552031395 32.895261158351786,76.44673018762842 33.28807123861043,76.72393413216923 33.680881318752654,77.00113767939911 34.107848797226325,77.23874040367082 34.56897367397323,77.43674245088187 35.03009855072014,77.59514394267171 35.4570660291356,77.73374514159514 35.93526960507734,77.79314562503714 36.396394481824245,77.83274593713577 36.840440659434535,77.81294578210509 37.284486836986616,77.79314562503714 37.745611713733524,77.79314562503714 38.22381528961705,77.77334546594648 38.68494016630575,77.75354530478944 39.146065043110866,77.73374514159514 39.607189919857774,77.71394497642177 40.08539349568309,77.67434463994869 40.56359707162483,77.75354530478944 40.99056455004029,77.91194653717685 41.3662959310459,78.14954814242083 41.7249486130313,78.40694955200888 42.08360129490029,78.66435061907396 42.51056877337396,78.9217513435724 42.98877234925749,79.09995164451539 43.48405462427763,79.1395516890334 43.94517950102454,79.08015161915682 44.40630437777145,78.96135142464482 44.86742925440194,78.82275110550108 45.345632830343675,78.70395075289707 45.84091510530561,78.5851503272861 46.319118681305554,78.4861499168328 46.763164858857635,78.36734935748973 47.241368434682954,78.2485487251106 47.71957201062469,78.12974801976816 48.214854285586625,77.99114710465074 48.71013656066498,77.85254609020194 49.17126143735368,77.67434463994869 49.59822891582735,77.41694225525134 50.0081176951644,77.1793397499423 50.400927775364835,76.96153719697031 50.81081655464368,76.74373439869669 51.25486273225397,76.74373439869669 51.545200617576484,77.04073815372249 51.66475151164923,77.51594321301673 51.76722370641073,78.03074737625138 51.85261720215203,78.50595000301837 51.972168096050154,78.9217513435724 52.14295508747455,79.35735178926552 52.1087976891431,79.8325511564617 51.98924679518677,80.28794945441769 51.81845980382059,80.74334668008669 51.69890890986426,81.23834244835598 51.613515414181165,81.69373743630422 51.6476728124544,82.16893106310454 51.69890890986426,82.6243238599709 51.73306630807929,83.11931481429201 51.73306630807929,83.6143045018107 51.511043219361454,84.06969389563892 51.289020130527206,84.48548327527533 51.11823313916102,84.9012717610749 51.01576094434131,85.3764575075329 51.049918342614546,85.83184275253734 51.186547935707495,86.30702621290402 51.4598071219516,86.68321229110006 51.86969590123044,86.94060234411154 52.38205687538721,87.0 52.87733915046556,86.96040156476374 53.40677882370073,86.88120466994587 53.9191397978575,86.80200774276454 54.43150077201426,86.70301153813489 54.92678304709261,86.62381453787384 55.42206532205455,86.52481824204733 55.86611149960663,86.38622334276442 56.31015767721692,86.16843115756637 56.685889058338944,85.89124074889696 57.027463041071314,85.55465186155925 57.249486129847355,85.11906537313189 57.369037023803685,84.62407953650109 57.64229621004779,84.22808995515516 58.1034210867947,84.0894934101525 58.54746726434678,84.26768894973793 58.95735604374204,84.50528274722456 59.36724482302088,84.72307680516678 59.79421230155276,84.84187346063845 60.23825847910484,84.9012717610749 60.68230465671513,84.9012717610749 61.1092721351888,84.86167289617879 61.536239613604266,84.66367845000059 61.89489229553146,84.34688691470365 62.16815148177557,83.93109723707312 62.407253269688226,83.5549058062461 62.543882862781174,83.11931481429201 62.66343375679571,82.68372284134966 62.782984650693834,82.26792958842998 62.91961424384499,81.81253595244198 63.056243836996146,81.35714124423976 63.192873430089094,80.88194562288118 63.295345624908805,80.38694894251239 63.3807391205919,79.89195099523931 63.43197521800175,79.39695178109105 63.397817819728516,78.90195130003849 63.3807391205919,78.42674964629987 63.34658172231866,77.95154682491557 63.295345624908805,77.47634283595835 63.295345624908805,76.98133743921062 63.192873430089094,76.52593135512143 63.056243836996146,76.07052419871616 62.868378146435134,75.5755152036727 62.73174855328398,75.13990623994323 62.646355057600886,74.7438972396194 62.50972546450794,74.38748844603833 62.407253269688226,74.07068007808994 62.2877023757319,73.69446946700918 62.116915384307504,73.15985312918201 62.01444318948779,72.64503599965246 62.03152188868262,72.18961970410601 62.09983668522909,71.73420233615616 62.27062367659528,71.27878389558464 62.49264676531311,70.86296612187289 62.66343375679571,70.40754562953953 62.81714204896707,69.9521240646718 62.90253554470837,69.47690041866736 62.90253554470837,68.96207348426105 62.885456845513545,68.44724517915165 62.851299447298516,67.93241550345556 62.83422074810369,67.47698810925067 62.83422074810369,67.02155964243866 62.81714204896707,66.60573271423345 62.80006334988866,66.15030219535402 62.73174855328398,65.69487060392566 62.424331968824845,65.29884226112335 62.01444318948779,65.04142340333783 61.638711808482185,64.80380569196132 61.314216524828225,64.58598920001532 60.97264254203765,64.28896631563839 60.64814725838369,63.91273667373753 60.323651974787936,63.496903059931356 60.03331408946542,63.12067187689536 59.72589750494808,62.72463826173043 59.50387441617204,62.28900034823164 59.35016612394247,61.7939560731902 59.33308742480585,61.29891053074971 59.41848092043074,60.803863720808295 59.58926791185513,60.36822147958446 59.79421230155276,59.91277626881492 60.03331408946542,59.45732998519088 60.16994368255837,58.94247637267108 60.135786284226924,58.42762138918624 59.96499929286074,57.95236941835901 59.64050400926499,57.576127446242026 59.26477262820117,57.2790937932441 58.871962548058946,56.94245510142355 58.49623116699513,56.625618150195805 58.15465718420455,56.328583036825876 57.79600450233556,56.01174507959513 57.42027312127175,55.6949066031375 57.027463041071314,55.378067607365665 56.63465296087088,55.10083306020533 56.17352808412397,54.962215637540794 55.712403207377065,55.021623116597766 55.30251442809822,55.19984544416366 54.97801914450247,55.51668473194877 54.63644516165368,55.85332590629696" stroke="#4dd2ff" stroke-linecap="round" stroke-linejoin="round" stroke-width="0.5"><title>2024-10-25 10.2km</title><desc>9223370306998024807</desc></polyline><polyline fill="none" points="186.9549492221463,54.44187636541085 186.95624780332582,54.444888074137225 186.9575463845058,54.44755227132191 186.95874507482586,54.451027301691624 186.95964409256567,54.4540389860382 186.96014354686577,54.45693482880449 186.96134223718582,54.45994649741249 186.9611424554655,54.46295815799692 186.95994376514545,54.465738145261184 186.95934441998588,54.46840229330769 186.9597439834256,54.47129809928094 186.9607428920258,54.47442556140038 186.9611424554655,54.47743718341246 186.96154201890522,54.48044879740178 186.9623411457851,54.48334457251781 186.96254092750542,54.48624034021668 186.96214136406525,54.489251930755245 186.9626408183649,54.49214768332308 186.96413918126518,54.49458010974797 186.96623688932505,54.496780872004024 186.96713590706486,54.49967660528739 186.9679350339443,54.50245650226236 186.9685343791043,54.50523639240157 186.9679350339443,54.50801627570581 186.96703601620493,54.51091198021288 186.96803492480421,54.511143636252996 186.96883405168455,54.51485012644059 186.9695332877045,54.518440777222395 186.9693335059842,54.52156810893507 186.96883405168455,54.524579605371855 186.96833459738446,54.52782274641004 186.96663645276476,54.530139270027576 186.9654377624447,54.53245578889914 186.9640392904048,54.53488812860621 186.96194158234584,54.53674133629988 186.95964409256567,54.53847871575363 186.9575463845058,54.54079521753954 186.95654747590606,54.54357501341815 186.95514900386615,54.545891504763176 186.95464954956606,54.54855546394276 186.95345085924646,54.55087194508451 186.9505540243067,54.55098776901684 186.94955511570697,54.55353589253036 186.94895577054695,54.55619983370036 186.9467581716276,54.55793718325583 186.94496013614753,54.56036946814925 186.94565937216748,54.56338086124458 186.9465583899073,54.56627642396552 186.9470578442074,54.56940362337593 186.9465583899073,54.572067527163654 186.94755729850704,54.57473142467552 186.94665828076722,54.57716367344483 186.94416100926765,54.57866934863284 186.9414639560482,54.579364274966565 186.93856712110892,54.57982755895182 186.9355703953088,54.57948009598056 186.93257366950957,54.57924845394041 186.92957694370943,54.57890099079157 186.92648032704983,54.57866934863284 186.92348360125106,54.57820606417317 186.92058676631132,54.57797442187211 186.91759004051164,54.57785860070385 186.9146932055719,54.57727949468415 186.91159658891183,54.57704785219369 186.9085998631126,54.576700388368636 186.90580291903325,54.57600546039782 186.9029060840935,54.57554217484676 186.90000924915375,54.575310532 186.89701252335453,54.57496306764074 186.89391590669447,54.57461560317529 186.89101907175473,54.57415231705454 186.88812223681543,54.57380485233955 186.8852254018757,54.57310992258965 186.88242845779632,54.572299170674796 186.8799311862963,54.57114095264501 186.87743391479717,54.570098555404 186.87503653415752,54.56870869092086 186.87243937179755,54.56755046921376 186.86994210029752,54.566508068662756 186.8674448287984,54.565813134428595 186.86464788471858,54.565928956830476 186.86185094063876,54.56639224631988 186.85925377827925,54.56755046921376 186.85685639764006,54.56928780132989 186.8549584712996,54.57148841817843 186.85375978098,54.57426813860252 186.85226141808062,54.57704785219369 186.85066316432085,54.57948009598056 186.84856545626099,54.58168069299393 186.84606818476095,54.58376546516229 186.84337113154152,54.585271131560035 186.84047429660177,54.58631351481449 186.83757746166248,54.586776795952915 186.83478051758266,54.58712425668193 186.83208346436322,54.586776795952915 186.82938641114333,54.58608187417451 186.8266893579239,54.585502772366 186.82389241384408,54.58503949070587 186.8213951423445,54.58480784980452 186.81869808912506,54.58503949070587 186.8157013633254,54.585502772366 186.81290441924557,54.586197694500356 186.81030725688606,54.58770335765962 186.80800976710634,54.58955647879566 186.80621173162672,54.59187287594568 186.80491315044674,54.594652546262296 186.803914241847,54.59766384806153 186.80261566066702,54.60044350414387 186.80061784346708,54.60252824172164 186.79782089938772,54.60310733481151 186.79512384616828,54.60368642760454 186.7924267929484,54.604265520101194 186.78952995800864,54.60438133856485 186.7866331230689,54.60438133856485 186.78383617898953,54.604265520101194 186.78093934404978,54.604265520101194 186.7782422908308,54.604265520101194 186.77544534675098,54.6041497016256 186.77254851181124,54.6041497016256 186.7696516768715,54.604033883137845 186.7667548419322,54.60391806463872 186.76395789785238,54.60357060906972 186.7612608446325,54.602875697611125 186.75896335485322,54.60102259830103 186.75706542851322,54.5990536769566 186.75706542851322,54.5963898367404 186.75686564679336,54.593957629323654 186.75636619249326,54.591293777102806 186.75626630163333,54.58886155872551 186.7566658650735,54.58642933511692 186.75686564679336,54.58376546516229 186.75676575593343,54.580869947224414 186.75506761131373,54.5784377064266 186.75247044895423,54.576700388368636 186.74987328659427,54.575657996252176 186.74717623337483,54.57496306764074 186.74417950757515,54.57484724616404 186.7412826726354,54.57473142467552 186.7384857285556,54.575194710559 186.73568878447622,54.57588963902765 186.73319151297665,54.57704785219369 186.7309939140573,54.57866934863284 186.72879631513752,54.58005920087294 186.7281969699775,54.582259796759786 186.72969533287687,54.58480784980452 186.7311936957767,54.58747171730408 186.73159325921688,54.590483038224875 186.73079413233745,54.59303107274127 186.7293956602971,54.59523164338498 186.72679849793758,54.595810740210936 186.72589948019777,54.598358762722796 186.72659871621727,54.601833329622764 186.72669860707765,54.6046129754568 186.72679849793758,54.60750843260189 186.72669860707765,54.61028806448644 186.72669860707765,54.61306768953966 186.72669860707765,54.61596312503809 186.72679849793758,54.61874273614217 186.72679849793758,54.621753973795876 186.72679849793758,54.6244177542676 186.72669860707765,54.62719734459188 186.72669860707765,54.62997692808506 186.72669860707765,54.63275650474657 186.72679849793758,54.635651889837845 186.72679849793758,54.6383156375756 186.72669860707765,54.64121100843545 186.7264988253578,54.643758928660645 186.7264988253578,54.64630684314557 186.72659871621727,54.648970565788545 186.72679849793758,54.6514026548964 186.7268983887975,54.65429799225353 186.72679849793758,54.657077509143505 186.7268983887975,54.65974120641977 186.72709817051737,54.66252070993312 186.72779740653732,54.66518439439062 186.72919587857723,54.66750063664574 186.73079413233745,54.66935362703441 186.73289184039686,54.671090802767026 186.73518933017658,54.67248054143204 186.73738692909592,54.673522844310014 186.7393847462954,54.67479676874575 186.7417821269355,54.675954880624204 186.74437928929547,54.67653393611863 186.74717623337483,54.676186502857604 186.7499731774542,54.67560744718503 186.75267023067408,54.67514420243367 186.75496772045426,54.67468095749291 186.75726521023307,54.67421771236218 186.7604617177526,54.67398608972553 186.76315877097295,54.673522844310014 186.76585582419193,54.673175410124145 186.76865276827175,54.67294378727445 186.77164949407143,54.67259635291043 186.77474611073103,54.67259635291043 186.77754305481085,54.6728279758313 186.78053978061007,54.67294378727445 186.7835365064102,54.67305959870532 186.78653323220942,54.673638655681884 186.78933017628924,54.67491257998688 186.79142788434865,54.677112991316335 186.79302613810842,54.67977664140915 186.79452450100825,54.68232447475884 186.79602286390764,54.68475649214781 186.79802068110757,54.68684107431966 186.8003181708873,54.688346603498985 186.8029153332468,54.68915727222691 186.8056123864667,54.68938889175638 186.80830943968613,54.68973632096254 186.8111063837655,54.69043117905426 186.81390332784576,54.691357655845536 186.81650049020527,54.692515750767484 186.81879797998454,54.694137081666554 186.82109546976426,54.695990028420056 186.82349285040436,54.697727163244394 186.82599012190394,54.69923267793433 186.82858728426345,54.70050657341494 186.8309846649031,54.70166465897023 186.83348193640313,54.702591126560606 186.83587931704278,54.70317016841932 186.83817680682205,54.70363340169331 183.63407758190124,55.0829577876201 170.196459423963,57.004145045077735 162.58028080430677,58.751319638183304 148.9706505854715,61.86280589681644 133.40565678240455,65.47265575017911 133.84397787602438,65.36836495591251 133.24263489890654,65.50305779743803 133.69703842098443,65.39498351687769 133.83259031798616,65.36251338024726 162.65340091381677,60.322637280841604 184.62049982426652,54.84768974811425 186.65188035294796,54.62951366464392 186.85515825302036,54.69737973649296 186.87903216855693,54.71000283996864 186.88412660241602,54.71139253082629 186.88712332821524,54.71092930072973 186.88992027229506,54.710350262842894 186.89271721637488,54.70953960930342 186.89561405131417,54.70872895518278 186.89861077711384,54.7079183004812 186.90130783033374,54.70733926105265 186.90390499269324,54.7066444133477 186.9067019367726,54.70606537326739 186.90969866257228,54.705370524779596 186.91229582493224,54.704444059465686 186.91499287815168,54.70374920998199 186.91768993137157,54.70247531815335 186.9206866571708,54.70062238202377 186.92348360125106,54.699001060420414 186.92638043619036,54.697611354339074 186.9290774894098,54.69784297213789 186.93057585230963,54.700274956161365 186.93107530660973,54.703054360071405 186.93177454262923,54.70606537326739 186.93237388778925,54.70872895518278 186.93317301466914,54.711160915801656 186.9338722506891,54.713824485718874 186.93347268724892,54.7164880493641 186.93267356036904,54.719035800025836 186.93187443348916,54.7218151578395 186.93107530660973,54.72482612109843 186.93097541574934,54.72772127052076 186.93127508832913,54.73096382907693 186.9313749791895,54.733974767985615 186.9313749791895,54.73686989399414 186.9304759614497,54.73964920799165 186.9289775985494,54.74219690649136 186.92797868995012,54.74486040333318 186.9273793447901,54.74763969770015 186.92757912650995,54.75065059222561 186.92877781683,54.75366147873774 186.9307756340295,54.75609334276305 186.93347268724892,54.757135568602166 186.93636952218867,54.757135568602166 186.93936624798835,54.75678816009588 186.94236297378802,54.75620914568128 186.94525980872731,54.75563013097053 186.94815664366706,54.75528272200199 186.95125326032667,54.75470370681717 186.9541500952664,54.754124691336074 186.95694703934578,54.75319826594966 186.95944431084536,54.75157701969806 186.96164190976515,54.7496083604118 186.9633400543853,54.74729228627746 186.96413918126518,54.74474459925318 186.965038199005,54.74196529777373 186.9672357979248,54.7403440354243 186.97013263286453,54.740575644473665 186.97262990436366,54.74219690649136 186.9750272850033,54.743933970360104 186.97782422908313,54.74509201145793 186.98072106402287,54.74555522756509 186.9834181172423,54.7456710315621 186.98601527960182,54.74509201145793 186.98831276938154,54.74381816618529 186.99051036830133,54.74219690649136 186.99220851292148,54.73976501259369 186.993507094101,54.73710150375473 186.99440611184082,54.734553793779924 186.99510534786077,54.73212188345178 186.9959044747402,54.72934255096061 186.99700327420032,54.72644740568785 186.99780240108066,54.723668059255374 186.99860152796055,54.7208887059935 186.99940065483997,54.71822515271049 186.99980021828014,54.71532997898464 186.99990010914007,54.712434797848914 186.99980021828014,54.70965541698729 186.99970032742021,54.7066444133477 186.99950054570036,54.70386501825874 186.99930076398005,54.700969807779074 186.99890120054033,54.69807458988919 186.9983018553803,54.69517936458908 186.9974028376405,54.692284131878296 186.99650381990023,54.68938889175638 186.99560480216041,54.68672526429975 186.99490556614091,54.6842932511438 186.9942063301205,54.68197704327656 186.99340720324108,54.679660830666194 186.9925081855008,54.67664974718173 186.99190884034124,54.673638655681884 186.9918089494813,54.670627556165755 186.9923084037814,54.66796388452735 186.99320742152122,54.66530020661594 186.9943062209809,54.66263652243106 186.99530512958063,54.65985701920272 186.99630403818082,54.657077509143505 186.99680349248047,54.65418217890169 186.99690338334085,54.65128684124818 186.9966037107606,54.64827568222552 186.99640392904075,54.645380329451655 186.99630403818082,54.642600783815055 186.9961042564605,54.63970541651338 186.99600436560058,54.636694226656346 186.9959044747402,54.63379884423364 186.99510534786077,54.63113508585752 186.99280785808105,54.62939784875391 186.99011080486162,54.62800805714983 186.98761353336204,54.62661826383783 186.98571560702203,54.62488101979591 186.9839175715424,54.62256469025567 186.98231931778264,54.6197850885452 186.98042139144263,54.61758456567907 186.97872324682294,54.61515240384574 186.97712499306317,54.612488601550126 186.97622597532336,54.60970897507434 186.97582641188365,54.60681352356323 186.97652564790314,54.60380224612766 186.97752455650334,54.60079096067409 186.97922270112304,54.597895486329435 186.98042139144263,54.594884185146725 186.98092084574273,54.59175705620066 186.9803215005827,54.588629918607126 186.97912281026265,54.58585023348644 186.97702510220324,54.58376546516229 186.9746277215636,54.58168069299393 186.9722303409244,54.57959591698261 186.9697330694239,54.577626958331734 186.9674355796442,54.575657996252176 186.96533787158523,54.573689030744504 186.96324016352492,54.57183588360488 186.9607428920258,54.57021437736694 186.95824562052576,54.56928780132989 186.95534878558647,54.56940362337593 186.95255184150665,54.57067766510079 186.95075380602702,54.57253081413819 186.9487559888271,54.575078889105725" stroke="#4dd2ff" stroke-linecap="round" stroke-linejoin="round" stroke-width="0.5"><title>2024-10-23 10.3km</title><desc>9223370307171316807</desc></polyline><polyline fill="none" points="56.01506357098697,93.0 56.15275353187462,93.43908474421187 56.42813345359173,93.8781684985297 56.583034659561235,94.53679227409884 56.70351337525062,95.09562282198749 56.892837071442045,95.59457731345901 56.99610454210779,96.15340482653119 56.77235835575266,96.65235660836333 56.63466839492321,97.21118108660448 56.61745714972494,97.69017222055118 56.823992091056425,98.20907795304083 56.92725956172217,98.7479401352175 57.01331578718964,99.2668430499325 57.13379450299544,99.8057023059373 57.16821699315915,100.36451773767476 57.13379450299544,100.88341634595417 57.21985072852112,101.36239844982629 57.34032944421051,101.54201643513807 57.54686438548379,101.82142186087731 57.82224430714268,102.2006142976461 58.028779248474166,102.73946543803322 58.18368045438547,103.29827245365595 58.20089169952553,103.83712055772776 57.99435675825225,104.35600991584943 58.01156800339231,104.87489789187384 58.14925796422176,105.31395586892904 58.39021539565874,105.79292707900458 58.42463788582245,106.35172533571313 58.32137041527312,106.89056499375147 58.20089169952553,107.38948927416641 57.94272302289028,107.80858468223596 57.718976836593356,108.2675929042307 57.460808159958106,108.7066432350839 57.06494952249341,109.06586549703206 56.65187964000506,109.36521687604545 56.35928847320611,109.78430803389347 56.187176022154745,110.24331160093425 55.91179610043764,110.64244425848301 55.8085286297719,111.1014458037389 55.464303727669176,111.44070712038956 55.03402260004077,111.58040278496628 54.96517761965515,112.05935858874 54.741431433241814,112.51835679580108 54.3111503055552,112.77779008667858 54.173460344725754,113.23678660123551 54.29393906047335,113.71573833300499 54.414417776220944,114.23460138050723 54.46605151152471,114.75346304614504 54.46605151152471,115.2523671908275 54.62095271749422,115.73131396784447 54.20788283488946,116.11047933135706 53.72596797195729,116.36990783907822 53.20963061886141,116.50959996947495 52.69329326559091,116.48964395695657 52.15974466735497,116.42977590725059 51.64340731414268,116.34995181231352 51.12706996098859,116.29008371967939 50.64515509805642,116.21025956748053 50.14602898992598,116.15039143197646 49.61248039169004,116.09052327796235 49.09614303847775,116.0106990440836 48.57980568532366,115.93087477741938 48.06346833216958,115.87100655601535 47.52991973381722,115.83109439817781 47.0307936258032,115.75127005802642 46.514456272590905,115.69140178138332 45.99811891943682,115.61157738399925 45.51620405650465,115.53175295381516 45.01707794837421,115.47188460973848 44.51795184036018,115.43197237016284 44.01882573228795,115.35214786647703 43.53691086929757,115.21245490628644 43.072207251389045,115.01289336082118 42.607503633596934,114.79337542473513 42.125588770606555,114.53394481774012 41.64367390767438,114.33438257728994 41.161759044625796,114.13482013250177 40.662632936553564,114.05499509730726 40.146295583457686,114.03503883343365 39.6643807204091,114.19468888737902 39.2340995928389,114.4142074980482 38.838240955374204,114.75346304614504 38.5628610336571,115.21245490628644 38.32190360222012,115.71135787566891 38.04652368056122,116.19030352434493 37.71951002354035,116.62933600143879 37.32365138607565,117.00849961731001 36.87615901330719,117.30783879294177 36.394244150375016,117.52735389603185 35.87790679716272,117.68700108844496 35.39599193423055,117.72691286611371 34.89686582615832,117.7069569783198 34.41495096322615,117.62713340659684 33.898613609955646,117.5073979878216 33.39948750194162,117.38766249539913 32.90036139381118,117.32779472159746 32.384024040657096,117.42757433436054 31.867686687561218,117.54730980220484 31.368560579430778,117.64708930259803 30.90385696152225,117.88655989496328 30.507998324057553,118.20585356029915 30.215407157258596,118.5850141083356 30.008872216043528,119.02404118952109 29.819548519852106,119.48302298942872 29.613013578637037,119.96195936705044 29.268788676476106,120.38102773181163 28.75245132332202,120.52071698644431 28.25332521519158,120.66040614093072 27.736987862095702,120.7801396222203 27.23786175402347,120.80009519525629 26.73873564589303,120.82005076625501 26.27403202804271,120.7601840471325 25.740483429806773,120.7601840471325 25.22414607659448,120.7601840471325 24.725019968522247,120.7601840471325 24.225893860508222,120.7601840471325 23.761190242657904,120.74022846994922 23.279275379667524,120.70031730952905 22.780149271595292,120.66040614093072 22.367079388990533,120.48080578104418 22.005643241864163,120.16151584364707 21.764685810310766,119.74244700679264 21.78189705539262,119.32337726863625 21.713052075007,118.84443932128488 21.661418339703232,118.38545601716032 21.661418339703232,117.94642749711056 21.747474565228913,117.52735389603185 21.747474565228913,117.04841153400776 21.713052075007,116.58942399894295 21.40324966312619,116.19030352434493 20.972968535497785,115.93087477741938 20.456631182227284,115.73131396784447 19.95750507415505,115.6315334863757 19.406745230895467,115.61157738399925 18.873196632543113,115.61157738399925 18.33964803419076,115.69140178138332 17.80609943595482,115.85105047814432 17.375818308326416,116.09052327796235 17.031593406223692,116.36990783907822 16.704579749144614,116.62933600143879 16.94553718069801,117.02845557668479 17.203705857275054,117.46748616517289 17.375818308326416,117.94642749711056 17.32418457302265,118.48523508825747 17.048804651363753,118.92426239432825 16.635734768758994,119.10386418888811 16.37756609218195,119.46306728149648 16.394777337263804,119.94200370815815 16.5152560530114,120.4009833457385 16.5152560530114,120.87991746708576 16.5152560530114,121.37880592497822 16.5152560530114,121.87769310559088 16.5152560530114,122.37657900893828 16.5152560530114,122.89541899338656 16.498044807929546,123.39430229111167 16.498044807929546,123.87322905519977 16.5152560530114,124.39206505470793 16.5152560530114,124.87098936653638 16.498044807929546,125.36986760635045 16.5152560530114,125.84878951501742 16.532467298093252,126.34766525162559 16.5152560530114,126.84653971104126 16.5152560530114,127.36536779401649 16.5152560530114,127.86423964804271 16.5152560530114,128.343155426468 16.5152560530114,128.84202477740473 16.54967854329152,129.34089285125083 16.54967854329152,129.85971429335768 16.566889788373373,130.35857976207626 16.652946013899054,130.83748941059457 16.842269710090477,131.29644338603248 17.152072122029494,131.67557846354612 17.49629702407401,132.0148039603664 17.97821188706439,132.27421129480354 18.39128176961094,132.4737551632279 18.75271791679552,132.6932531825587 19.16578779934207,132.8927966218762 19.63049141719239,132.95265961394762 20.146828770346474,132.8927966218762 20.645954878418706,132.7930249277124 21.127869741409086,132.73316188673198 21.558150869095698,132.63339011088829 22.074488222249784,132.5336182838946 22.65967055578949,132.43384640591103 23.15879666391993,132.37398325453978 23.675134017074015,132.29416569086607 24.225893860508222,132.29416569086607 24.742231213662308,132.33407447677746 25.22414607659448,132.35402886664087 25.72327218472492,132.37398325453978 26.20518704765709,132.39393764038687 26.704313155729324,132.41389202415303 27.203439263859764,132.553572653429 27.6165091462899,132.85288795040105 27.891889068007004,133.25197429789114 28.1328464995604,133.6909683363774 28.373803930997383,134.11000717784918 28.64918385265628,134.52904511831002 29.045042490120977,134.86826564832882 29.492534862889443,135.08776097081136 29.95723848073976,135.1875314902136 30.43915334373014,135.28730195849494 30.921068206662312,135.38707237572817 31.402983069594484,135.5067968090152 31.867686687561218,135.70633736775198 32.33239030535333,135.94578576847562 32.762671432923526,136.22514186418266 33.175741315528285,136.52445152244763 33.57159995299298,136.80380678871006 33.96745859045768,137.063207748899 34.41495096322615,137.28270059937495 34.89686582615832,137.46228547500505 35.36156944400864,137.60196248607826 35.826273061858956,137.68177787605964 36.30818792479113,137.70173171848 36.7901027877233,137.70173171848 37.27201765065547,137.68177787605964 37.78835500392597,137.661824031602 38.287481111998204,137.64187018515076 38.76939597498858,137.6219163366186 39.268522083060816,137.60196248607826 39.75043694599299,137.60196248607826 40.23235180892516,137.58200863350066 40.74868916213745,137.68177787605964 41.19618153490592,137.92122384981485 41.62646266259253,138.2205309033743 42.00511005485896,138.49988373862288 42.41817993740551,138.79918990354054 42.88288355525583,138.998727091428 43.313164682884235,139.13840300143056 43.795079545874614,139.11844930615916 44.276994408864994,138.998727091428 44.74169802671531,138.8590510813665 45.223612889589276,138.75928244144598 45.73995024285978,138.63956000610779 46.23907635093201,138.51983749726787 46.669357478560414,138.4200686836848 47.11684985132888,138.2803922588937 47.615975959342904,138.200577114083 48.115102067473345,138.06090053198568 48.57980568532366,137.92122384981485 49.061720548255835,137.7615932332992 49.5092129210243,137.5620547788276 49.939494048652705,137.30265448264254 50.352563931257464,137.0432538411551 50.80005630402593,136.80380678871006 51.26475992181804,136.68408315218403 51.608984823920764,136.9634381897049 51.72946353972657,137.44233160813747 51.81551976519404,137.94117766765703 51.90157599077793,138.4200686836848 52.00484346138546,138.87900480318058 52.19416715751868,139.33793984209478 52.176955912436824,139.79687380032556 52.07368844182929,140.25580667794566 51.935998480941635,140.69478494103532 51.81551976519404,141.1936226762773 51.72946353972657,141.69245913482155 51.72946353972657,142.21124769748712 51.74667478486663,142.74998820484325 51.79830852005398,143.24882068026636 51.78109727503033,143.74765187904995 51.59177357883891,144.20657545451832 51.368027392425574,144.62559168841108 51.213126186456066,145.08451319676533 51.12706996098859,145.56338666225201 51.19591494149063,146.02230596271693 51.35081614734372,146.46127123912447 51.626196069060825,146.84037681871268 52.07368844182929,147.0 52.55560330476146,146.98004710950772 53.08915190305561,146.92018842566176 53.639911746489815,146.8204239118204 54.19067158980761,146.76056517894904 54.72422018815996,146.7206593468727 55.223346296173986,146.6208947308769 55.72247240418801,146.50117712427163 56.2043872672366,146.34155353455571 56.61745714972494,146.10211790469475 56.99610454210779,145.78286994076916 57.288695708906744,145.42371535638813 57.460808159958106,144.96479464654112 57.5812868757057,144.5258260000992 57.873878042562865,144.16666909953346 58.37300415057689,144.06690317641187 58.82049652328715,144.36620079267595 59.23356640589191,144.66549794941966 59.69827002368402,144.86502913196455 60.1801848866744,144.9847477433941 60.644888504524715,144.96479464654112 61.109592122375034,144.92488844686886 61.57429574022535,144.7453104469314 61.95294313254999,144.4659665626823 62.26274554448901,144.12676273639954 62.486491730902344,143.7276986555953 62.658604181953706,143.24882068026636 62.813505387923215,142.76994152840052 62.95119534875266,142.33096793893492 63.07167406444205,141.89199336076854 63.20936402538791,141.453017794076 63.32984274101909,140.97413423005491 63.4847439469886,140.51520304381847 63.58801141765434,139.99640996682865 63.62243390787626,139.4776155090076 63.62243390787626,138.95881967019523 63.605222662794404,138.44002245050797 63.57080017251428,137.96113148352015 63.57080017251428,137.48223933983536 63.51916643726872,136.9833921055979 63.39868772152113,136.48454359454627 63.26099776069168,136.0056478226761 63.08888530958211,135.46688867274497 62.933984103554394,135.04785274872847 62.7790828977013,134.60886176672648 62.67581542709377,134.20977819776454 62.53812546620611,133.73087683622725 62.331590524932835,133.19211139786057 62.19390056410339,132.59348138621135 62.19390056410339,132.07466722199752 62.29716803471092,131.61571507934423 62.46928048582049,131.13680734322406 62.658604181953706,130.6379438667209 62.83071663300507,130.17898834044172 62.96840659389272,129.70007707370678 63.037251574220136,129.20120991929434 63.037251574220136,128.7222962496744 63.0544628193602,128.24338140297914 63.037251574220136,127.76446537941229 63.037251574220136,127.32545799048967 63.037251574220136,126.90640456027177 63.02004032913828,126.4673952384037 62.98561783891637,125.96851980828797 62.882350368308835,125.50955328464624 62.53812546620611,125.09049594937824 62.1078443385195,124.79116872960003 61.677563210891094,124.51179624297947 61.26449332834454,124.21246813428297 60.97190216160379,123.87322905519977 60.67931099480484,123.49407879731734 60.43835356325144,123.11492780174012 60.12855115137063,122.75573144119699 59.80153749434976,122.31671276794805 59.612213798158336,121.83778217819054 59.52615757269086,121.29898385758861 59.57779130799463,120.74022846994922 59.749903758987784,120.20142711442895 59.99086119054118,119.70253564199083 60.249029867118225,119.22359862666053 60.38671982800588,118.64488149585668 60.30066360242199,118.06616264610784 60.04249492578674,117.5672657063842 59.66384753352031,117.16814723490097 59.216355160751846,116.78898392965493 58.78607403312344,116.42977590725059 58.355792905495036,116.07056722251582 57.94272302289028,115.71135787566891 57.52965314040193,115.35214786647703 57.11658325785538,115.01289336082118 56.68630213022698,114.73350685375044 56.2043872672366,114.63372586134938 55.688049914024305,114.673638264474 55.24055754125584,114.4142074980482 54.94796637445688,114.05499509730726 54.896332639153115,113.57604419950803 55.068445090262685,113.23678660123551" stroke="#4dd2ff" stroke-linecap="round" stroke-linejoin="round" stroke-width="0.5"><title>2024-10-18 10.2km</title><desc>9223370307603209807</desc></polyline><polyline fill="none" points="175.8024002694874,93.0 176.09455992648145,93.55801022250671 176.36953372118296,94.05623228251352 176.55857820512028,94.57438187107618 176.661693378177,95.11245882885123 176.8163661377621,95.63060560340818 176.93666717293672,96.18860827844765 176.71325096470537,96.66689501139626 176.59294992953073,97.16510910762008 176.55857820512028,97.66332192756818 176.7476226890576,98.18146190654079 176.83355199999642,98.73945726329111 176.9194813108188,99.25759437553643 177.05696820816956,99.77573010747437 177.09133993258,100.29386445913406 177.0054106216412,100.83192559420422 177.12571165693225,101.33012902179325 177.40068545169197,101.74861891480396 177.7615885573905,102.12725185172167 177.89907545474125,102.62545196156134 178.05374821432633,103.10372286653728 178.17404924955918,103.62184835319931 178.00219062779797,104.12004463501216 177.86470373044722,104.59831186504744 177.89907545474125,105.03672245962662 178.17404924955918,105.55484279744269 178.31153614702635,106.05303412857756 178.29435028479202,106.57115175940271 178.20842097396962,107.08926801022608 178.0365623521502,107.56752794000204 177.74440269515617,107.94614955046563 177.55535821127705,108.4044799876865 177.17726924346061,108.82295466118376 176.7476226890576,109.18164652201813 176.33516199688893,109.58019225829048 176.12893165077548,110.09830049480661 175.87114371813368,110.55662586138351 175.73365682072472,111.03487726663298 175.49305475031724,111.41349212861678 175.01185060944408,111.47327335525188 174.89154957421124,111.93159548251424 174.71969095250824,112.40984350749932 174.27285853592912,112.68882097913593 174.10099991416791,113.18699404060317 174.30723026033957,113.64531213052396 174.32441612245748,114.14348274267104 174.44471715774853,114.64165207918268 174.37597370898584,115.08004004010581 174.54783233068883,115.55828032534919 174.3416019846336,115.93688638412277 173.89476956811268,116.19593221036484 173.41356542729773,116.35534485502285 172.91517542419024,116.41512456312194 172.39959955890663,116.35534485502285 171.90120955585735,116.29556512858835 171.40281955280807,116.21585879808117 170.9044295497588,116.15607902876218 170.3888536845334,116.07637264110963 169.873277819308,116.01659282896435 169.3748878162005,115.95681299838179 168.8593119509751,115.91695976787014 168.36092194792582,115.83725328215223 167.87971780699445,115.73762012929365 167.38132780400338,115.67784021298576 166.8829378008959,115.63798692525597 166.40173366008094,115.5782069783454 165.90334365697345,115.51842701318674 165.40495365386596,115.43872036422545 164.88937778864056,115.39886702755757 164.4081736477092,115.33908700721804 163.94415536907036,115.21952691141632 163.4801370903151,115.06011333600327 163.01611881167628,114.90069962998678 162.55210053286282,114.70143231379916 162.07089639204787,114.46231126498606 161.60687811340904,114.24311671202304 161.14285983459558,114.04384872230003 160.69602741807466,113.92428783046489 160.19763741496718,113.96414146918687 159.71643327409402,114.10362914057623 159.30397258198354,114.32282385077269 158.94306947628502,114.62172533017292 158.61653809499694,115.04018662986346 158.37593602453126,115.5383536702866 158.1525198162417,115.99666622078803 157.82598843495362,116.43505112841376 157.4650853292551,116.83358200540533 157.0526246370864,117.13247962736932 156.6057922206237,117.3516709250689 156.12458807969233,117.53100907579937 155.6777556631714,117.61071486752189 155.19655152224004,117.6306413103157 154.69816151919076,117.53100907579937 154.19977151614148,117.45130325142236 153.7185673752101,117.3516709250689 153.22017737221904,117.23211206603446 152.72178736911155,117.25203854760912 152.2405832282384,117.31181798016769 151.75937908742344,117.41145032698114 151.26098908431595,117.59078842263261 150.7969708055607,117.86975846500718 150.41888183774427,118.22843364605797 150.1095363185741,118.6668135249347 149.92049183463678,119.1649712792132 149.73144735075766,119.70298022116185 149.45647355599795,120.18120914282918 148.9924552772427,120.38047084664868 148.4768794120173,120.46017547101656 147.94411768461578,120.57973234631936 147.42854181939038,120.63951075647492 146.91296595410677,120.63951075647492 146.39739008888137,120.61958462181792 145.86462836147984,120.63951075647492 145.34905249625444,120.63951075647492 144.83347663102904,120.6594368891092 144.35227249015588,120.6594368891092 143.8538824871066,120.61958462181792 143.35549248399911,120.57973234631936 142.89147420536028,120.53988006274449 142.42745592660503,120.38047084664868 142.0665528209065,120.0217996329011 141.7915790261468,119.62327528663445 141.77439316391246,119.14504499352188 141.7056497152662,118.6668135249347 141.6197204043856,118.1885808808147 141.65409212873783,117.75019992442685 141.7056497152662,117.33174445362238 141.7056497152662,116.85350852779811 141.56816281785723,116.37527142644103 141.2072597122169,115.99666622078803 140.74324143351987,115.7575467639399 140.22766556823626,115.63798692525597 139.71208970301086,115.5782069783454 139.19651383778546,115.5383536702866 138.69812383467797,115.5383536702866 138.2169196938048,115.63798692525597 137.7013438285794,115.83725328215223 137.30606899858685,116.15607902876218 136.89360830641817,116.37527142644103 136.85923658206593,116.77380242585787 137.06546692823758,117.23211206603446 137.28888313641073,117.67049418986426 137.3404407229391,118.1885808808147 137.23732554988237,118.6468871882098 136.8420507198898,119.06533983038389 136.42959002766293,119.28452895043301 136.412404165545,119.80261134344619 136.51551933860173,120.24098767542455 136.51551933860173,120.67936301967711 136.51551933860173,121.13766345984186 136.53270520071965,121.61588885520177 136.53270520071965,122.11403905878251 136.51551933860173,122.63211391754157 136.53270520071965,123.15018739686639 136.51551933860173,123.64833367218671 136.53270520071965,124.10662711921032 136.54989106289577,124.58484521729406 136.53270520071965,125.02321077480156 136.53270520071965,125.50142662020517 136.53270520071965,125.95971570255642 136.53270520071965,126.45785478509788 136.51551933860173,126.93606710465974 136.51551933860173,127.43420368774969 136.4983334763674,127.95226438142709 136.4811476141913,128.43047302831837 136.51551933860173,128.90868049992423 136.51551933860173,129.38688679639017 136.51551933860173,129.8650919176289 136.51551933860173,130.34329586368403 136.5670769251301,130.80157354263065 136.72174968465697,131.25985014224716 137.0139093415928,131.6185006413143 137.3404407229391,131.93730053000036 137.73571555298986,132.21625000418862 138.16536210727645,132.45534923524247 138.5434510750929,132.65459837000526 138.8871683186735,132.8936970624345 139.29962901084218,133.03317116409016 139.72927556518698,133.0132462984766 140.1761079817079,132.93354681594064 140.6057545360527,132.87377218260372 141.08695867698407,132.7940726429806 141.48223350691842,132.71437307068845 141.91188006137963,132.61474855935376 142.46182765089907,132.53504891357443 142.97740351618268,132.47527415787044 143.47579351929016,132.4154993837874 143.99136938445736,132.37564952421235 144.48975938750664,132.39557445497485 144.9709635283798,132.4154993837874 145.45216766931117,132.43542431056267 145.93337181018433,132.45534923524247 146.39739008888137,132.47527415787044 146.8614083675784,132.53504891357443 147.2738690598053,132.7542228608654 147.6175863032695,133.0929457484308 147.85818837367697,133.55121695194975 148.150348030671,134.00948707629868 148.4768794120173,134.42790668207454 148.83778251765762,134.78655134241853 149.26742907206062,135.02564741544484 149.73144735075766,135.18504463430145 150.1954656294547,135.28466782976466 150.69385563250398,135.36436634942947 151.17505977343535,135.5038386802771 151.6390780521324,135.72300928395998 152.10309633082943,135.9222550731065 152.498371160822,136.16134975083696 152.89364599087276,136.46021768485662 153.28892082086531,136.73916067586106 153.66700978873996,137.01810326709528 154.07947048085043,137.23727216542466 154.52630289742956,137.41659198954585 154.97313531395048,137.55606284963142 155.43715359270573,137.69553360975988 155.90117187140277,137.73538238000765 156.39956187445205,137.75530676204653 156.89795187755954,137.73538238000765 157.3963418805506,137.71545799594605 157.87754602148198,137.71545799594605 158.35875016235514,137.73538238000765 158.8399543032283,137.69553360975988 159.33834430633578,137.65568483133393 159.80236258503282,137.65568483133393 160.3007525880821,137.65568483133393 160.78195672889706,137.77523114210635 161.21160328335827,138.01432354329154 161.57250638894038,138.25341565078998 161.9334094946389,138.51243176909338 162.29431260027923,138.75152326455282 162.68958743033,138.93084169349459 163.17079157120315,139.03046297148103 163.6348098499002,139.03046297148103 164.13319985300768,138.93084169349459 164.61440399393905,138.83122036446002 165.04405054822564,138.69175041823473 165.49088296474656,138.59212896689132 165.92052951914957,138.4725831578835 166.3845477978466,138.39288591117656 166.7970084900153,138.25341565078998 167.26102676871233,138.15379397502693 167.7422309096437,138.034247896765 168.2578067748691,137.91470174516144 168.70463919139002,137.75530676204653 169.15147160796914,137.6158360447589 169.5639323000796,137.3568187331548 169.99357885448262,137.0978010768158 170.3888536845334,136.85870754963253 170.8356861009961,136.6395382249757 171.3340761041036,136.65946271926805 171.64342162327375,137.01810326709528 171.74653679627227,137.43651640428288 171.849651969329,137.87485301162815 171.9355812802678,138.33311295464227 172.00432472891407,138.75152326455282 172.17618335067527,139.16993267502403 172.2105550749693,139.62818956852425 172.14181162632303,140.0665212396416 172.0215105910902,140.504851923557 171.8668378315051,140.94318162016862 171.7637226585066,141.42135834519286 171.74653679627227,141.89953389541188 171.7809085206245,142.43747998506296 171.81528024497675,142.97542458788666 171.83246610715287,143.49344391125487 171.64342162327375,143.9317668772419 171.42000541492598,144.35016515117604 171.2653326553991,144.84825716172054 171.16221748234238,145.3662715004757 171.2481467932812,145.90420800853462 171.42000541492598,146.4222195369657 171.71216507192003,146.8206890053698 172.17618335067527,146.98007656431582 172.65738749154843,147.0 173.15577749459771,146.94022968683566 173.63698163547087,146.86053590732627 174.13537163857836,146.760918637141 174.65094750374556,146.66130131593673 175.13215164467692,146.581607422253 175.57898406113964,146.50191349591478 176.00863061554264,146.36244904636987 176.45546303212177,146.14329042372992 176.85073786211433,145.84443735882815 177.17726924346061,145.4858130752109 177.40068545169197,145.04749360900314 177.48661476257257,144.5892494753498 177.71003097086214,144.2106991597975 178.15686338738305,144.0513093330228 178.67243925260846,144.25054659605667 179.06771408260101,144.52947842179856 179.4973606369458,144.74863886157982 179.96137891570106,144.88810446750722 180.37383960786974,144.9478754108568 180.78630030003842,144.92795176511572 181.21594685438322,144.8681808156398 181.59403582231607,144.68886785698123 181.95493892789818,144.4099362597044 182.26428444706835,144.01146185587277 182.4877006552997,143.5731390693545 182.65955927711911,143.15473912504967 182.79704617446987,142.65664278052282 182.95171893405495,142.15854516117543 183.10639169369824,141.68037024741352 183.243878591049,141.22211818587675 183.38136548839975,140.78378911747131 183.5016665236326,140.3653831766569 183.5875958345132,139.8872038571426 183.60478169668932,139.40902336273575 183.55322411016095,138.95076595315186 183.5016665236326,138.4725831578835 183.48448066145647,137.99439918776625 183.45010893716244,137.4962896360812 183.4329230749281,137.01810326709528 183.34699376410572,136.53991572308587 183.243878591049,136.08165155749884 183.10639169369824,135.58353711020027 182.96890479623107,135.16511998906208 182.8142320367042,134.7467019683536 182.69393100141315,134.34820777887944 182.5736299662385,133.98956231068587 182.43614306882955,133.6309161815152 182.26428444706835,133.15272031442146 182.14398341189371,132.6346734656836 182.17835513618775,132.13655019525322 182.24709858489223,131.65835065596912 182.41895720671164,131.18014994155965 182.5736299662385,130.72187315423798 182.71111686364748,130.28352043469204 182.86578962317435,129.8650919176289 182.9860906584072,129.4068120332522 183.02046238275943,128.9286057857098 182.9860906584072,128.45039836307114 182.9860906584072,127.9921151468443 182.95171893405495,127.53383085138921 182.93453307187883,127.05562000084319 182.9173472097027,126.55748244863935 182.88297548535047,126.07926919865713 182.8314178988221,125.62098039792909 182.62518755276687,125.1826161871868 182.26428444706835,124.86380523179832 181.83463789278176,124.64462239695422 181.42217720049666,124.40551356822834 181.0956458192668,124.1265528967051 180.78630030003842,123.7878144007409 180.49414064310258,123.42914946819656 180.18479512393242,123.0306321009848 179.9098213291727,122.63211391754157 179.63484753435478,122.25352088725776 179.44580305047566,121.79522307541629 179.37705960177118,121.31699812087754 179.41143132612342,120.83877199086419 179.5661040857085,120.3206923569378 179.77233443182195,119.86238999235502 180.01293650222942,119.38416028700885 180.20198098616675,118.92585571635573 180.236352710519,118.38784462540934 180.0816799509339,117.8896848813456 179.8238920183503,117.43137679019128 179.44580305047566,117.0727001397754 179.0505282204249,116.73394936266413 178.63806752825622,116.41512456312194 178.29435028479202,116.11622583902499 177.9334471790935,115.8173266556696 177.55535821127705,115.51842701318674 177.21164096775465,115.21952691141632 176.83355199999642,114.94055306876544 176.42109130771132,114.70143231379916 176.00863061554264,114.64165207918268 175.630541647668,114.70143231379916" stroke="#4dd2ff" stroke-linecap="round" stroke-linejoin="round" stroke-width="0.5"><title>2024-10-15 10.1km</title><desc>9223370307861806807</desc></polyline><polyline fill="none" points="58.54696132603567,157.5031408705836 58.666298342635855,158.10280874741147 58.90497237571981,158.63328284519957 59.243093922617845,159.14069168185233 59.461878453032114,159.69422729007783 59.6011049724184,160.29388932949223 59.780110497260466,160.87048593770305 59.939226519316435,161.42401729202538 59.740331491688266,161.93141983759415 59.5812154696323,162.39269388656248 59.5414364640601,162.9692851184518 59.56132596696261,163.47668418080139 59.72044198901858,164.03020912619832 59.819889502832666,164.56066925491905 59.91933701664675,165.09112813365937 60.05856353591662,165.5985224130709 60.1580110497307,166.12897884605627 60.09834254148882,166.68249726944487 60.07845303870272,167.1898879618966 60.1977900553029,167.6280880941922 60.35690607747529,167.72034064486797 60.59558011055924,168.020161173612 60.89392265188508,168.38917050698365 61.07292817684356,168.89655735265114 61.23204419889953,169.4270060139679 61.371270718285814,169.98051632802526 61.291712707141414,170.5109624351462 61.03314917138778,170.94915610275348 61.01325966848526,171.47959992747928 61.23204419889953,171.98697980772704 61.4508287293138,172.49435854444164 61.5502762432443,173.07092390258913 61.4707182320999,173.6244252572069 61.391160221071914,174.22405018909194 61.152486187871546,174.7083614681178 60.87403314933181,175.14654696563957 60.675138121587224,175.63085626019165 60.29723756911699,176.06903996219626 59.85966850828845,176.39191161796043 59.461878453032114,176.73784502105264 59.10386740334798,177.19908873162058 58.92486187850591,177.77564204095688 58.606629834277555,178.2599456797907 58.586740331491455,178.83649627245904 58.129281767993234,179.09017806543852 57.63204419892281,179.2746737353882 57.55248618789483,179.8050979442778 57.35359116026666,180.33552090350713 56.856353591079824,180.58920100750402 56.65745856356807,181.14268387864286 56.776795580168255,181.69616538916307 56.93591160222422,182.29576882338733 57.01546961325221,182.84924749931088 56.95580110501032,183.35660175689554 57.17458563542459,183.91007782510133 57.01546961325221,184.3482454141049 56.558011049753986,184.67110519720882 56.04088397801388,184.9017190445884 55.503867403254844,184.9709031527309 54.98674033151474,184.92478041631693 54.46961325965822,184.83253491517098 53.93259668513201,184.76335076452233 53.39558011048939,184.69416659261333 52.878453038749285,184.62498239938577 52.341436464106664,184.55579818497063 51.80441988958046,184.48661394930969 51.30718232039362,184.3943682685931 50.7900552485371,184.3482454141049 50.272928176796995,184.2790611145756 49.73591160227079,184.20987679393147 49.21878453041427,184.14069245191058 48.70165745855775,184.04844662948744 48.18453038681764,183.97926223785907 47.64751381217502,183.91007782510133 47.090607734862715,183.86395487139816 46.553591160220094,183.79477042304643 46.03646408836357,183.72558595355076 45.51933701662347,183.65640146270744 45.002209944766946,183.5410939308058 44.50497237581294,183.37966328691982 44.007734806626104,183.21823252733157 43.5104972376721,182.987616955681 43.03314917127136,182.73393955396023 42.59558011055924,182.52638510371617 42.1580110497307,182.29576882338733 41.72044198890217,182.11127562903857 41.22320441994816,182.01902897523541 40.70607734809164,182.01902897523541 40.20883977902122,182.11127562903857 39.6917127071647,182.29576882338733 39.274033149238676,182.57250833137368 38.89613259665202,182.91843223808974 38.65745856356807,183.37966328691982 38.4187845303677,183.88701634939935 38.16022099449765,184.3943682685931 37.8618784530554,184.83253491517098 37.50386740337126,185.22457803405996 37.06629834254272,185.57049786623975 36.6088397790445,185.8472333492682 36.13149171276018,186.03172348240332 35.59447513811756,186.21621346428583 35.07734806637745,186.28539716852538 34.54033149173483,186.28539716852538 34.00331491720863,186.17009098302515 33.50607734802179,186.07784599201113 33.028729281853884,185.9625397001655 32.53149171266705,185.80111079239578 31.974585635354742,185.8472333492682 31.47734806628432,185.91641716688173 30.9602209944278,186.03172348240332 30.462983425473794,186.14702973880048 29.965745856403373,186.40070329509035 29.528176795574836,186.70049894761178 29.1502762431046,187.02335535788734 28.871823204448447,187.48457799796597 28.672928176820278,187.99192181094259 28.47403314919211,188.47620347516204 28.23535911599174,189.00660600747506 27.917127071879804,189.39864185884653 27.400000000023283,189.5600681874348 26.862983425497077,189.67537263702252 26.325966850854456,189.76761615416035 25.76906077354215,189.85985963357962 25.23204419889953,189.85985963357962 24.675138121587224,189.8367987672682 24.138121546944603,189.85985963357962 23.601104972418398,189.8367987672682 23.044198895106092,189.8367987672682 22.467403315007687,189.8367987672682 21.910497237578966,189.8367987672682 21.39337016583886,189.79067702755856 20.836464088526554,189.79067702755856 20.299447513767518,189.74455527841928 19.841988950269297,189.49088548937289 19.424309392343275,189.12191074047587 19.185635359142907,188.68375244093477 19.205524861929007,188.13028810701508 19.125966850901023,187.59988351042557 19.106077347998507,187.06947766436497 19.125966850901023,186.5160093625309 19.165745856356807,185.9625397001655 19.22541436459869,185.47825262954575 19.205524861929007,184.94784178571717 18.966850828845054,184.50967536351527 18.5491712706862,184.18681534893403 18.051933701732196,184.00232370414597 17.495027624303475,183.86395487139816 16.91823204420507,183.79477042304643 16.361325966892764,183.7717089355865 15.804419889580458,183.7717089355865 15.247513812268153,183.88701634939935 14.730386740295216,184.11763099982636 14.233149171224795,184.3713068425859 13.795580110512674,184.69416659261333 13.417679558042437,185.04008723958395 13.636464088456705,185.47825262954575 13.895027624326758,185.91641716688173 14.113812154624611,186.42376451325254 14.133701657527126,186.9772330419073 13.934806629898958,187.50763910518435 13.57679558021482,187.87661649935762 13.079558011027984,188.01498286621063 13.0,188.49926448083716 13.0,188.96048409779905 13.0397790055722,188.8451792820706 13.0596685083583,188.29171534490888 13.318232044228353,187.99192181094259 13.755801104940474,187.73825004739047 13.994475138257258,187.41539466223912 14.074033149168827,186.93111071649764 14.074033149168827,186.30845839859103 13.895027624326758,185.87029462422652 13.616574585670605,185.45519131451147 13.437569060712121,184.9709031527309 13.795580110512674,184.67110519720882 14.17348066298291,184.32518398332468 14.630939226481132,184.071508088673 15.148066298337653,183.91007782510133 15.665193370194174,183.7717089355865 16.22209944750648,183.72558595355076 16.779005524818785,183.74864744578372 17.296132596675307,183.8178319081635 17.833149171317928,183.93313929840224 18.31049723760225,184.11763099982636 18.76795580110047,184.3713068425859 19.106077347998507,184.76335076452233 19.22541436459869,185.31682337456732 19.245303867501207,185.8933558967401 19.185635359142907,186.46988694260654 19.165745856356807,187.02335535788734 19.165745856356807,187.59988351042557 19.245303867501207,188.1533491481241 19.245303867501207,188.7298744073778 19.44419889501296,189.0988497986691 19.90165745851118,189.42170276997786 20.339226519339718,189.69843351987947 20.85635359119624,189.76761615416035 21.35359116026666,189.79067702755856 21.87071823212318,189.8137378986139 22.348066298407502,189.8367987672682 22.865193370147608,189.8367987672682 23.38232044200413,189.8137378986139 23.89944751386065,189.79067702755856 24.476243093959056,189.79067702755856 25.033149171387777,189.8137378986139 25.590055248700082,189.8137378986139 26.146961326012388,189.76761615416035 26.66408839786891,189.67537263702252 27.18121546972543,189.5600681874348 27.738121547037736,189.46782458525558 28.116022099391557,189.12191074047587 28.374585635378025,188.68375244093477 28.573480663006194,188.22253225714667 28.732596685178578,187.76131112860458 28.91160220990423,187.3231501814007 29.1900552486768,186.9772330419073 29.528176795574836,186.60825417400338 29.965745856403373,186.33151962628472 30.443093922687694,186.12396849220386 30.940331491758116,185.9856009632349 31.45745856349822,185.87029462422652 31.954696132568642,185.77804951035068 32.49171270721126,185.77804951035068 32.98895027616527,185.91641716688173 33.525966850924306,186.05478473838593 34.08287292823661,186.19315222484875 34.65966850833502,186.26233593616053 35.19668508286122,186.23927470143826 35.75359116028994,186.10090724330803 36.29060773481615,185.93947843475325 36.78784530388657,185.68580435882905 37.20552486192901,185.3629460306547 37.603314917185344,185.04008723958395 37.8817679558415,184.62498239938577 38.18011049728375,184.18681534893403 38.4187845303677,183.72558595355076 38.65745856356807,183.24129407151486 38.97569060779642,182.82618591497885 39.33370165748056,182.48026186652714 39.7911602210952,182.2265838932508 40.2883977900492,182.01902897523541 40.825414364691824,181.97290563411661 41.342541436548345,182.04209064223687 41.819889502832666,182.1804605946527 42.31712707190309,182.38801536386018 42.77458563540131,182.61863154970342 43.25193370168563,182.87230908122729 43.769060773425736,183.07986321271164 44.26629834261257,183.31047868986207 44.76353591168299,183.4949709014909 45.260773480753414,183.58721695064742 45.77790055249352,183.6333399610594 46.27513812156394,183.70252445897495 46.81215469620656,183.7717089355865 47.34917127073277,183.84089339095226 47.84640883980319,183.91007782510133 48.36353591165971,184.00232370414597 48.90055248630233,184.071508088673 49.41767955804244,184.11763099982636 49.91491712711286,184.20987679393147 50.471823204425164,184.25599967672315 50.988950276281685,184.3713068425859 51.525966850924306,184.41742969230108 52.04309392266441,184.50967536351527 52.56022099452093,184.57885959210398 53.07734806637745,184.6480437995051 53.57458563533146,184.74028937619005 54.07182320440188,184.8094735339837 54.56906077358872,184.83253491517098 55.08618784532882,184.8555962940154 55.62320441985503,184.83253491517098 56.100552486255765,184.71722798560222 56.558011049753986,184.57885959210398 56.91602209955454,184.2790611145756 57.274033149238676,183.88701634939935 57.61215469613671,183.47190938332642 57.930386740365066,183.14904788065178 58.42762430943549,182.87230908122729 58.96464088407811,182.78006273922801 59.461878453032114,182.89537066088815 59.89944751386065,183.17210943186365 60.29723756911699,183.4949709014909 60.695027624373324,183.8178319081635 61.09281767962966,184.1637539016374 61.51049723755568,184.50967536351527 61.92817679559812,184.8555962940154 62.30607734806836,185.17845534962544 62.66408839786891,185.47825262954575 63.022099447553046,185.80111079239578 63.36022099445108,186.14702973880048 63.59889502765145,186.60825417400338 63.71823204413522,187.0925388141768 63.738121547037736,187.59988351042557 63.53922651940957,188.08416601776844 63.3204419889953,188.5453864849842 62.88287292816676,189.49088548937289 62.78342541446909,189.9521030751348 62.74364640889689,190.436380523548 62.80331491713878,190.94371768571727 62.96243093931116,191.42799300144543 63.260773480637,191.86614596113213 63.61878453043755,192.2581768339296 63.917127071879804,192.6963281782082 64.21546961332206,193.11141813901486 64.53370165755041,193.52650733474002 64.89171270723455,193.87241441324295 65.28950276249088,194.1491396935744 65.727071823203,194.40280423505465 66.18453038681764,194.6795288635767 66.58232044207398,195.04849450594338 66.76132596691605,195.5558212770702 66.80110497237183,196.1092673601961 66.82099447515793,196.66271208315447 66.86077348073013,197.2392155565467 66.90055248618592,197.81571755414188 66.94033149175812,198.3691580832674 66.98011049733032,198.89953731412243 67.0,199.4299152957392 66.92044198897202,199.96029202837963 66.78121546958573,200.46760773415735 66.60220994474366,200.92880283867999 66.42320442001801,201.41305668193672 66.24419889505953,201.9203691151779 66.04530386743136,202.3815612446342 66.10497237567324,202.26626330080035 66.24419889505953,201.73589199893468 66.4430939226877,201.2285791501199 66.64198895031586,200.72126515857235 66.78121546958573,200.21395002411737 66.88066298339982,199.68357388896402 66.90055248618592,199.1531965046306 66.88066298339982,198.62281787126267 66.86077348073013,198.09243798872922 66.80110497237183,197.63123707547493 66.80110497237183,197.12391497998033 66.76132596691605,196.61659174159286 66.74143646412995,196.086207133907 66.72154696134385,195.5788815576525 66.56243093917146,195.09461516872398 66.16464088403154,194.74870996759273 65.68729281774722,194.4719854240975 65.229834254249,194.21832096048456 64.83204419899266,193.9185353169305 64.47403314919211,193.54956782315276 64.17569060774986,193.1344786700065 63.837569060735404,192.7424493228027 63.51933701662347,192.32735868179589 63.240883977967314,191.9353279293864 62.982320441980846,191.52023580067907 62.82320441992488,191.01289993744285 62.74364640889689,190.5055629311246 62.76353591168299,189.99822478176793 62.88287292816676,189.44476367875177 63.061878453125246,188.96048409779905 63.3403314917814,188.47620347516204 63.55911602207925,187.99192181094259 63.71823204413522,187.46151688840473 63.678453038679436,186.93111071649764 63.53922651940957,186.44682572915917 63.3005524862092,186.03172348240332 62.982320441980846,185.68580435882905 62.60441988951061,185.33988470383338 62.18674033146817,185.01702587967156 61.78895027632825,184.6480437995051 61.4110497237416,184.32518398332468 61.01325966848526,184.00232370414597 60.63535911613144,183.67946296201262 60.2375690608751,183.35660175689554 59.819889502832666,183.05680165198282 59.40220994479023,182.84924749931088 58.90497237571981,182.8031243282603 58.42762430943549,182.82618591497885 57.970165745937265,182.57250833137368 57.63204419892281,182.2727071823174 57.53259668510873,181.92678228359728 57.512707182439044,181.30411612645548 57.87071823212318,181.0043132884748 58.149171270779334,180.6122628209996 58.24861878459342,180.24327352216642 58.188950276351534,179.87428361851198 58.16906077344902,179.36692151367606 58.38784530386329,179.0440541243297 58.606629834277555,178.67506225536636 58.626519337063655,178.1676974479342 58.88508287293371,177.77564204095688 59.04419889510609,177.314399511597 59.302762430976145,176.80703163785802 59.70055248623248,176.55334727218724 60.07845303870272,176.23047584794404 60.456353591172956,175.81535476497083 60.695027624373324,175.35410821942787 60.91381215478759,174.8697983296006 61.23204419889953,174.45467473757162 61.351381215499714,173.97036291280529 61.51049723755568,173.48605004616547 61.59005524870008,173.07092390258913" stroke="#4dd2ff" stroke-linecap="round" stroke-linejoin="round" stroke-width="0.5"><title>2024-10-01 10.0km</title><desc>9223370309112650807</desc></polyline><polyline fill="none" points="175.76194307929836,153.0 176.05367202038178,153.67658512263733 176.32824043539586,154.15417320179404 176.5170062208199,154.59196124253504 176.61996937653748,155.04964768441278 176.75725358404452,155.52723238691397 176.89453779160976,156.02471520309336 176.80873516190331,156.54209598001034 176.56848779862048,156.99977782608767 176.60280885058455,157.57685339896125 176.688611480291,158.11412911505613 176.84305621380918,158.611605304759 176.87737726565683,159.1289791901945 176.99750094732735,159.66625061249943 177.1519456807291,160.16372282648808 177.0833035769756,160.68109257725882 176.94601936941035,161.19846094990498 177.16910620668205,161.65613182295056 177.49515619961312,162.01430827575678 177.80404566659126,162.37248406799335 177.9413298740983,162.85005076347443 178.06145355576882,163.307717744814 178.18157723738113,163.78528214078688 178.00997197796823,164.18325157371874 177.7697246147436,164.60111860076722 177.92416934826178,165.19806993703241 178.18157723738113,165.57613816775847 178.35318249679403,166.03379872559162 178.31886144494638,166.5312546305795 178.1644167114864,167.02870926159085 178.02713250386296,167.4863663969445 177.78688514063833,167.88432824680058 177.5981193552143,168.34198336614645 177.34071146609494,168.7996374071954 176.96317989530507,169.11800479979138 176.5170062208199,169.41647375650064 176.19095622788882,169.854227396645 176.002190442523,170.371571335927 175.76194307929836,170.74962949712062 175.69330097548664,171.2271755963884 175.4358930863673,171.50574361212784 174.9897194118821,171.50574361212784 174.90391678211745,172.0429808000481 174.74947204859927,172.52052371970785 174.38910100382054,172.73939716556924 174.0802115367842,173.0975531814329 174.13169311464299,173.63478596694767 174.28613784816116,174.21181211876683 174.38910100382054,174.66945233079605 174.33761942596175,175.1270914646011 174.49206415947992,175.6245240830467 174.33761942596175,176.04236649810628 173.9086062774295,176.32092760886007 173.42811155103846,176.46020801448321 172.96477735048393,176.53979677286407 172.5014431499876,176.48010520712705 172.02094842359656,176.40051642429898 171.5404536971473,176.34082481580845 171.0771194967092,176.28113318896794 170.59662477025995,176.24133876085398 170.1161300437525,176.1617498802225 169.6527958433726,176.10205819837574 169.18946164281806,176.022469260628 168.70896691642702,175.96277753598406 168.2456327159307,175.90308579293196 167.78229851549258,175.84339403160266 167.336124840891,175.80359951383434 166.838469588547,175.70411318377592 166.34081433620304,175.66431863742764 165.84315908385906,175.6046268027858 165.34550383145688,175.54493494967755 164.88216963096056,175.485243078263 164.43599595635897,175.40565388785035 163.97266175597906,175.28627004110604 163.52648808143567,175.16688612100552 163.13179598469287,174.98781010320818 162.71994336205535,174.7689391907188 162.30809073941782,174.6097601903457 161.91339864273323,174.45058105951466 161.48438549414277,174.25160696261446 161.07253287144704,174.07253010111162 160.6606802488095,174.0128377772926 160.18018552247668,174.07253010111162 159.7511723737698,174.19191469374346 159.3393197511905,174.41078625648515 159.0132697582012,174.66945233079605 158.68721976532834,175.10719413342304 158.42981187609257,175.6046268027858 158.17240398697322,176.0821609669656 157.86351451999508,176.53979677286407 157.46882242331048,176.9178429297899 157.00548822275596,177.25609413077473 156.50783297041198,177.4749622411473 155.99301719211508,177.63413889381627 155.46104088786524,177.71372717124177 154.94622510956833,177.67393303661083 154.44856985716615,177.57444766437402 153.98523565672804,177.4749622411473 153.50474093027879,177.3555796661094 153.04140672984067,177.29588835105824 152.57807252934435,177.33568256307626 152.11473832878983,177.45506515041052 151.63424360239878,177.57444766437402 151.17090940190246,177.77341835788684 150.75905677926494,178.03207995483535 150.41584626038093,178.3703292158607 150.12411731935572,178.76826876890846 149.98683311184868,179.24579515654477 149.74658574856585,179.7432172288827 149.52349891129415,180.22074122013873 149.18028839246836,180.51919311861275 148.71695419203024,180.57888344331877 148.25361999147572,180.69826403768093 147.7902857910376,180.75795430733706 147.34411211649422,180.73805755283684 146.84645686409203,180.79774781024025 146.34880161180627,180.73805755283684 145.90262793714646,180.79774781024025 145.43929373676656,180.7778510598 144.99312006222317,180.75795430733706 144.52978586166864,180.73805755283684 144.03213060932467,180.75795430733706 143.55163588287542,180.69826403768093 143.07114115648437,180.69826403768093 142.60780695598805,180.61867698293645 142.24743591120932,180.320225237243 141.93854644417297,180.0615666868398 141.80126223666593,179.6636297828809 141.76694118481828,179.16620750680158 141.71545960695948,178.6289900180418 141.7326201328542,178.17135913363018 141.74978065880714,177.7336242354795 141.81842276261887,177.31578545809316 141.81842276261887,176.85815148019174 141.68113855505362,176.38061922352063 141.33792803616961,176.022469260628 140.8745938356733,175.7439077219169 140.39409910928225,175.6046268027858 139.89644385688007,175.50514037074754 139.36446755263023,175.485243078263 138.86681230028626,175.54493494967755 138.386317573837,175.6046268027858 137.92298337334068,175.78370225186518 137.51113075076137,176.00257202117064 137.18508075777208,176.26123597590777 136.84187023894629,176.51989958631748 136.97915444651153,176.97753436097992 137.21940180973615,177.37547676701797 137.39100706909085,177.8132124721451 137.408167595102,178.29074120742735 137.27088338753674,178.68868092342746 136.97915444651153,179.0269290412689 136.53298077196814,179.10651674805558 136.4643386680982,179.64373291628726 136.55014129786287,180.12125715204456 136.60162287572166,180.5987802141608 136.60162287572166,181.0763021024759 136.58446234976873,181.5538228170917 136.60162287572166,182.0313423580228 136.58446234976873,182.50886072521098 136.60162287572166,182.94658486415574 136.58446234976873,183.3843080169172 136.60162287572166,183.84192662213172 136.60162287572166,184.31944053930056 136.61878340161638,184.83674595851335 136.61878340161638,185.29436114274722 136.61878340161638,185.75197524913528 136.61878340161638,186.22948447192903 136.60162287572166,186.70699252112536 136.60162287572166,187.20439549120783 136.58446234976873,187.68190114441677 136.60162287572166,188.13950962762465 136.58446234976873,188.59711703303037 136.60162287572166,189.0547233607649 136.61878340161638,189.55212032067357 136.61878340161638,190.02962020428095 136.63594392762752,190.54691042062768 136.7389070832869,191.06419925989758 137.01347549835918,191.50190412517986 137.3566860172432,191.8202343169687 137.75137811392779,192.1584595743043 138.1632307365653,192.3574153330992 138.50644125544932,192.55637088807998 138.86681230028626,192.83490832291136 139.31298597482964,192.99407239205902 139.75915964937303,193.0338633890642 140.18817279790528,192.95428138699208 140.61718594649574,192.8548038386798 141.0461990951444,192.79511728523357 141.4408911918872,192.71553518544533 141.81842276261887,192.63595305310446 142.24743591120932,192.57626643241383 142.72793063760037,192.51657979340234 143.17410431214375,192.4568931360118 143.6545990385348,192.39720646037313 144.15225429093698,192.37731089777662 144.68423059518682,192.39720646037313 145.181885847589,192.43699757954164 145.67954109999118,192.43699757954164 146.17719635233516,192.4171020209469 146.67485160467913,192.4568931360118 147.15534633112838,192.59616197460855 147.5671989537077,192.93438588138088 147.85892789473291,193.3720865339419 148.1334963098634,193.82968161645113 148.37374367314624,194.2872756213619 148.68263314012438,194.6652872474515 149.06016471091425,194.96371695918788 149.50633838545764,195.162669845653 149.95251205994282,195.2422509432363 150.43300678633386,195.30193674498878 150.93066203873605,195.42130829360394 151.34251466137357,195.58047024426924 151.78868833591696,195.73963206462213 152.16621990664862,195.9385841567564 152.5437514774385,196.19722157195793 152.90412252221722,196.45585864287568 153.28165409294888,196.7144953696261 153.65918566379696,196.99302684419672 154.07103828637628,197.21187272270618 154.51721196091967,197.39092825818807 154.9805461614742,197.5699836286949 155.46104088786524,197.68935378399328 155.92437508836156,197.74903883421212 156.38770928885788,197.74903883421212 156.88536454126006,197.74903883421212 157.33153821580345,197.74903883421212 157.7605513643357,197.70924880277016 158.20672503887909,197.68935378399328 158.70438029128127,197.68935378399328 159.15055396576645,197.64956374040048 159.6310486922739,197.62966871555545 160.11154341866495,197.62966871555545 160.592038145056,197.6694587632228 161.02105129358824,197.8883038799686 161.43290391634218,198.14693870019983 161.79327496112091,198.4453630650678 162.15364600589965,198.68410222696548 162.5311775766313,198.90294620105124 162.9773512511747,199.06210530013777 163.44068545172922,199.0820001783868 163.92118017812027,199.022315537557 164.36735385266365,198.8830513044668 164.81352752714884,198.80347169787274 165.2940222536563,198.68410222696548 165.74019592819968,198.58462761181 166.16920907673193,198.46525800641393 166.5982222253224,198.3657832792378 167.01007484801812,198.28620346082607 167.43908799660858,198.14693870019983 167.9024221970467,198.02756882598624 168.38291692355415,197.86840887952712 168.88057217583992,197.80872386600822 169.3267458504415,197.60977368861495 169.7214379470679,197.37103320685856 170.08180899190484,197.11239735395066 170.47650108864764,196.91344646360085 170.87119318533223,196.7144953696261 171.28304580796976,196.67470512636646 171.57477474905318,196.97313175212184 171.66057737881783,197.4506134000112 171.763540534419,197.94798886899662 171.90082474198425,198.46525800641393 172.02094842359656,198.94273598805012 172.19255368300946,199.3406334099127 172.19255368300946,199.79821443780384 172.05526947544422,200.23589963033737 171.90082474198425,200.69347855029628 171.79786158632487,201.13116172638547 171.6948984306655,201.60863315803 171.67773790465435,202.0861034164409 171.72921948245494,202.54367798005114 171.763540534419,203.0211459412094 171.74638000846608,203.47871830321674 171.6434168528067,203.91639520665922 171.48897211928852,204.29438810273132 171.3002063339227,204.67238026366977 171.1972431782633,205.09016021776188 171.1457616004045,205.5079392738262 171.18008265231038,205.9655057809432 171.31736685993383,206.38328295532847 171.57477474905318,206.74137696150865 172.00378789764363,206.9801059323654 172.51860367594054,206.9801059323654 173.01625892828451,206.92042371710704 173.53107470663963,206.8209533176705 174.0287299590418,206.76127105359046 174.52638521132758,206.6618005726632 175.00687993771862,206.58222415133787 175.4358930863673,206.48275357879174 175.98502991651185,206.36338882459677 176.39688253920758,206.14455325138988 176.75725358404452,205.84614070907992 177.10046410292853,205.52783349218953 177.34071146609494,205.11005447893695 177.46083514770726,204.67238026366977 177.61527988122543,204.27449375811557 178.0442930298159,204.05565583285352 178.52478775626514,204.17502200446324 178.91947985294973,204.4137541277014 179.31417194963433,204.67238026366977 179.77750615018886,204.8315346378222 180.27516140247462,204.91111177601852 180.78997718082974,204.89121749451442 181.25331138126785,204.7718517628091 181.6823245299165,204.53312007938803 182.02553504880052,204.19491635926533 182.3001034638146,203.81692326969642 182.48886924918042,203.35935170396988 182.62615345680388,202.9216735460359 182.79775871621678,202.48399440238427 182.9350429237238,202.02641969830438 183.089487657242,201.5688439168589 183.22677186486544,201.09137238752737 183.36405607237248,200.63379440446442 183.5013402798795,200.13642580952728 183.5528218577383,199.6589507607714 183.5528218577383,199.18147453891288 183.53566133184358,198.68410222696548 183.51850080583245,198.18672864200198 183.4841797539848,197.64956374040048 183.46701922803186,197.1720825812954 183.3812165983254,196.7144953696261 183.29541396861896,196.25690708035836 183.12380870908964,195.79931771362317 182.95220344973495,195.32183200819418 182.84924029407557,194.86424043950683 182.72911661246326,194.42654314816173 182.55751135305036,194.04853105760412 182.45454819733277,193.67051823170914 182.3001034638146,193.2129227743426 182.14565873041283,192.75532623947947 182.1284982044599,192.25793747918215 182.1799797822605,191.80033869527688 182.3515850416734,191.3228431630996 182.5231903012027,190.8851378944819 182.67763503460446,190.4474316398555 182.79775871621678,189.9699327830458 182.9350429237238,189.49243275272602 182.9865245015826,188.9751397289947 182.9865245015826,188.4777412920521 182.96936397568788,188.0002375946351 182.9350429237238,187.52273272372258 182.9178823978291,187.02533056867833 182.9178823978291,186.52792714018142 182.88356134592323,186.11010727625398 182.8664008199703,185.692286513804 182.71195608656853,185.29436114274722 182.40306661953218,184.97602025911328 182.00837452278938,184.71736790709838 181.6136824261048,184.49850795564998 181.218990329362,184.21995857002912 180.87577981047798,183.8618230587599 180.5497298176051,183.44399746130512 180.24084035062697,183.02617096529866 179.94911140954355,182.64813669459545 179.65738246851834,182.27010168833658 179.48577720910544,181.79258273422602 179.38281405344605,181.31506260645983 179.4171351052937,180.7778510598 179.57157983881189,180.30032843793742 179.76034562417772,179.8625983367383 180.01775351335527,179.40497035827138 180.18935877270997,178.90754741986166 180.2065192987211,178.41012320779555 180.0863956171088,177.91269772211672 179.8118272020365,177.4749622411473 179.4171351052937,177.11681429580494 179.00528248265618,176.7586656902422 178.59342986001866,176.40051642429898 178.19873776333407,176.06226373353275 177.85552724445006,175.76380498791696 177.49515619961312,175.44544848715304 177.10046410292853,175.14698879381467 176.70577200624393,174.88832335542247 176.27675885759527,174.70924708084203 175.8477457090048,174.7689391907188" stroke="#4dd2ff" stroke-linecap="round" stroke-linejoin="round" stroke-width="0.5"><title>2024-09-21 10.1km</title><desc>9223370309978945807</desc></polyline></svg>