<?xml version="1.0" encoding="utf-8" ?>
<svg baseProfile="full" height="300mm" version="1.1" viewBox="0,0,200,300" width="200mm" xmlns="http://www.w3.org/2000/svg" xmlns:ev="http://www.w3.org/2001/xml-events" xmlns:xlink="http://www.w3.org/1999/xlink"><defs /><rect fill="#222222" height="300" width="200" x="0" y="0" /><text fill="#FFFFFF" style="font-size:12px; font-family:Arial; font-weight:bold;" x="10" y="20">Over 10km Runs</text><text fill="#FFFFFF" style="font-size:4px; font-family:Arial" x="10" y="280">ATHLETE</text><text fill="#FFFFFF" style="font-size:9px; font-family:Arial" x="10" y="290">mikusugar</text><text fill="#FFFFFF" style="font-size:4px; font-family:Arial" x="65" y="280">SPECIAL TRACKS</text><rect fill="yellow" height="2.6" width="2.6" x="65" y="283" /><text fill="#FFFFFF" style="font-size:3px; font-family:Arial" x="70" y="285.5">Over 20.0 km</text><rect fill="red" height="2.6" width="2.6" x="65" y="287" /><text fill="#FFFFFF" style="font-size:3px; font-family:Arial" x="70" y="289.5">Over 40.0 km</text><text fill="#FFFFFF" style="font-size:4px; font-family:Arial" x="120" y="280">STATISTICS</text><text fill="#FFFFFF" style="font-size:3px; font-family:Arial" x="120" y="285">Number: 5</text><text fill="#FFFFFF" style="font-size:3px; font-family:Arial" x="120" y="290">Weekly: 1.2</text><text fill="#FFFFFF" style="font-size:3px; font-family:Arial" x="141" y="285">Total: 50.5 km</text><text fill="#FFFFFF" style="font-size:3px; font-family:Arial" x="141" y="290">Avg: 10.1 km</text><text fill="#FFFFFF" style="font-size:3px; font-family:Arial" x="167" y="285">Min: 10.0 km</text><text fill="#FFFFFF" style="font-size:3px; font-family:Arial" x="167" y="290">Max: 10.2 km</text><polyline fill="none" points="71.35341809457168,34.0 71.53700470912736,34.58544632559642 71.90417793800589,35.17089133136324 72.11071287933737,36.04905636544572 72.27135116688441,36.79416376262088 72.5237827617675,37.459436417906545 72.66147272265516,38.204539768688846 72.36314447422046,38.86980881114141 72.1795578597812,39.61490811544354 72.15660953288898,40.2535629607155 72.43198945466429,40.94543727071141 72.56967941543553,41.6639201802609 72.68442104943097,42.355790733214235 72.84505933721084,43.07426974122063 72.89095599076245,43.819356983556645 72.84505933721084,44.51122179458616 72.95980097120628,45.14986459974898 73.12043925886974,45.38935524682165 73.39581918052863,45.761895814473974 73.76299240940716,46.267485730175395 74.03837233118247,46.985953917348525 74.24490727239754,47.731029938178835 74.26785559928976,48.44949407695094 73.99247567751445,49.1413465544465 74.01542400440667,49.83319718914572 74.19901061884593,50.41860782520962 74.52028719405644,51.057236105320044 74.56618384772446,51.8023004475981 74.42849388695322,52.520753324992256 74.26785559928976,53.18598569885944 73.92363069707062,53.74477957628551 73.62530244863592,54.35679053896456 73.2810775465332,54.942190980073065 72.7532660298748,55.42115399602335 72.202506186557,55.8202891680412 71.81238463078626,56.37907737851492 71.58290136267897,56.99108213454019 71.21572813380044,57.523259011271875 71.07803817291278,58.13526107161306 70.61907163669821,58.58760949381394 70.04536346660461,58.77387037992594 69.95357015938498,59.41247811829089 69.65524191083387,60.02447572769597 69.08153374062385,60.3703867822187 68.89794712618459,60.98238213494187 69.05858541384805,61.620984443987254 69.21922370151151,62.3128018406569 69.28806868195534,63.00461739482125 69.28806868195534,63.66982292107423 69.4946036231704,64.30841862375382 68.9438437797362,64.8139724417706 68.30129062919877,65.15987711874186 67.61284082499333,65.34613329262356 66.92439102067146,65.31952527593239 66.21299288969021,65.23970120964805 65.52454308536835,65.13326908307499 64.8360932811629,65.05344495954341 64.19354013062548,64.94701275660191 63.528038653195836,64.86718857593951 62.81664052209817,64.78736437059706 62.12819071789272,64.68093205877813 61.439740913687274,64.57449970321613 60.75129110936541,64.49467540800106 60.039892978267744,64.44145919755101 59.374391500954516,64.33502674402553 58.68594169663265,64.25520237514866 57.997491892427206,64.14876984531293 57.35493874188978,64.04233727173414 56.689437264343724,63.96251281298464 56.023935787030496,63.90929649354075 55.35843430960085,63.802863821940264 54.71588115894701,63.61660654170555 54.09627633506898,63.35052448109491 53.47667151130736,63.05783389962744 52.83411836065352,62.71192642362439 52.191565210116096,62.44584343637689 51.54901205946226,62.179760176630225 50.8835105819162,62.07332679638057 50.195060777827166,62.04671844455879 49.55250762717333,62.25958518314292 48.978799456963316,62.55227666403516 48.45098794042133,63.00461739482125 48.083814711426385,63.61660654170555 47.762538136099465,64.28181050086278 47.39536490733735,64.92040469910717 46.95934669789858,65.50578133523231 46.431535181356594,66.0113328230509 45.83487868425436,66.41045172390295 45.19232553371694,66.70313852801337 44.50387572939508,66.91600145123084 43.86132257885765,66.96921715480858 43.19582110142801,66.94260930438759 42.55326795077417,66.83617787543335 41.86481814645231,66.6765306504094 41.19931666913908,66.51688332716003 40.53381519170944,66.4370596287772 39.845365387387574,66.57009911246132 39.15691558329854,66.72974640291068 38.49141410575248,66.86278573676827 37.87180928187445,67.18207985992194 37.34399776533246,67.60780474703643 36.95387620956171,68.11335214442806 36.67849628790282,68.69872158599901 36.426064693019725,69.31069731921889 36.15068477136083,69.94927915604785 35.691718235146254,70.50803697571973 35.00326843094081,70.69428931522998 34.337766953511164,70.88054152121185 33.649317149305716,71.0401861629507 32.98381567187607,71.06679359363625 32.31831419444643,71.09340102164424 31.698709370568395,71.01357872947119 30.987311239587143,71.01357872947119 30.298861435381696,71.01357872947119 29.633359957952052,71.01357872947119 28.96785848052241,71.01357872947119 28.34825365676079,70.98697129325592 27.70570050610695,70.9337564126763 27.040199028677307,70.88054152121185 26.4894391852431,70.64107437469647 26.007524322369136,70.21535445816698 25.6862477469258,69.65659600903746 25.709196073701605,69.09783635815256 25.61740276659839,68.45925242835074 25.54855778615456,67.8472746895277 25.54855778615456,67.26190332946135 25.663299420149997,66.70313852801337 25.663299420149997,66.06454871199094 25.61740276659839,65.45256533188513 25.204332884051837,64.92040469910717 24.630624713841826,64.57449970321613 23.942174909519963,64.30841862375382 23.27667343209032,64.17537798182457 22.542326974333264,64.14876984531293 21.830928843235597,64.14876984531293 21.11953071213793,64.25520237514866 20.40813258115668,64.46806730417302 19.834424410946667,64.78736437059706 19.375457874848507,65.15987711874186 18.939439665409736,65.50578133523231 19.26071624085307,66.03794076887425 19.604941142955795,66.62331488687778 19.834424410946667,67.26190332946135 19.76557943050284,67.98031345097115 19.398406201740727,68.56568319239886 18.847646358190104,68.80515225182171 18.503421456203796,69.28408970864257 18.5263697829796,69.92267161083873 18.687008070526645,70.53464446097496 18.687008070526645,71.17322328942828 18.687008070526645,71.83840789995156 18.687008070526645,72.5035908074351 18.687008070526645,73.1687720118789 18.687008070526645,73.86055865784874 18.66405974375084,74.52573638811009 18.66405974375084,75.16430540691363 18.687008070526645,75.85608673957177 18.687008070526645,76.49465248867637 18.66405974375084,77.15982347511454 18.687008070526645,77.79838602000382 18.70995639730245,78.46355366881471 18.687008070526645,79.12871961470228 18.687008070526645,79.82049039198318 18.687008070526645,80.48565286403755 18.687008070526645,81.12420723529067 18.687008070526645,81.78936636986327 18.73290472419467,82.45452380165807 18.73290472419467,83.14628572444781 18.755853050970472,83.81143968275865 18.870594685082324,84.44998588075396 19.123026279965416,85.06192451468087 19.536096162511967,85.56743795136572 19.995062698610127,86.01973861380247 20.637615849263966,86.36561505970894 21.188375692698173,86.63167355093174 21.670290555572137,86.92433757672552 22.221050399006344,87.19039549582521 22.840655222767964,87.27021281857742 23.529105027089827,87.19039549582521 24.194606504403055,87.05736657025409 24.837159655056894,86.9775491822802 25.41086782538332,86.84452014783164 26.099317629588768,86.71149104516371 26.879560740897432,86.57846187450923 27.54506221844349,86.49864433935727 28.233512022648938,86.39222092114505 28.96785848052241,86.39222092114505 29.656308284727857,86.44543263569358 30.298861435381696,86.4720384888351 30.96436291281134,86.49864433935727 31.606916063348763,86.52525018717279 32.27241754089482,86.55185603216523 32.937919018324465,86.73809687120956 33.488678861642256,87.13718393383897 33.855852090520784,87.66929906382575 34.17712866596412,88.25462444848381 34.49840524129104,88.81334290376981 34.86557847005315,89.37206015770789 35.393389986711554,89.82435419774265 35.99004648369737,90.11701462772908 36.60965130745899,90.25004198693205 37.252204458229244,90.38306927797385 37.89475760876667,90.51609650094179 38.53731075942051,90.67572907864815 39.15691558329854,90.94178315697354 39.776520406943746,91.26104769128142 40.35022857715376,91.63352248555748 40.900988420587964,92.03260202991078 41.42879993724637,92.40507571824128 41.956611453788355,92.75094366515987 42.55326795077417,93.0436007991375 43.19582110142801,93.28304729997762 43.81542592518963,93.46928331474192 44.435030749067664,93.57570383473649 45.07758389960509,93.60230895795394 45.72013705014251,93.60230895795394 46.36269020079635,93.57570383473649 47.051140005118214,93.54909870878328 47.71664148254786,93.52249358018162 48.359194633201696,93.49588844878599 49.02469611063134,93.46928331474192 49.66724926116876,93.46928331474192 50.3098024118226,93.44267817799118 50.99825221602805,93.57570383473649 51.594908713013865,93.89496513304766 52.16861688334029,94.29404120446998 52.67348007299006,94.66651165147778 53.22423991642427,95.06558653802495 53.84384474018589,95.33163612187491 54.4175529103959,95.51787066855468 55.06010606104974,95.49126574152615 55.702659211703576,95.33163612187491 56.32226403558161,95.14540144178318 56.96481718600262,95.01237658856553 57.65326699032448,94.85274667479098 58.31876846787054,94.69311666299473 58.89247663796414,94.560091578227 59.48913313494995,94.3738563451625 60.154634612379596,94.26743615209125 60.82013608980924,94.08120070930454 61.439740913687274,93.89496513304766 62.0822940642247,93.68212431104621 62.67895056121051,93.41607303841738 63.252658731420524,93.07020597683731 63.80341857485473,92.72433845483465 64.40007507184055,92.40507571824128 65.01967989560217,92.24544420288294 65.47864643181674,92.6179175862344 65.6392847194802,93.25644214416388 65.75402635347564,93.9215702235233 65.86876798758749,94.560091578227 66.00645794835873,95.17200640423107 66.25888954324182,95.78391978945001 66.23594121646602,96.3958317337383 66.09825125569478,97.00774223724147 65.9146646411391,97.59304658800829 65.75402635347564,98.25816356833093 65.6392847194802,98.92327884639963 65.6392847194802,99.61499692994403 65.66223304637242,100.33331760644796 65.73107802658342,100.99842757367878 65.70812969992403,101.66353583871387 65.45569810504094,102.27543393932865 65.15736985648982,102.83412225119537 64.95083491515834,103.4460175956483 64.8360932811629,104.08451554964995 64.92788658849895,104.69640795025043 65.13442152971402,105.2816949854896 65.50159475859255,105.78716909157811 66.09825125569478,106.0 66.7408044062322,105.9733961460006 67.45220253732987,105.89358456752962 68.18654899520334,105.76056521575083 68.9208954529604,105.68075357191265 69.63229358405806,105.62754579581087 70.2977950614877,105.49452630782616 70.96329653880093,105.33490283234278 71.60584968945477,105.12207137938822 72.15660953288898,104.80282387291663 72.66147272265516,104.37715992101585 73.05159427842591,103.89828714184114 73.2810775465332,103.28639286203543 73.44171583419666,102.70110133342678 73.8318373899674,102.22222546601552 74.49733886728063,102.08920423517702 75.09399536426645,102.48826772352913 75.64475520770065,102.88733059921651 76.26436003146227,103.15337217593333 76.90691318211611,103.31299699118244 77.52651800587773,103.28639286203543 78.14612282975577,103.23318459579605 78.76572765351739,102.9937472625461 79.27059084328357,102.62128875020426 79.68366072583012,102.16901698184665 79.98198897438124,101.63693154076464 80.21147224248853,100.99842757367878 80.4180071837036,100.35992203783826 80.60159379814286,99.77462391855079 80.76223208580632,99.18932448100531 80.945818700362,98.60402372540557 81.10645698790904,97.96551230672048 81.31299192924052,97.35360405841493 81.45068189012818,96.66187995573273 81.49657854367979,95.97015401197132 81.49657854367979,95.27842622689786 81.47363021690398,94.58669660065789 81.42773356323596,93.9481753113505 81.42773356323596,93.30965245308471 81.35888858290855,92.64452280744445 81.19825029524509,91.97939145937562 81.01466368080582,91.34086376355845 80.78518041258212,90.62251823031693 80.57864547136705,90.0638036649616 80.37211053015199,89.4784823556256 80.23442056938075,88.94637093032361 80.05083395482507,88.30783578159753 79.77545403304975,87.5894818638044 79.59186741861049,86.79130851491936 79.59186741861049,86.09955629598699 79.72955737949815,85.4876201057632 79.95904064760543,84.84907645761268 80.21147224248853,84.18392515560845 80.44095551059581,83.57198445391259 80.62454212503508,82.9334360982466 80.7163354321383,82.26827989239246 80.7163354321383,81.6297283328895 80.73928375903051,80.99117520396248 80.7163354321383,80.35262050587335 80.7163354321383,79.76727732064319 80.7163354321383,79.20853941366659 80.69338710536249,78.62319365117582 80.64749045169447,77.95802641104092 80.50980049092323,77.346071046195 80.05083395482507,76.78732793248491 79.47712578461505,76.38822497276124 78.90341761440504,76.01572832395323 78.35265777108725,75.61662417903426 77.9625362153165,75.16430540691363 77.57241465954576,74.65877172973705 77.25113808421884,74.15323706896743 76.83806820167229,73.67430858823354 76.40204999234993,73.08895035725436 76.14961839746684,72.45037623756798 76.0348767634714,71.73197847677511 76.10372174391523,70.98697129325592 76.3332050119061,70.26856948589557 76.65448158723302,69.60338085595868 76.99870648933575,68.96479816886131 77.18229310389142,68.1931753277895 77.06755146977957,67.42155019479105 76.72332656756043,66.75635427515954 76.21846337791067,66.22419631318189 75.62180688080844,65.71864523953991 75.04809871071484,65.23970120964805 74.47439054050483,64.76075629665866 73.92363069707062,64.28181050086278 73.37287085375283,63.802863821940264 72.82211101031862,63.35052448109491 72.24840284022503,62.97800913831452 71.60584968945477,62.8449678151228 70.91739988524932,62.89818435261259 70.32074338826351,62.55227666403516 69.93062183249276,62.07332679638057 69.86177685204893,61.43472559930524 70.09126012027264,60.98238213494187" stroke="#4dd2ff" stroke-linecap="round" stroke-linejoin="round" stroke-width="0.5"><title>2024-10-18 10.2km</title><desc>9223370307603209807</desc></polyline><polyline fill="none" points="171.0698670259444,34.0 171.4594132353086,34.744013629999245 171.82604496157728,35.408309710008325 172.0781042734161,36.09917582810158 172.21559117082506,36.81661177179194 172.42182151705492,37.50747413787758 172.58222289732657,38.25147770458716 172.28433461952955,38.88919334852835 172.1239332393743,39.55347881015041 172.0781042734161,40.2177625700715 172.33016358537134,40.90861587537802 172.4447359999176,41.65260968438815 172.55930841446389,42.3434591673722 172.74262427759822,43.03430680994643 172.78845324344002,43.72515261216904 172.67388082889374,44.44256745892926 172.8342822092818,45.10683869570494 173.2009139355505,45.664825219719205 173.68211807648186,46.16966913561919 173.8654339397326,46.83393594872905 174.07166428584605,47.471630488696974 174.2320656661177,48.162464470922714 174.00292083714157,48.82672618000652 173.81960497389082,49.464415820053546 173.8654339397326,50.048963279492455 174.2320656661177,50.73979039659025 174.41538152936846,51.404045504750684 174.39246704638936,52.09486901253695 174.2778946319595,52.78569068029174 174.04874980286695,53.42337058664998 173.65920359350275,53.92819940060144 173.40714428166393,54.539306650229264 172.9030256579863,55.09727288156864 172.33016358537134,55.57552869600477 171.7802159958519,56.10692301104427 171.50524220103398,56.797733993065776 171.16152495751157,57.408834481815575 170.97820909437723,58.0465030221676 170.65740633371752,58.55132283814601 170.0158008126309,58.63103114030673 169.85539943235926,59.24212731001899 169.62625460326672,59.87979134332272 169.0304780479055,60.251761305495165 168.80133321892936,60.915992054127855 169.07630701374728,61.52708284067921 169.09922149660997,62.19131032357109 169.25962287699804,62.8555361055769 169.16796494531445,63.44005338678835 169.39710977417417,64.07770710045588 169.12213597947266,64.58251517883036 168.52635942422785,64.92790961381979 167.88475390302483,65.14045980668743 167.22023389895912,65.22016608415288 166.5327994117979,65.14045980668743 165.8682794078486,65.06075350477477 165.20375940366648,64.95447839744156 164.5392393997172,64.87477203833987 163.85180491267238,64.76849685481284 163.16437042574398,64.68879043860943 162.49985042156186,64.60908399784239 161.81241593463346,64.55594635714078 161.14789593056776,64.44967104287934 160.50629040936474,64.3168268390582 159.84177040529903,64.23712028397131 159.17725040123332,64.18398256698856 158.5356448800303,64.10427597112721 157.8711248759646,64.02456935090595 157.2066048718989,63.91829381894786 156.51917038485408,63.865156036714325 155.87756486365106,63.785449342947686 155.25887382542714,63.62603588186903 154.64018278708681,63.413484447984956 154.0214917488629,63.200932839972666 153.40280071052257,62.935243085055845 152.76119518931955,62.616415019962005 152.14250415121205,62.32415561602102 151.52381311287172,62.0584649630473 150.92803655739408,61.899050440610154 150.26351655332837,61.952188625582494 149.62191103212535,62.138172187434975 149.07196344272234,62.430431801010855 148.59075930167455,62.828967106877826 148.1553841267014,63.38691550647491 147.83458136604168,64.0511382270488 147.53669308836106,64.66222162771737 147.1013179132715,65.24673483788501 146.62011377234012,65.77810934052104 146.07016618282069,66.1766395031591 145.47438962745946,66.46889456675854 144.83278410625644,66.70801210106583 144.2370075508952,66.81428649000009 143.5954020296922,66.84085508040152 142.93088202551007,66.70801210106583 142.26636202156078,66.60173766853404 141.62475650024135,66.46889456675854 140.96023649629205,66.30948275470291 140.29571649210993,66.33605139679275 139.65411097102333,66.41575730688055 139.0125054498203,66.54860043595545 138.3479854457546,66.78771789683378 137.72929440741427,67.15967795334291 137.22517578362022,67.63791152808699 136.81271509139333,68.22241803322686 136.5606557795545,68.88662837227457 136.3085964677157,69.6039736281964 135.9419647413306,70.2416121904098 135.32327370299026,70.50729446217883 134.63583921594545,70.61356729466934 133.92549024615437,70.77297646173974 133.23805575910956,70.85268100863323 132.55062127218116,70.85268100863323 131.86318678513635,70.82611282909056 131.15283781534526,70.85268100863323 130.46540332830045,70.85268100863323 129.77796884137206,70.87924918546923 129.13636332016904,70.87924918546923 128.47184331610333,70.82611282909056 127.80732331203762,70.77297646173974 127.18863227381371,70.71984008364961 126.56994123547338,70.50729446217883 126.08873709454201,70.02906617720146 125.72210536815692,69.49770038216957 125.69919088517781,68.8600599913625 125.60753295372706,68.22241803322686 125.49296053918079,67.58477450773353 125.53878950502258,67.00026656588307 125.60753295372706,66.44232593817287 125.60753295372706,65.80467803706415 125.4242170904763,65.16702856856864 124.94301294954494,64.66222162771737 124.32432191132102,64.3433956852532 123.63688742439263,64.18398256698856 122.94945293734781,64.10427597112721 122.26201845041942,64.0511382270488 121.5974984462373,64.0511382270488 120.95589292515069,64.18398256698856 120.26845843810588,64.44967104287934 119.74142533144914,64.87477203833987 119.19147774181329,65.16702856856864 119.14564877608791,65.69840323447715 119.42062257090583,66.30948275470291 119.71851084858645,66.89399225314264 119.78725429729093,67.58477450773353 119.64976739988197,68.19584958427004 119.1227342931088,68.75378644050215 118.57278670358937,69.04603860055795 118.54987222072668,69.73681512460462 118.68735911813565,70.32131690054666 118.68735911813565,70.90581735956948 118.68735911813565,71.51688461311278 118.71027360099833,72.15451847357326 118.71027360099833,72.81871874502394 118.68735911813565,73.50948522338877 118.71027360099833,74.20024986247881 118.68735911813565,74.86444489622954 118.71027360099833,75.47550282560405 118.73318808386102,76.11312695639208 118.71027360099833,76.69761436639237 118.71027360099833,77.33523549360689 118.71027360099833,77.94628760340856 118.71027360099833,78.61047304677777 118.68735911813565,79.24808947287966 118.68735911813565,79.91227158365655 118.66444463515654,80.60301917523611 118.64153015229385,81.2406307044148 118.68735911813565,81.87824066655594 118.68735911813565,82.51584906183416 118.68735911813565,83.15345589016215 118.68735911813565,83.79106115156901 118.75610256684013,84.40209805683116 118.96233291283716,85.01313352299621 119.35187912220135,85.49133418840938 119.78725429729093,85.91640070665744 120.31428740394767,86.28833333891816 120.88714947644621,86.60713231365662 121.39126810012385,86.87279782665428 121.84955775819253,87.19159608325572 122.39950534782838,87.37756155210081 122.9723674202105,87.35099506462575 123.56814397568814,87.24472908792086 124.14100604807027,87.16502957680495 124.78261156927329,87.05876352396444 125.30964467593003,86.9524974275846 125.88250674854498,86.81966474579531 126.61577020119876,86.71339855142287 127.30320468824357,86.63369887715089 127.96772469242569,86.55399917837349 128.65515917923767,86.50086603226373 129.3196791834198,86.52743260661373 129.9612847045064,86.55399917837349 130.60289022570942,86.58056574739749 131.24449574691243,86.60713231365662 131.86318678513635,86.63369887715089 132.48187782347668,86.71339855142287 133.0318254129961,87.00563048114418 133.4901150710648,87.45726099790772 133.8109178316081,88.06828926925664 134.20046404085588,88.67931610174128 134.63583921594545,89.23720890941331 135.11704335687682,89.71540178987198 135.68990542937536,90.03419655392645 136.3085964677157,90.2467261790589 136.9272875059396,90.37955710635288 137.5918075100053,90.4858217992296 138.23341303120833,90.67178490702645 138.85210406943224,90.9640123785939 139.47079510777257,91.22967343078926 139.99782821442932,91.54846633443958 140.52486132120248,91.94695691313245 141.05189442785922,92.31888090114808 141.55601305165328,92.69080435612705 142.10596064117271,92.98302955389954 142.70173719653394,93.2221226527181 143.29751375201158,93.40808379949885 143.9162047902355,93.59404481301317 144.53489582857583,93.64717650666717 145.19941583264153,93.67374234937597 145.86393583670724,93.64717650666717 146.52845584077295,93.6206106612517 147.17006136197597,93.6206106612517 147.811666883179,93.64717650666717 148.4532724042656,93.59404481301317 149.1177924084477,93.54091310844524 149.73648344667163,93.54091310844524 150.40100345085375,93.54091310844524 151.04260897182394,93.70030818946543 151.6154710444389,94.01909805770265 152.09667518525384,94.33788753437693 152.5778793261852,94.68324235879118 153.05908346711658,95.00203101939405 153.58611657377332,95.24112225798308 154.22772209497634,95.37395062865107 154.84641313320026,95.37395062865107 155.51093313726597,95.24112225798308 156.1525386585854,95.10829381927033 156.72540073096752,94.92233389097964 157.32117728632875,94.78950528916903 157.89403935882729,94.63011087718769 158.51273039716762,94.52384788155905 159.06267798668705,94.33788753437693 159.68136902491096,94.20505863334984 160.3229745462304,94.04566386234364 161.0104090331588,93.88626899354858 161.60618558852002,93.67374234937597 162.20196214399766,93.48778139302158 162.7519097335171,93.14242497753003 163.32477180601563,92.79706810240168 163.85180491267238,92.47827673284337 164.4475814680336,92.18605096661486 165.1121014720993,92.21261695900466 165.5245621643262,92.69080435612705 165.66204906173516,93.24868853902444 165.79953595914412,93.83313734881813 165.9141083736904,94.4441506061703 166.00576630525757,95.00203101939405 166.2349111342337,95.55991023336537 166.28074009995908,96.1709194247087 166.1890821683919,96.75536165284575 166.02868078812025,97.33980256473296 165.8224504420068,97.92424216019572 165.68496354471426,98.56181112691411 165.66204906173516,99.19937852720614 165.70787802757695,99.91663998007425 165.75370699330233,100.63389945050585 165.77662147628143,101.32459188165376 165.5245621643262,101.9090225029795 165.22667388652917,102.46688686820562 165.02044354053214,103.13100954896072 164.88295664312318,103.8216953339579 164.99752905766945,104.5389440113795 165.22667388652917,105.22962604925851 165.61622009589337,105.76091867382638 166.2349111342337,105.97343541908776 166.87651665543672,106.0 167.54103665950242,105.92030624911422 168.18264218058903,105.81404787642532 168.84716218477115,105.68122484951164 169.53459667169955,105.5484017545532 170.17620219290257,105.44214322965126 170.77197874814738,105.33588466121 171.34484082076233,105.1499320618168 171.94061737612356,104.85772056496353 172.4676504827803,104.45924981174176 172.9030256579863,103.9810841002618 173.2009139355505,103.39665814532782 173.31548635009676,102.78566596712335 173.61337462777738,102.28093221306335 174.20915118325502,102.0684124440013 174.896585670067,102.33406212806585 175.42361877684016,102.70597122903564 175.99648084922228,102.99818514875369 176.6151718875626,103.18413928998052 177.16511947719846,103.26383388112299 177.7150670667179,103.2372690201446 178.28792913921643,103.15757442085305 178.7920477631269,102.91849047597498 179.27325190382544,102.54658167960588 179.68571259616874,102.01528247448732 179.98360087373294,101.43085209248238 180.2127457028255,100.87298550005653 180.39606156595983,100.20885704067769 180.60229191207327,99.54472688157693 180.8085222581867,98.90716032986529 180.99183812143747,98.2961575811496 181.1751539845718,97.71171882326598 181.33555536484346,97.15384423552314 181.45012777938973,96.51627180952346 181.47304226225242,95.878697816981 181.40429881354794,95.26768793750671 181.33555536484346,94.63011087718769 181.31264088198077,93.992532250355 181.2668119162554,93.3283861814416 181.2438974332763,92.69080435612705 181.12932501884643,92.0532209641242 180.99183812143747,91.44220207666513 180.8085222581867,90.77804948025732 180.62520639493596,90.2201599854161 180.41897604893893,89.66226929111872 180.25857466855086,89.13094370515319 180.0981732882792,88.65274974759086 179.91485742514487,88.17455490867724 179.68571259616874,87.53696041920921 179.5253112158971,86.84623128754902 179.57114018162247,86.1820669269946 179.66279811318964,85.54446754127275 179.89194294228218,84.9068665887462 180.0981732882792,84.29583087231731 180.28148915152997,83.71136057958938 180.487719497527,83.15345589016215 180.64812087779865,82.54241604433628 180.69394984364044,81.90480771427974 180.64812087779865,81.26719781741849 180.64812087779865,80.65615352912573 180.60229191207327,80.04510780182318 180.57937742909417,79.40749333443819 180.55646294623148,78.74330993150943 180.51063398038968,78.10569226485677 180.4418905316852,77.49464053058182 180.1669167369837,76.91015491622966 179.68571259616874,76.48507364239777 179.1128505236702,76.19282986258622 178.56290293403435,75.87401809095172 178.12752775894478,75.50207052892074 177.7150670667179,75.05041920099757 177.3255208574701,74.57219929090934 176.91306016524322,74.04084280130337 176.54642843885813,73.50948522338877 176.17979671247303,73.00469451633398 175.92773740063421,72.39363076721202 175.83607946906704,71.75599749447429 175.88190843479242,71.11836265446618 176.08813878090587,70.4275898092601 176.3631125757238,69.8165199898067 176.6839153362671,69.17888038264937 176.93597464822233,68.56780762181734 176.98180361406412,67.85045950053609 176.77557326795068,67.1862465084414 176.43185602442827,66.57516905359807 175.92773740063421,66.09693351970054 175.40070429397747,65.64526581685641 174.85075670434162,65.22016608415288 174.39246704638936,64.82163445203332 173.911262905458,64.42310220754007 173.40714428166393,64.02456935090595 172.94885462371167,63.62603588186903 172.4447359999176,63.25407075835392 171.89478841028176,62.935243085055845 171.34484082076233,62.8555361055769 170.84072219685186,62.935243085055845" stroke="#4dd2ff" stroke-linecap="round" stroke-linejoin="round" stroke-width="0.5"><title>2024-10-15 10.1km</title><desc>9223370307861806807</desc></polyline><polyline fill="none" points="74.72928176796995,120.0041878274642 74.88839779014233,120.80374499657773 75.20662983425427,121.51104379360913 75.65745856356807,122.18758890914614 75.9491712708259,122.92563638678985 76.13480662985239,123.72518577266601 76.37348066305276,124.49398125027074 76.58563535916619,125.23202305604354 76.3204419889953,125.90855978347827 76.10828729288187,126.52359184875968 76.05524861882441,127.29238015794544 76.08176795591135,127.96891224107821 76.29392265202478,128.70694550161716 76.4265193369938,129.4142256732448 76.55911602219567,130.1215041782125 76.74475138133857,130.79802988411393 76.8773480663076,131.50530512808473 76.79779005527962,132.24332969260286 76.7712707183091,132.91985061587184 76.93038674036507,133.50411745894235 77.14254143659491,133.62712085983367 77.46077348070685,134.026881564816 77.85856353596319,134.51889400932123 78.09723756916355,135.19540980353486 78.30939226516057,135.90267468531965 78.49502762441989,136.64068843738642 78.38895027630497,137.3479499135574 78.04419889510609,137.93220813700464 78.01767955801915,138.63946656996268 78.30939226516057,139.31597307696939 78.6011049724184,139.99247805928462 78.73370165762026,140.76123187012854 78.62762430938892,141.49923367629526 78.52154696139041,142.29873358545592 78.20331491716206,142.9444819575001 77.83204419899266,143.52872928752913 77.56685082882177,144.17447501359857 77.06298342556693,144.7587199496047 76.47955801116768,145.1892154906236 75.9491712708259,145.65046002808958 75.47182320454158,146.26545164216077 75.23314917134121,147.0341893879522 74.80883977899794,147.67992757307366 74.78232044202741,148.44866169663146 74.17237569065765,148.78690408726106 73.50939226534683,149.03289831386064 73.4033149171155,149.7401305923995 73.13812154706102,150.44736120468588 72.47513812151738,150.7856013433484 72.2099447514629,151.52357850485714 72.36906077351887,152.26155385220773 72.5812154696323,153.06102509784978 72.68729281774722,153.79899666574784 72.60773480660282,154.47546900919406 72.89944751386065,155.2134371001448 72.68729281774722,155.79766055216896 72.07734806637745,156.2281402629742 71.3878453039797,156.53562539280392 70.6718232043786,156.62787087031757 69.98232044198085,156.56637388843228 69.2928176795831,156.44337988691404 68.57679558021482,156.35113435270614 67.86077348073013,156.2588887901802 67.17127071821596,156.16664319919073 66.45524861884769,156.07439757997054 65.739226519363,155.98215193243232 65.07624309393577,155.85915769147687 64.3867403314216,155.79766055216896 63.69723756914027,155.70541481944383 62.98121546965558,155.6131690585753 62.29171270725783,155.5209232692141 61.60220994474366,155.3979288393457 60.91270718234591,155.3056829838315 60.19668508297764,155.2134371001448 59.454143646522425,155.15193982853089 58.738121547037736,155.05969389740494 58.04861878452357,154.96744793807738 57.35911602212582,154.87520195028628 56.66961325972807,154.72145857443684 56.00662983430084,154.5062177159125 55.34364640887361,154.29097670313786 54.6806629835628,153.98348927425104 54.04419889498968,153.64525273861364 53.46077348070685,153.36851347165066 52.877348066307604,153.06102509784978 52.29392265190836,152.81503417206113 51.63093922659755,152.69203863365692 50.941436464199796,152.69203863365692 50.27845303877257,152.81503417206113 49.5889502762584,153.06102509784978 49.032044198946096,153.43001110851765 48.528176795574836,153.89124298412935 48.2099447514629,154.5062177159125 47.89171270723455,155.1826884658658 47.54696132603567,155.85915769147687 47.149171270779334,156.44337988691404 46.67182320449501,156.96610404542298 46.08839778997935,157.42733048833907 45.478453038726,157.796311132377 44.84198895038571,158.04229797655717 44.12596685090102,158.28828461907688 43.436464088386856,158.38052955805324 42.72044198901858,158.38052955805324 42.00441988953389,158.22678797738627 41.341436464106664,158.10379465602455 40.704972375766374,157.9500529335637 40.04198895022273,157.73481438987073 39.29944751376752,157.796311132377 38.636464088456705,157.88855622251867 37.94696132594254,158.04229797655717 37.283977900631726,158.19603965175338 36.6209944752045,158.53427106013987 36.037569060805254,158.9339985968254 35.533701657433994,159.36447381053586 35.162430939264596,159.9794373306213 34.897237569093704,160.65589574794285 34.63204419892281,161.3016046335688 34.31381215469446,162.00880800999585 33.8895027624676,162.53152247847174 33.20000000006985,162.7467575832561 32.48397790058516,162.90049684938276 31.767955801216885,163.02348820553743 31.025414364761673,163.1464795114589 30.309392265160568,163.1464795114589 29.56685082882177,163.11573168970062 28.85082872933708,163.1464795114589 28.134806629852392,163.11573168970062 27.392265193513595,163.11573168970062 26.623204419971444,163.11573168970062 25.88066298351623,163.11573168970062 25.19116022111848,163.05423603675445 24.448618784663267,163.05423603675445 23.732596685062163,162.9927403712354 23.122651933692396,162.65451398584992 22.565745856496505,162.16254765397753 22.247513812268153,161.57833658793243 22.274033149238676,160.84038414270617 22.167955801123753,160.13317801392986 22.141436464036815,159.425970219163 22.167955801123753,158.68801248338423 22.220994475181215,157.9500529335637 22.3005524862092,157.30433683941374 22.274033149238676,156.59712238094653 21.95580110512674,156.01290048469673 21.398895027698018,155.58242046527448 20.73591160227079,155.33643160553765 19.993370165815577,155.15193982853089 19.22430939238984,155.05969389740494 18.48176795593463,155.02894524746807 17.739226519363,155.02894524746807 16.99668508290779,155.1826884658658 16.307182320393622,155.49017466642545 15.644198895082809,155.82840912346728 15.060773480683565,156.2588887901802 14.556906077428721,156.72011631945497 14.84861878468655,157.30433683941374 15.19337016576901,157.88855622251867 15.485082872910425,158.56501935102278 15.511602209997363,159.30297738921945 15.246408839826472,160.01018547359854 14.76906077354215,160.50215533250594 14.106077348114923,160.68664382162387 14.0,161.3323526411259 14.0,161.94731213041814 14.053038674057461,161.79357237610384 14.0795580111444,161.0556204598979 14.42430939222686,160.65589574794285 15.007734806626104,160.31766672988306 15.325966850970872,159.8871928830049 15.432044198969379,159.2414809553302 15.432044198969379,158.41127786479774 15.19337016576901,157.8270594989881 14.822099447599612,157.27358841936802 14.583425414399244,156.62787087031757 15.060773480683565,156.2281402629742 15.56464088393841,155.76691197778564 16.17458563542459,155.428677451564 16.864088397822343,155.2134371001448 17.55359116033651,155.02894524746807 18.296132596675307,154.96744793807738 19.03867403313052,154.998196594388 19.728176795644686,155.0904425442277 20.44419889501296,155.2441857312224 21.080662983469665,155.49017466642545 21.690607734839432,155.82840912346728 22.141436464036815,156.35113435270614 22.3005524862092,157.08909783276613 22.327071823296137,157.85780786231044 22.247513812268153,158.62651592350448 22.220994475181215,159.36447381053586 22.220994475181215,160.13317801392986 22.327071823296137,160.8711321974988 22.327071823296137,161.6398325431801 22.592265193350613,162.1317997315782 23.20220994472038,162.56227035998018 23.785635359119624,162.93124469320173 24.47513812163379,163.02348820553743 25.138121546944603,163.05423603675445 25.82762430945877,163.08498386482825 26.46408839779906,163.11573168970062 27.153591160313226,163.11573168970062 27.843093922710977,163.08498386482825 28.53259668510873,163.05423603675445 29.30165745865088,163.05423603675445 30.044198895106092,163.08498386482825 30.786740331561305,163.08498386482825 31.529281768016517,163.02348820553743 32.21878453041427,162.90049684938276 32.908287292928435,162.7467575832561 33.65082872938365,162.6237661136838 34.154696132522076,162.16254765397753 34.49944751395378,161.57833658793243 34.76464088400826,160.96337634287192 34.97679558012169,160.34841483813943 35.21546961320564,159.764200241887 35.58674033160787,159.30297738921945 36.037569060805254,158.81100556533784 36.6209944752045,158.44202616836992 37.25745856354479,158.16529132294818 37.920441988972016,157.9808012843132 38.60994475136977,157.8270594989881 39.272928176796995,157.7040660138009 39.988950276281685,157.7040660138009 40.6519337015925,157.88855622251867 41.3679558011936,158.0730463178479 42.110497237648815,158.25753629981773 42.87955801107455,158.34978124822374 43.59558011055924,158.31903293528012 44.33812154701445,158.13454299108707 45.05414364638273,157.919304579671 45.71712707192637,157.58107247846783 46.274033149238676,157.15059470754932 46.80441988958046,156.72011631945497 47.17569060774986,156.16664319919073 47.57348066312261,155.58242046527448 47.89171270723455,154.96744793807738 48.2099447514629,154.32172542868648 48.63425414368976,153.76824788664817 49.11160220997408,153.3070158220653 49.72154696134385,152.9687785243441 50.384530386771075,152.69203863365692 51.100552486255765,152.63054084550822 51.790055248653516,152.7227875229728 52.426519336993806,152.90728079288965 53.08950276253745,153.184020485176 53.69944751390722,153.4915087329573 54.33591160213109,153.82974544164608 55.02541436464526,154.10648428363493 55.688397790072486,154.41397158650216 56.35138121561613,154.65996120200725 57.01436464092694,154.78295593420626 57.70386740344111,154.84445328143192 58.36685082875192,154.93669927865267 59.08287292823661,155.02894524746807 59.798895027604885,155.12119118793635 60.461878453032114,155.2134371001448 61.151381215429865,155.33643160553765 61.86740331503097,155.428677451564 62.55690607742872,155.49017466642545 63.21988950285595,155.6131690585753 63.96243093931116,155.67466623563087 64.65193370170891,155.82840912346728 65.3679558011936,155.88990625640145 66.05745856347494,156.01290048469673 66.7469613259891,156.1051461228053 67.43646408838686,156.19739173268317 68.09944751381408,156.32038583492977 68.76243093924131,156.41263137865462 69.42541436478496,156.44337988691404 70.11491712706629,156.47412839203025 70.83093922655098,156.44337988691404 71.46740331500769,156.2896373141557 72.07734806637745,156.1051461228053 72.55469613266177,155.70541481944383 73.0320441989461,155.1826884658658 73.4828729282599,154.6292125111213 73.90718232048675,154.1987305075454 74.5701657460304,153.82974544164608 75.28618784539867,153.7067503189901 75.9491712708259,153.86049421451753 76.53259668522514,154.22947924249456 77.06298342556693,154.65996120200725 77.59337016590871,155.0904425442277 78.12375690625049,155.55167186885956 78.68066298344638,156.01290048469673 79.2375690608751,156.47412839203025 79.74143646412995,156.90460713283392 80.21878453041427,157.30433683941374 80.69613259669859,157.73481438987073 81.14696132601239,158.19603965175338 81.46519337024074,158.81100556533784 81.62430939229671,159.4567184189218 81.65082872938365,160.13317801392986 81.38563535921276,160.77888802369125 81.09392265195493,161.393848646665 80.51049723755568,162.65451398584992 80.37790055258665,163.2694707668561 80.32486187852919,163.91517403142643 80.40441988955718,164.59162358098547 80.61657458578702,165.23732400193694 81.01436464081053,165.82152794819558 81.49171270721126,166.34423577858252 81.8895027624676,166.92843757095397 82.28729281784035,167.48189085203921 82.7116022099508,168.0353431130061 83.18895027635153,168.4965525509906 83.71933701669332,168.86551959146163 84.30276243097614,169.20373898008256 84.91270718234591,169.572705151455 85.4430939226877,170.06465934126754 85.68176795588806,170.74109503612272 85.73480662994552,171.47902314693783 85.76132596691605,172.21694944423507 85.81436464097351,172.98562074208166 85.86740331491455,173.75429007221828 85.92044198897202,174.49221077770926 85.97348066302948,175.19938308550627 86.0,175.90655372766196 85.89392265200149,176.61372270452557 85.70828729274217,177.29014364554314 85.46961325977463,177.90507045158301 85.23093922669068,178.5507422426017 84.99226519349031,179.2271588202566 84.72707182331942,179.8420816595317 84.80662983423099,179.6883510677435 84.99226519349031,178.981189331942 85.25745856354479,178.3047722001793 85.5226519338321,177.62835354477284 85.70828729274217,176.95193336548982 85.84088397794403,176.24476518531446 85.86740331491455,175.5375953395269 85.84088397794403,174.83042382835993 85.81436464097351,174.12325065163895 85.73480662994552,173.50831610063324 85.73480662994552,172.83188663999317 85.68176795588806,172.15545565547654 85.65524861880112,171.44827617856208 85.62872928171419,170.7718420768797 85.41657458560076,170.12615355831804 84.88618784525897,169.66494662346668 84.24972375691868,169.29598056548275 83.63977900566533,168.95776128064608 83.10939226532355,168.55804708926007 82.63204419892281,168.06609043088974 82.23425414366648,167.51263822667534 81.78342541435268,166.98993243041332 81.35911602212582,166.43647824242362 80.98784530395642,165.9137705725152 80.64309392264113,165.36031440092484 80.4309392265277,164.68386658327654 80.32486187852919,164.00741724148975 80.35138121561613,163.33096637570998 80.51049723755568,162.5930182383454 80.74917127075605,161.94731213041814 81.12044198904186,161.3016046335688 81.41215469618328,160.65589574794285 81.62430939229671,159.94868918455904 81.57127071823925,159.2414809553302 81.38563535921276,158.595767638908 81.0674033149844,158.04229797655717 80.64309392264113,157.58107247846783 80.13922651938628,157.11984627178754 79.58232044195756,156.6893678395718 79.0519337017322,156.19739173268317 78.54806629836094,155.76691197778564 78.01767955801915,155.33643160553765 77.51381215476431,154.90595061602653 76.98342541442253,154.47546900919406 76.4265193369938,154.0757355359965 75.8696132596815,153.79899666574784 75.20662983425427,153.73749910434708 74.5701657460304,153.76824788664817 73.96022099454422,153.43001110851765 73.50939226534683,153.03027624310926 73.37679558014497,152.56904304478667 73.35027624317445,151.73882150196005 73.82762430945877,151.33908438464277 74.19889502762817,150.81635042800917 74.33149171283003,150.324364696251 74.25193370168563,149.83237815802568 74.22541436459869,149.15589535157778 74.5171270717401,148.72540549910627 74.80883977899794,148.23341634051758 74.83535911608487,147.55692993060802 75.18011049728375,147.0341893879522 75.3922651935136,146.4191993488057 75.73701657459605,145.74270885047736 76.26740331493784,145.4044630296121 76.7712707183091,144.97396779726841 77.27513812156394,144.4204730199708 77.59337016590871,143.80547762592323 77.88508287305012,143.15973110616324 78.30939226516057,142.60623298343853 78.46850828733295,141.96048388374038 78.68066298344638,141.3147333949164 78.7867403315613,140.76123187012854" stroke="#4dd2ff" stroke-linecap="round" stroke-linejoin="round" stroke-width="0.5"><title>2024-10-01 10.0km</title><desc>9223370309112650807</desc></polyline><polyline fill="none" points="171.01592410576995,114.0 171.4048960271757,114.90211349684978 171.77098724723328,115.53889760238235 172.022674961132,116.12261499004671 172.15995916875545,116.73286357920733 172.34300477872603,117.36964318255195 172.52605038881302,118.03295360412449 172.41164688253775,118.7227946400235 172.0913170648273,119.33303710145992 172.13707846752368,120.1024711986247 172.25148197368253,120.81883882009424 172.4574082851177,121.48214040635503 172.50316968758125,122.17197225359268 172.66333459643647,122.88833415001864 172.86926090763882,123.55163043533685 172.77773810271174,124.24145676969783 172.59469249250833,124.93128126655938 172.8921416088706,125.54150909726741 173.3268749328563,126.01907770102844 173.73872755549382,126.49664542402024 173.9217731654644,127.1334010179853 174.08193807443604,127.7436236597714 174.24210298317485,128.38037618770613 174.0132959706243,128.91100209829165 173.69296615303028,129.4681581343757 173.89889246434905,130.26409324939596 174.24210298317485,130.76818422367796 174.4709099958418,131.37839830078883 174.42514859337825,132.04167284077266 174.21922228194308,132.70494568214053 174.03617667185608,133.3151551959454 173.71584685426205,133.8457709957438 173.46415914036334,134.4559778215189 173.12094862153754,135.06618320959387 172.6175731937401,135.4906730664079 172.022674961132,135.88863167533418 171.5879416371463,136.47230319553637 171.33625392336398,137.16209511458874 171.01592410576995,137.6661726628372 170.92440130072646,138.30290079521365 170.58119078190066,138.67432481618016 169.98629254917614,138.67432481618016 169.87188904290088,139.3906410667405 169.6659627314657,140.02736495962017 169.18546800513286,140.3191962207784 168.77361538237892,140.79673757526325 168.84225748619065,141.51304795593023 169.0481837975094,142.28241615835577 169.18546800513286,142.89260310772806 169.11682590132114,143.50278861948755 169.3227522126399,144.16603211071924 169.11682590132114,144.72315533083747 168.5448083699448,145.09457014515647 167.90414873475675,145.2802773526637 167.28636980068404,145.3863956971618 166.66859086672775,145.30680694285547 166.02793123142328,145.20068856576108 165.38727159623522,145.12109975444037 164.76949266227894,145.04151091864333 164.12883302697446,144.98845168115804 163.48817339167,144.88233317364939 162.87039445783012,144.8027442645107 162.2526155237574,144.69662568086642 161.61195588856936,144.61703671465511 160.99417695461307,144.53744772390928 160.37639802065678,144.45785870883265 159.78149978793226,144.40479935178882 159.11795945139602,144.27215091171092 158.4544191149762,144.2190915165702 157.79087877855636,144.13950240370468 157.12733844202012,144.05991326624644 156.50955950794742,143.98032410437008 155.9146612752229,143.87420518381987 155.29688234138303,143.71502672147471 154.7019841085421,143.5558481613698 154.1757279796293,143.31708013764 153.62659114948474,143.02525225430145 153.07745431922376,142.813013587147 152.55119819031097,142.60077474600985 151.97918065893464,142.3354759501526 151.43004382867366,142.09670680150157 150.88090699841268,142.01711703639012 150.24024736334104,142.09670680150157 149.66822983173188,142.2558862583537 149.11909300158732,142.54771500863717 148.6843596776016,142.89260310772806 148.2496263537323,143.47625884457375 147.9064158347901,144.13950240370468 147.5632053159643,144.7762146226305 147.1513526934432,145.3863956971618 146.62509656441398,145.89045723972959 146.00731763034128,146.34145884105237 145.34377729392145,146.6332829882158 144.65735625615343,146.84551852510776 143.94805451715365,146.95163622833206 143.26163347950205,146.89857738214778 142.5980931429658,146.76593021917506 141.98031420900952,146.6332829882158 141.33965457370505,146.4741062214889 140.72187563974876,146.3945178014401 140.10409670579247,146.44757675076835 139.48631777171977,146.6067535338807 138.8456581365317,146.76593021917506 138.22787920257542,147.03122447719215 137.67874237243086,147.37610660647624 137.22112834721338,147.827105621167 136.83215642580763,148.35769169186824 136.64911081583705,148.9943935420597 136.3287809981266,149.65762297186302 136.03133188176434,150.29432162686135 135.57371785666328,150.69225749149336 134.955938922707,150.7718445911014 134.3381599886343,150.9310187169176 133.72038105479442,151.01060574312578 133.1254828220699,150.98407673710608 132.46194248553365,151.063663746987 131.79840214911383,150.98407673710608 131.2035039162729,151.063663746987 130.58572498243302,151.03713474640972 129.9908267495921,151.01060574312578 129.37304781551939,150.98407673710608 128.70950747909956,151.01060574312578 128.0688478439115,150.9310187169176 127.42818820860703,150.9310187169176 126.81040927465074,150.82490264391527 126.3299145483179,150.42696698301006 125.91806192556396,150.0820889157767 125.73501631559338,149.55150637720362 125.68925491312984,148.88827667574515 125.62061280931812,148.1719866907224 125.64349351054989,147.56181217820267 125.66637421178166,146.97816564733512 125.75789701682515,146.42104727745755 125.75789701682515,145.81086864025565 125.57485140673816,145.17415896471357 125.11723738152068,144.69662568086642 124.4994584475644,144.32521029590862 123.85879881237634,144.13950240370468 123.19525847584009,144.0068538276828 122.48595673695672,143.98032410437008 121.82241640042048,144.05991326624644 121.18175676523242,144.13950240370468 120.56397783115972,144.37826966916327 120.01484100101516,144.6700960282178 119.58010767702945,145.01498130123946 119.12249365192838,145.35986611508997 119.30553926201537,145.9700458146399 119.6258690796094,146.5006356893573 119.85467609215993,147.08428329619346 119.87755679350812,147.7209882765892 119.69451118342113,148.25157456457964 119.30553926201537,148.70257205504458 118.71064102929085,148.80868899740744 118.61911822424736,149.52497722173575 118.73352173052263,150.16167620272608 118.80216383433435,150.79837361889076 118.80216383433435,151.43506946996786 118.77928313310258,152.071763756132 118.80216383433435,152.70845647738315 118.77928313310258,153.34514763363404 118.80216383433435,153.92877981887432 118.77928313310258,154.51241068923264 118.80216383433435,155.12256882950896 118.80216383433435,155.75925405242015 118.82504453556612,156.44899461136083 118.82504453556612,157.05914819033933 118.82504453556612,157.66930033219978 118.82504453556612,158.30597929592477 118.80216383433435,158.9426566948532 118.80216383433435,159.60586065496318 118.77928313310258,160.24253485922236 118.80216383433435,160.85267950352863 118.77928313310258,161.46282271071686 118.80216383433435,162.07296448101988 118.82504453556612,162.73616042756476 118.82504453556612,163.37282693907036 118.8479252369143,164.06254722751328 118.98520944442134,164.75226567988284 119.35130066447891,165.33587216690648 119.8089146896964,165.76031242264435 120.33517081860919,166.21127943240572 120.88430764875375,166.4765537774947 121.34192167397123,166.741827850783 121.82241640042048,167.11321109722485 122.417314633145,167.3254298560787 123.01221286586951,167.37848451876198 123.58423039724585,167.2723751826852 124.1562479287386,167.13973845157307 124.72826546023134,167.06015638032113 125.25452158926055,166.9540469139465 125.75789701682515,166.84793740414898 126.3299145483179,166.76835524322814 126.97057418350596,166.6887730578892 127.56547241623048,166.60919084804482 128.20613205141854,166.52960861384054 128.86967238795478,166.5030811970355 129.57897412695456,166.52960861384054 130.2425144634908,166.58266343938885 130.90605480002705,166.58266343938885 131.56959513644688,166.55613602793892 132.23313547298312,166.60919084804482 132.87379510817118,166.7948826328211 133.42293193831574,167.24584784184117 133.8119038597215,167.82944871194195 134.17799507989548,168.4395754885918 134.4983248974895,169.04970082850195 134.91017752012704,169.55371632994502 135.41355294792447,169.9516226122796 136.008451180649,170.21689312753733 136.6033494132571,170.32300125766778 137.24400904844515,170.4025823266711 137.9075493849814,170.56174439148162 138.45668621512596,170.77396032569231 139.0515844479669,170.98617608618224 139.5549598755315,171.25144554235158 140.05833530321252,171.59629542930634 140.53883002966177,171.94114485717728 141.0422054573428,172.28599382616812 141.54558088514023,172.65736912560533 142.09471771516837,172.9491636302846 142.6896159478929,173.18790434426046 143.3073948819656,173.42664483826957 143.94805451715365,173.58580504532438 144.56583345122635,173.66538511228282 145.18361238518264,173.66538511228282 145.84715272171889,173.66538511228282 146.4420509544434,173.66538511228282 147.01406848581973,173.61233173703658 147.60896671854425,173.58580504532438 148.2725070550805,173.58580504532438 148.8674052876886,173.5327516538964 149.50806492299307,173.50622495406424 150.14872455818113,173.50622495406424 150.7893841933692,173.55927835096372 151.36140172486193,173.85107183994842 151.9105385551229,174.1959182669525 152.39103328145575,174.5938174201001 152.871528007905,174.91213630262064 153.37490343558602,175.20392826807802 153.96980166831054,175.4161404001934 154.58758060238324,175.44266690450604 155.2282402375713,175.36308738341904 155.82313847029582,175.17740173928905 156.41803670290392,175.07129559718305 157.0586963382084,174.91213630262064 157.6535945709329,174.77950348242302 158.22561210242566,174.6203440085519 158.797629633802,174.48771103899344 159.34676646406297,174.38160461443476 159.9187839954393,174.1959182669525 160.5365629293956,174.03675843466772 161.17722256470006,173.82454517271253 161.8407629011199,173.74496515467763 162.43566113396082,173.4796982514963 162.9619172627572,173.16137760915444 163.44241198920645,172.81652980527724 163.96866811823566,172.5512619514775 164.49492424714845,172.28599382616812 165.04406107740942,172.23294016849832 165.43303299869876,172.63084233619156 165.54743650509045,173.26748453333857 165.68472071259748,173.93065182532882 165.86776632268447,174.6203440085519 166.02793123142328,175.25698131739045 166.25673824409023,175.78751121324603 166.25673824409023,176.3976192504051 166.07369263388682,176.9811995071359 165.86776632268447,177.59130473373807 165.73048211506102,178.174882301857 165.59319790755399,178.81151087739272 165.5703172062058,179.44813788859756 165.63895931001753,180.05823730674456 165.68472071259748,180.69486125494586 165.6618400113657,181.30495773762232 165.52455580374226,181.8885269422026 165.3186294924235,182.39251747031813 165.0669417786412,182.89650701824576 164.92965757101774,183.45354695702554 164.86101546720602,184.01058569844463 164.90677686978597,184.62067437460064 165.08982247987296,185.17771060712403 165.43303299869876,185.65516928202123 166.0050505301915,185.9734745764872 166.69147156795952,185.9734745764872 167.35501190437935,185.89389828947606 168.04143294214737,185.76127109024674 168.7049732786836,185.68169473813032 169.36851361510344,185.5490674302273 170.0091732502915,185.44296553512686 170.58119078190066,185.31033810504596 171.3133732220158,185.15118509947206 171.8625100523932,184.8594043352059 172.34300477872603,184.4615209454496 172.8006188039435,184.03711132291937 173.12094862153754,183.480072638602 173.28111353027634,182.89650701824576 173.48703984171152,182.36599167750683 174.05905737308785,182.07420777715743 174.69971700839233,182.23336267264676 175.22597313730512,182.55167217028793 175.7522292662179,182.89650701824576 176.3700082002906,183.10871285042958 177.03354853671044,183.21481570135802 177.71996957447845,183.1882899926859 178.33774850843474,183.02913568375516 178.9097660399275,182.71082677252707 179.36738006502856,182.25988847902045 179.73347128508613,181.75589769292856 179.98515899898484,181.14580227198894 180.16820460907184,180.56223139472422 180.39701162162237,179.97865920318873 180.58005723170936,179.36855959772947 180.78598354302812,178.75845855582156 180.96902915311512,178.1218298500462 181.1520747632021,177.51172587263864 181.33512037317269,176.84856774605578 181.4037624769844,176.2119343476952 181.4037624769844,175.57529938523658 181.38088177575264,174.91213630262064 181.35800107440446,174.2489715226984 181.31223967205733,173.5327516538964 181.28935897082556,172.89611010841327 181.17495546443388,172.28599382616812 181.0605519581586,171.67587610715418 180.83174494549166,171.06575695151696 180.60293793305755,170.4291093442589 180.4656537254341,169.81898725268547 180.3054888166953,169.23539086422534 180.07668180402834,168.73137474348187 179.9393975965213,168.22735764228855 179.73347128508613,167.61723036580952 179.52754497388378,167.007101652649 179.504664272652,166.34391663892893 179.57330637634732,165.73378492705524 179.80211338889785,165.09712421748554 180.0309204015648,164.51351719265222 180.23684671288356,163.92990885314066 180.39701162162237,163.29324371073744 180.58005723170936,162.656577003625 180.6486993355211,161.96685297199292 180.6486993355211,161.30365505607915 180.62581863428932,160.66698345952318 180.58005723170936,160.03031029828708 180.5571765304776,159.36710742491414 180.5571765304776,158.70390285359463 180.51141512789764,158.14680970169138 180.48853442666586,157.58971535175806 180.28260811546352,157.05914819033933 179.87075549270958,156.6346936788177 179.34449936379679,156.28982387614087 178.81824323476758,155.99801060755271 178.2919871058548,155.6266114267346 177.8343730806373,155.14909741168958 177.39963975688443,154.5919966150832 176.9877871342469,154.03489462041762 176.59881521272473,153.53084892613697 176.20984329131898,153.02680225111544 175.98103627888486,152.39011031232076 175.8437520712614,151.7534168086131 175.88951347372495,151.03713474640972 176.09543978516012,150.4004379172693 176.34712749894243,149.81679778234684 176.69033801788464,149.20662714436185 176.91914503031876,148.54339655983495 176.94202573166694,147.88016427707043 176.78186082281172,147.21693029615562 176.41576960275415,146.6332829882158 175.88951347372495,146.1557523944066 175.34037664358038,145.67822092032293 174.79123981343582,145.20068856576108 174.26498368440662,144.74968497804366 173.80736965930555,144.35173998388927 173.3268749328563,143.9272646495665 172.8006188039435,143.529318391782 172.27436267503072,143.184431140573 171.70234514342155,142.94566277446575 171.13032761204522,143.02525225430145" stroke="#4dd2ff" stroke-linecap="round" stroke-linejoin="round" stroke-width="0.5"><title>2024-09-21 10.1km</title><desc>9223370309978945807</desc></polyline></svg>