<?xml version="1.0" encoding="utf-8" ?>
<svg baseProfile="full" height="300mm" version="1.1" viewBox="0,0,200,300" width="200mm" xmlns="http://www.w3.org/2000/svg" xmlns:ev="http://www.w3.org/2001/xml-events" xmlns:xlink="http://www.w3.org/1999/xlink"><defs /><rect fill="#222222" height="300" width="200" x="0" y="0" /><text fill="#FFFFFF" style="font-size:12px; font-family:Arial; font-weight:bold;" x="10" y="20">Over 10km Runs</text><text fill="#FFFFFF" style="font-size:4px; font-family:Arial" x="10" y="280">ATHLETE</text><text fill="#FFFFFF" style="font-size:9px; font-family:Arial" x="10" y="290">mikusugar</text><text fill="#FFFFFF" style="font-size:4px; font-family:Arial" x="65" y="280">SPECIAL TRACKS</text><rect fill="yellow" height="2.6" width="2.6" x="65" y="283" /><text fill="#FFFFFF" style="font-size:3px; font-family:Arial" x="70" y="285.5">Over 20.0 km</text><rect fill="red" height="2.6" width="2.6" x="65" y="287" /><text fill="#FFFFFF" style="font-size:3px; font-family:Arial" x="70" y="289.5">Over 40.0 km</text><text fill="#FFFFFF" style="font-size:4px; font-family:Arial" x="120" y="280">STATISTICS</text><text fill="#FFFFFF" style="font-size:3px; font-family:Arial" x="120" y="285">Number: 11</text><text fill="#FFFFFF" style="font-size:3px; font-family:Arial" x="120" y="290">Weekly: 2.2</text><text fill="#FFFFFF" style="font-size:3px; font-family:Arial" x="141" y="285">Total: 112.2 km</text><text fill="#FFFFFF" style="font-size:3px; font-family:Arial" x="141" y="290">Avg: 10.2 km</text><text fill="#FFFFFF" style="font-size:3px; font-family:Arial" x="167" y="285">Min: 10.0 km</text><text fill="#FFFFFF" style="font-size:3px; font-family:Arial" x="167" y="290">Max: 10.9 km</text><polyline fill="none" points="55.67824580910383,33.0 55.84903280052822,33.5545320942183 56.12229198671412,34.010039410030004 56.3784724738216,34.66359150961216 56.56633816432441,35.21811883081682 56.702967757417355,35.71323116599524 56.890833447978366,36.22814664921316 56.82251865143189,36.74306076060748 56.60049556265585,37.198560561810154 56.49802336777793,37.67386355774943 56.61757426173426,38.188773817732 56.75420385482721,38.683878543335595 56.85667604964692,39.19878611259628 56.942069545330014,39.71369231023709 57.09577783761779,40.18898912136501 57.09577783761779,40.7038926811656 57.044541740149725,41.218794869375415 57.147013935027644,41.694087979529286 57.42027312127175,42.109968492237385 57.74476840492571,42.48624056603876 57.898476697155274,42.981334284108016 58.06926368846325,43.49623040572624 58.13757848512614,44.0309287726559 57.898476697155274,44.506214968219865 57.898476697155274,45.001303512603045 58.06926368846325,45.377569958305685 58.240050679887645,45.89245969719195 58.325444175628945,46.42715143595706 58.240050679887645,46.902431739959866 58.1034210867947,47.437120685208356 57.88139799796045,47.912398506043246 57.64229621004779,48.32826564072457 57.43735182035016,48.76393501278653 57.06162043934455,49.14019413484493 56.66881035914412,49.45704335383198 56.29307897813851,49.81349810452957 56.08813458844088,50.28877008293057 55.88319019880146,50.74423796583142 55.72948190651368,51.19970477568859 55.558694915205706,51.59576199896401 55.06341264012735,51.63536767665937 54.87554694962455,52.051226802606834 54.77307475480484,52.566098766808864 54.34610727633117,52.86313966086891 54.072848090087064,53.29879881325178 54.1923989841016,53.813667454887764 54.31194987805793,54.32853472538409 54.43150077201426,54.823598115486675 54.36318597540958,55.279055314778816 54.55105166591238,55.734511441070936 54.29487117897952,56.15036174975103 53.85082500131102,56.447397136944346 53.35554272629088,56.60581582352461 52.87733915046556,56.60581582352461 52.38205687538721,56.52660649646714 51.86969590123044,56.46719947984093 51.340256227878854,56.42759479195229 50.84497395291692,56.36818774497078 50.31553427968174,56.328583036825876 49.78609460633015,56.269175959401764 49.2737336322316,56.189966494435794 48.761372658016626,56.110756997048156 48.231932984723244,56.05134985264158 47.73665070976131,55.99194269004511 47.241368434682954,55.91273311142868 46.72900746052619,55.85332590629696 46.233725185506046,55.774116270884406 45.73844291054411,55.71470902314468 45.243160635523964,55.63549933095055 44.7307996613672,55.57609204055916 44.218438687268645,55.51668473194877 43.75731381046353,55.41767251028796 43.31326763285324,55.259252850170014 42.88630015437957,55.06122809248336 42.459332675964106,54.8434006246971 42.049443896568846,54.62557291158009 41.605397719016764,54.42754750481981 41.161351541406475,54.22952189526404 40.700226664717775,54.15031159463979 40.20494438963942,54.170114172797184 39.726740813814104,54.30873216339387 39.26561593700899,54.52656023357122 38.88988455600338,54.8830056371371 38.616625369817484,55.33846269645437 38.377523581904825,55.79391868278617 38.12134309479734,56.249373596248915 37.83100520941662,56.665222797499155 37.489431226684246,57.0216642581363 37.06246374815237,57.318698306626175 36.56718147319043,57.55632521692314 36.08897789736511,57.71474299483816 35.59369562228676,57.79395183516317 35.098413347266614,57.77414962810872 34.58605237310985,57.71474299483816 34.107848797226325,57.63553412207693 33.646723920537625,57.55632521692314 33.18559904373251,57.43751179828541 32.70739546784898,57.477116279289476 32.21211319282884,57.51672075215902 31.73390961694531,57.5959296735964 31.289863439335022,57.75434741903155 30.879974660114385,58.03157816131716 30.5384006772656,58.34841280854016 30.230984092806466,58.74445538746659 30.06019710144028,59.23950747032359 29.87233141082106,59.75436029181583 29.633229622908402,60.20980587575468 29.223340843687765,60.546438878722256 28.693901170394383,60.605844641904696 28.181540196179412,60.704854206735035 27.68625792110106,60.803863720808295 27.17389694706071,60.82366561757226 26.695693371177185,60.82366561757226 26.23456849437207,60.82366561757226 25.75636491854675,60.82366561757226 25.295240041741636,60.803863720808295 24.81703646585811,60.82366561757226 24.3559115891112,60.803863720808295 23.860629314149264,60.78406182206527 23.39950443734415,60.76425992127042 22.92130086151883,60.72465611359803 22.494333383103367,60.546438878722256 22.135680701117963,60.24940978887025 21.896578913205303,59.873172286723275 21.93073631147854,59.41772590983601 21.862421514932066,59.001882628770545 21.794106718327384,58.58603845327161 21.81118541752221,58.17019338335376 21.879500214068685,57.77414962810872 21.879500214068685,57.318698306626175 21.896578913205303,56.86324591230368 21.657477125292644,56.447397136944346 21.230509646818973,56.15036174975103 20.73522737179883,55.932535509142326 20.222866397642065,55.79391868278617 19.7105054234853,55.734511441070936 19.198144449386746,55.75431385698903 18.668704776035156,55.79391868278617 18.17342250101501,55.932535509142326 17.72937632346293,56.15036174975103 17.370723641477525,56.407792445024825 16.9779135613353,56.58601349478704 17.04622835793998,56.9820596838108 17.31948754406767,57.39790730923414 17.5244319337653,57.79395183516317 17.55858933198033,58.44742352933099 17.353644942399114,58.86326800296956 16.994992260471918,59.19990335032344 16.585103481134865,59.43752794851025 16.585103481134865,59.95238024277205 16.704654375149403,60.427627297569416 16.72173307428602,60.92267507080396 16.704654375149403,61.4771270720521 16.704654375149403,61.99197393533541 16.704654375149403,62.50681942769734 16.738811773364432,63.0018618775066 16.738811773364432,63.51670468089287 16.72173307428602,64.01174454520515 16.738811773364432,64.50678314217657 16.72173307428602,64.942416059057 16.704654375149403,65.39784942280676 16.704654375149403,65.8730830935092 16.704654375149403,66.34831559626036 16.72173307428602,66.84334821127413 16.738811773364432,67.33837955897616 16.738811773364432,67.83340963941009 16.704654375149403,68.30863732437138 16.704654375149403,68.78386384142505 16.72173307428602,69.23928815771069 16.738811773364432,69.73431337188231 16.72173307428602,70.18973544971959 16.772969171695877,70.6649573440227 16.858362667320762,71.14017807038908 17.114543154486455,71.51639365054143 17.38780234067235,71.91240926002502 17.746455022657756,72.20942043495597 18.139265102799982,72.42722833996231 18.532075182942208,72.62523531341867 18.85657046653796,72.94204604937113 19.317695343284868,73.10045122263546 19.778820220089983,73.1202518601931 20.25702379597351,73.06084994149569 20.71814867266221,73.00144800456474 21.196352248545736,72.94204604937113 21.60624102782458,72.86284341399733 22.084444603708107,72.74403940024786 22.665120374411345,72.62523531341867 23.16040264943149,72.56583324268286 23.655684924451634,72.50643115365529 24.150967199529987,72.50643115365529 24.629170775355306,72.52623185208358 25.107374351238832,72.56583324268286 25.602656626258977,72.58563393494114 26.09793890127912,72.60543462523492 26.593221176357474,72.58563393494114 27.071424752182793,72.66483668386354 27.481313531519845,72.88264407590032 27.78873011597898,73.19945439013827 28.044910603086464,73.59546655300073 28.284012390999123,74.03107899558381 28.523114178911783,74.46669045693125 28.86468816170236,74.86270002488163 29.30873433931265,75.12010580919741 29.769859216059558,75.27850919844059 30.28222019021632,75.37751125085924 30.74334506696323,75.4963136468723 31.204469943710137,75.59531558777962 31.665594820515253,75.73391821990663 32.092562298930716,75.9319218078308 32.50245107815135,76.14972552031395 32.895261158351786,76.44673018762842 33.28807123861043,76.72393413216923 33.680881318752654,77.00113767939911 34.107848797226325,77.23874040367082 34.56897367397323,77.43674245088187 35.03009855072014,77.59514394267171 35.4570660291356,77.73374514159514 35.93526960507734,77.79314562503714 36.396394481824245,77.83274593713577 36.840440659434535,77.81294578210509 37.284486836986616,77.79314562503714 37.745611713733524,77.79314562503714 38.22381528961705,77.77334546594648 38.68494016630575,77.75354530478944 39.146065043110866,77.73374514159514 39.607189919857774,77.71394497642177 40.08539349568309,77.67434463994869 40.56359707162483,77.75354530478944 40.99056455004029,77.91194653717685 41.3662959310459,78.14954814242083 41.7249486130313,78.40694955200888 42.08360129490029,78.66435061907396 42.51056877337396,78.9217513435724 42.98877234925749,79.09995164451539 43.48405462427763,79.1395516890334 43.94517950102454,79.08015161915682 44.40630437777145,78.96135142464482 44.86742925440194,78.82275110550108 45.345632830343675,78.70395075289707 45.84091510530561,78.5851503272861 46.319118681305554,78.4861499168328 46.763164858857635,78.36734935748973 47.241368434682954,78.2485487251106 47.71957201062469,78.12974801976816 48.214854285586625,77.99114710465074 48.71013656066498,77.85254609020194 49.17126143735368,77.67434463994869 49.59822891582735,77.41694225525134 50.0081176951644,77.1793397499423 50.400927775364835,76.96153719697031 50.81081655464368,76.74373439869669 51.25486273225397,76.74373439869669 51.545200617576484,77.04073815372249 51.66475151164923,77.51594321301673 51.76722370641073,78.03074737625138 51.85261720215203,78.50595000301837 51.972168096050154,78.9217513435724 52.14295508747455,79.35735178926552 52.1087976891431,79.8325511564617 51.98924679518677,80.28794945441769 51.81845980382059,80.74334668008669 51.69890890986426,81.23834244835598 51.613515414181165,81.69373743630422 51.6476728124544,82.16893106310454 51.69890890986426,82.6243238599709 51.73306630807929,83.11931481429201 51.73306630807929,83.6143045018107 51.511043219361454,84.06969389563892 51.289020130527206,84.48548327527533 51.11823313916102,84.9012717610749 51.01576094434131,85.3764575075329 51.049918342614546,85.83184275253734 51.186547935707495,86.30702621290402 51.4598071219516,86.68321229110006 51.86969590123044,86.94060234411154 52.38205687538721,87.0 52.87733915046556,86.96040156476374 53.40677882370073,86.88120466994587 53.9191397978575,86.80200774276454 54.43150077201426,86.70301153813489 54.92678304709261,86.62381453787384 55.42206532205455,86.52481824204733 55.86611149960663,86.38622334276442 56.31015767721692,86.16843115756637 56.685889058338944,85.89124074889696 57.027463041071314,85.55465186155925 57.249486129847355,85.11906537313189 57.369037023803685,84.62407953650109 57.64229621004779,84.22808995515516 58.1034210867947,84.0894934101525 58.54746726434678,84.26768894973793 58.95735604374204,84.50528274722456 59.36724482302088,84.72307680516678 59.79421230155276,84.84187346063845 60.23825847910484,84.9012717610749 60.68230465671513,84.9012717610749 61.1092721351888,84.86167289617879 61.536239613604266,84.66367845000059 61.89489229553146,84.34688691470365 62.16815148177557,83.93109723707312 62.407253269688226,83.5549058062461 62.543882862781174,83.11931481429201 62.66343375679571,82.68372284134966 62.782984650693834,82.26792958842998 62.91961424384499,81.81253595244198 63.056243836996146,81.35714124423976 63.192873430089094,80.88194562288118 63.295345624908805,80.38694894251239 63.3807391205919,79.89195099523931 63.43197521800175,79.39695178109105 63.397817819728516,78.90195130003849 63.3807391205919,78.42674964629987 63.34658172231866,77.95154682491557 63.295345624908805,77.47634283595835 63.295345624908805,76.98133743921062 63.192873430089094,76.52593135512143 63.056243836996146,76.07052419871616 62.868378146435134,75.5755152036727 62.73174855328398,75.13990623994323 62.646355057600886,74.7438972396194 62.50972546450794,74.38748844603833 62.407253269688226,74.07068007808994 62.2877023757319,73.69446946700918 62.116915384307504,73.15985312918201 62.01444318948779,72.64503599965246 62.03152188868262,72.18961970410601 62.09983668522909,71.73420233615616 62.27062367659528,71.27878389558464 62.49264676531311,70.86296612187289 62.66343375679571,70.40754562953953 62.81714204896707,69.9521240646718 62.90253554470837,69.47690041866736 62.90253554470837,68.96207348426105 62.885456845513545,68.44724517915165 62.851299447298516,67.93241550345556 62.83422074810369,67.47698810925067 62.83422074810369,67.02155964243866 62.81714204896707,66.60573271423345 62.80006334988866,66.15030219535402 62.73174855328398,65.69487060392566 62.424331968824845,65.29884226112335 62.01444318948779,65.04142340333783 61.638711808482185,64.80380569196132 61.314216524828225,64.58598920001532 60.97264254203765,64.28896631563839 60.64814725838369,63.91273667373753 60.323651974787936,63.496903059931356 60.03331408946542,63.12067187689536 59.72589750494808,62.72463826173043 59.50387441617204,62.28900034823164 59.35016612394247,61.7939560731902 59.33308742480585,61.29891053074971 59.41848092043074,60.803863720808295 59.58926791185513,60.36822147958446 59.79421230155276,59.91277626881492 60.03331408946542,59.45732998519088 60.16994368255837,58.94247637267108 60.135786284226924,58.42762138918624 59.96499929286074,57.95236941835901 59.64050400926499,57.576127446242026 59.26477262820117,57.2790937932441 58.871962548058946,56.94245510142355 58.49623116699513,56.625618150195805 58.15465718420455,56.328583036825876 57.79600450233556,56.01174507959513 57.42027312127175,55.6949066031375 57.027463041071314,55.378067607365665 56.63465296087088,55.10083306020533 56.17352808412397,54.962215637540794 55.712403207377065,55.021623116597766 55.30251442809822,55.19984544416366 54.97801914450247,55.51668473194877 54.63644516165368,55.85332590629696" stroke="#4dd2ff" stroke-linecap="round" stroke-linejoin="round" stroke-width="0.5"><title>2024-10-25 10.2km</title><desc>9223370306998024807</desc></polyline><polyline fill="none" points="115.7410264807404,33.0 116.86904792237328,36.17105874522531 116.47594954119995,37.69711223652121 117.0399602620164,40.273538860317785 117.00577779405285,41.44282885271241 117.70651838660706,42.47338366402255 118.09961676778039,43.93993296811823 117.80906579043949,44.85156612092396 118.0312518319115,44.89120224751241 118.25343787349993,46.39736903976882 118.0312518319115,47.705346477232524 117.41596740920795,48.755685593088856 116.16830732987728,49.96455940356827 115.6213878429844,51.54995623024297 114.9206472504884,51.728312560211634 114.6813699749764,52.600274473195896 114.04899431834929,53.11552284733625 114.52754886931507,55.85027970941155 114.20281542401062,56.226801177472225 112.78424300497863,56.60332191284397 104.30699095892487,55.57284236927808 100.95710910198977,54.24510101965279 100.15382110566134,54.22528391558444 98.95743472821778,54.79997910988459 97.98323439230444,56.444786955660675 96.68430061097024,57.51489539556496 95.09481585235335,57.85178016102873 93.0096853087889,57.45544508191233 91.57402165577514,57.65361272294831 90.4801826820476,58.40664790775918 89.33507000649115,60.487387786459294 87.6601290780236,60.80445094629249 84.6691631343565,60.78463451404241 82.75494493037695,60.62610298284562 81.98583940201206,60.03160858406045 81.7294708925183,56.56368818566261 80.61854068492539,55.8700966470351 79.14869456400629,55.73137804091675 78.03776435635518,56.008815153662 76.92683414870407,56.74203989376838 77.50793610350229,58.60481457457354 77.14902019017609,59.23894654439937 76.55082700157072,59.59564486409363 76.7388305751374,70.6727820696251 76.96101661660941,71.40595124632819 77.64466597518185,72.13911764547811 79.64434034895385,73.16950897101196 84.29315598710673,72.47597695168224 87.01066218741471,72.67412921084906 87.67722031200537,73.12987863687158 89.01033656124491,75.03212552225159 91.81329893122893,75.76527818420436 94.71880870516179,77.52879618527368 96.18865482602268,77.82601673790487 100.37600714719156,77.68731387013395 103.05933087953599,79.15359630057355 108.95580659707775,77.78638735729328 111.31439688405953,76.73620581334399 111.65622156334575,77.13250140505261 112.20314105023863,79.82728990905161 111.69040403125109,81.70965667965356 111.74167773319641,83.75051786293625 111.04093714070041,85.79135752795264 111.46821798977908,86.82167617543018 112.32277968793642,87.0 116.20248979778262,86.20744841115084 116.97159532614751,85.55359090746788 117.46724111115327,84.34493940380344 117.89452196017373,84.0477288615657 120.37275088496972,85.01861494335753 121.67168466624571,84.52326551012811 122.42369896062883,83.31460757282912 123.44917299848748,79.51025791482243 123.20989572297549,76.55787253228482 122.0306005794555,72.41653123439755 122.90225351159461,69.36495988475508 122.71424993802793,65.56033599958755 121.10767394542927,64.4308238835074 119.44982425088529,61.97361685783835 119.46691548492527,60.56665362519561 120.18474731134484,58.78316440110211 119.99674373777816,57.83196342633164 116.45885830721818,54.83961319822993 115.4504755033413,54.958515414749854 114.57882257120218,55.8700966470351" stroke="#4dd2ff" stroke-linecap="round" stroke-linejoin="round" stroke-width="0.5"><title>2024-10-23 10.9km</title><desc>1729679406000</desc></polyline><polyline fill="none" points="186.9549492221463,54.44187636541085 186.95624780332582,54.444888074137225 186.9575463845058,54.44755227132191 186.95874507482586,54.451027301691624 186.95964409256567,54.4540389860382 186.96014354686577,54.45693482880449 186.96134223718582,54.45994649741249 186.9611424554655,54.46295815799692 186.95994376514545,54.465738145261184 186.95934441998588,54.46840229330769 186.9597439834256,54.47129809928094 186.9607428920258,54.47442556140038 186.9611424554655,54.47743718341246 186.96154201890522,54.48044879740178 186.9623411457851,54.48334457251781 186.96254092750542,54.48624034021668 186.96214136406525,54.489251930755245 186.9626408183649,54.49214768332308 186.96413918126518,54.49458010974797 186.96623688932505,54.496780872004024 186.96713590706486,54.49967660528739 186.9679350339443,54.50245650226236 186.9685343791043,54.50523639240157 186.9679350339443,54.50801627570581 186.96703601620493,54.51091198021288 186.96803492480421,54.511143636252996 186.96883405168455,54.51485012644059 186.9695332877045,54.518440777222395 186.9693335059842,54.52156810893507 186.96883405168455,54.524579605371855 186.96833459738446,54.52782274641004 186.96663645276476,54.530139270027576 186.9654377624447,54.53245578889914 186.9640392904048,54.53488812860621 186.96194158234584,54.53674133629988 186.95964409256567,54.53847871575363 186.9575463845058,54.54079521753954 186.95654747590606,54.54357501341815 186.95514900386615,54.545891504763176 186.95464954956606,54.54855546394276 186.95345085924646,54.55087194508451 186.9505540243067,54.55098776901684 186.94955511570697,54.55353589253036 186.94895577054695,54.55619983370036 186.9467581716276,54.55793718325583 186.94496013614753,54.56036946814925 186.94565937216748,54.56338086124458 186.9465583899073,54.56627642396552 186.9470578442074,54.56940362337593 186.9465583899073,54.572067527163654 186.94755729850704,54.57473142467552 186.94665828076722,54.57716367344483 186.94416100926765,54.57866934863284 186.9414639560482,54.579364274966565 186.93856712110892,54.57982755895182 186.9355703953088,54.57948009598056 186.93257366950957,54.57924845394041 186.92957694370943,54.57890099079157 186.92648032704983,54.57866934863284 186.92348360125106,54.57820606417317 186.92058676631132,54.57797442187211 186.91759004051164,54.57785860070385 186.9146932055719,54.57727949468415 186.91159658891183,54.57704785219369 186.9085998631126,54.576700388368636 186.90580291903325,54.57600546039782 186.9029060840935,54.57554217484676 186.90000924915375,54.575310532 186.89701252335453,54.57496306764074 186.89391590669447,54.57461560317529 186.89101907175473,54.57415231705454 186.88812223681543,54.57380485233955 186.8852254018757,54.57310992258965 186.88242845779632,54.572299170674796 186.8799311862963,54.57114095264501 186.87743391479717,54.570098555404 186.87503653415752,54.56870869092086 186.87243937179755,54.56755046921376 186.86994210029752,54.566508068662756 186.8674448287984,54.565813134428595 186.86464788471858,54.565928956830476 186.86185094063876,54.56639224631988 186.85925377827925,54.56755046921376 186.85685639764006,54.56928780132989 186.8549584712996,54.57148841817843 186.85375978098,54.57426813860252 186.85226141808062,54.57704785219369 186.85066316432085,54.57948009598056 186.84856545626099,54.58168069299393 186.84606818476095,54.58376546516229 186.84337113154152,54.585271131560035 186.84047429660177,54.58631351481449 186.83757746166248,54.586776795952915 186.83478051758266,54.58712425668193 186.83208346436322,54.586776795952915 186.82938641114333,54.58608187417451 186.8266893579239,54.585502772366 186.82389241384408,54.58503949070587 186.8213951423445,54.58480784980452 186.81869808912506,54.58503949070587 186.8157013633254,54.585502772366 186.81290441924557,54.586197694500356 186.81030725688606,54.58770335765962 186.80800976710634,54.58955647879566 186.80621173162672,54.59187287594568 186.80491315044674,54.594652546262296 186.803914241847,54.59766384806153 186.80261566066702,54.60044350414387 186.80061784346708,54.60252824172164 186.79782089938772,54.60310733481151 186.79512384616828,54.60368642760454 186.7924267929484,54.604265520101194 186.78952995800864,54.60438133856485 186.7866331230689,54.60438133856485 186.78383617898953,54.604265520101194 186.78093934404978,54.604265520101194 186.7782422908308,54.604265520101194 186.77544534675098,54.6041497016256 186.77254851181124,54.6041497016256 186.7696516768715,54.604033883137845 186.7667548419322,54.60391806463872 186.76395789785238,54.60357060906972 186.7612608446325,54.602875697611125 186.75896335485322,54.60102259830103 186.75706542851322,54.5990536769566 186.75706542851322,54.5963898367404 186.75686564679336,54.593957629323654 186.75636619249326,54.591293777102806 186.75626630163333,54.58886155872551 186.7566658650735,54.58642933511692 186.75686564679336,54.58376546516229 186.75676575593343,54.580869947224414 186.75506761131373,54.5784377064266 186.75247044895423,54.576700388368636 186.74987328659427,54.575657996252176 186.74717623337483,54.57496306764074 186.74417950757515,54.57484724616404 186.7412826726354,54.57473142467552 186.7384857285556,54.575194710559 186.73568878447622,54.57588963902765 186.73319151297665,54.57704785219369 186.7309939140573,54.57866934863284 186.72879631513752,54.58005920087294 186.7281969699775,54.582259796759786 186.72969533287687,54.58480784980452 186.7311936957767,54.58747171730408 186.73159325921688,54.590483038224875 186.73079413233745,54.59303107274127 186.7293956602971,54.59523164338498 186.72679849793758,54.595810740210936 186.72589948019777,54.598358762722796 186.72659871621727,54.601833329622764 186.72669860707765,54.6046129754568 186.72679849793758,54.60750843260189 186.72669860707765,54.61028806448644 186.72669860707765,54.61306768953966 186.72669860707765,54.61596312503809 186.72679849793758,54.61874273614217 186.72679849793758,54.621753973795876 186.72679849793758,54.6244177542676 186.72669860707765,54.62719734459188 186.72669860707765,54.62997692808506 186.72669860707765,54.63275650474657 186.72679849793758,54.635651889837845 186.72679849793758,54.6383156375756 186.72669860707765,54.64121100843545 186.7264988253578,54.643758928660645 186.7264988253578,54.64630684314557 186.72659871621727,54.648970565788545 186.72679849793758,54.6514026548964 186.7268983887975,54.65429799225353 186.72679849793758,54.657077509143505 186.7268983887975,54.65974120641977 186.72709817051737,54.66252070993312 186.72779740653732,54.66518439439062 186.72919587857723,54.66750063664574 186.73079413233745,54.66935362703441 186.73289184039686,54.671090802767026 186.73518933017658,54.67248054143204 186.73738692909592,54.673522844310014 186.7393847462954,54.67479676874575 186.7417821269355,54.675954880624204 186.74437928929547,54.67653393611863 186.74717623337483,54.676186502857604 186.7499731774542,54.67560744718503 186.75267023067408,54.67514420243367 186.75496772045426,54.67468095749291 186.75726521023307,54.67421771236218 186.7604617177526,54.67398608972553 186.76315877097295,54.673522844310014 186.76585582419193,54.673175410124145 186.76865276827175,54.67294378727445 186.77164949407143,54.67259635291043 186.77474611073103,54.67259635291043 186.77754305481085,54.6728279758313 186.78053978061007,54.67294378727445 186.7835365064102,54.67305959870532 186.78653323220942,54.673638655681884 186.78933017628924,54.67491257998688 186.79142788434865,54.677112991316335 186.79302613810842,54.67977664140915 186.79452450100825,54.68232447475884 186.79602286390764,54.68475649214781 186.79802068110757,54.68684107431966 186.8003181708873,54.688346603498985 186.8029153332468,54.68915727222691 186.8056123864667,54.68938889175638 186.80830943968613,54.68973632096254 186.8111063837655,54.69043117905426 186.81390332784576,54.691357655845536 186.81650049020527,54.692515750767484 186.81879797998454,54.694137081666554 186.82109546976426,54.695990028420056 186.82349285040436,54.697727163244394 186.82599012190394,54.69923267793433 186.82858728426345,54.70050657341494 186.8309846649031,54.70166465897023 186.83348193640313,54.702591126560606 186.83587931704278,54.70317016841932 186.83817680682205,54.70363340169331 183.63407758190124,55.0829577876201 170.196459423963,57.004145045077735 162.58028080430677,58.751319638183304 148.9706505854715,61.86280589681644 133.40565678240455,65.47265575017911 133.84397787602438,65.36836495591251 133.24263489890654,65.50305779743803 133.69703842098443,65.39498351687769 133.83259031798616,65.36251338024726 162.65340091381677,60.322637280841604 184.62049982426652,54.84768974811425 186.65188035294796,54.62951366464392 186.85515825302036,54.69737973649296 186.87903216855693,54.71000283996864 186.88412660241602,54.71139253082629 186.88712332821524,54.71092930072973 186.88992027229506,54.710350262842894 186.89271721637488,54.70953960930342 186.89561405131417,54.70872895518278 186.89861077711384,54.7079183004812 186.90130783033374,54.70733926105265 186.90390499269324,54.7066444133477 186.9067019367726,54.70606537326739 186.90969866257228,54.705370524779596 186.91229582493224,54.704444059465686 186.91499287815168,54.70374920998199 186.91768993137157,54.70247531815335 186.9206866571708,54.70062238202377 186.92348360125106,54.699001060420414 186.92638043619036,54.697611354339074 186.9290774894098,54.69784297213789 186.93057585230963,54.700274956161365 186.93107530660973,54.703054360071405 186.93177454262923,54.70606537326739 186.93237388778925,54.70872895518278 186.93317301466914,54.711160915801656 186.9338722506891,54.713824485718874 186.93347268724892,54.7164880493641 186.93267356036904,54.719035800025836 186.93187443348916,54.7218151578395 186.93107530660973,54.72482612109843 186.93097541574934,54.72772127052076 186.93127508832913,54.73096382907693 186.9313749791895,54.733974767985615 186.9313749791895,54.73686989399414 186.9304759614497,54.73964920799165 186.9289775985494,54.74219690649136 186.92797868995012,54.74486040333318 186.9273793447901,54.74763969770015 186.92757912650995,54.75065059222561 186.92877781683,54.75366147873774 186.9307756340295,54.75609334276305 186.93347268724892,54.757135568602166 186.93636952218867,54.757135568602166 186.93936624798835,54.75678816009588 186.94236297378802,54.75620914568128 186.94525980872731,54.75563013097053 186.94815664366706,54.75528272200199 186.95125326032667,54.75470370681717 186.9541500952664,54.754124691336074 186.95694703934578,54.75319826594966 186.95944431084536,54.75157701969806 186.96164190976515,54.7496083604118 186.9633400543853,54.74729228627746 186.96413918126518,54.74474459925318 186.965038199005,54.74196529777373 186.9672357979248,54.7403440354243 186.97013263286453,54.740575644473665 186.97262990436366,54.74219690649136 186.9750272850033,54.743933970360104 186.97782422908313,54.74509201145793 186.98072106402287,54.74555522756509 186.9834181172423,54.7456710315621 186.98601527960182,54.74509201145793 186.98831276938154,54.74381816618529 186.99051036830133,54.74219690649136 186.99220851292148,54.73976501259369 186.993507094101,54.73710150375473 186.99440611184082,54.734553793779924 186.99510534786077,54.73212188345178 186.9959044747402,54.72934255096061 186.99700327420032,54.72644740568785 186.99780240108066,54.723668059255374 186.99860152796055,54.7208887059935 186.99940065483997,54.71822515271049 186.99980021828014,54.71532997898464 186.99990010914007,54.712434797848914 186.99980021828014,54.70965541698729 186.99970032742021,54.7066444133477 186.99950054570036,54.70386501825874 186.99930076398005,54.700969807779074 186.99890120054033,54.69807458988919 186.9983018553803,54.69517936458908 186.9974028376405,54.692284131878296 186.99650381990023,54.68938889175638 186.99560480216041,54.68672526429975 186.99490556614091,54.6842932511438 186.9942063301205,54.68197704327656 186.99340720324108,54.679660830666194 186.9925081855008,54.67664974718173 186.99190884034124,54.673638655681884 186.9918089494813,54.670627556165755 186.9923084037814,54.66796388452735 186.99320742152122,54.66530020661594 186.9943062209809,54.66263652243106 186.99530512958063,54.65985701920272 186.99630403818082,54.657077509143505 186.99680349248047,54.65418217890169 186.99690338334085,54.65128684124818 186.9966037107606,54.64827568222552 186.99640392904075,54.645380329451655 186.99630403818082,54.642600783815055 186.9961042564605,54.63970541651338 186.99600436560058,54.636694226656346 186.9959044747402,54.63379884423364 186.99510534786077,54.63113508585752 186.99280785808105,54.62939784875391 186.99011080486162,54.62800805714983 186.98761353336204,54.62661826383783 186.98571560702203,54.62488101979591 186.9839175715424,54.62256469025567 186.98231931778264,54.6197850885452 186.98042139144263,54.61758456567907 186.97872324682294,54.61515240384574 186.97712499306317,54.612488601550126 186.97622597532336,54.60970897507434 186.97582641188365,54.60681352356323 186.97652564790314,54.60380224612766 186.97752455650334,54.60079096067409 186.97922270112304,54.597895486329435 186.98042139144263,54.594884185146725 186.98092084574273,54.59175705620066 186.9803215005827,54.588629918607126 186.97912281026265,54.58585023348644 186.97702510220324,54.58376546516229 186.9746277215636,54.58168069299393 186.9722303409244,54.57959591698261 186.9697330694239,54.577626958331734 186.9674355796442,54.575657996252176 186.96533787158523,54.573689030744504 186.96324016352492,54.57183588360488 186.9607428920258,54.57021437736694 186.95824562052576,54.56928780132989 186.95534878558647,54.56940362337593 186.95255184150665,54.57067766510079 186.95075380602702,54.57253081413819 186.9487559888271,54.575078889105725" stroke="#4dd2ff" stroke-linecap="round" stroke-linejoin="round" stroke-width="0.5"><title>2024-10-23 10.3km</title><desc>9223370307171316807</desc></polyline><polyline fill="none" points="56.01506357098697,93.0 56.99610454210779,95.9538237559027 56.583034659561235,97.51055068334972 57.16821699315915,99.9653640214674 57.185428238241,101.24265303426364 58.20089169952553,103.33818717912072 58.01156800339231,104.8349834811961 58.42463788582245,106.25194005024969 57.5812868757057,108.56694550988323 56.54861216933932,109.46500056683726 55.75689489452634,111.26109826164611 55.08565633528633,111.52053322672145 54.86191014898941,112.37866180378478 54.20788283488946,112.91748479251692 54.62095271749422,115.6315334863757 54.20788283488946,116.11047933135706 52.64165953028714,116.48964395695657 44.19093818333931,115.39206012237992 41.247815270209685,114.17473263780994 40.111873093177564,114.03503883343365 39.0791983869276,114.53394481774012 37.71951002354035,116.62933600143879 36.394244150375016,117.52735389603185 35.12061201245524,117.72691286611371 32.98641761939507,117.32779472159746 31.489039295178372,117.60717750858748 30.3358858730644,118.40541183545429 29.13109871558845,120.44089456746588 27.427185450156685,120.80009519525629 23.96772518387297,120.7801396222203 22.573614330322016,120.6204949641542 21.799108300590888,119.92204804724315 21.747474565228913,116.70915998188138 21.523728378873784,116.27012768466375 20.19846250570845,115.65148958672944 18.666661691328045,115.6315334863757 17.59956449479796,115.95083084717044 16.721790994284675,116.58942399894295 17.358607063186355,118.34554437434417 16.37756609218195,119.42315585947654 16.566889788373373,130.35857976207626 16.739002239424735,131.13680734322406 17.46187453379389,131.99484953573847 19.406745230895467,132.9726139404811 23.881668958289083,132.27421129480354 26.97969307738822,132.4538007855881 27.70256537187379,132.95265961394762 29.07946498034289,134.88821977877524 31.747207971755415,135.64647522155428 34.5870634142193,137.36251612004708 36.05001924815588,137.70173171848 40.47330924042035,137.6219163366186 43.27874219272053,139.13840300143056 48.32163700868841,138.00103910903272 51.33360490226187,136.7040370967443 51.64340731414268,137.0432538411551 52.21137840265874,139.55743013088068 51.712252294586506,141.79222627339186 51.81551976519404,143.60797927209933 51.12706996098859,145.50352754337655 51.24754867673619,146.24178872443736 52.02205470652552,147.0 55.03402260004077,146.66080058339867 56.23880975745851,146.3216005765862 56.99610454210779,145.78286994076916 58.04599049355602,144.0868563650729 60.1801848866744,144.9847477433941 61.16122585773701,144.90493534390407 61.90130939730443,144.5258260000992 62.76187165256124,142.98942795234325 63.62243390787626,139.39780085443635 63.46753270190675,136.7040370967443 62.19390056410339,132.5336182838946 63.037251574220136,129.34089285125083 62.933984103554394,125.62928378632932 61.212859593040776,124.15260245735408 59.66384753352031,122.0173812872672 59.57779130799463,120.74022846994922 60.36950858292403,118.80452777257597 60.14576239645248,117.68700108844496 56.92725956172217,114.87320015739533 55.12007882562466,114.33438257728994 54.896332639153115,113.49621893545554 55.137290070648305,113.19687390375475" stroke="#4dd2ff" stroke-linecap="round" stroke-linejoin="round" stroke-width="0.5"><title>2024-10-18 10.2km</title><desc>1729247560000</desc></polyline><polyline fill="none" points="116.01506357098697,93.0 116.15275353187462,93.43908474421187 116.42813345359173,93.8781684985297 116.58303465956124,94.53679227409884 116.70351337525062,95.09562282198749 116.89283707144205,95.59457731345901 116.99610454210779,96.15340482653119 116.77235835575266,96.65235660836333 116.63466839492321,97.21118108660448 116.61745714972494,97.69017222055118 116.82399209105643,98.20907795304083 116.92725956172217,98.7479401352175 117.01331578718964,99.2668430499325 117.13379450299544,99.8057023059373 117.16821699315915,100.36451773767476 117.13379450299544,100.88341634595417 117.21985072852112,101.36239844982629 117.34032944421051,101.54201643513807 117.54686438548379,101.82142186087731 117.82224430714268,102.2006142976461 118.02877924847417,102.73946543803322 118.18368045438547,103.29827245365595 118.20089169952553,103.83712055772776 117.99435675825225,104.35600991584943 118.01156800339231,104.87489789187384 118.14925796422176,105.31395586892904 118.39021539565874,105.79292707900458 118.42463788582245,106.35172533571313 118.32137041527312,106.89056499375147 118.20089169952553,107.38948927416641 117.94272302289028,107.80858468223596 117.71897683659336,108.2675929042307 117.4608081599581,108.7066432350839 117.06494952249341,109.06586549703206 116.65187964000506,109.36521687604545 116.3592884732061,109.78430803389347 116.18717602215474,110.24331160093425 115.91179610043764,110.64244425848301 115.8085286297719,111.1014458037389 115.46430372766918,111.44070712038956 115.03402260004077,111.58040278496628 114.96517761965515,112.05935858874 114.74143143324181,112.51835679580108 114.3111503055552,112.77779008667858 114.17346034472575,113.23678660123551 114.29393906047335,113.71573833300499 114.41441777622094,114.23460138050723 114.46605151152471,114.75346304614504 114.46605151152471,115.2523671908275 114.62095271749422,115.73131396784447 114.20788283488946,116.11047933135706 113.72596797195729,116.36990783907822 113.20963061886141,116.50959996947495 112.69329326559091,116.48964395695657 112.15974466735497,116.42977590725059 111.64340731414268,116.34995181231352 111.12706996098859,116.29008371967939 110.64515509805642,116.21025956748053 110.14602898992598,116.15039143197646 109.61248039169004,116.09052327796235 109.09614303847775,116.0106990440836 108.57980568532366,115.93087477741938 108.06346833216958,115.87100655601535 107.52991973381722,115.83109439817781 107.0307936258032,115.75127005802642 106.5144562725909,115.69140178138332 105.99811891943682,115.61157738399925 105.51620405650465,115.53175295381516 105.01707794837421,115.47188460973848 104.51795184036018,115.43197237016284 104.01882573228795,115.35214786647703 103.53691086929757,115.21245490628644 103.07220725138905,115.01289336082118 102.60750363359693,114.79337542473513 102.12558877060656,114.53394481774012 101.64367390767438,114.33438257728994 101.1617590446258,114.13482013250177 100.66263293655356,114.05499509730726 100.14629558345769,114.03503883343365 99.6643807204091,114.19468888737902 99.2340995928389,114.4142074980482 98.8382409553742,114.75346304614504 98.5628610336571,115.21245490628644 98.32190360222012,115.71135787566891 98.04652368056122,116.19030352434493 97.71951002354035,116.62933600143879 97.32365138607565,117.00849961731001 96.87615901330719,117.30783879294177 96.39424415037502,117.52735389603185 95.87790679716272,117.68700108844496 95.39599193423055,117.72691286611371 94.89686582615832,117.7069569783198 94.41495096322615,117.62713340659684 93.89861360995565,117.5073979878216 93.39948750194162,117.38766249539913 92.90036139381118,117.32779472159746 92.3840240406571,117.42757433436054 91.86768668756122,117.54730980220484 91.36856057943078,117.64708930259803 90.90385696152225,117.88655989496328 90.50799832405755,118.20585356029915 90.2154071572586,118.5850141083356 90.00887221604353,119.02404118952109 89.8195485198521,119.48302298942872 89.61301357863704,119.96195936705044 89.2687886764761,120.38102773181163 88.75245132332202,120.52071698644431 88.25332521519158,120.66040614093072 87.7369878620957,120.7801396222203 87.23786175402347,120.80009519525629 86.73873564589303,120.82005076625501 86.27403202804271,120.7601840471325 85.74048342980677,120.7601840471325 85.22414607659448,120.7601840471325 84.72501996852225,120.7601840471325 84.22589386050822,120.7601840471325 83.7611902426579,120.74022846994922 83.27927537966752,120.70031730952905 82.78014927159529,120.66040614093072 82.36707938899053,120.48080578104418 82.00564324186416,120.16151584364707 81.76468581031077,119.74244700679264 81.78189705539262,119.32337726863625 81.713052075007,118.84443932128488 81.66141833970323,118.38545601716032 81.66141833970323,117.94642749711056 81.74747456522891,117.52735389603185 81.74747456522891,117.04841153400776 81.713052075007,116.58942399894295 81.40324966312619,116.19030352434493 80.97296853549778,115.93087477741938 80.45663118222728,115.73131396784447 79.95750507415505,115.6315334863757 79.40674523089547,115.61157738399925 78.87319663254311,115.61157738399925 78.33964803419076,115.69140178138332 77.80609943595482,115.85105047814432 77.37581830832642,116.09052327796235 77.03159340622369,116.36990783907822 76.70457974914461,116.62933600143879 76.94553718069801,117.02845557668479 77.20370585727505,117.46748616517289 77.37581830832642,117.94642749711056 77.32418457302265,118.48523508825747 77.04880465136375,118.92426239432825 76.635734768759,119.10386418888811 76.37756609218195,119.46306728149648 76.3947773372638,119.94200370815815 76.5152560530114,120.4009833457385 76.5152560530114,120.87991746708576 76.5152560530114,121.37880592497822 76.5152560530114,121.87769310559088 76.5152560530114,122.37657900893828 76.5152560530114,122.89541899338656 76.49804480792955,123.39430229111167 76.49804480792955,123.87322905519977 76.5152560530114,124.39206505470793 76.5152560530114,124.87098936653638 76.49804480792955,125.36986760635045 76.5152560530114,125.84878951501742 76.53246729809325,126.34766525162559 76.5152560530114,126.84653971104126 76.5152560530114,127.36536779401649 76.5152560530114,127.86423964804271 76.5152560530114,128.343155426468 76.5152560530114,128.84202477740473 76.54967854329152,129.34089285125083 76.54967854329152,129.85971429335768 76.56688978837337,130.35857976207626 76.65294601389905,130.83748941059457 76.84226971009048,131.29644338603248 77.1520721220295,131.67557846354612 77.49629702407401,132.0148039603664 77.97821188706439,132.27421129480354 78.39128176961094,132.4737551632279 78.75271791679552,132.6932531825587 79.16578779934207,132.8927966218762 79.63049141719239,132.95265961394762 80.14682877034647,132.8927966218762 80.6459548784187,132.7930249277124 81.12786974140909,132.73316188673198 81.5581508690957,132.63339011088829 82.07448822224978,132.5336182838946 82.65967055578949,132.43384640591103 83.15879666391993,132.37398325453978 83.67513401707401,132.29416569086607 84.22589386050822,132.29416569086607 84.74223121366231,132.33407447677746 85.22414607659448,132.35402886664087 85.72327218472492,132.37398325453978 86.20518704765709,132.39393764038687 86.70431315572932,132.41389202415303 87.20343926385976,132.553572653429 87.6165091462899,132.85288795040105 87.891889068007,133.25197429789114 88.1328464995604,133.6909683363774 88.37380393099738,134.11000717784918 88.64918385265628,134.52904511831002 89.04504249012098,134.86826564832882 89.49253486288944,135.08776097081136 89.95723848073976,135.1875314902136 90.43915334373014,135.28730195849494 90.92106820666231,135.38707237572817 91.40298306959448,135.5067968090152 91.86768668756122,135.70633736775198 92.33239030535333,135.94578576847562 92.76267143292353,136.22514186418266 93.17574131552828,136.52445152244763 93.57159995299298,136.80380678871006 93.96745859045768,137.063207748899 94.41495096322615,137.28270059937495 94.89686582615832,137.46228547500505 95.36156944400864,137.60196248607826 95.82627306185896,137.68177787605964 96.30818792479113,137.70173171848 96.7901027877233,137.70173171848 97.27201765065547,137.68177787605964 97.78835500392597,137.661824031602 98.2874811119982,137.64187018515076 98.76939597498858,137.6219163366186 99.26852208306082,137.60196248607826 99.75043694599299,137.60196248607826 100.23235180892516,137.58200863350066 100.74868916213745,137.68177787605964 101.19618153490592,137.92122384981485 101.62646266259253,138.2205309033743 102.00511005485896,138.49988373862288 102.41817993740551,138.79918990354054 102.88288355525583,138.998727091428 103.31316468288423,139.13840300143056 103.79507954587461,139.11844930615916 104.276994408865,138.998727091428 104.74169802671531,138.8590510813665 105.22361288958928,138.75928244144598 105.73995024285978,138.63956000610779 106.23907635093201,138.51983749726787 106.66935747856041,138.4200686836848 107.11684985132888,138.2803922588937 107.6159759593429,138.200577114083 108.11510206747334,138.06090053198568 108.57980568532366,137.92122384981485 109.06172054825583,137.7615932332992 109.5092129210243,137.5620547788276 109.9394940486527,137.30265448264254 110.35256393125746,137.0432538411551 110.80005630402593,136.80380678871006 111.26475992181804,136.68408315218403 111.60898482392076,136.9634381897049 111.72946353972657,137.44233160813747 111.81551976519404,137.94117766765703 111.90157599077793,138.4200686836848 112.00484346138546,138.87900480318058 112.19416715751868,139.33793984209478 112.17695591243682,139.79687380032556 112.07368844182929,140.25580667794566 111.93599848094163,140.69478494103532 111.81551976519404,141.1936226762773 111.72946353972657,141.69245913482155 111.72946353972657,142.21124769748712 111.74667478486663,142.74998820484325 111.79830852005398,143.24882068026636 111.78109727503033,143.74765187904995 111.59177357883891,144.20657545451832 111.36802739242557,144.62559168841108 111.21312618645607,145.08451319676533 111.12706996098859,145.56338666225201 111.19591494149063,146.02230596271693 111.35081614734372,146.46127123912447 111.62619606906082,146.84037681871268 112.07368844182929,147.0 112.55560330476146,146.98004710950772 113.08915190305561,146.92018842566176 113.63991174648982,146.8204239118204 114.19067158980761,146.76056517894904 114.72422018815996,146.7206593468727 115.22334629617399,146.6208947308769 115.72247240418801,146.50117712427163 116.2043872672366,146.34155353455571 116.61745714972494,146.10211790469475 116.99610454210779,145.78286994076916 117.28869570890674,145.42371535638813 117.4608081599581,144.96479464654112 117.5812868757057,144.5258260000992 117.87387804256286,144.16666909953346 118.37300415057689,144.06690317641187 118.82049652328715,144.36620079267595 119.2335664058919,144.66549794941966 119.69827002368402,144.86502913196455 120.1801848866744,144.9847477433941 120.64488850452472,144.96479464654112 121.10959212237503,144.92488844686886 121.57429574022535,144.7453104469314 121.95294313254999,144.4659665626823 122.26274554448901,144.12676273639954 122.48649173090234,143.7276986555953 122.6586041819537,143.24882068026636 122.81350538792321,142.76994152840052 122.95119534875266,142.33096793893492 123.07167406444205,141.89199336076854 123.20936402538791,141.453017794076 123.32984274101909,140.97413423005491 123.4847439469886,140.51520304381847 123.58801141765434,139.99640996682865 123.62243390787626,139.4776155090076 123.62243390787626,138.95881967019523 123.6052226627944,138.44002245050797 123.57080017251428,137.96113148352015 123.57080017251428,137.48223933983536 123.51916643726872,136.9833921055979 123.39868772152113,136.48454359454627 123.26099776069168,136.0056478226761 123.08888530958211,135.46688867274497 122.9339841035544,135.04785274872847 122.7790828977013,134.60886176672648 122.67581542709377,134.20977819776454 122.53812546620611,133.73087683622725 122.33159052493284,133.19211139786057 122.19390056410339,132.59348138621135 122.19390056410339,132.07466722199752 122.29716803471092,131.61571507934423 122.46928048582049,131.13680734322406 122.6586041819537,130.6379438667209 122.83071663300507,130.17898834044172 122.96840659389272,129.70007707370678 123.03725157422014,129.20120991929434 123.03725157422014,128.7222962496744 123.0544628193602,128.24338140297914 123.03725157422014,127.76446537941229 123.03725157422014,127.32545799048967 123.03725157422014,126.90640456027177 123.02004032913828,126.4673952384037 122.98561783891637,125.96851980828797 122.88235036830883,125.50955328464624 122.53812546620611,125.09049594937824 122.1078443385195,124.79116872960003 121.6775632108911,124.51179624297947 121.26449332834454,124.21246813428297 120.9719021616038,123.87322905519977 120.67931099480484,123.49407879731734 120.43835356325144,123.11492780174012 120.12855115137063,122.75573144119699 119.80153749434976,122.31671276794805 119.61221379815834,121.83778217819054 119.52615757269086,121.29898385758861 119.57779130799463,120.74022846994922 119.74990375898778,120.20142711442895 119.99086119054118,119.70253564199083 120.24902986711822,119.22359862666053 120.38671982800588,118.64488149585668 120.30066360242199,118.06616264610784 120.04249492578674,117.5672657063842 119.66384753352031,117.16814723490097 119.21635516075185,116.78898392965493 118.78607403312344,116.42977590725059 118.35579290549504,116.07056722251582 117.94272302289028,115.71135787566891 117.52965314040193,115.35214786647703 117.11658325785538,115.01289336082118 116.68630213022698,114.73350685375044 116.2043872672366,114.63372586134938 115.6880499140243,114.673638264474 115.24055754125584,114.4142074980482 114.94796637445688,114.05499509730726 114.89633263915312,113.57604419950803 115.06844509026268,113.23678660123551" stroke="#4dd2ff" stroke-linecap="round" stroke-linejoin="round" stroke-width="0.5"><title>2024-10-18 10.2km</title><desc>9223370307603209807</desc></polyline><polyline fill="none" points="175.8024002694874,93.0 176.09455992648145,93.55801022250671 176.36953372118296,94.05623228251352 176.55857820512028,94.57438187107618 176.661693378177,95.11245882885123 176.8163661377621,95.63060560340818 176.93666717293672,96.18860827844765 176.71325096470537,96.66689501139626 176.59294992953073,97.16510910762008 176.55857820512028,97.66332192756818 176.7476226890576,98.18146190654079 176.83355199999642,98.73945726329111 176.9194813108188,99.25759437553643 177.05696820816956,99.77573010747437 177.09133993258,100.29386445913406 177.0054106216412,100.83192559420422 177.12571165693225,101.33012902179325 177.40068545169197,101.74861891480396 177.7615885573905,102.12725185172167 177.89907545474125,102.62545196156134 178.05374821432633,103.10372286653728 178.17404924955918,103.62184835319931 178.00219062779797,104.12004463501216 177.86470373044722,104.59831186504744 177.89907545474125,105.03672245962662 178.17404924955918,105.55484279744269 178.31153614702635,106.05303412857756 178.29435028479202,106.57115175940271 178.20842097396962,107.08926801022608 178.0365623521502,107.56752794000204 177.74440269515617,107.94614955046563 177.55535821127705,108.4044799876865 177.17726924346061,108.82295466118376 176.7476226890576,109.18164652201813 176.33516199688893,109.58019225829048 176.12893165077548,110.09830049480661 175.87114371813368,110.55662586138351 175.73365682072472,111.03487726663298 175.49305475031724,111.41349212861678 175.01185060944408,111.47327335525188 174.89154957421124,111.93159548251424 174.71969095250824,112.40984350749932 174.27285853592912,112.68882097913593 174.10099991416791,113.18699404060317 174.30723026033957,113.64531213052396 174.32441612245748,114.14348274267104 174.44471715774853,114.64165207918268 174.37597370898584,115.08004004010581 174.54783233068883,115.55828032534919 174.3416019846336,115.93688638412277 173.89476956811268,116.19593221036484 173.41356542729773,116.35534485502285 172.91517542419024,116.41512456312194 172.39959955890663,116.35534485502285 171.90120955585735,116.29556512858835 171.40281955280807,116.21585879808117 170.9044295497588,116.15607902876218 170.3888536845334,116.07637264110963 169.873277819308,116.01659282896435 169.3748878162005,115.95681299838179 168.8593119509751,115.91695976787014 168.36092194792582,115.83725328215223 167.87971780699445,115.73762012929365 167.38132780400338,115.67784021298576 166.8829378008959,115.63798692525597 166.40173366008094,115.5782069783454 165.90334365697345,115.51842701318674 165.40495365386596,115.43872036422545 164.88937778864056,115.39886702755757 164.4081736477092,115.33908700721804 163.94415536907036,115.21952691141632 163.4801370903151,115.06011333600327 163.01611881167628,114.90069962998678 162.55210053286282,114.70143231379916 162.07089639204787,114.46231126498606 161.60687811340904,114.24311671202304 161.14285983459558,114.04384872230003 160.69602741807466,113.92428783046489 160.19763741496718,113.96414146918687 159.71643327409402,114.10362914057623 159.30397258198354,114.32282385077269 158.94306947628502,114.62172533017292 158.61653809499694,115.04018662986346 158.37593602453126,115.5383536702866 158.1525198162417,115.99666622078803 157.82598843495362,116.43505112841376 157.4650853292551,116.83358200540533 157.0526246370864,117.13247962736932 156.6057922206237,117.3516709250689 156.12458807969233,117.53100907579937 155.6777556631714,117.61071486752189 155.19655152224004,117.6306413103157 154.69816151919076,117.53100907579937 154.19977151614148,117.45130325142236 153.7185673752101,117.3516709250689 153.22017737221904,117.23211206603446 152.72178736911155,117.25203854760912 152.2405832282384,117.31181798016769 151.75937908742344,117.41145032698114 151.26098908431595,117.59078842263261 150.7969708055607,117.86975846500718 150.41888183774427,118.22843364605797 150.1095363185741,118.6668135249347 149.92049183463678,119.1649712792132 149.73144735075766,119.70298022116185 149.45647355599795,120.18120914282918 148.9924552772427,120.38047084664868 148.4768794120173,120.46017547101656 147.94411768461578,120.57973234631936 147.42854181939038,120.63951075647492 146.91296595410677,120.63951075647492 146.39739008888137,120.61958462181792 145.86462836147984,120.63951075647492 145.34905249625444,120.63951075647492 144.83347663102904,120.6594368891092 144.35227249015588,120.6594368891092 143.8538824871066,120.61958462181792 143.35549248399911,120.57973234631936 142.89147420536028,120.53988006274449 142.42745592660503,120.38047084664868 142.0665528209065,120.0217996329011 141.7915790261468,119.62327528663445 141.77439316391246,119.14504499352188 141.7056497152662,118.6668135249347 141.6197204043856,118.1885808808147 141.65409212873783,117.75019992442685 141.7056497152662,117.33174445362238 141.7056497152662,116.85350852779811 141.56816281785723,116.37527142644103 141.2072597122169,115.99666622078803 140.74324143351987,115.7575467639399 140.22766556823626,115.63798692525597 139.71208970301086,115.5782069783454 139.19651383778546,115.5383536702866 138.69812383467797,115.5383536702866 138.2169196938048,115.63798692525597 137.7013438285794,115.83725328215223 137.30606899858685,116.15607902876218 136.89360830641817,116.37527142644103 136.85923658206593,116.77380242585787 137.06546692823758,117.23211206603446 137.28888313641073,117.67049418986426 137.3404407229391,118.1885808808147 137.23732554988237,118.6468871882098 136.8420507198898,119.06533983038389 136.42959002766293,119.28452895043301 136.412404165545,119.80261134344619 136.51551933860173,120.24098767542455 136.51551933860173,120.67936301967711 136.51551933860173,121.13766345984186 136.53270520071965,121.61588885520177 136.53270520071965,122.11403905878251 136.51551933860173,122.63211391754157 136.53270520071965,123.15018739686639 136.51551933860173,123.64833367218671 136.53270520071965,124.10662711921032 136.54989106289577,124.58484521729406 136.53270520071965,125.02321077480156 136.53270520071965,125.50142662020517 136.53270520071965,125.95971570255642 136.53270520071965,126.45785478509788 136.51551933860173,126.93606710465974 136.51551933860173,127.43420368774969 136.4983334763674,127.95226438142709 136.4811476141913,128.43047302831837 136.51551933860173,128.90868049992423 136.51551933860173,129.38688679639017 136.51551933860173,129.8650919176289 136.51551933860173,130.34329586368403 136.5670769251301,130.80157354263065 136.72174968465697,131.25985014224716 137.0139093415928,131.6185006413143 137.3404407229391,131.93730053000036 137.73571555298986,132.21625000418862 138.16536210727645,132.45534923524247 138.5434510750929,132.65459837000526 138.8871683186735,132.8936970624345 139.29962901084218,133.03317116409016 139.72927556518698,133.0132462984766 140.1761079817079,132.93354681594064 140.6057545360527,132.87377218260372 141.08695867698407,132.7940726429806 141.48223350691842,132.71437307068845 141.91188006137963,132.61474855935376 142.46182765089907,132.53504891357443 142.97740351618268,132.47527415787044 143.47579351929016,132.4154993837874 143.99136938445736,132.37564952421235 144.48975938750664,132.39557445497485 144.9709635283798,132.4154993837874 145.45216766931117,132.43542431056267 145.93337181018433,132.45534923524247 146.39739008888137,132.47527415787044 146.8614083675784,132.53504891357443 147.2738690598053,132.7542228608654 147.6175863032695,133.0929457484308 147.85818837367697,133.55121695194975 148.150348030671,134.00948707629868 148.4768794120173,134.42790668207454 148.83778251765762,134.78655134241853 149.26742907206062,135.02564741544484 149.73144735075766,135.18504463430145 150.1954656294547,135.28466782976466 150.69385563250398,135.36436634942947 151.17505977343535,135.5038386802771 151.6390780521324,135.72300928395998 152.10309633082943,135.9222550731065 152.498371160822,136.16134975083696 152.89364599087276,136.46021768485662 153.28892082086531,136.73916067586106 153.66700978873996,137.01810326709528 154.07947048085043,137.23727216542466 154.52630289742956,137.41659198954585 154.97313531395048,137.55606284963142 155.43715359270573,137.69553360975988 155.90117187140277,137.73538238000765 156.39956187445205,137.75530676204653 156.89795187755954,137.73538238000765 157.3963418805506,137.71545799594605 157.87754602148198,137.71545799594605 158.35875016235514,137.73538238000765 158.8399543032283,137.69553360975988 159.33834430633578,137.65568483133393 159.80236258503282,137.65568483133393 160.3007525880821,137.65568483133393 160.78195672889706,137.77523114210635 161.21160328335827,138.01432354329154 161.57250638894038,138.25341565078998 161.9334094946389,138.51243176909338 162.29431260027923,138.75152326455282 162.68958743033,138.93084169349459 163.17079157120315,139.03046297148103 163.6348098499002,139.03046297148103 164.13319985300768,138.93084169349459 164.61440399393905,138.83122036446002 165.04405054822564,138.69175041823473 165.49088296474656,138.59212896689132 165.92052951914957,138.4725831578835 166.3845477978466,138.39288591117656 166.7970084900153,138.25341565078998 167.26102676871233,138.15379397502693 167.7422309096437,138.034247896765 168.2578067748691,137.91470174516144 168.70463919139002,137.75530676204653 169.15147160796914,137.6158360447589 169.5639323000796,137.3568187331548 169.99357885448262,137.0978010768158 170.3888536845334,136.85870754963253 170.8356861009961,136.6395382249757 171.3340761041036,136.65946271926805 171.64342162327375,137.01810326709528 171.74653679627227,137.43651640428288 171.849651969329,137.87485301162815 171.9355812802678,138.33311295464227 172.00432472891407,138.75152326455282 172.17618335067527,139.16993267502403 172.2105550749693,139.62818956852425 172.14181162632303,140.0665212396416 172.0215105910902,140.504851923557 171.8668378315051,140.94318162016862 171.7637226585066,141.42135834519286 171.74653679627227,141.89953389541188 171.7809085206245,142.43747998506296 171.81528024497675,142.97542458788666 171.83246610715287,143.49344391125487 171.64342162327375,143.9317668772419 171.42000541492598,144.35016515117604 171.2653326553991,144.84825716172054 171.16221748234238,145.3662715004757 171.2481467932812,145.90420800853462 171.42000541492598,146.4222195369657 171.71216507192003,146.8206890053698 172.17618335067527,146.98007656431582 172.65738749154843,147.0 173.15577749459771,146.94022968683566 173.63698163547087,146.86053590732627 174.13537163857836,146.760918637141 174.65094750374556,146.66130131593673 175.13215164467692,146.581607422253 175.57898406113964,146.50191349591478 176.00863061554264,146.36244904636987 176.45546303212177,146.14329042372992 176.85073786211433,145.84443735882815 177.17726924346061,145.4858130752109 177.40068545169197,145.04749360900314 177.48661476257257,144.5892494753498 177.71003097086214,144.2106991597975 178.15686338738305,144.0513093330228 178.67243925260846,144.25054659605667 179.06771408260101,144.52947842179856 179.4973606369458,144.74863886157982 179.96137891570106,144.88810446750722 180.37383960786974,144.9478754108568 180.78630030003842,144.92795176511572 181.21594685438322,144.8681808156398 181.59403582231607,144.68886785698123 181.95493892789818,144.4099362597044 182.26428444706835,144.01146185587277 182.4877006552997,143.5731390693545 182.65955927711911,143.15473912504967 182.79704617446987,142.65664278052282 182.95171893405495,142.15854516117543 183.10639169369824,141.68037024741352 183.243878591049,141.22211818587675 183.38136548839975,140.78378911747131 183.5016665236326,140.3653831766569 183.5875958345132,139.8872038571426 183.60478169668932,139.40902336273575 183.55322411016095,138.95076595315186 183.5016665236326,138.4725831578835 183.48448066145647,137.99439918776625 183.45010893716244,137.4962896360812 183.4329230749281,137.01810326709528 183.34699376410572,136.53991572308587 183.243878591049,136.08165155749884 183.10639169369824,135.58353711020027 182.96890479623107,135.16511998906208 182.8142320367042,134.7467019683536 182.69393100141315,134.34820777887944 182.5736299662385,133.98956231068587 182.43614306882955,133.6309161815152 182.26428444706835,133.15272031442146 182.14398341189371,132.6346734656836 182.17835513618775,132.13655019525322 182.24709858489223,131.65835065596912 182.41895720671164,131.18014994155965 182.5736299662385,130.72187315423798 182.71111686364748,130.28352043469204 182.86578962317435,129.8650919176289 182.9860906584072,129.4068120332522 183.02046238275943,128.9286057857098 182.9860906584072,128.45039836307114 182.9860906584072,127.9921151468443 182.95171893405495,127.53383085138921 182.93453307187883,127.05562000084319 182.9173472097027,126.55748244863935 182.88297548535047,126.07926919865713 182.8314178988221,125.62098039792909 182.62518755276687,125.1826161871868 182.26428444706835,124.86380523179832 181.83463789278176,124.64462239695422 181.42217720049666,124.40551356822834 181.0956458192668,124.1265528967051 180.78630030003842,123.7878144007409 180.49414064310258,123.42914946819656 180.18479512393242,123.0306321009848 179.9098213291727,122.63211391754157 179.63484753435478,122.25352088725776 179.44580305047566,121.79522307541629 179.37705960177118,121.31699812087754 179.41143132612342,120.83877199086419 179.5661040857085,120.3206923569378 179.77233443182195,119.86238999235502 180.01293650222942,119.38416028700885 180.20198098616675,118.92585571635573 180.236352710519,118.38784462540934 180.0816799509339,117.8896848813456 179.8238920183503,117.43137679019128 179.44580305047566,117.0727001397754 179.0505282204249,116.73394936266413 178.63806752825622,116.41512456312194 178.29435028479202,116.11622583902499 177.9334471790935,115.8173266556696 177.55535821127705,115.51842701318674 177.21164096775465,115.21952691141632 176.83355199999642,114.94055306876544 176.42109130771132,114.70143231379916 176.00863061554264,114.64165207918268 175.630541647668,114.70143231379916" stroke="#4dd2ff" stroke-linecap="round" stroke-linejoin="round" stroke-width="0.5"><title>2024-10-15 10.1km</title><desc>9223370307861806807</desc></polyline><polyline fill="none" points="55.80823275668081,153.0 56.925726099987514,155.97048910216836 56.51311317324871,157.4656845782447 57.11484035808826,159.95765150527586 57.06326374219498,161.11391331956838 57.76814415882109,162.130620617143 58.16356488032034,163.5260925719922 57.854105185193475,164.82187899781275 58.33548693306511,166.33694141470187 58.16356488032034,167.3735562718648 57.44149225845467,168.5696434761776 56.272422299254686,169.6660502886516 55.70507952501066,171.3206161473936 54.983006903203204,171.50002605776535 54.79389264504425,172.31733577881823 54.157781049609184,172.83562796970364 54.46724074467784,175.8656162332336 52.91994226933457,176.42376682074973 44.89118240267271,175.40713419600797 40.93697518785484,173.9918132677849 40.19771036069142,173.97187909667264 39.02864040154964,174.53003511528368 37.70484059484443,176.60317202673468 36.518578430463094,177.40052649725112 35.332316265965346,177.63973220140906 33.16609840048477,177.24105586450605 31.567223309306428,177.46032795087376 30.38096114480868,178.2776126418903 29.2118911856669,180.3507096352987 27.561439478595275,180.6497121872526 24.56999575952068,180.66964567439572 22.62727656273637,180.5301112215966 21.83643511973787,179.79257030921872 21.68170527217444,176.6829076208669 21.2862845507334,176.06495591254497 20.168791207426693,175.64634235017002 18.638684937322978,175.54667232169595 16.764734561613295,176.50350248826726 17.33207733591553,178.43708242529829 16.386506045411807,179.49356644050567 16.54123589291703,190.6959309562517 16.764734561613295,191.37363339566218 17.4696149781812,192.05133347577066 19.36075755918864,193.0678791722603 23.521271237405017,192.4300471987808 26.856559062027372,192.5496408529434 27.475478452222887,192.92835360662139 29.022776927507948,194.9215664829826 31.240571408881806,195.53945833082253 34.26639953855192,197.35325855649717 35.98562006663997,197.7718254395295 40.40401682414813,197.69209848357423 43.20634628506377,199.06738389801467 48.20927802211372,197.93127925353474 50.719339993200265,196.69550877921574 51.33825938339578,196.6755769331212 51.63052687316667,196.99448622619093 52.23225405806443,199.52581021057267 51.75087231013458,201.57874958713364 51.81964113126742,203.55194276072143 51.166337330592796,205.6247706178401 51.71648789953906,206.84055361289938 52.97151888522785,207.0 56.25523009401513,206.28249022987438 57.0976481527905,205.6247706178401 57.94006621156586,204.09008288293262 60.243821719428524,204.96704878407763 61.56762152601732,204.72787665731448 62.59915384295164,203.35263122686592 63.61349395458819,199.82478331110906 63.389995285950135,196.63571323473298 62.15215650567552,192.58950538809586 63.02895897504641,189.24085598300735 62.839844716887455,185.59315447308472 62.39284737961134,184.9752310532931 61.137816394038964,184.19784073883784 59.50455689220689,181.96531795925694 59.43578807119047,180.78924655431183 60.243821719428524,178.79588896033238 59.93436202435987,177.59986460447544 56.96011051052483,175.0084532857145 56.306806709908415,174.66957386980357 55.63631070381962,174.70944206698914" stroke="#4dd2ff" stroke-linecap="round" stroke-linejoin="round" stroke-width="0.5"><title>2024-10-15 10.1km</title><desc>1728988916900</desc></polyline><polyline fill="none" points="118.54696132603567,157.5031408705836 118.66629834263586,158.10280874741147 118.90497237571981,158.63328284519957 119.24309392261785,159.14069168185233 119.46187845303211,159.69422729007783 119.6011049724184,160.29388932949223 119.78011049726047,160.87048593770305 119.93922651931643,161.42401729202538 119.74033149168827,161.93141983759415 119.5812154696323,162.39269388656248 119.5414364640601,162.9692851184518 119.56132596696261,163.47668418080139 119.72044198901858,164.03020912619832 119.81988950283267,164.56066925491905 119.91933701664675,165.09112813365937 120.05856353591662,165.5985224130709 120.1580110497307,166.12897884605627 120.09834254148882,166.68249726944487 120.07845303870272,167.1898879618966 120.1977900553029,167.6280880941922 120.35690607747529,167.72034064486797 120.59558011055924,168.020161173612 120.89392265188508,168.38917050698365 121.07292817684356,168.89655735265114 121.23204419889953,169.4270060139679 121.37127071828581,169.98051632802526 121.29171270714141,170.5109624351462 121.03314917138778,170.94915610275348 121.01325966848526,171.47959992747928 121.23204419889953,171.98697980772704 121.4508287293138,172.49435854444164 121.5502762432443,173.07092390258913 121.4707182320999,173.6244252572069 121.39116022107191,174.22405018909194 121.15248618787155,174.7083614681178 120.87403314933181,175.14654696563957 120.67513812158722,175.63085626019165 120.29723756911699,176.06903996219626 119.85966850828845,176.39191161796043 119.46187845303211,176.73784502105264 119.10386740334798,177.19908873162058 118.92486187850591,177.77564204095688 118.60662983427756,178.2599456797907 118.58674033149146,178.83649627245904 118.12928176799323,179.09017806543852 117.63204419892281,179.2746737353882 117.55248618789483,179.8050979442778 117.35359116026666,180.33552090350713 116.85635359107982,180.58920100750402 116.65745856356807,181.14268387864286 116.77679558016825,181.69616538916307 116.93591160222422,182.29576882338733 117.01546961325221,182.84924749931088 116.95580110501032,183.35660175689554 117.17458563542459,183.91007782510133 117.01546961325221,184.3482454141049 116.55801104975399,184.67110519720882 116.04088397801388,184.9017190445884 115.50386740325484,184.9709031527309 114.98674033151474,184.92478041631693 114.46961325965822,184.83253491517098 113.93259668513201,184.76335076452233 113.39558011048939,184.69416659261333 112.87845303874929,184.62498239938577 112.34143646410666,184.55579818497063 111.80441988958046,184.48661394930969 111.30718232039362,184.3943682685931 110.7900552485371,184.3482454141049 110.272928176797,184.2790611145756 109.73591160227079,184.20987679393147 109.21878453041427,184.14069245191058 108.70165745855775,184.04844662948744 108.18453038681764,183.97926223785907 107.64751381217502,183.91007782510133 107.09060773486272,183.86395487139816 106.5535911602201,183.79477042304643 106.03646408836357,183.72558595355076 105.51933701662347,183.65640146270744 105.00220994476695,183.5410939308058 104.50497237581294,183.37966328691982 104.0077348066261,183.21823252733157 103.5104972376721,182.987616955681 103.03314917127136,182.73393955396023 102.59558011055924,182.52638510371617 102.1580110497307,182.29576882338733 101.72044198890217,182.11127562903857 101.22320441994816,182.01902897523541 100.70607734809164,182.01902897523541 100.20883977902122,182.11127562903857 99.6917127071647,182.29576882338733 99.27403314923868,182.57250833137368 98.89613259665202,182.91843223808974 98.65745856356807,183.37966328691982 98.4187845303677,183.88701634939935 98.16022099449765,184.3943682685931 97.8618784530554,184.83253491517098 97.50386740337126,185.22457803405996 97.06629834254272,185.57049786623975 96.6088397790445,185.8472333492682 96.13149171276018,186.03172348240332 95.59447513811756,186.21621346428583 95.07734806637745,186.28539716852538 94.54033149173483,186.28539716852538 94.00331491720863,186.17009098302515 93.50607734802179,186.07784599201113 93.02872928185388,185.9625397001655 92.53149171266705,185.80111079239578 91.97458563535474,185.8472333492682 91.47734806628432,185.91641716688173 90.9602209944278,186.03172348240332 90.4629834254738,186.14702973880048 89.96574585640337,186.40070329509035 89.52817679557484,186.70049894761178 89.1502762431046,187.02335535788734 88.87182320444845,187.48457799796597 88.67292817682028,187.99192181094259 88.47403314919211,188.47620347516204 88.23535911599174,189.00660600747506 87.9171270718798,189.39864185884653 87.40000000002328,189.5600681874348 86.86298342549708,189.67537263702252 86.32596685085446,189.76761615416035 85.76906077354215,189.85985963357962 85.23204419889953,189.85985963357962 84.67513812158722,189.8367987672682 84.1381215469446,189.85985963357962 83.6011049724184,189.8367987672682 83.04419889510609,189.8367987672682 82.46740331500769,189.8367987672682 81.91049723757897,189.8367987672682 81.39337016583886,189.79067702755856 80.83646408852655,189.79067702755856 80.29944751376752,189.74455527841928 79.8419889502693,189.49088548937289 79.42430939234328,189.12191074047587 79.1856353591429,188.68375244093477 79.205524861929,188.13028810701508 79.12596685090102,187.59988351042557 79.10607734799851,187.06947766436497 79.12596685090102,186.5160093625309 79.1657458563568,185.9625397001655 79.22541436459869,185.47825262954575 79.205524861929,184.94784178571717 78.96685082884505,184.50967536351527 78.5491712706862,184.18681534893403 78.0519337017322,184.00232370414597 77.49502762430348,183.86395487139816 76.91823204420507,183.79477042304643 76.36132596689276,183.7717089355865 75.80441988958046,183.7717089355865 75.24751381226815,183.88701634939935 74.73038674029522,184.11763099982636 74.2331491712248,184.3713068425859 73.79558011051267,184.69416659261333 73.41767955804244,185.04008723958395 73.6364640884567,185.47825262954575 73.89502762432676,185.91641716688173 74.11381215462461,186.42376451325254 74.13370165752713,186.9772330419073 73.93480662989896,187.50763910518435 73.57679558021482,187.87661649935762 73.07955801102798,188.01498286621063 73.0,188.49926448083716 73.0,188.96048409779905 73.0397790055722,188.8451792820706 73.0596685083583,188.29171534490888 73.31823204422835,187.99192181094259 73.75580110494047,187.73825004739047 73.99447513825726,187.41539466223912 74.07403314916883,186.93111071649764 74.07403314916883,186.30845839859103 73.89502762432676,185.87029462422652 73.6165745856706,185.45519131451147 73.43756906071212,184.9709031527309 73.79558011051267,184.67110519720882 74.17348066298291,184.32518398332468 74.63093922648113,184.071508088673 75.14806629833765,183.91007782510133 75.66519337019417,183.7717089355865 76.22209944750648,183.72558595355076 76.77900552481879,183.74864744578372 77.2961325966753,183.8178319081635 77.83314917131793,183.93313929840224 78.31049723760225,184.11763099982636 78.76795580110047,184.3713068425859 79.10607734799851,184.76335076452233 79.22541436459869,185.31682337456732 79.2453038675012,185.8933558967401 79.1856353591429,186.46988694260654 79.1657458563568,187.02335535788734 79.1657458563568,187.59988351042557 79.2453038675012,188.1533491481241 79.2453038675012,188.7298744073778 79.44419889501296,189.0988497986691 79.90165745851118,189.42170276997786 80.33922651933972,189.69843351987947 80.85635359119624,189.76761615416035 81.35359116026666,189.79067702755856 81.87071823212318,189.8137378986139 82.3480662984075,189.8367987672682 82.86519337014761,189.8367987672682 83.38232044200413,189.8137378986139 83.89944751386065,189.79067702755856 84.47624309395906,189.79067702755856 85.03314917138778,189.8137378986139 85.59005524870008,189.8137378986139 86.14696132601239,189.76761615416035 86.66408839786891,189.67537263702252 87.18121546972543,189.5600681874348 87.73812154703774,189.46782458525558 88.11602209939156,189.12191074047587 88.37458563537803,188.68375244093477 88.5734806630062,188.22253225714667 88.73259668517858,187.76131112860458 88.91160220990423,187.3231501814007 89.1900552486768,186.9772330419073 89.52817679557484,186.60825417400338 89.96574585640337,186.33151962628472 90.4430939226877,186.12396849220386 90.94033149175812,185.9856009632349 91.45745856349822,185.87029462422652 91.95469613256864,185.77804951035068 92.49171270721126,185.77804951035068 92.98895027616527,185.91641716688173 93.5259668509243,186.05478473838593 94.08287292823661,186.19315222484875 94.65966850833502,186.26233593616053 95.19668508286122,186.23927470143826 95.75359116028994,186.10090724330803 96.29060773481615,185.93947843475325 96.78784530388657,185.68580435882905 97.205524861929,185.3629460306547 97.60331491718534,185.04008723958395 97.8817679558415,184.62498239938577 98.18011049728375,184.18681534893403 98.4187845303677,183.72558595355076 98.65745856356807,183.24129407151486 98.97569060779642,182.82618591497885 99.33370165748056,182.48026186652714 99.7911602210952,182.2265838932508 100.2883977900492,182.01902897523541 100.82541436469182,181.97290563411661 101.34254143654834,182.04209064223687 101.81988950283267,182.1804605946527 102.31712707190309,182.38801536386018 102.77458563540131,182.61863154970342 103.25193370168563,182.87230908122729 103.76906077342574,183.07986321271164 104.26629834261257,183.31047868986207 104.763535911683,183.4949709014909 105.26077348075341,183.58721695064742 105.77790055249352,183.6333399610594 106.27513812156394,183.70252445897495 106.81215469620656,183.7717089355865 107.34917127073277,183.84089339095226 107.84640883980319,183.91007782510133 108.36353591165971,184.00232370414597 108.90055248630233,184.071508088673 109.41767955804244,184.11763099982636 109.91491712711286,184.20987679393147 110.47182320442516,184.25599967672315 110.98895027628168,184.3713068425859 111.5259668509243,184.41742969230108 112.04309392266441,184.50967536351527 112.56022099452093,184.57885959210398 113.07734806637745,184.6480437995051 113.57458563533146,184.74028937619005 114.07182320440188,184.8094735339837 114.56906077358872,184.83253491517098 115.08618784532882,184.8555962940154 115.62320441985503,184.83253491517098 116.10055248625576,184.71722798560222 116.55801104975399,184.57885959210398 116.91602209955454,184.2790611145756 117.27403314923868,183.88701634939935 117.61215469613671,183.47190938332642 117.93038674036507,183.14904788065178 118.42762430943549,182.87230908122729 118.96464088407811,182.78006273922801 119.46187845303211,182.89537066088815 119.89944751386065,183.17210943186365 120.29723756911699,183.4949709014909 120.69502762437332,183.8178319081635 121.09281767962966,184.1637539016374 121.51049723755568,184.50967536351527 121.92817679559812,184.8555962940154 122.30607734806836,185.17845534962544 122.66408839786891,185.47825262954575 123.02209944755305,185.80111079239578 123.36022099445108,186.14702973880048 123.59889502765145,186.60825417400338 123.71823204413522,187.0925388141768 123.73812154703774,187.59988351042557 123.53922651940957,188.08416601776844 123.3204419889953,188.5453864849842 122.88287292816676,189.49088548937289 122.7834254144691,189.9521030751348 122.7436464088969,190.436380523548 122.80331491713878,190.94371768571727 122.96243093931116,191.42799300144543 123.260773480637,191.86614596113213 123.61878453043755,192.2581768339296 123.9171270718798,192.6963281782082 124.21546961332206,193.11141813901486 124.53370165755041,193.52650733474002 124.89171270723455,193.87241441324295 125.28950276249088,194.1491396935744 125.727071823203,194.40280423505465 126.18453038681764,194.6795288635767 126.58232044207398,195.04849450594338 126.76132596691605,195.5558212770702 126.80110497237183,196.1092673601961 126.82099447515793,196.66271208315447 126.86077348073013,197.2392155565467 126.90055248618592,197.81571755414188 126.94033149175812,198.3691580832674 126.98011049733032,198.89953731412243 127.0,199.4299152957392 126.92044198897202,199.96029202837963 126.78121546958573,200.46760773415735 126.60220994474366,200.92880283867999 126.42320442001801,201.41305668193672 126.24419889505953,201.9203691151779 126.04530386743136,202.3815612446342 126.10497237567324,202.26626330080035 126.24419889505953,201.73589199893468 126.4430939226877,201.2285791501199 126.64198895031586,200.72126515857235 126.78121546958573,200.21395002411737 126.88066298339982,199.68357388896402 126.90055248618592,199.1531965046306 126.88066298339982,198.62281787126267 126.86077348073013,198.09243798872922 126.80110497237183,197.63123707547493 126.80110497237183,197.12391497998033 126.76132596691605,196.61659174159286 126.74143646412995,196.086207133907 126.72154696134385,195.5788815576525 126.56243093917146,195.09461516872398 126.16464088403154,194.74870996759273 125.68729281774722,194.4719854240975 125.229834254249,194.21832096048456 124.83204419899266,193.9185353169305 124.47403314919211,193.54956782315276 124.17569060774986,193.1344786700065 123.8375690607354,192.7424493228027 123.51933701662347,192.32735868179589 123.24088397796731,191.9353279293864 122.98232044198085,191.52023580067907 122.82320441992488,191.01289993744285 122.7436464088969,190.5055629311246 122.763535911683,189.99822478176793 122.88287292816676,189.44476367875177 123.06187845312525,188.96048409779905 123.3403314917814,188.47620347516204 123.55911602207925,187.99192181094259 123.71823204413522,187.46151688840473 123.67845303867944,186.93111071649764 123.53922651940957,186.44682572915917 123.3005524862092,186.03172348240332 122.98232044198085,185.68580435882905 122.60441988951061,185.33988470383338 122.18674033146817,185.01702587967156 121.78895027632825,184.6480437995051 121.4110497237416,184.32518398332468 121.01325966848526,184.00232370414597 120.63535911613144,183.67946296201262 120.2375690608751,183.35660175689554 119.81988950283267,183.05680165198282 119.40220994479023,182.84924749931088 118.90497237571981,182.8031243282603 118.42762430943549,182.82618591497885 117.97016574593727,182.57250833137368 117.63204419892281,182.2727071823174 117.53259668510873,181.92678228359728 117.51270718243904,181.30411612645548 117.87071823212318,181.0043132884748 118.14917127077933,180.6122628209996 118.24861878459342,180.24327352216642 118.18895027635153,179.87428361851198 118.16906077344902,179.36692151367606 118.38784530386329,179.0440541243297 118.60662983427756,178.67506225536636 118.62651933706366,178.1676974479342 118.88508287293371,177.77564204095688 119.04419889510609,177.314399511597 119.30276243097614,176.80703163785802 119.70055248623248,176.55334727218724 120.07845303870272,176.23047584794404 120.45635359117296,175.81535476497083 120.69502762437332,175.35410821942787 120.91381215478759,174.8697983296006 121.23204419889953,174.45467473757162 121.35138121549971,173.97036291280529 121.51049723755568,173.48605004616547 121.59005524870008,173.07092390258913" stroke="#4dd2ff" stroke-linecap="round" stroke-linejoin="round" stroke-width="0.5"><title>2024-10-01 10.0km</title><desc>9223370309112650807</desc></polyline><polyline fill="none" points="175.76194307929836,153.0 176.05367202038178,153.67658512263733 176.32824043539586,154.15417320179404 176.5170062208199,154.59196124253504 176.61996937653748,155.04964768441278 176.75725358404452,155.52723238691397 176.89453779160976,156.02471520309336 176.80873516190331,156.54209598001034 176.56848779862048,156.99977782608767 176.60280885058455,157.57685339896125 176.688611480291,158.11412911505613 176.84305621380918,158.611605304759 176.87737726565683,159.1289791901945 176.99750094732735,159.66625061249943 177.1519456807291,160.16372282648808 177.0833035769756,160.68109257725882 176.94601936941035,161.19846094990498 177.16910620668205,161.65613182295056 177.49515619961312,162.01430827575678 177.80404566659126,162.37248406799335 177.9413298740983,162.85005076347443 178.06145355576882,163.307717744814 178.18157723738113,163.78528214078688 178.00997197796823,164.18325157371874 177.7697246147436,164.60111860076722 177.92416934826178,165.19806993703241 178.18157723738113,165.57613816775847 178.35318249679403,166.03379872559162 178.31886144494638,166.5312546305795 178.1644167114864,167.02870926159085 178.02713250386296,167.4863663969445 177.78688514063833,167.88432824680058 177.5981193552143,168.34198336614645 177.34071146609494,168.7996374071954 176.96317989530507,169.11800479979138 176.5170062208199,169.41647375650064 176.19095622788882,169.854227396645 176.002190442523,170.371571335927 175.76194307929836,170.74962949712062 175.69330097548664,171.2271755963884 175.4358930863673,171.50574361212784 174.9897194118821,171.50574361212784 174.90391678211745,172.0429808000481 174.74947204859927,172.52052371970785 174.38910100382054,172.73939716556924 174.0802115367842,173.0975531814329 174.13169311464299,173.63478596694767 174.28613784816116,174.21181211876683 174.38910100382054,174.66945233079605 174.33761942596175,175.1270914646011 174.49206415947992,175.6245240830467 174.33761942596175,176.04236649810628 173.9086062774295,176.32092760886007 173.42811155103846,176.46020801448321 172.96477735048393,176.53979677286407 172.5014431499876,176.48010520712705 172.02094842359656,176.40051642429898 171.5404536971473,176.34082481580845 171.0771194967092,176.28113318896794 170.59662477025995,176.24133876085398 170.1161300437525,176.1617498802225 169.6527958433726,176.10205819837574 169.18946164281806,176.022469260628 168.70896691642702,175.96277753598406 168.2456327159307,175.90308579293196 167.78229851549258,175.84339403160266 167.336124840891,175.80359951383434 166.838469588547,175.70411318377592 166.34081433620304,175.66431863742764 165.84315908385906,175.6046268027858 165.34550383145688,175.54493494967755 164.88216963096056,175.485243078263 164.43599595635897,175.40565388785035 163.97266175597906,175.28627004110604 163.52648808143567,175.16688612100552 163.13179598469287,174.98781010320818 162.71994336205535,174.7689391907188 162.30809073941782,174.6097601903457 161.91339864273323,174.45058105951466 161.48438549414277,174.25160696261446 161.07253287144704,174.07253010111162 160.6606802488095,174.0128377772926 160.18018552247668,174.07253010111162 159.7511723737698,174.19191469374346 159.3393197511905,174.41078625648515 159.0132697582012,174.66945233079605 158.68721976532834,175.10719413342304 158.42981187609257,175.6046268027858 158.17240398697322,176.0821609669656 157.86351451999508,176.53979677286407 157.46882242331048,176.9178429297899 157.00548822275596,177.25609413077473 156.50783297041198,177.4749622411473 155.99301719211508,177.63413889381627 155.46104088786524,177.71372717124177 154.94622510956833,177.67393303661083 154.44856985716615,177.57444766437402 153.98523565672804,177.4749622411473 153.50474093027879,177.3555796661094 153.04140672984067,177.29588835105824 152.57807252934435,177.33568256307626 152.11473832878983,177.45506515041052 151.63424360239878,177.57444766437402 151.17090940190246,177.77341835788684 150.75905677926494,178.03207995483535 150.41584626038093,178.3703292158607 150.12411731935572,178.76826876890846 149.98683311184868,179.24579515654477 149.74658574856585,179.7432172288827 149.52349891129415,180.22074122013873 149.18028839246836,180.51919311861275 148.71695419203024,180.57888344331877 148.25361999147572,180.69826403768093 147.7902857910376,180.75795430733706 147.34411211649422,180.73805755283684 146.84645686409203,180.79774781024025 146.34880161180627,180.73805755283684 145.90262793714646,180.79774781024025 145.43929373676656,180.7778510598 144.99312006222317,180.75795430733706 144.52978586166864,180.73805755283684 144.03213060932467,180.75795430733706 143.55163588287542,180.69826403768093 143.07114115648437,180.69826403768093 142.60780695598805,180.61867698293645 142.24743591120932,180.320225237243 141.93854644417297,180.0615666868398 141.80126223666593,179.6636297828809 141.76694118481828,179.16620750680158 141.71545960695948,178.6289900180418 141.7326201328542,178.17135913363018 141.74978065880714,177.7336242354795 141.81842276261887,177.31578545809316 141.81842276261887,176.85815148019174 141.68113855505362,176.38061922352063 141.33792803616961,176.022469260628 140.8745938356733,175.7439077219169 140.39409910928225,175.6046268027858 139.89644385688007,175.50514037074754 139.36446755263023,175.485243078263 138.86681230028626,175.54493494967755 138.386317573837,175.6046268027858 137.92298337334068,175.78370225186518 137.51113075076137,176.00257202117064 137.18508075777208,176.26123597590777 136.84187023894629,176.51989958631748 136.97915444651153,176.97753436097992 137.21940180973615,177.37547676701797 137.39100706909085,177.8132124721451 137.408167595102,178.29074120742735 137.27088338753674,178.68868092342746 136.97915444651153,179.0269290412689 136.53298077196814,179.10651674805558 136.4643386680982,179.64373291628726 136.55014129786287,180.12125715204456 136.60162287572166,180.5987802141608 136.60162287572166,181.0763021024759 136.58446234976873,181.5538228170917 136.60162287572166,182.0313423580228 136.58446234976873,182.50886072521098 136.60162287572166,182.94658486415574 136.58446234976873,183.3843080169172 136.60162287572166,183.84192662213172 136.60162287572166,184.31944053930056 136.61878340161638,184.83674595851335 136.61878340161638,185.29436114274722 136.61878340161638,185.75197524913528 136.61878340161638,186.22948447192903 136.60162287572166,186.70699252112536 136.60162287572166,187.20439549120783 136.58446234976873,187.68190114441677 136.60162287572166,188.13950962762465 136.58446234976873,188.59711703303037 136.60162287572166,189.0547233607649 136.61878340161638,189.55212032067357 136.61878340161638,190.02962020428095 136.63594392762752,190.54691042062768 136.7389070832869,191.06419925989758 137.01347549835918,191.50190412517986 137.3566860172432,191.8202343169687 137.75137811392779,192.1584595743043 138.1632307365653,192.3574153330992 138.50644125544932,192.55637088807998 138.86681230028626,192.83490832291136 139.31298597482964,192.99407239205902 139.75915964937303,193.0338633890642 140.18817279790528,192.95428138699208 140.61718594649574,192.8548038386798 141.0461990951444,192.79511728523357 141.4408911918872,192.71553518544533 141.81842276261887,192.63595305310446 142.24743591120932,192.57626643241383 142.72793063760037,192.51657979340234 143.17410431214375,192.4568931360118 143.6545990385348,192.39720646037313 144.15225429093698,192.37731089777662 144.68423059518682,192.39720646037313 145.181885847589,192.43699757954164 145.67954109999118,192.43699757954164 146.17719635233516,192.4171020209469 146.67485160467913,192.4568931360118 147.15534633112838,192.59616197460855 147.5671989537077,192.93438588138088 147.85892789473291,193.3720865339419 148.1334963098634,193.82968161645113 148.37374367314624,194.2872756213619 148.68263314012438,194.6652872474515 149.06016471091425,194.96371695918788 149.50633838545764,195.162669845653 149.95251205994282,195.2422509432363 150.43300678633386,195.30193674498878 150.93066203873605,195.42130829360394 151.34251466137357,195.58047024426924 151.78868833591696,195.73963206462213 152.16621990664862,195.9385841567564 152.5437514774385,196.19722157195793 152.90412252221722,196.45585864287568 153.28165409294888,196.7144953696261 153.65918566379696,196.99302684419672 154.07103828637628,197.21187272270618 154.51721196091967,197.39092825818807 154.9805461614742,197.5699836286949 155.46104088786524,197.68935378399328 155.92437508836156,197.74903883421212 156.38770928885788,197.74903883421212 156.88536454126006,197.74903883421212 157.33153821580345,197.74903883421212 157.7605513643357,197.70924880277016 158.20672503887909,197.68935378399328 158.70438029128127,197.68935378399328 159.15055396576645,197.64956374040048 159.6310486922739,197.62966871555545 160.11154341866495,197.62966871555545 160.592038145056,197.6694587632228 161.02105129358824,197.8883038799686 161.43290391634218,198.14693870019983 161.79327496112091,198.4453630650678 162.15364600589965,198.68410222696548 162.5311775766313,198.90294620105124 162.9773512511747,199.06210530013777 163.44068545172922,199.0820001783868 163.92118017812027,199.022315537557 164.36735385266365,198.8830513044668 164.81352752714884,198.80347169787274 165.2940222536563,198.68410222696548 165.74019592819968,198.58462761181 166.16920907673193,198.46525800641393 166.5982222253224,198.3657832792378 167.01007484801812,198.28620346082607 167.43908799660858,198.14693870019983 167.9024221970467,198.02756882598624 168.38291692355415,197.86840887952712 168.88057217583992,197.80872386600822 169.3267458504415,197.60977368861495 169.7214379470679,197.37103320685856 170.08180899190484,197.11239735395066 170.47650108864764,196.91344646360085 170.87119318533223,196.7144953696261 171.28304580796976,196.67470512636646 171.57477474905318,196.97313175212184 171.66057737881783,197.4506134000112 171.763540534419,197.94798886899662 171.90082474198425,198.46525800641393 172.02094842359656,198.94273598805012 172.19255368300946,199.3406334099127 172.19255368300946,199.79821443780384 172.05526947544422,200.23589963033737 171.90082474198425,200.69347855029628 171.79786158632487,201.13116172638547 171.6948984306655,201.60863315803 171.67773790465435,202.0861034164409 171.72921948245494,202.54367798005114 171.763540534419,203.0211459412094 171.74638000846608,203.47871830321674 171.6434168528067,203.91639520665922 171.48897211928852,204.29438810273132 171.3002063339227,204.67238026366977 171.1972431782633,205.09016021776188 171.1457616004045,205.5079392738262 171.18008265231038,205.9655057809432 171.31736685993383,206.38328295532847 171.57477474905318,206.74137696150865 172.00378789764363,206.9801059323654 172.51860367594054,206.9801059323654 173.01625892828451,206.92042371710704 173.53107470663963,206.8209533176705 174.0287299590418,206.76127105359046 174.52638521132758,206.6618005726632 175.00687993771862,206.58222415133787 175.4358930863673,206.48275357879174 175.98502991651185,206.36338882459677 176.39688253920758,206.14455325138988 176.75725358404452,205.84614070907992 177.10046410292853,205.52783349218953 177.34071146609494,205.11005447893695 177.46083514770726,204.67238026366977 177.61527988122543,204.27449375811557 178.0442930298159,204.05565583285352 178.52478775626514,204.17502200446324 178.91947985294973,204.4137541277014 179.31417194963433,204.67238026366977 179.77750615018886,204.8315346378222 180.27516140247462,204.91111177601852 180.78997718082974,204.89121749451442 181.25331138126785,204.7718517628091 181.6823245299165,204.53312007938803 182.02553504880052,204.19491635926533 182.3001034638146,203.81692326969642 182.48886924918042,203.35935170396988 182.62615345680388,202.9216735460359 182.79775871621678,202.48399440238427 182.9350429237238,202.02641969830438 183.089487657242,201.5688439168589 183.22677186486544,201.09137238752737 183.36405607237248,200.63379440446442 183.5013402798795,200.13642580952728 183.5528218577383,199.6589507607714 183.5528218577383,199.18147453891288 183.53566133184358,198.68410222696548 183.51850080583245,198.18672864200198 183.4841797539848,197.64956374040048 183.46701922803186,197.1720825812954 183.3812165983254,196.7144953696261 183.29541396861896,196.25690708035836 183.12380870908964,195.79931771362317 182.95220344973495,195.32183200819418 182.84924029407557,194.86424043950683 182.72911661246326,194.42654314816173 182.55751135305036,194.04853105760412 182.45454819733277,193.67051823170914 182.3001034638146,193.2129227743426 182.14565873041283,192.75532623947947 182.1284982044599,192.25793747918215 182.1799797822605,191.80033869527688 182.3515850416734,191.3228431630996 182.5231903012027,190.8851378944819 182.67763503460446,190.4474316398555 182.79775871621678,189.9699327830458 182.9350429237238,189.49243275272602 182.9865245015826,188.9751397289947 182.9865245015826,188.4777412920521 182.96936397568788,188.0002375946351 182.9350429237238,187.52273272372258 182.9178823978291,187.02533056867833 182.9178823978291,186.52792714018142 182.88356134592323,186.11010727625398 182.8664008199703,185.692286513804 182.71195608656853,185.29436114274722 182.40306661953218,184.97602025911328 182.00837452278938,184.71736790709838 181.6136824261048,184.49850795564998 181.218990329362,184.21995857002912 180.87577981047798,183.8618230587599 180.5497298176051,183.44399746130512 180.24084035062697,183.02617096529866 179.94911140954355,182.64813669459545 179.65738246851834,182.27010168833658 179.48577720910544,181.79258273422602 179.38281405344605,181.31506260645983 179.4171351052937,180.7778510598 179.57157983881189,180.30032843793742 179.76034562417772,179.8625983367383 180.01775351335527,179.40497035827138 180.18935877270997,178.90754741986166 180.2065192987211,178.41012320779555 180.0863956171088,177.91269772211672 179.8118272020365,177.4749622411473 179.4171351052937,177.11681429580494 179.00528248265618,176.7586656902422 178.59342986001866,176.40051642429898 178.19873776333407,176.06226373353275 177.85552724445006,175.76380498791696 177.49515619961312,175.44544848715304 177.10046410292853,175.14698879381467 176.70577200624393,174.88832335542247 176.27675885759527,174.70924708084203 175.8477457090048,174.7689391907188" stroke="#4dd2ff" stroke-linecap="round" stroke-linejoin="round" stroke-width="0.5"><title>2024-09-21 10.1km</title><desc>9223370309978945807</desc></polyline><polyline fill="none" points="55.782151905761566,213.0 56.93275492824614,216.06677342522016 56.57211816002382,217.1620379205997 57.17317944037495,220.20883214115747 56.96710128709674,221.20450617246388 58.03183841245482,223.07635954313446 58.186397027398925,223.8330611082347 57.7914139002678,224.7689773900056 58.37530200125184,226.42175471143855 57.465123490896076,228.67189883593528 56.2286545712268,229.80691740500333 55.679112829093356,231.43973951139196 55.00935883092461,231.51938901940593 54.76893431873759,232.534917385914 54.150699858844746,232.93316235604289 54.56285616545938,235.78059012212907 54.16787303832825,236.19874033796077 52.86271140084136,236.5571540929086 44.89435614045942,235.50182281190064 43.503328605846036,235.18323111074278 41.11625666357577,234.088068155761 40.39498312707292,234.04824393207673 39.03830195131013,234.66551848273957 37.92204528773436,236.47750664889463 36.92600088013569,237.31380318327865 35.431934268795885,237.73195010136988 33.044862326583825,237.31380318327865 31.516449356393423,237.63239139293728 30.19411453953944,238.6677994687343 29.249589670274872,240.49966178681643 25.729087885003537,240.83815619532834 22.689435124048032,240.65895334657398 22.088373843580484,240.26072420240962 21.79642979305936,239.88240575992677 21.67621753702406,236.39785917228437 20.662999950000085,235.6810304143146 19.220452877052594,235.50182281190064 18.121369392843917,235.70094235999568 16.833380934840534,236.53724223494646 17.36574949743226,237.69212662411155 17.38292267685756,238.44877129717497 16.438397807767615,239.36470564562478 16.610129602078814,250.5148647618771 16.833380934840534,251.35110091994284 17.62334718904458,252.1076924404333 19.546743286424316,253.08329295039584 23.90873086429201,252.40634617763862 27.03424952243222,252.58553819973895 28.991991978604347,254.95483941130806 31.705354330246337,255.73132680506387 34.43588986125542,257.40375066110573 36.01582236983813,257.8019446974067 40.48084902431583,257.68248657209915 42.98813322256319,259.09606968439766 48.98157284734771,257.8019446974067 51.33429843070917,256.70690913566796 52.227303761581425,259.57389827191946 51.69493519887328,261.76393094334344 51.74645473714918,263.63539386630873 51.162566636223346,265.885107374168 51.69493519887328,266.8606387712207 52.81119186250726,267.0 56.09126913564978,266.382828086018 57.19035261980025,265.4869298875419 57.55098938813899,264.43175560560485 57.945972515270114,264.1132113011845 60.17848584247986,264.92948003677884 61.74124517152086,264.55120958526095 62.56555778463371,263.2969391396764 63.561602192232385,259.9322689421824 63.35552403895417,256.40826200321317 62.136228298651986,252.54571776467492 63.02923362958245,248.9021134438517 62.857501835154835,245.51728322888084 61.20887660887092,244.22306786836998 59.628944100346416,242.17221665542456 59.45721230597701,240.69877621612977 60.24717856029747,238.7872692765086 59.955234509776346,237.65230313867505 56.81254267215263,234.9442869922059 55.62759329075925,234.8447268561431" stroke="#4dd2ff" stroke-linecap="round" stroke-linejoin="round" stroke-width="0.5"><title>2024-09-21 10.1km</title><desc>1726871683000</desc></polyline></svg>