<?xml version="1.0" encoding="utf-8" ?>
<svg baseProfile="full" height="300mm" version="1.1" viewBox="0,0,200,300" width="200mm" xmlns="http://www.w3.org/2000/svg" xmlns:ev="http://www.w3.org/2001/xml-events" xmlns:xlink="http://www.w3.org/1999/xlink"><defs /><rect fill="#222222" height="300" width="200" x="0" y="0" /><text fill="#FFFFFF" style="font-size:12px; font-family:Arial; font-weight:bold;" x="10" y="20">Over 10km Runs</text><text fill="#FFFFFF" style="font-size:4px; font-family:Arial" x="10" y="280">ATHLETE</text><text fill="#FFFFFF" style="font-size:9px; font-family:Arial" x="10" y="290">mikusugar</text><text fill="#FFFFFF" style="font-size:4px; font-family:Arial" x="65" y="280">SPECIAL TRACKS</text><rect fill="yellow" height="2.6" width="2.6" x="65" y="283" /><text fill="#FFFFFF" style="font-size:3px; font-family:Arial" x="70" y="285.5">Over 20.0 km</text><rect fill="red" height="2.6" width="2.6" x="65" y="287" /><text fill="#FFFFFF" style="font-size:3px; font-family:Arial" x="70" y="289.5">Over 40.0 km</text><text fill="#FFFFFF" style="font-size:4px; font-family:Arial" x="120" y="280">STATISTICS</text><text fill="#FFFFFF" style="font-size:3px; font-family:Arial" x="120" y="285">Number: 6</text><text fill="#FFFFFF" style="font-size:3px; font-family:Arial" x="120" y="290">Weekly: 1.2</text><text fill="#FFFFFF" style="font-size:3px; font-family:Arial" x="141" y="285">Total: 60.8 km</text><text fill="#FFFFFF" style="font-size:3px; font-family:Arial" x="141" y="290">Avg: 10.1 km</text><text fill="#FFFFFF" style="font-size:3px; font-family:Arial" x="167" y="285">Min: 10.0 km</text><text fill="#FFFFFF" style="font-size:3px; font-family:Arial" x="167" y="290">Max: 10.3 km</text><polyline fill="none" points="85.93993229619446,62.589168487214465 85.94166373776761,62.59318409884975 85.94339517934077,62.59673636176262 85.94499343310099,62.60136973558883 85.94619212342104,62.60538531471764 85.94685806248708,62.60924643840599 85.9484563162473,62.61326199654991 85.94818994062052,62.61727754399601 85.9465916868603,62.62098419368158 85.94579255998087,62.62453639107696 85.94632531123398,62.62839746570785 85.94765718936742,62.63256741520047 85.94818994062052,62.63658291121658 85.94872269187363,62.64059839653578 85.94978819437983,62.644459430023744 85.95005457000661,62.648320453622205 85.94952181875351,62.65233590767377 85.95018775782,62.65619691109748 85.95218557501994,62.65944014633067 85.95498251909976,62.66237449600533 85.95618120941936,62.6662354737166 85.95724671192556,62.66994200301656 85.9580458388059,62.67364852320202 85.95724671192556,62.677355034274456 85.95604802160642,62.68121597361721 85.95737989973895,62.6815248483374 85.95844540224562,62.68646683525401 85.95937771693889,62.69125436962986 85.95911134131211,62.69542414524665 85.95844540224562,62.6994394738291 85.95777946317867,62.70376366188009 85.95551527035241,62.706852360036805 85.95391701659264,62.7099410518656 85.9520523872061,62.71318417147506 85.94925544312719,62.71565511506651 85.94619212342104,62.717971621004835 85.94339517934077,62.72106029005272 85.94206330120778,62.724766684557494 85.94019867182169,62.7278553396842 85.93953273275474,62.73140728525698 85.93793447899498,62.734495926779346 85.93407203240895,62.73465035868912 85.9327401542755,62.73804785670711 85.93194102739562,62.74159977826707 85.92901089550287,62.74391624434122 85.92661351486322,62.747159290865625 85.92754582955695,62.751174481659405 85.92874451987609,62.755035231954025 85.92941045894304,62.75920483116795 85.92874451987609,62.76275670288487 85.93007639800953,62.7663085662341 85.92887770768948,62.769551564593144 85.92554801235656,62.77155913151046 85.92195194139731,62.772485699955496 85.91808949481128,62.773103411935836 85.91409386041141,62.772640127974114 85.91009822601245,62.77233127192062 85.90610259161258,62.77186798772209 85.90197376939977,62.77155913151046 85.89797813500081,62.770941418897564 85.89411568841479,62.77063256249619 85.89012005401491,62.7704781342718 85.88625760742889,62.769705992912236 85.88212878521563,62.76939713625825 85.87813315081667,62.76893385115818 85.87440389204403,62.768007280530355 85.87054144545755,62.767389566462384 85.86667899887152,62.7670807093333 85.86268336447256,62.766617423520984 85.8585545422593,62.76615413756713 85.85469209567282,62.76553642273939 85.85082964908725,62.76507313645277 85.84696720250076,62.76414656345298 85.84323794372813,62.763065560899804 85.8399082483952,62.761521270193384 85.83657855306228,62.76013140720545 85.83338204554275,62.75827825456122 85.82991916239644,62.75673395895171 85.82658946706351,62.75534409155034 85.82325977173059,62.75441751257142 85.8195305129575,62.754571942440634 85.81580125418486,62.755189661759914 85.81233837103855,62.75673395895171 85.80914186351993,62.759050401773266 85.80661129506598,62.76198455757128 85.80501304130667,62.765690851470026 85.80301522410718,62.76939713625825 85.80088421909386,62.772640127974114 85.7980872750145,62.775574257325275 85.79475757968112,62.778353953549754 85.79116150872187,62.78036150874664 85.78729906213539,62.78175135308595 85.78343661554982,62.782369061270515 85.77970735677673,62.7828323422425 85.77611128581748,62.782369061270515 85.77251521485778,62.78144249889931 85.76891914389807,62.78067036315463 85.76518988512498,62.780052654274414 85.76186018979251,62.779743799739435 85.75826411883327,62.780052654274414 85.7542684844334,62.78067036315463 85.75053922566076,62.781596926000475 85.74707634251445,62.78360447687942 85.7440130228083,62.78607530506099 85.74161564216865,62.789163834594206 85.7398842005955,62.79287006168306 85.73855232246251,62.796885130748706 85.73682088088935,62.80059133885857 85.73415712462293,62.803370988962115 85.73042786585029,62.80414311308198 85.72683179489059,62.804915236806096 85.72323572393134,62.805687360134925 85.71937327734486,62.80584178475317 85.71551083075838,62.80584178475317 85.71178157198574,62.805687360134925 85.70791912539971,62.805687360134925 85.70432305444047,62.805687360134925 85.70059379566737,62.805532935500764 85.6967313490818,62.805532935500764 85.69286890249532,62.80537851085057 85.6890064559093,62.805224086185035 85.68527719713666,62.80476081209292 85.6816811261765,62.803834263481576 85.67861780647081,62.801363464401334 85.67608723801732,62.79873823594221 85.67608723801732,62.795186448987124 85.67582086239099,62.791943505764834 85.6751549233245,62.78839170280378 85.67502173551111,62.78514874496727 85.67555448676421,62.78190578015585 85.67582086239099,62.778353953549754 85.6756876745776,62.77449326296585 85.67342348175134,62.7712502752355 85.66996059860548,62.76893385115818 85.66649771545917,62.76754399500294 85.66290164449947,62.766617423520984 85.65890601010005,62.76646299488539 85.65504356351357,62.7663085662341 85.65131430474048,62.76692628074534 85.64758504596784,62.76785285203698 85.64425535063538,62.76939713625825 85.64132521874262,62.77155913151046 85.63839508684941,62.77341226783062 85.63759595996953,62.77634639567975 85.63959377716901,62.779743799739435 85.64159159436895,62.78329562307215 85.64212434562205,62.787310717633204 85.6410588431163,62.790708096988396 85.63919421372884,62.79364219117997 85.63573133058344,62.79441432028125 85.63453264026384,62.79781168363036 85.6354649549562,62.802444439497094 85.63559814277005,62.806150633942366 85.63573133058344,62.81001124346926 85.63559814277005,62.81371741931525 85.63559814277005,62.81742358605288 85.63559814277005,62.82128416671742 85.63573133058344,62.82499031485622 85.63573133058344,62.82900529839446 85.63573133058344,62.832557005690205 85.63559814277005,62.83626312612262 85.63559814277005,62.83996923744678 85.63559814277005,62.84367533966201 85.63573133058344,62.847535853117165 85.63573133058344,62.85108751676751 85.63559814277005,62.8549480112473 85.63533176714327,62.85834523821427 85.63533176714327,62.861742457527384 85.6354649549562,62.8652940877181 85.63573133058344,62.86853687319524 85.63586451839637,62.872397323004634 85.63573133058344,62.87610334552471 85.63586451839637,62.87965494189302 85.63613089402315,62.883360946577454 85.63706320871643,62.886912525854086 85.63892783810252,62.89000084886095 85.6410588431163,62.89247150271251 85.6438557871952,62.89478773702274 85.6469191069018,62.89664072190931 85.6498492387941,62.89803045908002 85.65251299506053,62.89972902499437 85.65570950258052,62.90127317416568 85.65917238572683,62.902045248158174 85.66290164449947,62.90158200381006 85.66663090327211,62.900809929579964 85.67022697423181,62.9001922699116 85.67329029393841,62.89957460999062 85.67635361364364,62.89895694981624 85.68061562367029,62.898648119634004 85.68421169463,62.89803045908002 85.68780776558924,62.897567213498974 85.69153702436233,62.897258383032636 85.69553265876175,62.89679513721387 85.69966148097456,62.89679513721387 85.70339073974765,62.89710396777514 85.70738637414661,62.897258383032636 85.71138200854648,62.89741279827376 85.7153776429459,62.898184874242475 85.71910690171853,62.899883439982545 85.7219038457979,62.90281732175515 85.72403485081122,62.90636885521212 85.7260326680107,62.90976596634505 85.72803048521018,62.91300865619712 85.73069424147661,62.91578809909299 85.73375756118276,62.91779547133194 85.73722044432907,62.91887636296917 85.74081651528877,62.919185189008545 85.74441258624802,62.91964842795005 85.74814184502065,62.920574905405715 85.7518711037942,62.921810207794124 85.75533398694006,62.923354334356645 85.7583973066462,62.9255161088887 85.76146062635235,62.92798670456011 85.76465713387233,62.9303028843259 85.7679868292048,62.932310237245815 85.77144971235111,62.934008764553255 85.77464621987065,62.935552878626936 85.77797591520402,62.93678816874751 85.78117242272356,62.937560224559206 85.78423574242925,62.93817786892441 81.51210344253468,63.443943716826766 63.59527923195037,66.00552672677031 53.440374405742205,68.33509285091111 35.294200780628216,72.48374119575521 14.54087570987258,77.29687433357219 15.125303834699025,77.15781994121664 14.32351319854206,77.33741039658412 14.929384561312418,77.19331135583695 15.110120423981243,77.15001784032972 53.53786788508842,70.43018304112218 82.82733309902142,63.13025299748574 85.53584047059667,62.8393515528586 85.80687767069321,62.92983964865732 85.8387095580756,62.94667045329152 85.84550213655439,62.948523374435126 85.84949777095335,62.947905734306346 85.85322702972644,62.947133683790526 85.85695628849999,62.946052812404446 85.86081873508556,62.94497194024359 85.86481436948498,62.9438910673083 85.86841044044468,62.94311901473691 85.87187332359099,62.94219255113023 85.87560258236363,62.94142049768982 85.87959821676304,62.9404940330395 85.88306109990936,62.93925874595436 85.8866571708686,62.93833227997595 85.8902532418283,62.936633757537834 85.89424887622772,62.93416317603169 85.89797813500081,62.932001413893886 85.90184058158684,62.930148472452174 85.90543665254609,62.93045729618393 85.90743446974602,62.933699941548525 85.90810040881252,62.93740581342854 85.90903272350579,62.94142049768982 85.90983185038567,62.94497194024359 85.91089735289188,62.94821455440217 85.91182966758515,62.9517659809585 85.91129691633205,62.955317399152136 85.91023141382493,62.95871440003452 85.90916591131872,62.962420210452706 85.90810040881252,62.96643482813124 85.90796722099867,62.970295027360976 85.90836678443884,62.9746184387692 85.90849997225268,62.97863302398082 85.90849997225268,62.98249319199215 85.90730128193263,62.98619894398894 85.9053034647327,62.98959587532181 85.90397158659971,62.99314720444431 85.90317245971983,62.99685293026687 85.90343883534615,63.00086745630085 85.90503708910637,63.00488197165032 85.90770084537235,63.0081244570174 85.91129691633205,63.009514091469555 85.91515936291808,63.009514091469555 85.91915499731795,63.0090508801278 85.92315063171736,63.008278860908376 85.92701307830293,63.007506841294 85.93087552488942,63.00704362933607 85.93500434710222,63.006271609089595 85.93886679368825,63.00549958844806 85.94259605246089,63.00426435459951 85.94592574779381,63.00210269293086 85.94885587968656,62.999477813882436 85.95112007251373,62.99638971503657 85.95218557501994,62.99299279900424 85.95338426533999,62.98928706369827 85.95631439723275,62.98712538056577 85.96017684381877,62.98743419263167 85.9635065391517,62.98959587532181 85.96670304667077,62.99191196048014 85.97043230544432,62.993456015277275 85.97429475203035,62.994073636753456 85.9778908229896,62.994228042082796 85.9813537061359,62.993456015277275 85.98441702584205,62.99175755491376 85.9873471577348,62.98959587532181 85.98961135056152,62.986353350125 85.99134279213467,62.982802005006306 85.99254148245427,62.97940505837312 85.99347379714754,62.97616251126908 85.99453929965375,62.972456734614184 85.99600436560058,62.96859654091713 85.99706986810725,62.964890745673756 85.99813537061345,62.96118494132463 85.99920087312012,62.95763353694724 85.99973362437322,62.95377330531289 85.99986681218616,62.94991306379859 85.99973362437322,62.94620722264972 85.99960043655983,62.94219255113023 85.9993340609335,62.93848669101169 85.99906768530627,62.934626410372175 85.99853493405362,62.930766119852365 85.99773580717374,62.92690581945203 85.99653711685369,62.92304550917106 85.99533842653364,62.919185189008545 85.99413973621358,62.91563368573293 85.99320742152122,62.912391001525066 85.99227510682749,62.90930272436867 85.99120960432083,62.90621444088822 85.99001091400123,62.90219966290897 85.98921178712135,62.898184874242475 85.98907859930841,62.8941700748876 85.98974453837491,62.89061851270321 85.9909432286945,62.88706694215466 85.99240829464088,62.883515363241486 85.99374017277432,62.879809358936996 85.99507205090731,62.87610334552471 85.9957379899738,62.872242905202256 85.9958711777872,62.86838245499757 85.99547161434748,62.864367576300765 85.9952052387207,62.86050710593554 85.99507205090731,62.856801045086854 85.99480567528053,62.85294055535121 85.99467248746714,62.84892563554183 85.99453929965375,62.84506512564485 85.99347379714754,62.84151344781003 85.99041047744095,62.83919713167188 85.98681440648215,62.83734407619977 85.98348471114878,62.8354910184504 85.98095414269574,62.83317469306121 85.97855676205609,62.83008625367427 85.97642575704322,62.82638011806034 85.97389518858972,62.823446087572165 85.97163099576346,62.820203205127655 85.96949999075059,62.81665146873354 85.968301300431,62.81294530009916 85.96776854917789,62.80908469808435 85.96870086387025,62.80506966150358 85.97003274200415,62.801054614232044 85.97229693483041,62.797193981772466 85.97389518858972,62.793178913529005 85.97456112765667,62.78900940826759 85.97376200077679,62.78483989147617 85.97216374701657,62.78113364464855 85.9693668029372,62.778353953549754 85.96617029541767,62.775574257325275 85.96297378789905,62.772794555976816 85.95964409256521,62.77016927777561 85.95658077285907,62.76754399500294 85.9537838287797,62.764918707659376 85.95098688469989,62.762447844806616 85.94765718936742,62.76028583648929 85.94432749403404,62.759050401773266 85.94046504744847,62.75920483116795 85.93673578867538,62.76090355346764 85.93433840803573,62.76337441885096 85.9316746517693,62.766771852141005" stroke="#4dd2ff" stroke-linecap="round" stroke-linejoin="round" stroke-width="0.5"><title>2024-10-23 10.3km</title><desc>9223370307171316807</desc></polyline><polyline fill="none" points="171.35341809457168,34.0 171.53700470912736,34.58544632559642 171.9041779380059,35.17089133136324 172.11071287933737,36.04905636544572 172.27135116688441,36.79416376262088 172.5237827617675,37.459436417906545 172.66147272265516,38.204539768688846 172.36314447422046,38.86980881114141 172.1795578597812,39.61490811544354 172.15660953288898,40.2535629607155 172.4319894546643,40.94543727071141 172.56967941543553,41.6639201802609 172.68442104943097,42.355790733214235 172.84505933721084,43.07426974122063 172.89095599076245,43.819356983556645 172.84505933721084,44.51122179458616 172.95980097120628,45.14986459974898 173.12043925886974,45.38935524682165 173.39581918052863,45.761895814473974 173.76299240940716,46.267485730175395 174.03837233118247,46.985953917348525 174.24490727239754,47.731029938178835 174.26785559928976,48.44949407695094 173.99247567751445,49.1413465544465 174.01542400440667,49.83319718914572 174.19901061884593,50.41860782520962 174.52028719405644,51.057236105320044 174.56618384772446,51.8023004475981 174.42849388695322,52.520753324992256 174.26785559928976,53.18598569885944 173.92363069707062,53.74477957628551 173.62530244863592,54.35679053896456 173.2810775465332,54.942190980073065 172.7532660298748,55.42115399602335 172.202506186557,55.8202891680412 171.81238463078626,56.37907737851492 171.58290136267897,56.99108213454019 171.21572813380044,57.523259011271875 171.07803817291278,58.13526107161306 170.6190716366982,58.58760949381394 170.0453634666046,58.77387037992594 169.95357015938498,59.41247811829089 169.65524191083387,60.02447572769597 169.08153374062385,60.3703867822187 168.8979471261846,60.98238213494187 169.05858541384805,61.620984443987254 169.2192237015115,62.3128018406569 169.28806868195534,63.00461739482125 169.28806868195534,63.66982292107423 169.4946036231704,64.30841862375382 168.9438437797362,64.8139724417706 168.30129062919877,65.15987711874186 167.61284082499333,65.34613329262356 166.92439102067146,65.31952527593239 166.2129928896902,65.23970120964805 165.52454308536835,65.13326908307499 164.8360932811629,65.05344495954341 164.19354013062548,64.94701275660191 163.52803865319584,64.86718857593951 162.81664052209817,64.78736437059706 162.12819071789272,64.68093205877813 161.43974091368727,64.57449970321613 160.7512911093654,64.49467540800106 160.03989297826774,64.44145919755101 159.37439150095452,64.33502674402553 158.68594169663265,64.25520237514866 157.9974918924272,64.14876984531293 157.35493874188978,64.04233727173414 156.68943726434372,63.96251281298464 156.0239357870305,63.90929649354075 155.35843430960085,63.802863821940264 154.715881158947,63.61660654170555 154.09627633506898,63.35052448109491 153.47667151130736,63.05783389962744 152.83411836065352,62.71192642362439 152.1915652101161,62.44584343637689 151.54901205946226,62.179760176630225 150.8835105819162,62.07332679638057 150.19506077782717,62.04671844455879 149.55250762717333,62.25958518314292 148.97879945696332,62.55227666403516 148.45098794042133,63.00461739482125 148.08381471142638,63.61660654170555 147.76253813609947,64.28181050086278 147.39536490733735,64.92040469910717 146.95934669789858,65.50578133523231 146.4315351813566,66.0113328230509 145.83487868425436,66.41045172390295 145.19232553371694,66.70313852801337 144.50387572939508,66.91600145123084 143.86132257885765,66.96921715480858 143.195821101428,66.94260930438759 142.55326795077417,66.83617787543335 141.8648181464523,66.6765306504094 141.19931666913908,66.51688332716003 140.53381519170944,66.4370596287772 139.84536538738757,66.57009911246132 139.15691558329854,66.72974640291068 138.49141410575248,66.86278573676827 137.87180928187445,67.18207985992194 137.34399776533246,67.60780474703643 136.9538762095617,68.11335214442806 136.67849628790282,68.69872158599901 136.42606469301973,69.31069731921889 136.15068477136083,69.94927915604785 135.69171823514625,70.50803697571973 135.0032684309408,70.69428931522998 134.33776695351116,70.88054152121185 133.64931714930572,71.0401861629507 132.98381567187607,71.06679359363625 132.31831419444643,71.09340102164424 131.6987093705684,71.01357872947119 130.98731123958714,71.01357872947119 130.2988614353817,71.01357872947119 129.63335995795205,71.01357872947119 128.9678584805224,71.01357872947119 128.3482536567608,70.98697129325592 127.70570050610695,70.9337564126763 127.0401990286773,70.88054152121185 126.4894391852431,70.64107437469647 126.00752432236914,70.21535445816698 125.6862477469258,69.65659600903746 125.7091960737016,69.09783635815256 125.61740276659839,68.45925242835074 125.54855778615456,67.8472746895277 125.54855778615456,67.26190332946135 125.66329942015,66.70313852801337 125.66329942015,66.06454871199094 125.61740276659839,65.45256533188513 125.20433288405184,64.92040469910717 124.63062471384183,64.57449970321613 123.94217490951996,64.30841862375382 123.27667343209032,64.17537798182457 122.54232697433326,64.14876984531293 121.8309288432356,64.14876984531293 121.11953071213793,64.25520237514866 120.40813258115668,64.46806730417302 119.83442441094667,64.78736437059706 119.37545787484851,65.15987711874186 118.93943966540974,65.50578133523231 119.26071624085307,66.03794076887425 119.6049411429558,66.62331488687778 119.83442441094667,67.26190332946135 119.76557943050284,67.98031345097115 119.39840620174073,68.56568319239886 118.8476463581901,68.80515225182171 118.5034214562038,69.28408970864257 118.5263697829796,69.92267161083873 118.68700807052664,70.53464446097496 118.68700807052664,71.17322328942828 118.68700807052664,71.83840789995156 118.68700807052664,72.5035908074351 118.68700807052664,73.1687720118789 118.68700807052664,73.86055865784874 118.66405974375084,74.52573638811009 118.66405974375084,75.16430540691363 118.68700807052664,75.85608673957177 118.68700807052664,76.49465248867637 118.66405974375084,77.15982347511454 118.68700807052664,77.79838602000382 118.70995639730245,78.46355366881471 118.68700807052664,79.12871961470228 118.68700807052664,79.82049039198318 118.68700807052664,80.48565286403755 118.68700807052664,81.12420723529067 118.68700807052664,81.78936636986327 118.73290472419467,82.45452380165807 118.73290472419467,83.14628572444781 118.75585305097047,83.81143968275865 118.87059468508232,84.44998588075396 119.12302627996542,85.06192451468087 119.53609616251197,85.56743795136572 119.99506269861013,86.01973861380247 120.63761584926397,86.36561505970894 121.18837569269817,86.63167355093174 121.67029055557214,86.92433757672552 122.22105039900634,87.19039549582521 122.84065522276796,87.27021281857742 123.52910502708983,87.19039549582521 124.19460650440305,87.05736657025409 124.8371596550569,86.9775491822802 125.41086782538332,86.84452014783164 126.09931762958877,86.71149104516371 126.87956074089743,86.57846187450923 127.54506221844349,86.49864433935727 128.23351202264894,86.39222092114505 128.9678584805224,86.39222092114505 129.65630828472786,86.44543263569358 130.2988614353817,86.4720384888351 130.96436291281134,86.49864433935727 131.60691606334876,86.52525018717279 132.27241754089482,86.55185603216523 132.93791901832446,86.73809687120956 133.48867886164226,87.13718393383897 133.85585209052078,87.66929906382575 134.17712866596412,88.25462444848381 134.49840524129104,88.81334290376981 134.86557847005315,89.37206015770789 135.39338998671155,89.82435419774265 135.99004648369737,90.11701462772908 136.609651307459,90.25004198693205 137.25220445822924,90.38306927797385 137.89475760876667,90.51609650094179 138.5373107594205,90.67572907864815 139.15691558329854,90.94178315697354 139.77652040694375,91.26104769128142 140.35022857715376,91.63352248555748 140.90098842058796,92.03260202991078 141.42879993724637,92.40507571824128 141.95661145378835,92.75094366515987 142.55326795077417,93.0436007991375 143.195821101428,93.28304729997762 143.81542592518963,93.46928331474192 144.43503074906766,93.57570383473649 145.0775838996051,93.60230895795394 145.7201370501425,93.60230895795394 146.36269020079635,93.57570383473649 147.0511400051182,93.54909870878328 147.71664148254786,93.52249358018162 148.3591946332017,93.49588844878599 149.02469611063134,93.46928331474192 149.66724926116876,93.46928331474192 150.3098024118226,93.44267817799118 150.99825221602805,93.57570383473649 151.59490871301387,93.89496513304766 152.1686168833403,94.29404120446998 152.67348007299006,94.66651165147778 153.22423991642427,95.06558653802495 153.8438447401859,95.33163612187491 154.4175529103959,95.51787066855468 155.06010606104974,95.49126574152615 155.70265921170358,95.33163612187491 156.3222640355816,95.14540144178318 156.96481718600262,95.01237658856553 157.65326699032448,94.85274667479098 158.31876846787054,94.69311666299473 158.89247663796414,94.560091578227 159.48913313494995,94.3738563451625 160.1546346123796,94.26743615209125 160.82013608980924,94.08120070930454 161.43974091368727,93.89496513304766 162.0822940642247,93.68212431104621 162.6789505612105,93.41607303841738 163.25265873142052,93.07020597683731 163.80341857485473,92.72433845483465 164.40007507184055,92.40507571824128 165.01967989560217,92.24544420288294 165.47864643181674,92.6179175862344 165.6392847194802,93.25644214416388 165.75402635347564,93.9215702235233 165.8687679875875,94.560091578227 166.00645794835873,95.17200640423107 166.25888954324182,95.78391978945001 166.23594121646602,96.3958317337383 166.09825125569478,97.00774223724147 165.9146646411391,97.59304658800829 165.75402635347564,98.25816356833093 165.6392847194802,98.92327884639963 165.6392847194802,99.61499692994403 165.66223304637242,100.33331760644796 165.73107802658342,100.99842757367878 165.70812969992403,101.66353583871387 165.45569810504094,102.27543393932865 165.15736985648982,102.83412225119537 164.95083491515834,103.4460175956483 164.8360932811629,104.08451554964995 164.92788658849895,104.69640795025043 165.13442152971402,105.2816949854896 165.50159475859255,105.78716909157811 166.09825125569478,106.0 166.7408044062322,105.9733961460006 167.45220253732987,105.89358456752962 168.18654899520334,105.76056521575083 168.9208954529604,105.68075357191265 169.63229358405806,105.62754579581087 170.2977950614877,105.49452630782616 170.96329653880093,105.33490283234278 171.60584968945477,105.12207137938822 172.15660953288898,104.80282387291663 172.66147272265516,104.37715992101585 173.0515942784259,103.89828714184114 173.2810775465332,103.28639286203543 173.44171583419666,102.70110133342678 173.8318373899674,102.22222546601552 174.49733886728063,102.08920423517702 175.09399536426645,102.48826772352913 175.64475520770065,102.88733059921651 176.26436003146227,103.15337217593333 176.9069131821161,103.31299699118244 177.52651800587773,103.28639286203543 178.14612282975577,103.23318459579605 178.7657276535174,102.9937472625461 179.27059084328357,102.62128875020426 179.68366072583012,102.16901698184665 179.98198897438124,101.63693154076464 180.21147224248853,100.99842757367878 180.4180071837036,100.35992203783826 180.60159379814286,99.77462391855079 180.76223208580632,99.18932448100531 180.945818700362,98.60402372540557 181.10645698790904,97.96551230672048 181.31299192924052,97.35360405841493 181.45068189012818,96.66187995573273 181.4965785436798,95.97015401197132 181.4965785436798,95.27842622689786 181.47363021690398,94.58669660065789 181.42773356323596,93.9481753113505 181.42773356323596,93.30965245308471 181.35888858290855,92.64452280744445 181.1982502952451,91.97939145937562 181.01466368080582,91.34086376355845 180.78518041258212,90.62251823031693 180.57864547136705,90.0638036649616 180.37211053015199,89.4784823556256 180.23442056938075,88.94637093032361 180.05083395482507,88.30783578159753 179.77545403304975,87.5894818638044 179.5918674186105,86.79130851491936 179.5918674186105,86.09955629598699 179.72955737949815,85.4876201057632 179.95904064760543,84.84907645761268 180.21147224248853,84.18392515560845 180.4409555105958,83.57198445391259 180.62454212503508,82.9334360982466 180.7163354321383,82.26827989239246 180.7163354321383,81.6297283328895 180.7392837590305,80.99117520396248 180.7163354321383,80.35262050587335 180.7163354321383,79.76727732064319 180.7163354321383,79.20853941366659 180.6933871053625,78.62319365117582 180.64749045169447,77.95802641104092 180.50980049092323,77.346071046195 180.05083395482507,76.78732793248491 179.47712578461505,76.38822497276124 178.90341761440504,76.01572832395323 178.35265777108725,75.61662417903426 177.9625362153165,75.16430540691363 177.57241465954576,74.65877172973705 177.25113808421884,74.15323706896743 176.8380682016723,73.67430858823354 176.40204999234993,73.08895035725436 176.14961839746684,72.45037623756798 176.0348767634714,71.73197847677511 176.10372174391523,70.98697129325592 176.3332050119061,70.26856948589557 176.65448158723302,69.60338085595868 176.99870648933575,68.96479816886131 177.18229310389142,68.1931753277895 177.06755146977957,67.42155019479105 176.72332656756043,66.75635427515954 176.21846337791067,66.22419631318189 175.62180688080844,65.71864523953991 175.04809871071484,65.23970120964805 174.47439054050483,64.76075629665866 173.92363069707062,64.28181050086278 173.37287085375283,63.802863821940264 172.82211101031862,63.35052448109491 172.24840284022503,62.97800913831452 171.60584968945477,62.8449678151228 170.91739988524932,62.89818435261259 170.3207433882635,62.55227666403516 169.93062183249276,62.07332679638057 169.86177685204893,61.43472559930524 170.09126012027264,60.98238213494187" stroke="#4dd2ff" stroke-linecap="round" stroke-linejoin="round" stroke-width="0.5"><title>2024-10-18 10.2km</title><desc>9223370307603209807</desc></polyline><polyline fill="none" points="71.0698670259444,114.0 71.4594132353086,114.74401362999924 71.82604496157728,115.40830971000833 72.0781042734161,116.09917582810158 72.21559117082506,116.81661177179194 72.42182151705492,117.50747413787758 72.58222289732657,118.25147770458716 72.28433461952955,118.88919334852835 72.12393323937431,119.55347881015041 72.0781042734161,120.2177625700715 72.33016358537134,120.90861587537802 72.44473599991761,121.65260968438815 72.55930841446389,122.3434591673722 72.74262427759822,123.03430680994643 72.78845324344002,123.72515261216904 72.67388082889374,124.44256745892926 72.83428220928181,125.10683869570494 73.20091393555049,125.6648252197192 73.68211807648186,126.16966913561919 73.86543393973261,126.83393594872905 74.07166428584605,127.47163048869697 74.2320656661177,128.1624644709227 74.00292083714157,128.82672618000652 73.81960497389082,129.46441582005355 73.86543393973261,130.04896327949245 74.2320656661177,130.73979039659025 74.41538152936846,131.40404550475068 74.39246704638936,132.09486901253695 74.2778946319595,132.78569068029174 74.04874980286695,133.42337058664998 73.65920359350275,133.92819940060144 73.40714428166393,134.53930665022926 72.90302565798629,135.09727288156864 72.33016358537134,135.57552869600477 71.7802159958519,136.10692301104427 71.50524220103398,136.79773399306578 71.16152495751157,137.40883448181557 70.97820909437723,138.0465030221676 70.65740633371752,138.551322838146 70.01580081263091,138.63103114030673 69.85539943235926,139.242127310019 69.62625460326672,139.87979134332272 69.03047804790549,140.25176130549517 68.80133321892936,140.91599205412786 69.07630701374728,141.5270828406792 69.09922149660997,142.1913103235711 69.25962287699804,142.8555361055769 69.16796494531445,143.44005338678835 69.39710977417417,144.07770710045588 69.12213597947266,144.58251517883036 68.52635942422785,144.9279096138198 67.88475390302483,145.14045980668743 67.22023389895912,145.22016608415288 66.5327994117979,145.14045980668743 65.8682794078486,145.06075350477477 65.20375940366648,144.95447839744156 64.53923939971719,144.87477203833987 63.85180491267238,144.76849685481284 63.16437042574398,144.68879043860943 62.49985042156186,144.6090839978424 61.812415934633464,144.55594635714078 61.147895930567756,144.44967104287934 60.50629040936474,144.3168268390582 59.84177040529903,144.2371202839713 59.17725040123332,144.18398256698856 58.535644880030304,144.1042759711272 57.8711248759646,144.02456935090595 57.20660487189889,143.91829381894786 56.51917038485408,143.86515603671432 55.87756486365106,143.7854493429477 55.258873825427145,143.62603588186903 54.640182787086815,143.41348444798496 54.0214917488629,143.20093283997267 53.40280071052257,142.93524308505584 52.76119518931955,142.616415019962 52.14250415121205,142.32415561602102 51.52381311287172,142.0584649630473 50.92803655739408,141.89905044061015 50.26351655332837,141.9521886255825 49.621911032125354,142.13817218743498 49.071963442722335,142.43043180101085 48.59075930167455,142.82896710687783 48.15538412670139,143.3869155064749 47.834581366041675,144.0511382270488 47.53669308836106,144.66222162771737 47.10131791327149,145.24673483788501 46.62011377234012,145.77810934052104 46.070166182820685,146.1766395031591 45.47438962745946,146.46889456675854 44.83278410625644,146.70801210106583 44.237007550895214,146.8142864900001 43.595402029692195,146.84085508040152 42.93088202551007,146.70801210106583 42.26636202156078,146.60173766853404 41.62475650024135,146.46889456675854 40.960236496292055,146.3094827547029 40.29571649210993,146.33605139679275 39.65411097102333,146.41575730688055 39.01250544982031,146.54860043595545 38.3479854457546,146.78771789683378 37.72929440741427,147.1596779533429 37.225175783620216,147.637911528087 36.81271509139333,148.22241803322686 36.56065577955451,148.88662837227457 36.30859646771569,149.6039736281964 35.941964741330594,150.2416121904098 35.323273702990264,150.50729446217883 34.63583921594545,150.61356729466934 33.92549024615437,150.77297646173974 33.23805575910956,150.85268100863323 32.55062127218116,150.85268100863323 31.86318678513635,150.82611282909056 31.152837815345265,150.85268100863323 30.465403328300454,150.85268100863323 29.777968841372058,150.87924918546923 29.13636332016904,150.87924918546923 28.47184331610333,150.82611282909056 27.807323312037624,150.77297646173974 27.18863227381371,150.71984008364961 26.56994123547338,150.50729446217883 26.08873709454201,150.02906617720146 25.722105368156917,149.49770038216957 25.699190885177813,148.8600599913625 25.60753295372706,148.22241803322686 25.492960539180785,147.58477450773353 25.538789505022578,147.00026656588307 25.60753295372706,146.44232593817287 25.60753295372706,145.80467803706415 25.424217090476304,145.16702856856864 24.943012949544936,144.66222162771737 24.32432191132102,144.3433956852532 23.636887424392626,144.18398256698856 22.949452937347814,144.1042759711272 22.26201845041942,144.0511382270488 21.597498446237296,144.0511382270488 20.955892925150692,144.18398256698856 20.26845843810588,144.44967104287934 19.741425331449136,144.87477203833987 19.191477741813287,145.16702856856864 19.14564877608791,145.69840323447715 19.420622570905834,146.3094827547029 19.718510848586448,146.89399225314264 19.78725429729093,147.58477450773353 19.649767399881966,148.19584958427004 19.122734293108806,148.75378644050215 18.572786703589372,149.04603860055795 18.549872220726684,149.73681512460462 18.687359118135646,150.32131690054666 18.687359118135646,150.90581735956948 18.687359118135646,151.51688461311278 18.710273600998335,152.15451847357326 18.710273600998335,152.81871874502394 18.687359118135646,153.50948522338877 18.710273600998335,154.2002498624788 18.687359118135646,154.86444489622954 18.710273600998335,155.47550282560405 18.733188083861023,156.11312695639208 18.710273600998335,156.69761436639237 18.710273600998335,157.3352354936069 18.710273600998335,157.94628760340856 18.710273600998335,158.61047304677777 18.687359118135646,159.24808947287966 18.687359118135646,159.91227158365655 18.664444635156542,160.6030191752361 18.641530152293853,161.2406307044148 18.687359118135646,161.87824066655594 18.687359118135646,162.51584906183416 18.687359118135646,163.15345589016215 18.687359118135646,163.791061151569 18.756102566840127,164.40209805683116 18.962332912837155,165.0131335229962 19.351879122201353,165.49133418840938 19.78725429729093,165.91640070665744 20.314287403947674,166.28833333891816 20.88714947644621,166.60713231365662 21.391268100123852,166.87279782665428 21.84955775819253,167.19159608325572 22.39950534782838,167.37756155210081 22.972367420210503,167.35099506462575 23.568143975688145,167.24472908792086 24.141006048070267,167.16502957680495 24.782611569273286,167.05876352396444 25.30964467593003,166.9524974275846 25.882506748544984,166.8196647457953 26.615770201198757,166.71339855142287 27.303204688243568,166.6336988771509 27.96772469242569,166.5539991783735 28.65515917923767,166.50086603226373 29.319679183419794,166.52743260661373 29.961284704506397,166.5539991783735 30.602890225709416,166.5805657473975 31.244495746912435,166.60713231365662 31.86318678513635,166.6336988771509 32.48187782347668,166.71339855142287 33.03182541299611,167.00563048114418 33.49011507106479,167.45726099790772 33.810917831608094,168.06828926925664 34.20046404085588,168.67931610174128 34.63583921594545,169.2372089094133 35.11704335687682,169.71540178987198 35.68990542937536,170.03419655392645 36.30859646771569,170.2467261790589 36.9272875059396,170.37955710635288 37.59180751000531,170.4858217992296 38.23341303120833,170.67178490702645 38.852104069432244,170.9640123785939 39.470795107772574,171.22967343078926 39.99782821442932,171.54846633443958 40.52486132120248,171.94695691313245 41.051894427859224,172.31888090114808 41.55601305165328,172.69080435612705 42.105960641172715,172.98302955389954 42.70173719653394,173.2221226527181 43.29751375201158,173.40808379949885 43.9162047902355,173.59404481301317 44.53489582857583,173.64717650666717 45.199415832641535,173.67374234937597 45.86393583670724,173.64717650666717 46.52845584077295,173.6206106612517 47.17006136197597,173.6206106612517 47.81166688317899,173.64717650666717 48.45327240426559,173.59404481301317 49.11779240844771,173.54091310844524 49.73648344667163,173.54091310844524 50.40100345085375,173.54091310844524 51.04260897182394,173.70030818946543 51.61547104443889,174.01909805770265 52.096675185253844,174.33788753437693 52.57787932618521,174.68324235879118 53.05908346711658,175.00203101939405 53.586116573773324,175.24112225798308 54.22772209497634,175.37395062865107 54.84641313320026,175.37395062865107 55.510933137265965,175.24112225798308 56.1525386585854,175.10829381927033 56.72540073096752,174.92233389097964 57.32117728632875,174.78950528916903 57.894039358827285,174.6301108771877 58.512730397167616,174.52384788155905 59.06267798668705,174.33788753437693 59.681369024910964,174.20505863334984 60.3229745462304,174.04566386234364 61.010409033158794,173.88626899354858 61.60618558852002,173.67374234937597 62.20196214399766,173.48778139302158 62.751909733517095,173.14242497753003 63.32477180601563,172.79706810240168 63.85180491267238,172.47827673284337 64.4475814680336,172.18605096661486 65.11210147209931,172.21261695900466 65.5245621643262,172.69080435612705 65.66204906173516,173.24868853902444 65.79953595914412,173.83313734881813 65.9141083736904,174.4441506061703 66.00576630525757,175.00203101939405 66.2349111342337,175.55991023336537 66.28074009995908,176.1709194247087 66.1890821683919,176.75536165284575 66.02868078812025,177.33980256473296 65.82245044200681,177.92424216019572 65.68496354471426,178.5618111269141 65.66204906173516,179.19937852720614 65.70787802757695,179.91663998007425 65.75370699330233,180.63389945050585 65.77662147628143,181.32459188165376 65.5245621643262,181.9090225029795 65.22667388652917,182.46688686820562 65.02044354053214,183.13100954896072 64.88295664312318,183.8216953339579 64.99752905766945,184.5389440113795 65.22667388652917,185.2296260492585 65.61622009589337,185.76091867382638 66.2349111342337,185.97343541908776 66.87651665543672,186.0 67.54103665950242,185.92030624911422 68.18264218058903,185.81404787642532 68.84716218477115,185.68122484951164 69.53459667169955,185.5484017545532 70.17620219290257,185.44214322965126 70.77197874814738,185.33588466121 71.34484082076233,185.1499320618168 71.94061737612356,184.85772056496353 72.4676504827803,184.45924981174176 72.90302565798629,183.9810841002618 73.20091393555049,183.39665814532782 73.31548635009676,182.78566596712335 73.61337462777738,182.28093221306335 74.20915118325502,182.0684124440013 74.896585670067,182.33406212806585 75.42361877684016,182.70597122903564 75.99648084922228,182.9981851487537 76.61517188756261,183.18413928998052 77.16511947719846,183.263833881123 77.71506706671789,183.2372690201446 78.28792913921643,183.15757442085305 78.7920477631269,182.91849047597498 79.27325190382544,182.54658167960588 79.68571259616874,182.01528247448732 79.98360087373294,181.43085209248238 80.21274570282549,180.87298550005653 80.39606156595983,180.20885704067769 80.60229191207327,179.54472688157693 80.80852225818671,178.9071603298653 80.99183812143747,178.2961575811496 81.1751539845718,177.71171882326598 81.33555536484346,177.15384423552314 81.45012777938973,176.51627180952346 81.47304226225242,175.878697816981 81.40429881354794,175.2676879375067 81.33555536484346,174.6301108771877 81.31264088198077,173.992532250355 81.26681191625539,173.3283861814416 81.24389743327629,172.69080435612705 81.12932501884643,172.0532209641242 80.99183812143747,171.44220207666513 80.80852225818671,170.77804948025732 80.62520639493596,170.2201599854161 80.41897604893893,169.66226929111872 80.25857466855086,169.1309437051532 80.09817328827921,168.65274974759086 79.91485742514487,168.17455490867724 79.68571259616874,167.5369604192092 79.52531121589709,166.84623128754902 79.57114018162247,166.1820669269946 79.66279811318964,165.54446754127275 79.89194294228218,164.9068665887462 80.09817328827921,164.2958308723173 80.28148915152997,163.71136057958938 80.487719497527,163.15345589016215 80.64812087779865,162.54241604433628 80.69394984364044,161.90480771427974 80.64812087779865,161.2671978174185 80.64812087779865,160.65615352912573 80.60229191207327,160.04510780182318 80.57937742909417,159.4074933344382 80.55646294623148,158.74330993150943 80.51063398038968,158.10569226485677 80.4418905316852,157.49464053058182 80.1669167369837,156.91015491622966 79.68571259616874,156.48507364239777 79.1128505236702,156.19282986258622 78.56290293403435,155.87401809095172 78.12752775894478,155.50207052892074 77.71506706671789,155.05041920099757 77.32552085747011,154.57219929090934 76.91306016524322,154.04084280130337 76.54642843885813,153.50948522338877 76.17979671247303,153.00469451633398 75.92773740063421,152.39363076721202 75.83607946906704,151.7559974944743 75.88190843479242,151.11836265446618 76.08813878090587,150.4275898092601 76.36311257572379,149.8165199898067 76.68391533626709,149.17888038264937 76.93597464822233,148.56780762181734 76.98180361406412,147.8504595005361 76.77557326795068,147.1862465084414 76.43185602442827,146.57516905359807 75.92773740063421,146.09693351970054 75.40070429397747,145.6452658168564 74.85075670434162,145.22016608415288 74.39246704638936,144.82163445203332 73.91126290545799,144.42310220754007 73.40714428166393,144.02456935090595 72.94885462371167,143.62603588186903 72.44473599991761,143.25407075835392 71.89478841028176,142.93524308505584 71.34484082076233,142.8555361055769 70.84072219685186,142.93524308505584" stroke="#4dd2ff" stroke-linecap="round" stroke-linejoin="round" stroke-width="0.5"><title>2024-10-15 10.1km</title><desc>9223370307861806807</desc></polyline><polyline fill="none" points="174.72928176796995,120.0041878274642 174.88839779014233,120.80374499657773 175.20662983425427,121.51104379360913 175.65745856356807,122.18758890914614 175.9491712708259,122.92563638678985 176.1348066298524,123.72518577266601 176.37348066305276,124.49398125027074 176.5856353591662,125.23202305604354 176.3204419889953,125.90855978347827 176.10828729288187,126.52359184875968 176.0552486188244,127.29238015794544 176.08176795591135,127.96891224107821 176.29392265202478,128.70694550161716 176.4265193369938,129.4142256732448 176.55911602219567,130.1215041782125 176.74475138133857,130.79802988411393 176.8773480663076,131.50530512808473 176.79779005527962,132.24332969260286 176.7712707183091,132.91985061587184 176.93038674036507,133.50411745894235 177.1425414365949,133.62712085983367 177.46077348070685,134.026881564816 177.85856353596319,134.51889400932123 178.09723756916355,135.19540980353486 178.30939226516057,135.90267468531965 178.4950276244199,136.64068843738642 178.38895027630497,137.3479499135574 178.0441988951061,137.93220813700464 178.01767955801915,138.63946656996268 178.30939226516057,139.31597307696939 178.6011049724184,139.99247805928462 178.73370165762026,140.76123187012854 178.62762430938892,141.49923367629526 178.5215469613904,142.29873358545592 178.20331491716206,142.9444819575001 177.83204419899266,143.52872928752913 177.56685082882177,144.17447501359857 177.06298342556693,144.7587199496047 176.47955801116768,145.1892154906236 175.9491712708259,145.65046002808958 175.47182320454158,146.26545164216077 175.2331491713412,147.0341893879522 174.80883977899794,147.67992757307366 174.7823204420274,148.44866169663146 174.17237569065765,148.78690408726106 173.50939226534683,149.03289831386064 173.4033149171155,149.7401305923995 173.13812154706102,150.44736120468588 172.47513812151738,150.7856013433484 172.2099447514629,151.52357850485714 172.36906077351887,152.26155385220773 172.5812154696323,153.06102509784978 172.68729281774722,153.79899666574784 172.60773480660282,154.47546900919406 172.89944751386065,155.2134371001448 172.68729281774722,155.79766055216896 172.07734806637745,156.2281402629742 171.3878453039797,156.53562539280392 170.6718232043786,156.62787087031757 169.98232044198085,156.56637388843228 169.2928176795831,156.44337988691404 168.57679558021482,156.35113435270614 167.86077348073013,156.2588887901802 167.17127071821596,156.16664319919073 166.4552486188477,156.07439757997054 165.739226519363,155.98215193243232 165.07624309393577,155.85915769147687 164.3867403314216,155.79766055216896 163.69723756914027,155.70541481944383 162.98121546965558,155.6131690585753 162.29171270725783,155.5209232692141 161.60220994474366,155.3979288393457 160.9127071823459,155.3056829838315 160.19668508297764,155.2134371001448 159.45414364652243,155.15193982853089 158.73812154703774,155.05969389740494 158.04861878452357,154.96744793807738 157.35911602212582,154.87520195028628 156.66961325972807,154.72145857443684 156.00662983430084,154.5062177159125 155.3436464088736,154.29097670313786 154.6806629835628,153.98348927425104 154.04419889498968,153.64525273861364 153.46077348070685,153.36851347165066 152.8773480663076,153.06102509784978 152.29392265190836,152.81503417206113 151.63093922659755,152.69203863365692 150.9414364641998,152.69203863365692 150.27845303877257,152.81503417206113 149.5889502762584,153.06102509784978 149.0320441989461,153.43001110851765 148.52817679557484,153.89124298412935 148.2099447514629,154.5062177159125 147.89171270723455,155.1826884658658 147.54696132603567,155.85915769147687 147.14917127077933,156.44337988691404 146.671823204495,156.96610404542298 146.08839778997935,157.42733048833907 145.478453038726,157.796311132377 144.8419889503857,158.04229797655717 144.12596685090102,158.28828461907688 143.43646408838686,158.38052955805324 142.72044198901858,158.38052955805324 142.0044198895339,158.22678797738627 141.34143646410666,158.10379465602455 140.70497237576637,157.9500529335637 140.04198895022273,157.73481438987073 139.29944751376752,157.796311132377 138.6364640884567,157.88855622251867 137.94696132594254,158.04229797655717 137.28397790063173,158.19603965175338 136.6209944752045,158.53427106013987 136.03756906080525,158.9339985968254 135.533701657434,159.36447381053586 135.1624309392646,159.9794373306213 134.8972375690937,160.65589574794285 134.6320441989228,161.3016046335688 134.31381215469446,162.00880800999585 133.8895027624676,162.53152247847174 133.20000000006985,162.7467575832561 132.48397790058516,162.90049684938276 131.76795580121689,163.02348820553743 131.02541436476167,163.1464795114589 130.30939226516057,163.1464795114589 129.56685082882177,163.11573168970062 128.85082872933708,163.1464795114589 128.1348066298524,163.11573168970062 127.3922651935136,163.11573168970062 126.62320441997144,163.11573168970062 125.88066298351623,163.11573168970062 125.19116022111848,163.05423603675445 124.44861878466327,163.05423603675445 123.73259668506216,162.9927403712354 123.1226519336924,162.65451398584992 122.5657458564965,162.16254765397753 122.24751381226815,161.57833658793243 122.27403314923868,160.84038414270617 122.16795580112375,160.13317801392986 122.14143646403681,159.425970219163 122.16795580112375,158.68801248338423 122.22099447518121,157.9500529335637 122.3005524862092,157.30433683941374 122.27403314923868,156.59712238094653 121.95580110512674,156.01290048469673 121.39889502769802,155.58242046527448 120.73591160227079,155.33643160553765 119.99337016581558,155.15193982853089 119.22430939238984,155.05969389740494 118.48176795593463,155.02894524746807 117.739226519363,155.02894524746807 116.99668508290779,155.1826884658658 116.30718232039362,155.49017466642545 115.64419889508281,155.82840912346728 115.06077348068357,156.2588887901802 114.55690607742872,156.72011631945497 114.84861878468655,157.30433683941374 115.19337016576901,157.88855622251867 115.48508287291043,158.56501935102278 115.51160220999736,159.30297738921945 115.24640883982647,160.01018547359854 114.76906077354215,160.50215533250594 114.10607734811492,160.68664382162387 114.0,161.3323526411259 114.0,161.94731213041814 114.05303867405746,161.79357237610384 114.0795580111444,161.0556204598979 114.42430939222686,160.65589574794285 115.0077348066261,160.31766672988306 115.32596685097087,159.8871928830049 115.43204419896938,159.2414809553302 115.43204419896938,158.41127786479774 115.19337016576901,157.8270594989881 114.82209944759961,157.27358841936802 114.58342541439924,156.62787087031757 115.06077348068357,156.2281402629742 115.56464088393841,155.76691197778564 116.17458563542459,155.428677451564 116.86408839782234,155.2134371001448 117.55359116033651,155.02894524746807 118.2961325966753,154.96744793807738 119.03867403313052,154.998196594388 119.72817679564469,155.0904425442277 120.44419889501296,155.2441857312224 121.08066298346967,155.49017466642545 121.69060773483943,155.82840912346728 122.14143646403681,156.35113435270614 122.3005524862092,157.08909783276613 122.32707182329614,157.85780786231044 122.24751381226815,158.62651592350448 122.22099447518121,159.36447381053586 122.22099447518121,160.13317801392986 122.32707182329614,160.8711321974988 122.32707182329614,161.6398325431801 122.59226519335061,162.1317997315782 123.20220994472038,162.56227035998018 123.78563535911962,162.93124469320173 124.47513812163379,163.02348820553743 125.1381215469446,163.05423603675445 125.82762430945877,163.08498386482825 126.46408839779906,163.11573168970062 127.15359116031323,163.11573168970062 127.84309392271098,163.08498386482825 128.53259668510873,163.05423603675445 129.30165745865088,163.05423603675445 130.0441988951061,163.08498386482825 130.7867403315613,163.08498386482825 131.52928176801652,163.02348820553743 132.21878453041427,162.90049684938276 132.90828729292843,162.7467575832561 133.65082872938365,162.6237661136838 134.15469613252208,162.16254765397753 134.49944751395378,161.57833658793243 134.76464088400826,160.96337634287192 134.9767955801217,160.34841483813943 135.21546961320564,159.764200241887 135.58674033160787,159.30297738921945 136.03756906080525,158.81100556533784 136.6209944752045,158.44202616836992 137.2574585635448,158.16529132294818 137.92044198897202,157.9808012843132 138.60994475136977,157.8270594989881 139.272928176797,157.7040660138009 139.98895027628168,157.7040660138009 140.6519337015925,157.88855622251867 141.3679558011936,158.0730463178479 142.11049723764881,158.25753629981773 142.87955801107455,158.34978124822374 143.59558011055924,158.31903293528012 144.33812154701445,158.13454299108707 145.05414364638273,157.919304579671 145.71712707192637,157.58107247846783 146.27403314923868,157.15059470754932 146.80441988958046,156.72011631945497 147.17569060774986,156.16664319919073 147.5734806631226,155.58242046527448 147.89171270723455,154.96744793807738 148.2099447514629,154.32172542868648 148.63425414368976,153.76824788664817 149.11160220997408,153.3070158220653 149.72154696134385,152.9687785243441 150.38453038677108,152.69203863365692 151.10055248625576,152.63054084550822 151.79005524865352,152.7227875229728 152.4265193369938,152.90728079288965 153.08950276253745,153.184020485176 153.69944751390722,153.4915087329573 154.3359116021311,153.82974544164608 155.02541436464526,154.10648428363493 155.6883977900725,154.41397158650216 156.35138121561613,154.65996120200725 157.01436464092694,154.78295593420626 157.7038674034411,154.84445328143192 158.36685082875192,154.93669927865267 159.0828729282366,155.02894524746807 159.79889502760489,155.12119118793635 160.4618784530321,155.2134371001448 161.15138121542986,155.33643160553765 161.86740331503097,155.428677451564 162.55690607742872,155.49017466642545 163.21988950285595,155.6131690585753 163.96243093931116,155.67466623563087 164.6519337017089,155.82840912346728 165.3679558011936,155.88990625640145 166.05745856347494,156.01290048469673 166.7469613259891,156.1051461228053 167.43646408838686,156.19739173268317 168.09944751381408,156.32038583492977 168.7624309392413,156.41263137865462 169.42541436478496,156.44337988691404 170.1149171270663,156.47412839203025 170.83093922655098,156.44337988691404 171.4674033150077,156.2896373141557 172.07734806637745,156.1051461228053 172.55469613266177,155.70541481944383 173.0320441989461,155.1826884658658 173.4828729282599,154.6292125111213 173.90718232048675,154.1987305075454 174.5701657460304,153.82974544164608 175.28618784539867,153.7067503189901 175.9491712708259,153.86049421451753 176.53259668522514,154.22947924249456 177.06298342556693,154.65996120200725 177.5933701659087,155.0904425442277 178.1237569062505,155.55167186885956 178.68066298344638,156.01290048469673 179.2375690608751,156.47412839203025 179.74143646412995,156.90460713283392 180.21878453041427,157.30433683941374 180.6961325966986,157.73481438987073 181.1469613260124,158.19603965175338 181.46519337024074,158.81100556533784 181.6243093922967,159.4567184189218 181.65082872938365,160.13317801392986 181.38563535921276,160.77888802369125 181.09392265195493,161.393848646665 180.51049723755568,162.65451398584992 180.37790055258665,163.2694707668561 180.3248618785292,163.91517403142643 180.40441988955718,164.59162358098547 180.61657458578702,165.23732400193694 181.01436464081053,165.82152794819558 181.49171270721126,166.34423577858252 181.8895027624676,166.92843757095397 182.28729281784035,167.48189085203921 182.7116022099508,168.0353431130061 183.18895027635153,168.4965525509906 183.71933701669332,168.86551959146163 184.30276243097614,169.20373898008256 184.9127071823459,169.572705151455 185.4430939226877,170.06465934126754 185.68176795588806,170.74109503612272 185.73480662994552,171.47902314693783 185.76132596691605,172.21694944423507 185.8143646409735,172.98562074208166 185.86740331491455,173.75429007221828 185.92044198897202,174.49221077770926 185.97348066302948,175.19938308550627 186.0,175.90655372766196 185.8939226520015,176.61372270452557 185.70828729274217,177.29014364554314 185.46961325977463,177.90507045158301 185.23093922669068,178.5507422426017 184.9922651934903,179.2271588202566 184.72707182331942,179.8420816595317 184.806629834231,179.6883510677435 184.9922651934903,178.981189331942 185.2574585635448,178.3047722001793 185.5226519338321,177.62835354477284 185.70828729274217,176.95193336548982 185.84088397794403,176.24476518531446 185.86740331491455,175.5375953395269 185.84088397794403,174.83042382835993 185.8143646409735,174.12325065163895 185.73480662994552,173.50831610063324 185.73480662994552,172.83188663999317 185.68176795588806,172.15545565547654 185.65524861880112,171.44827617856208 185.6287292817142,170.7718420768797 185.41657458560076,170.12615355831804 184.88618784525897,169.66494662346668 184.24972375691868,169.29598056548275 183.63977900566533,168.95776128064608 183.10939226532355,168.55804708926007 182.6320441989228,168.06609043088974 182.23425414366648,167.51263822667534 181.78342541435268,166.98993243041332 181.35911602212582,166.43647824242362 180.98784530395642,165.9137705725152 180.64309392264113,165.36031440092484 180.4309392265277,164.68386658327654 180.3248618785292,164.00741724148975 180.35138121561613,163.33096637570998 180.51049723755568,162.5930182383454 180.74917127075605,161.94731213041814 181.12044198904186,161.3016046335688 181.41215469618328,160.65589574794285 181.6243093922967,159.94868918455904 181.57127071823925,159.2414809553302 181.38563535921276,158.595767638908 181.0674033149844,158.04229797655717 180.64309392264113,157.58107247846783 180.13922651938628,157.11984627178754 179.58232044195756,156.6893678395718 179.0519337017322,156.19739173268317 178.54806629836094,155.76691197778564 178.01767955801915,155.33643160553765 177.5138121547643,154.90595061602653 176.98342541442253,154.47546900919406 176.4265193369938,154.0757355359965 175.8696132596815,153.79899666574784 175.20662983425427,153.73749910434708 174.5701657460304,153.76824788664817 173.96022099454422,153.43001110851765 173.50939226534683,153.03027624310926 173.37679558014497,152.56904304478667 173.35027624317445,151.73882150196005 173.82762430945877,151.33908438464277 174.19889502762817,150.81635042800917 174.33149171283003,150.324364696251 174.25193370168563,149.83237815802568 174.2254143645987,149.15589535157778 174.5171270717401,148.72540549910627 174.80883977899794,148.23341634051758 174.83535911608487,147.55692993060802 175.18011049728375,147.0341893879522 175.3922651935136,146.4191993488057 175.73701657459605,145.74270885047736 176.26740331493784,145.4044630296121 176.7712707183091,144.97396779726841 177.27513812156394,144.4204730199708 177.5933701659087,143.80547762592323 177.88508287305012,143.15973110616324 178.30939226516057,142.60623298343853 178.46850828733295,141.96048388374038 178.68066298344638,141.3147333949164 178.7867403315613,140.76123187012854" stroke="#4dd2ff" stroke-linecap="round" stroke-linejoin="round" stroke-width="0.5"><title>2024-10-01 10.0km</title><desc>9223370309112650807</desc></polyline><polyline fill="none" points="71.01592410576995,194.0 71.40489602717571,194.90211349684978 71.77098724723328,195.53889760238235 72.022674961132,196.1226149900467 72.15995916875545,196.73286357920733 72.34300477872603,197.36964318255195 72.52605038881302,198.0329536041245 72.41164688253775,198.7227946400235 72.09131706482731,199.33303710145992 72.13707846752368,200.1024711986247 72.25148197368253,200.81883882009424 72.45740828511771,201.48214040635503 72.50316968758125,202.17197225359268 72.66333459643647,202.88833415001864 72.86926090763882,203.55163043533685 72.77773810271174,204.24145676969783 72.59469249250833,204.93128126655938 72.89214160887059,205.5415090972674 73.3268749328563,206.01907770102844 73.73872755549382,206.49664542402024 73.9217731654644,207.1334010179853 74.08193807443604,207.7436236597714 74.24210298317485,208.38037618770613 74.01329597062431,208.91100209829165 73.69296615303028,209.4681581343757 73.89889246434905,210.26409324939596 74.24210298317485,210.76818422367796 74.4709099958418,211.37839830078883 74.42514859337825,212.04167284077266 74.21922228194308,212.70494568214053 74.03617667185608,213.3151551959454 73.71584685426205,213.8457709957438 73.46415914036334,214.4559778215189 73.12094862153754,215.06618320959387 72.6175731937401,215.4906730664079 72.022674961132,215.88863167533418 71.58794163714629,216.47230319553637 71.33625392336398,217.16209511458874 71.01592410576995,217.6661726628372 70.92440130072646,218.30290079521365 70.58119078190066,218.67432481618016 69.98629254917614,218.67432481618016 69.87188904290088,219.3906410667405 69.6659627314657,220.02736495962017 69.18546800513286,220.3191962207784 68.77361538237892,220.79673757526325 68.84225748619065,221.51304795593023 69.04818379750941,222.28241615835577 69.18546800513286,222.89260310772806 69.11682590132114,223.50278861948755 69.3227522126399,224.16603211071924 69.11682590132114,224.72315533083747 68.5448083699448,225.09457014515647 67.90414873475675,225.2802773526637 67.28636980068404,225.3863956971618 66.66859086672775,225.30680694285547 66.02793123142328,225.20068856576108 65.38727159623522,225.12109975444037 64.76949266227894,225.04151091864333 64.12883302697446,224.98845168115804 63.48817339166999,224.88233317364939 62.870394457830116,224.8027442645107 62.25261552375741,224.69662568086642 61.611955888569355,224.61703671465511 60.99417695461307,224.53744772390928 60.37639802065678,224.45785870883265 59.78149978793226,224.40479935178882 59.11795945139602,224.27215091171092 58.45441911497619,224.2190915165702 57.79087877855636,224.13950240370468 57.12733844202012,224.05991326624644 56.509559507947415,223.98032410437008 55.9146612752229,223.87420518381987 55.296882341383025,223.71502672147471 54.70198410854209,223.5558481613698 54.1757279796293,223.31708013764 53.62659114948474,223.02525225430145 53.07745431922376,222.813013587147 52.55119819031097,222.60077474600985 51.97918065893464,222.3354759501526 51.43004382867366,222.09670680150157 50.880906998412684,222.01711703639012 50.24024736334104,222.09670680150157 49.66822983173188,222.2558862583537 49.119093001587316,222.54771500863717 48.684359677601606,222.89260310772806 48.24962635373231,223.47625884457375 47.906415834790096,224.13950240370468 47.5632053159643,224.7762146226305 47.15135269344319,225.3863956971618 46.62509656441398,225.89045723972959 46.00731763034128,226.34145884105237 45.34377729392145,226.6332829882158 44.657356256153435,226.84551852510776 43.94805451715365,226.95163622833206 43.26163347950205,226.89857738214778 42.59809314296581,226.76593021917506 41.98031420900952,226.6332829882158 41.33965457370505,226.4741062214889 40.72187563974876,226.3945178014401 40.10409670579247,226.44757675076835 39.48631777171977,226.6067535338807 38.84565813653171,226.76593021917506 38.22787920257542,227.03122447719215 37.67874237243086,227.37610660647624 37.22112834721338,227.827105621167 36.832156425807625,228.35769169186824 36.64911081583705,228.9943935420597 36.328780998126604,229.65762297186302 36.031331881764345,230.29432162686135 35.57371785666328,230.69225749149336 34.95593892270699,230.7718445911014 34.33815998863429,230.9310187169176 33.720381054794416,231.01060574312578 33.1254828220699,230.98407673710608 32.461942485533655,231.063663746987 31.798402149113826,230.98407673710608 31.203503916272894,231.063663746987 30.58572498243302,231.03713474640972 29.990826749592088,231.01060574312578 29.373047815519385,230.98407673710608 28.709507479099557,231.01060574312578 28.0688478439115,230.9310187169176 27.428188208607025,230.9310187169176 26.810409274650738,230.82490264391527 26.329914548317902,230.42696698301006 25.91806192556396,230.0820889157767 25.735016315593384,229.55150637720362 25.689254913129844,228.88827667574515 25.620612809318118,228.1719866907224 25.643493510549888,227.56181217820267 25.66637421178166,226.97816564733512 25.757897016825154,226.42104727745755 25.757897016825154,225.81086864025565 25.574851406738162,225.17415896471357 25.11723738152068,224.69662568086642 24.499458447564393,224.32521029590862 23.858798812376335,224.13950240370468 23.19525847584009,224.0068538276828 22.485956736956723,223.98032410437008 21.82241640042048,224.05991326624644 21.18175676523242,224.13950240370468 20.56397783115972,224.37826966916327 20.014841001015157,224.6700960282178 19.580107677029446,225.01498130123946 19.12249365192838,225.35986611508997 19.305539262015373,225.9700458146399 19.6258690796094,226.5006356893573 19.854676092159934,227.08428329619346 19.87755679350812,227.7209882765892 19.694511183421127,228.25157456457964 19.305539262015373,228.70257205504458 18.710641029290855,228.80868899740744 18.61911822424736,229.52497722173575 18.733521730522625,230.16167620272608 18.80216383433435,230.79837361889076 18.80216383433435,231.43506946996786 18.77928313310258,232.071763756132 18.80216383433435,232.70845647738315 18.77928313310258,233.34514763363404 18.80216383433435,233.92877981887432 18.77928313310258,234.51241068923264 18.80216383433435,235.12256882950896 18.80216383433435,235.75925405242015 18.82504453556612,236.44899461136083 18.82504453556612,237.05914819033933 18.82504453556612,237.66930033219978 18.82504453556612,238.30597929592477 18.80216383433435,238.9426566948532 18.80216383433435,239.60586065496318 18.77928313310258,240.24253485922236 18.80216383433435,240.85267950352863 18.77928313310258,241.46282271071686 18.80216383433435,242.07296448101988 18.82504453556612,242.73616042756476 18.82504453556612,243.37282693907036 18.847925236914307,244.06254722751328 18.985209444421344,244.75226567988284 19.351300664478913,245.33587216690648 19.808914689696394,245.76031242264435 20.335170818609186,246.21127943240572 20.884307648753747,246.4765537774947 21.34192167397123,246.741827850783 21.82241640042048,247.11321109722485 22.417314633144997,247.3254298560787 23.012212865869515,247.37848451876198 23.584230397245847,247.2723751826852 24.156247928738594,247.13973845157307 24.72826546023134,247.06015638032113 25.25452158926055,246.9540469139465 25.757897016825154,246.84793740414898 26.329914548317902,246.76835524322814 26.97057418350596,246.6887730578892 27.565472416230477,246.60919084804482 28.206132051418535,246.52960861384054 28.86967238795478,246.5030811970355 29.578974126954563,246.52960861384054 30.242514463490807,246.58266343938885 30.90605480002705,246.58266343938885 31.56959513644688,246.55613602793892 32.23313547298312,246.60919084804482 32.87379510817118,246.7948826328211 33.42293193831574,247.24584784184117 33.8119038597215,247.82944871194195 34.17799507989548,248.4395754885918 34.49832489748951,249.04970082850195 34.910177520127036,249.55371632994502 35.41355294792447,249.9516226122796 36.00845118064899,250.21689312753733 36.60334941325709,250.32300125766778 37.24400904844515,250.4025823266711 37.907549384981394,250.56174439148162 38.456686215125956,250.77396032569231 39.05158444796689,250.98617608618224 39.554959875531495,251.25144554235158 40.058335303212516,251.59629542930634 40.53883002966177,251.94114485717728 41.04220545734279,252.28599382616812 41.545580885140225,252.65736912560533 42.09471771516837,252.9491636302846 42.68961594789289,253.18790434426046 43.30739488196559,253.42664483826957 43.94805451715365,253.58580504532438 44.565833451226354,253.66538511228282 45.18361238518264,253.66538511228282 45.847152721718885,253.66538511228282 46.4420509544434,253.66538511228282 47.014068485819735,253.61233173703658 47.60896671854425,253.58580504532438 48.272507055080496,253.58580504532438 48.8674052876886,253.5327516538964 49.50806492299307,253.50622495406424 50.14872455818113,253.50622495406424 50.78938419336919,253.55927835096372 51.361401724861935,253.85107183994842 51.91053855512291,254.1959182669525 52.39103328145575,254.5938174201001 52.871528007905,254.91213630262064 53.37490343558602,255.20392826807802 53.96980166831054,255.4161404001934 54.58758060238324,255.44266690450604 55.2282402375713,255.36308738341904 55.82313847029582,255.17740173928905 56.41803670290392,255.07129559718305 57.05869633820839,254.91213630262064 57.65359457093291,254.77950348242302 58.22561210242566,254.6203440085519 58.79762963380199,254.48771103899344 59.346766464062966,254.38160461443476 59.9187839954393,254.1959182669525 60.536562929395586,254.03675843466772 61.17722256470006,253.82454517271253 61.84076290111989,253.74496515467763 62.43566113396082,253.4796982514963 62.9619172627572,253.16137760915444 63.44241198920645,252.81652980527724 63.968668118235655,252.5512619514775 64.49492424714845,252.28599382616812 65.04406107740942,252.23294016849832 65.43303299869876,252.63084233619156 65.54743650509045,253.26748453333857 65.68472071259748,253.93065182532882 65.86776632268447,254.6203440085519 66.02793123142328,255.25698131739045 66.25673824409023,255.78751121324603 66.25673824409023,256.3976192504051 66.07369263388682,256.9811995071359 65.86776632268447,257.59130473373807 65.73048211506102,258.174882301857 65.59319790755399,258.8115108773927 65.5703172062058,259.44813788859756 65.63895931001753,260.05823730674456 65.68472071259748,260.69486125494586 65.66184001136571,261.3049577376223 65.52455580374226,261.8885269422026 65.3186294924235,262.3925174703181 65.0669417786412,262.89650701824576 64.92965757101774,263.45354695702554 64.86101546720602,264.01058569844463 64.90677686978597,264.62067437460064 65.08982247987296,265.177710607124 65.43303299869876,265.65516928202123 66.00505053019151,265.9734745764872 66.69147156795952,265.9734745764872 67.35501190437935,265.89389828947606 68.04143294214737,265.76127109024674 68.70497327868361,265.6816947381303 69.36851361510344,265.5490674302273 70.0091732502915,265.44296553512686 70.58119078190066,265.31033810504596 71.3133732220158,265.15118509947206 71.86251005239319,264.8594043352059 72.34300477872603,264.4615209454496 72.80061880394351,264.0371113229194 73.12094862153754,263.480072638602 73.28111353027634,262.89650701824576 73.48703984171152,262.3659916775068 74.05905737308785,262.0742077771574 74.69971700839233,262.23336267264676 75.22597313730512,262.55167217028793 75.75222926621791,262.89650701824576 76.37000820029061,263.1087128504296 77.03354853671044,263.214815701358 77.71996957447845,263.1882899926859 78.33774850843474,263.02913568375516 78.90976603992749,262.71082677252707 79.36738006502856,262.25988847902045 79.73347128508613,261.75589769292856 79.98515899898484,261.14580227198894 80.16820460907184,260.5622313947242 80.39701162162237,259.9786592031887 80.58005723170936,259.3685595977295 80.78598354302812,258.75845855582156 80.96902915311512,258.1218298500462 81.15207476320211,257.51172587263864 81.33512037317269,256.8485677460558 81.40376247698441,256.2119343476952 81.40376247698441,255.57529938523658 81.38088177575264,254.91213630262064 81.35800107440446,254.2489715226984 81.31223967205733,253.5327516538964 81.28935897082556,252.89611010841327 81.17495546443388,252.28599382616812 81.06055195815861,251.67587610715418 80.83174494549166,251.06575695151696 80.60293793305755,250.4291093442589 80.4656537254341,249.81898725268547 80.30548881669529,249.23539086422534 80.07668180402834,248.73137474348187 79.9393975965213,248.22735764228855 79.73347128508613,247.61723036580952 79.52754497388378,247.007101652649 79.50466427265201,246.34391663892893 79.57330637634732,245.73378492705524 79.80211338889785,245.09712421748554 80.0309204015648,244.51351719265222 80.23684671288356,243.92990885314066 80.39701162162237,243.29324371073744 80.58005723170936,242.656577003625 80.64869933552109,241.96685297199292 80.64869933552109,241.30365505607915 80.62581863428932,240.66698345952318 80.58005723170936,240.03031029828708 80.55717653047759,239.36710742491414 80.55717653047759,238.70390285359463 80.51141512789764,238.14680970169138 80.48853442666586,237.58971535175806 80.28260811546352,237.05914819033933 79.87075549270958,236.6346936788177 79.34449936379679,236.28982387614087 78.81824323476758,235.99801060755271 78.29198710585479,235.6266114267346 77.8343730806373,235.14909741168958 77.39963975688443,234.5919966150832 76.9877871342469,234.03489462041762 76.59881521272473,233.53084892613697 76.20984329131898,233.02680225111544 75.98103627888486,232.39011031232076 75.8437520712614,231.7534168086131 75.88951347372495,231.03713474640972 76.09543978516012,230.4004379172693 76.34712749894243,229.81679778234684 76.69033801788464,229.20662714436185 76.91914503031876,228.54339655983495 76.94202573166694,227.88016427707043 76.78186082281172,227.21693029615562 76.41576960275415,226.6332829882158 75.88951347372495,226.1557523944066 75.34037664358038,225.67822092032293 74.79123981343582,225.20068856576108 74.26498368440662,224.74968497804366 73.80736965930555,224.35173998388927 73.3268749328563,223.9272646495665 72.80061880394351,223.529318391782 72.27436267503072,223.184431140573 71.70234514342155,222.94566277446575 71.13032761204522,223.02525225430145" stroke="#4dd2ff" stroke-linecap="round" stroke-linejoin="round" stroke-width="0.5"><title>2024-09-21 10.1km</title><desc>9223370309978945807</desc></polyline></svg>