<?xml version="1.0" encoding="utf-8" ?>
<svg baseProfile="full" height="300mm" version="1.1" viewBox="0,0,200,300" width="200mm" xmlns="http://www.w3.org/2000/svg" xmlns:ev="http://www.w3.org/2001/xml-events" xmlns:xlink="http://www.w3.org/1999/xlink"><defs /><rect fill="#222222" height="300" width="200" x="0" y="0" /><text fill="#FFFFFF" style="font-size:12px; font-family:Arial; font-weight:bold;" x="10" y="20">Over 10km Runs</text><text fill="#FFFFFF" style="font-size:4px; font-family:Arial" x="10" y="280">ATHLETE</text><text fill="#FFFFFF" style="font-size:9px; font-family:Arial" x="10" y="290">mikusugar</text><text fill="#FFFFFF" style="font-size:4px; font-family:Arial" x="65" y="280">SPECIAL TRACKS</text><rect fill="yellow" height="2.6" width="2.6" x="65" y="283" /><text fill="#FFFFFF" style="font-size:3px; font-family:Arial" x="70" y="285.5">Over 20.0 km</text><rect fill="red" height="2.6" width="2.6" x="65" y="287" /><text fill="#FFFFFF" style="font-size:3px; font-family:Arial" x="70" y="289.5">Over 40.0 km</text><text fill="#FFFFFF" style="font-size:4px; font-family:Arial" x="120" y="280">STATISTICS</text><text fill="#FFFFFF" style="font-size:3px; font-family:Arial" x="120" y="285">Number: 4</text><text fill="#FFFFFF" style="font-size:3px; font-family:Arial" x="120" y="290">Weekly: 1.3</text><text fill="#FFFFFF" style="font-size:3px; font-family:Arial" x="141" y="285">Total: 41.2 km</text><text fill="#FFFFFF" style="font-size:3px; font-family:Arial" x="141" y="290">Avg: 10.3 km</text><text fill="#FFFFFF" style="font-size:3px; font-family:Arial" x="167" y="285">Min: 10.1 km</text><text fill="#FFFFFF" style="font-size:3px; font-family:Arial" x="167" y="290">Max: 10.9 km</text><polyline fill="none" points="78.61153972102329,34.5 80.30357188347261,39.25658811783069 79.71392431168351,41.54566835478181 80.55994039296638,45.41030829047668 80.50866669102106,47.164243279083166 81.55977757985238,48.71007549602655 82.14942515164148,50.90989945217734 81.71359868557192,52.277349181385944 82.04687774775084,52.33680337126134 82.38015681016259,54.59605355965323 82.04687774775084,56.55801971582696 81.12395111378282,58.13352838961873 79.25246099475771,59.94683910533786 78.4320817644475,62.3249343453499 77.38097087561619,62.5924688403029 77.02205496246461,63.90041170979384 76.07349147740752,64.67328427100438 76.7913233039435,68.77541956413188 76.30422313604504,69.34020176620106 74.17636450752616,69.9049828692514 61.4604864383582,68.35926355389529 56.435663652955554,66.36765152949374 55.23073165840469,66.33792587337666 53.43615209229756,67.19996866481961 51.97485158836935,69.66718043349101 50.026450916426256,71.27234309332562 47.642223778530024,71.77767024154309 44.51452796312515,71.18316762286122 42.36103248363361,71.48041908442974 40.72027402301319,72.60997186161694 39.00260500970762,75.73108167969622 36.490193617064506,76.20667641941691 32.00374470150564,76.17695177104906 29.132417395478114,75.93915447426843 27.978759102988988,75.04741287606885 27.594206338748336,69.8455322785012 25.927811027271673,68.8051449705381 23.72304184595123,68.59706706137513 22.056646534474567,69.01322273048572 20.39025122311432,70.11305984063074 21.261904155253433,72.90722186185303 20.723530285293236,73.85841981659178 19.82624050229788,74.39346729611862 20.10824586264789,91.0091731044231 20.441524924943224,92.10892686949228 21.466998962685466,93.20867646820261 24.466510523459874,94.7542634565034 31.439733980689198,93.71396542750881 35.51599328115117,94.01119381628814 36.51583046792075,94.69481795528554 38.51550484180916,97.54818828337011 42.719948396785185,98.64791727630654 47.07821305771358,101.29319427791052 49.28298223903403,101.7390251068573 55.564010720700026,101.5309708052082 59.588996319216676,103.73039445086033 68.43370989558753,101.6795810359472 71.9715953260893,100.1043087200087 72.48433234496042,100.69875210756436 73.30471157527063,104.74093486357015 72.53560604678933,107.56448501948034 72.61251659982372,110.62577679438982 71.5614057109924,113.68703629192896 72.20232698461041,115.23251426313072 73.48416953184642,115.5 79.30373469670303,114.31117261672625 80.45739298919216,113.33038636119454 81.2008616667008,111.51740910569788 81.84178294020239,111.07159329234855 85.55912632739637,112.52792241502902 87.50752699933946,111.78489826517762 88.63554844085593,109.97191135925823 90.17375949770212,104.26538687222637 89.81484358443413,99.83680879839812 88.04590086918324,93.62479685159633 89.35338026739191,89.04743982711807 89.07137490692548,83.34050399938133 86.66151091805659,81.6462358252611 84.17473637626972,77.96042528672842 84.2003732273588,75.84998043777887 85.27712096704636,73.17474660163862 84.99511560657993,71.74794513947563 79.68828746082727,67.25941979733761 78.17571325495373,67.43777312213206 76.86823385674506,68.8051449705381" stroke="#4dd2ff" stroke-linecap="round" stroke-linejoin="round" stroke-width="0.5"><title>2024-10-23 10.9km</title><desc>1729679406000</desc></polyline><polyline fill="none" points="169.02259535645135,34.5 170.49415681313258,38.930735633854056 169.87455198937096,41.265826025017304 170.75232548976783,44.948046032193815 170.7781423573615,46.86397955141729 172.30133754923008,50.007280768681085 172.01735200511757,52.252475221815985 172.63695682876278,54.37791007538908 171.37193031352945,57.850418264832115 169.82291825395077,59.197500850248616 168.6353423417313,61.89164739247644 167.6284845029004,62.28079984008218 167.2928652234841,63.56799270567717 166.3118242523633,64.3762271887681 166.93142907624133,68.44730022957083 166.3118242523633,69.16571899704286 163.9624892954016,69.73446593544213 151.28640727500897,68.0880901835626 146.87172290531453,66.26209895673674 145.16780963982455,66.0525582501723 143.6187975803623,66.80091722661746 141.57926503522322,69.94400400214363 139.59136622550432,71.29103084403323 137.68091801868286,71.59036929917056 134.4796264290344,70.99169208240346 132.23355894279666,71.41076626288122 130.5038288095966,72.60811775320326 128.69664807338268,75.66134185119881 126.14077817520592,76.20014279289171 120.95158777583856,76.17020943333046 118.86042149539571,75.93074244621675 117.69866245088633,74.88307207086473 117.62121184787247,70.06373997282935 117.28559256822336,69.40519152701017 115.29769375850447,68.47723438011599 112.99999253696296,68.44730022957083 111.39934674219694,68.9262462707411 110.08268649142701,69.88413599840715 111.03791059472132,72.51831656153081 109.56634913827293,74.13473378922208 109.85033468250185,90.53786964312894 110.1085033591371,91.7052110148361 111.19281180074904,92.99227430362953 114.110117846285,94.45892091072164 120.82250343740452,93.41131694219075 125.46953961602412,93.68070117838215 126.55384805775248,94.42898942090687 128.61919747048523,97.33232966816286 132.62081195763312,98.46971283233142 136.88059512129985,101.04377418005606 139.07502887223382,101.55259757771273 145.70996386057232,101.43287450491334 149.9181132890517,103.70760450215312 157.4824555129744,102.00155866355635 162.0004073533928,100.05605564510915 162.46511097124312,100.56488076172536 163.31706760404631,104.33614519631374 162.56837844185065,107.68833941008779 162.72327964787837,110.41196890815627 161.69060494145378,113.25529131505755 161.87132301507518,114.36268308665603 163.0330820598174,115.5 167.55103390000295,114.99120087508345 169.35821463621687,114.48240086488659 170.49415681313258,113.67430491116829 172.06898574030492,111.13028454760206 175.2702773300698,112.47712161511299 176.7418387865182,112.35740301586338 177.85196409595665,111.78873900012695 179.14280747890007,109.48414192852215 180.4336508618435,104.09670128166908 180.20129905291833,100.05605564510915 178.29085084609687,93.80042742585647 179.5558773613302,89.01133927688352 179.4009761553025,83.44392567948671 176.81928938953206,81.22890368601657 174.49577130028047,78.02607193091535 174.36668696196284,76.11034270492382 175.55426287429873,73.20679165885667 175.21864359464962,71.53050163266016 170.39088934252504,67.30980023610755 167.680118238437,66.50157386594219 167.34449895867147,65.24432840317604 167.70593510591425,64.7953108556394" stroke="#4dd2ff" stroke-linecap="round" stroke-linejoin="round" stroke-width="0.5"><title>2024-10-18 10.2km</title><desc>1729247560000</desc></polyline><polyline fill="none" points="78.71234913507942,184.5 80.38858915003948,188.95573365327436 79.76966975990217,191.1985268673743 80.67226053716149,194.93647725792835 80.59489561337978,196.67086997933802 81.65221623820253,198.19593092572177 82.2453473204514,200.28913885800284 81.78115777776111,202.23281849673367 82.50323039956857,204.50541212206008 82.2453473204514,206.06033440778265 81.1622383876238,207.85446521427366 79.40863344888203,209.4990754329774 78.55761928751599,211.98092422107584 77.4745103548048,212.25003908667713 77.19083896756638,213.4760036682419 76.23667157441378,214.25344195455546 76.70086111698765,218.79842434983584 74.37991340400185,219.6356502311246 62.33677360403817,218.1107012940338 56.40546278178226,215.98771990166279 55.29656554106623,215.9578186450235 53.542960602324456,216.79505267294007 51.55726089235395,219.90475804012385 49.777867645723745,221.10078974589123 47.99847439897712,221.4595983021136 44.749147600727156,220.86158379676635 42.35083496395964,221.19049192630337 40.57144171721302,222.4164189628209 38.817836778471246,225.52606445294805 36.34215921792202,225.97456828088616 31.85499363928102,226.0044685116154 28.940914844162762,225.7951668323949 27.754652679665014,224.68885546384263 27.522557908319868,220.02436143130763 26.929426826070994,219.09743386882474 25.253186811110936,218.46951352525502 22.95802740601357,218.3200084825512 20.147101842449047,219.75525373240816 20.9981160039315,222.6556236379547 19.579759068088606,224.24034966077306 19.811853839433752,241.04389643436298 20.147101842449047,242.06045009350055 21.204422467271797,243.07700021364144 24.041136338724755,244.60181875838316 30.281906856107526,243.64507079817122 35.284838593099266,243.82446127940784 36.213217678363435,244.39253040993935 38.53416539123282,247.3823497244739 41.860857113380916,248.3091874962265 46.39959930779878,251.02988783476758 48.97843010001816,251.65773815929424 55.60602523619309,251.53814772536862 59.80951942759566,253.601075847022 67.31391703314148,251.89691888031666 71.0790099898586,250.0432631688309 72.00738907512277,250.0133653996745 72.44579030980822,250.49172933929367 73.34838108706754,254.28871531586628 72.62630846526008,257.36812438070774 72.72946169693023,260.3279141410894 71.7495059958892,263.4371559267747 72.5747318493668,265.2608304193709 74.45727832778357,265.5 79.38284514111001,264.4237353448116 80.64647222927306,263.4371559267747 81.91009931731969,261.1351243244135 85.36573257914279,262.45057317611645 87.35143228911329,262.09181498596445 88.89873076439835,260.0289468403207 90.4202409319114,254.7371749666636 90.0849929288961,249.95356985210674 88.22823475848418,243.8842580821365 89.54343846254051,238.8612839745183 89.25976707530208,233.38973170964164 88.5892710693879,232.46284657996148 86.70672459108755,231.2967611082713 84.25683533831034,227.9479769388854 84.1536821067566,226.18386983146775 85.36573257914279,223.19383344051312 84.90154303656891,221.39979690671316 80.44016576581635,217.51267992856447 79.46021006489173,217.00436080471263 78.45446605572943,217.06416310049826" stroke="#4dd2ff" stroke-linecap="round" stroke-linejoin="round" stroke-width="0.5"><title>2024-10-15 10.1km</title><desc>1728988916900</desc></polyline><polyline fill="none" points="168.67322785861325,184.5 170.3991323923692,189.10016013783752 169.85817724000663,190.74305688092136 170.75976916064974,195.31324821175076 170.4506519306451,196.8067592587031 172.04775761859491,199.6145393147017 172.27959554106928,200.74959166237386 171.6871208504308,202.15346608503023 172.56295300181955,204.6326320671651 171.1976852363441,208.0078482539102 169.342981856782,209.71037610751227 168.51866924366914,212.15960926710977 167.51403824647423,212.2790835291089 167.15340147807728,213.8023760788783 166.22604978829622,214.3997435340716 166.84428424818907,218.67088518320816 166.2518095575506,219.29811050693388 164.29406710132025,219.83573113934835 152.34153421071824,218.25273421785096 150.25499290879816,217.77484666611417 146.67438499536365,216.13210223364877 145.59247469063848,216.0723658981151 143.5574529269943,216.99827772410936 141.88306793151423,219.7162599733565 140.38900132023264,220.97070477492525 138.14790140325204,221.59792515204754 134.56729348993395,220.97070477492525 132.27467403456103,221.44858708939864 130.29117180930916,223.00169920310145 128.8743845054414,225.74949268021737 123.5936318275053,226.25723429300706 119.03415268601384,225.98843001987552 118.13256076537073,225.39108630362898 117.69464468967635,224.82360863988288 117.51432630547788,219.5967887584411 115.99449992494192,218.52154562147916 113.830679315608,218.25273421785096 112.18205408926588,218.5514135400008 110.25007140217349,219.80586335243424 111.04862424614839,221.53818993616733 111.07438401528634,222.67315694576246 109.65759671165142,224.04705846845172 109.91519440314732,240.7722971428011 110.25007140217349,242.02665137991426 111.43502078356687,243.1615386606427 114.32011492957827,244.6249394255865 120.86309629643802,243.6095192664652 125.55137428361923,243.87830729960115 128.48798796790652,247.4322591169621 132.5580314954277,248.59699020761764 136.65383479185402,251.10562599165132 139.0237335547572,251.70291704611736 145.72127353644464,251.52372985816328 149.4821998338448,253.64410452661105 158.47235927102156,251.70291704611736 162.00144764606375,250.06036370349466 163.34095564228483,254.36084740786464 162.54240279830992,257.64589641502243 162.61968210572377,260.45309079944855 161.74384995433502,263.827661061252 162.54240279830992,265.2909581568383 164.21678779379,265.5 169.13690370344557,264.5742421290488 170.7855289297877,263.2303948313056 171.32648408215027,261.6476334084291 171.91895877290517,261.1698169517913 175.2677287637489,262.39422005516826 177.6118677572813,261.82681437788415 178.84833667695057,259.94540870952187 180.34240328834858,254.89840341327363 180.03328605834395,249.61239300481975 178.2043424480362,243.81857664702693 179.54385044437367,238.3531701657921 179.28625275264494,233.27592484332854 176.81331491330639,231.3346018025768 174.44341615051962,228.2583249831514 174.18581845902372,226.04816432419466 175.3707678404171,223.1809039147629 174.93285176472273,221.4784547080344 170.21881400828715,217.4164304883161 168.44138993613888,217.26709028423647" stroke="#4dd2ff" stroke-linecap="round" stroke-linejoin="round" stroke-width="0.5"><title>2024-09-21 10.1km</title><desc>1726871683000</desc></polyline></svg>