<?xml version="1.0" encoding="utf-8" ?>
<svg baseProfile="full" height="200mm" version="1.1" viewBox="0,0,200,200" width="200mm" xmlns="http://www.w3.org/2000/svg" xmlns:ev="http://www.w3.org/2001/xml-events" xmlns:xlink="http://www.w3.org/1999/xlink"><defs /><rect fill="#1a1a1a" height="200" width="200" x="0" y="0" /><text alignment-baseline="middle" fill="#e1ed5e" style="dominant-baseline: central; font-size:9.0px; font-family:Arial;" text-anchor="middle" x="100.0" y="100.0">2024</text><line stroke="#e1ed5e" stroke-width="0.3" x1="100.0" x2="100.0" y1="15.0" y2="10.0" /><path d="M 100.0 14.0 a86.0,86.0 0 0,1 42.35913384403234,11.155469271406648" fill="none" id="id1" stroke="none" /><text fill="#e1ed5e" style="font-size:6.75px; font-family:Arial;" text-anchor="middle"><textPath startOffset="22.145653131862478" xlink:href="#id1">January</textPath></text><line stroke="#e1ed5e" stroke-width="0.3" x1="143.13028292997686" x2="145.6673583964461" y1="26.7553504044142" y2="22.446841604673864" /><path d="M 143.63769802327073 25.89364864446614 a86.0,86.0 0 0,1 29.32050498858742,28.57503671076993" fill="none" id="id2" stroke="none" /><text fill="#e1ed5e" style="font-size:6.75px; font-family:Arial;" text-anchor="middle"><textPath startOffset="20.669276256404974" xlink:href="#id2">February</textPath></text><line stroke="#e1ed5e" stroke-width="0.3" x1="172.87174338648825" x2="177.1583165268699" y1="56.24261187166439" y2="53.66864786411523" /><path d="M 173.72905801456457 55.72781907015455 a86.0,86.0 0 0,1 12.242430191666344,42.057860355516425" fill="none" id="id3" stroke="none" /><text fill="#e1ed5e" style="font-size:6.75px; font-family:Arial;" text-anchor="middle"><textPath startOffset="22.145653131862474" xlink:href="#id3">March</textPath></text><path d="M 120.51834098615036 95.52812308129327 l 14.661564986805365 -3.195419849044768 a36.00573876468554,36.00573876468554 0 0,0 0.12643550476036888,0.6050396604463291 l -14.7142582023901 2.9432637373130346" fill="#ff740a" stroke="none" /><line stroke="#e1ed5e" stroke-width="0.3" x1="184.99686870605535" x2="189.99668451229388" y1="99.2704041080226" y2="99.22748670261217" /><path d="M 185.99683186730306 99.26182062694052 a86.0,86.0 0 0,1 -10.086455211305974,41.156179273409016" fill="none" id="id4" stroke="none" /><text fill="#e1ed5e" style="font-size:6.75px; font-family:Arial;" text-anchor="middle"><textPath startOffset="21.40746469413373" xlink:href="#id4">April</textPath></text><line stroke="#e1ed5e" stroke-width="0.3" x1="174.33088141563837" x2="178.70328620479359" y1="141.23008692659167" y2="143.65538615756765" /><path d="M 175.20536237346943 141.71514677278685 a86.0,86.0 0 0,1 -30.301960400862466,31.631185727798858" fill="none" id="id5" stroke="none" /><text fill="#e1ed5e" style="font-size:6.75px; font-family:Arial;" text-anchor="middle"><textPath startOffset="22.145653131862474" xlink:href="#id5">May</textPath></text><path d="M 115.6541949942343 113.99807769240083 l 11.296759412179284 10.101631925646057 a36.15452872173506,36.15452872173506 0 0,0 -0.41767484727958176,0.4590978230241744 l -11.121686864057823 -10.294067324227903" fill="#ff770a" stroke="none" /><path d="M 113.86319453409587 115.77377054828091 l 19.141999385536213 21.78008145237893 a49.99634612409173,49.99634612409173 0 0,0 -0.6495251980729069,0.5610443961650994 l -18.765294707700452 -22.105469981008746" fill="#c6ff1e" stroke="none" /><path d="M 113.31354834802062 116.24036423190432 l 15.338987100566866 18.71107017827627 a45.19480672557101,45.19480672557101 0 0,0 -0.6042098653403483,0.486708697745964 l -15.015526464871266 -18.971627169815637" fill="#fff917" stroke="none" /><path d="M 113.03279911837588 116.46651593811092 l 35.91594796451665 45.37862697171508 a78.87205805937728,78.87205805937728 0 0,0 -1.0688668271357848,0.831157309763997 l -35.131671192745635 -45.98848533309987" fill="#46fff6" stroke="none" /><path d="M 112.16784306229584 117.11559508785304 l 4.423049627344479 6.221573214540099 a28.633566746274965,28.633566746274965 0 0,0 -0.4030582327334626,0.2813659495278049 l -4.315596303437258 -6.296583979873026" fill="#ff0000" stroke="none" /><path d="M 111.5731344415666 117.5232005979908 l 16.06763230915218 24.328443215589115 a50.15547902738446,50.15547902738446 0 0,0 -0.7225120488960011,0.46832358095146187 l -15.64763462799917 -24.60068063824447" fill="#c3ff1e" stroke="none" /><path d="M 110.96478420261333 117.91015095944535 l 9.102168258983445 14.867707796548444 a38.43267627584454,38.43267627584454 0 0,0 -0.565632443556937,0.3396460304158055 l -8.845603058869072 -15.021767827500174" fill="#ff990e" stroke="none" /><line stroke="#e1ed5e" stroke-width="0.3" x1="143.1302829299769" x2="145.66735839644613" y1="173.24464959558577" y2="177.55315839532614" /><path d="M 143.63769802327073 174.10635135553383 a86.0,86.0 0 0,1 -40.68552437913181,11.842963189579606" fill="none" id="id6" stroke="none" /><text fill="#e1ed5e" style="font-size:6.75px; font-family:Arial;" text-anchor="middle"><textPath startOffset="21.407464694133747" xlink:href="#id6">June</textPath></text><line stroke="#e1ed5e" stroke-width="0.3" x1="101.45913802915013" x2="101.54496967792366" y1="184.9874750549273" y2="189.98673829345242" /><path d="M 101.47630435890484 185.9873277026323 a86.0,86.0 0 0,1 -42.54439059252881,-10.42667462771756" fill="none" id="id7" stroke="none" /><text fill="#e1ed5e" style="font-size:6.75px; font-family:Arial;" text-anchor="middle"><textPath startOffset="22.145653131862474" xlink:href="#id7">July</textPath></text><line stroke="#e1ed5e" stroke-width="0.3" x1="58.13341422392154" x2="55.67067388415222" y1="173.97424548756322" y2="178.32567169271397" /><path d="M 57.64086615596768 174.84453072859336 a86.0,86.0 0 0,1 -31.369924170532247,-30.572349798747897" fill="none" id="id8" stroke="none" /><text fill="#e1ed5e" style="font-size:6.75px; font-family:Arial;" text-anchor="middle"><textPath startOffset="22.145653131862474" xlink:href="#id8">August</textPath></text><path d="M 81.99639281039703 110.81064883170644 l -40.145752331430984 24.10637079387043 a67.82732688407663,67.82732688407663 0 0,0 -0.5908286313675926,-1.0033561835385378 l 40.553654672928346 -23.413663442038334" fill="#37ff73" stroke="none" /><line stroke="#e1ed5e" stroke-width="0.3" x1="26.387840678322732" x2="22.057713659400548" y1="142.50000000000003" y2="145.00000000000006" /><path d="M 25.521815274538298 143.00000000000003 a86.0,86.0 0 0,1 -11.493303480769221,-40.785679425670985" fill="none" id="id9" stroke="none" /><text fill="#e1ed5e" style="font-size:6.75px; font-family:Arial;" text-anchor="middle"><textPath startOffset="21.40746469413373" xlink:href="#id9">September</textPath></text><path d="M 81.63589988554817 110.18625677009913 l -25.607603416131212 14.204105947903482 a50.28320300952616,50.28320300952616 0 0,0 -0.4122136778250658,-0.7584267386039768 l 25.847662443571608 -13.762424375824917" fill="#c2ff1e" stroke="none" /><path d="M 81.4637452351635 109.86951160357371 l -25.95170215711026 13.81781966322408 a50.401071155601514,50.401071155601514 0 0,0 -0.4000691369837239,-0.7671853212593 l 26.185079363068933 -13.370288098860277" fill="#c0ff1e" stroke="none" /><path d="M 81.1358732173502 109.22738970284198 l -26.284046224767 12.856844118886338 a50.260032922794714,50.260032922794714 0 0,0 -0.3724525532573604,-0.7782825882042418 l 26.50087803598427 -12.403749028616991" fill="#c2ff1e" stroke="none" /><path d="M 80.28708602549918 107.23885506374661 l -27.16069451171771 9.973783239522358 a49.934057414538835,49.934057414538835 0 0,0 -0.28857089127830515,-0.8071841418239999 l 27.32790557303996 -9.506064141317438" fill="#c6ff1e" stroke="none" /><path d="M 80.16572619554312 106.89939002012753 l -27.532224021740046 9.577136703881969 a50.15038433757131,50.15038433757131 0 0,0 -0.27586192879706206,-0.8155367750360872 l 27.692571372109473 -9.10309825437172" fill="#c4ff1e" stroke="none" /><path d="M 80.05021161711548 106.5578916946017 l -32.92491266208895 10.823072763891634 a55.65817043438211,55.65817043438211 0 0,0 -0.2905761588043559,-0.9102256788213838 l 33.10585353667056 -10.256278051378859" fill="#7fff26" stroke="none" /><path d="M 79.48165901384964 104.47187691870673 l -33.784271767749665 7.363124788475429 a55.5773426614572,55.5773426614572 0 0,0 -0.19516192734068724,-0.933920471738183 l 33.905691405914716 -6.782087865451837" fill="#80ff25" stroke="none" /><path d="M 79.407916724674 104.11899336999214 l -29.880927060618372 5.977022276293085 a51.472850166882964,51.472850166882964 0 0,0 -0.16587421988561754,-0.8679240102151327 l 29.979127572786144 -5.463195701044638" fill="#b3ff20" stroke="none" /><path d="M 79.34024301695615 103.76489593502545 l -57.542632162910856 10.486184426013017 a79.49029475094497,79.49029475094497 0 0,0 -0.2331154433253826,-1.3445479290824427 l 57.714162423728474 -9.496843464009983" fill="#47fffd" stroke="none" /><path d="M 79.13060592940153 102.33845913500099 l -38.26635824455548 4.287825257287634 a59.505838761643574,59.505838761643574 0 0,0 -0.10503519410789838,-1.016120222746973 l 38.334325831145044 -3.6303005122577288" fill="#52ff2b" stroke="none" /><path d="M 79.0935383218832 101.97986365728391 l -32.358455035844955 3.0643793348533706 a53.50323111653172,53.50323111653172 0 0,0 -0.07874243084654782,-0.9151064054501787 l 32.40629108938924 -2.5084518820275297" fill="#99ff23" stroke="none" /><path d="M 79.06263194458094 101.62068470465958 l -29.842774051301873 2.3100194504647145 a50.932045585602424,50.932045585602424 0 0,0 -0.05999319321657553,-0.8722878626729839 l 29.878031205683513 -1.7973881636373872" fill="#baff1f" stroke="none" /><line stroke="#e1ed5e" stroke-width="0.3" x1="15.003131293944662" x2="10.003315487706104" y1="100.72959589197737" y2="100.7725132973878" /><path d="M 14.003168132696942 100.73817937305945 a86.0,86.0 0 0,1 10.791469493833604,-42.45332614584628" fill="none" id="id10" stroke="none" /><text fill="#e1ed5e" style="font-size:6.75px; font-family:Arial;" text-anchor="middle"><textPath startOffset="22.145653131862435" xlink:href="#id10">October</textPath></text><path d="M 79.00077361379809 100.18025310272382 l -57.824361180138325 0.49635259528377407 a78.82649143593214,78.82649143593214 0 0,0 0.0,-1.353211396015162 l 57.824361180138325 0.4963525952837528" fill="#46fff6" stroke="none" /><path d="M 79.06263194458094 98.37931529534042 l -33.5629052608008 -2.5979811338340584 a54.663305178149805,54.663305178149805 0 0,0 0.08044974925830047,-0.9349480333748276 l 33.51336188884475 3.1737502145845666" fill="#8bff24" stroke="none" /><path d="M 79.17382384314186 97.30363454192245 l -28.69310732394259 -3.714897199105544 a49.93259181447819,49.93259181447819 0 0,0 0.11735462898357338,-0.8491196351820853 l 28.62510817840381 4.206905142487696" fill="#c6ff1e" stroke="none" /><path d="M 79.2786578344484 96.59031103205396 l -34.40739655881069 -5.661724010202321 a55.870102619908636,55.870102619908636 0 0,0 0.16384621269403193,-0.9450214143825236 l 34.30513552862442 6.251538457505438" fill="#7dff26" stroke="none" /><path d="M 79.34024301695615 96.23510406497455 l -50.19114479537084 -9.146498536718255 a72.01773663493972,72.01773663493972 0 0,0 0.23208129807301636,-1.2143474197399262 l 50.026737205015664 10.006748521491497" fill="#3cffa7" stroke="none" /><path d="M 79.48165901384962 95.52812308129327 l -28.486590958466365 -6.208519913271306 a50.15530112944238,50.15530112944238 0 0,0 0.1905642031159163,-0.8396610403839059 l 28.37581589379279 6.69661528759422" fill="#c3ff1e" stroke="none" /><path d="M 79.56144815229197 95.17655741523228 l -56.73682626155261 -13.389736511358016 a79.2953900242309,79.2953900242309 0 0,0 0.3240254073254336,-1.322134235829144 l 56.49861332771088 14.361726571795277" fill="#46fffb" stroke="none" /><path d="M 79.73907114497095 94.47779374421319 l -29.26186934138249 -7.975452610746903 a51.32927367574783,51.32927367574783 0 0,0 0.23900256098719444,-0.848135773204674 l 29.120648288320712 8.476596307854589" fill="#b5ff20" stroke="none" /><path d="M 79.83685265289637 94.1308016681162 l -56.563890816530275 -16.46492424571431 a79.91152242746294,79.91152242746294 0 0,0 0.394700818108997,-1.3138306540009286 l 56.27291367841765 17.433492503305963" fill="#47fdff" stroke="none" /><path d="M 80.16572619554312 93.10060997987247 l -27.430204889169115 -9.541649153792589 a50.04236920149367,50.04236920149367 0 0,0 0.28919682937578495,-0.808935002085099 l 27.262367889749388 10.011119112258609" fill="#c5ff1e" stroke="none" /><path d="M 80.28708602549916 92.7611449362534 l -35.049294970150406 -12.87058659636068 a58.33771655094925,58.33771655094925 0 0,0 0.35327464388626084,-0.937102964460867 l 34.82318964244971 13.47035784101569" fill="#60ff29" stroke="none" /><path d="M 80.41425534168474 92.42381321644754 l -58.757233974945805 -22.728560350657368 a84.0,84.0 0 0,0 0.5317653001354743,-1.3403959311456688 l 58.3584099998442 23.73385729901662" fill="#4dd2ff" stroke="none" /><line stroke="#e1ed5e" stroke-width="0.3" x1="26.387840678322718" x2="22.05771365940052" y1="57.49999999999999" y2="54.99999999999999" /><path d="M 25.521815274538284 56.99999999999999 a86.0,86.0 0 0,1 29.574782752854787,-30.34633250058573" fill="none" id="id11" stroke="none" /><text fill="#e1ed5e" style="font-size:6.75px; font-family:Arial;" text-anchor="middle"><textPath startOffset="21.40746469413373" xlink:href="#id11">November</textPath></text><line stroke="#e1ed5e" stroke-width="0.3" x1="56.869717070023135" x2="54.33264160355391" y1="26.7553504044142" y2="22.446841604673864" /><path d="M 56.362301976729285 25.89364864446614 a86.0,86.0 0 0,1 42.16139366436587,-11.88097634709845" fill="none" id="id12" stroke="none" /><text fill="#e1ed5e" style="font-size:6.75px; font-family:Arial;" text-anchor="middle"><textPath startOffset="22.145653131862474" xlink:href="#id12">December</textPath></text></svg>