<?xml version="1.0" encoding="utf-8" ?>
<svg baseProfile="full" height="200mm" version="1.1" viewBox="0,0,200,200" width="200mm" xmlns="http://www.w3.org/2000/svg" xmlns:ev="http://www.w3.org/2001/xml-events" xmlns:xlink="http://www.w3.org/1999/xlink"><defs /><rect fill="#1a1a1a" height="200" width="200" x="0" y="0" /><text alignment-baseline="middle" fill="#e1ed5e" style="dominant-baseline: central; font-size:9.0px; font-family:Arial;" text-anchor="middle" x="100.0" y="100.0">2024</text><line stroke="#e1ed5e" stroke-width="0.3" x1="100.0" x2="100.0" y1="15.0" y2="10.0" /><path d="M 100.0 14.0 a86.0,86.0 0 0,1 42.35913384403234,11.155469271406648" fill="none" id="id1" stroke="none" /><text fill="#e1ed5e" style="font-size:6.75px; font-family:Arial;" text-anchor="middle"><textPath startOffset="22.145653131862478" xlink:href="#id1">January</textPath></text><line stroke="#e1ed5e" stroke-width="0.3" x1="143.13028292997686" x2="145.6673583964461" y1="26.7553504044142" y2="22.446841604673864" /><path d="M 143.63769802327073 25.89364864446614 a86.0,86.0 0 0,1 29.32050498858742,28.57503671076993" fill="none" id="id2" stroke="none" /><text fill="#e1ed5e" style="font-size:6.75px; font-family:Arial;" text-anchor="middle"><textPath startOffset="20.669276256404974" xlink:href="#id2">February</textPath></text><line stroke="#e1ed5e" stroke-width="0.3" x1="172.87174338648825" x2="177.1583165268699" y1="56.24261187166439" y2="53.66864786411523" /><path d="M 173.72905801456457 55.72781907015455 a86.0,86.0 0 0,1 12.242430191666344,42.057860355516425" fill="none" id="id3" stroke="none" /><text fill="#e1ed5e" style="font-size:6.75px; font-family:Arial;" text-anchor="middle"><textPath startOffset="22.145653131862474" xlink:href="#id3">March</textPath></text><path d="M 120.51834098615036 95.52812308129327 l 7.540482603910368 -1.6434130875930506 a28.71749211054647,28.71749211054647 0 0,0 0.10084255274356584,0.48256812029300183 l -7.567582867478301 1.5137285160146443" fill="#ff3905" stroke="none" /><line stroke="#e1ed5e" stroke-width="0.3" x1="184.99686870605535" x2="189.99668451229388" y1="99.2704041080226" y2="99.22748670261217" /><path d="M 185.99683186730306 99.26182062694052 a86.0,86.0 0 0,1 -10.086455211305974,41.156179273409016" fill="none" id="id4" stroke="none" /><text fill="#e1ed5e" style="font-size:6.75px; font-family:Arial;" text-anchor="middle"><textPath startOffset="21.40746469413373" xlink:href="#id4">April</textPath></text><line stroke="#e1ed5e" stroke-width="0.3" x1="174.33088141563837" x2="178.70328620479359" y1="141.23008692659167" y2="143.65538615756765" /><path d="M 175.20536237346943 141.71514677278685 a86.0,86.0 0 0,1 -30.301960400862466,31.631185727798858" fill="none" id="id5" stroke="none" /><text fill="#e1ed5e" style="font-size:6.75px; font-family:Arial;" text-anchor="middle"><textPath startOffset="22.145653131862474" xlink:href="#id5">May</textPath></text><path d="M 115.6541949942343 113.99807769240083 l 5.8099539786345336 5.195296673649077 a28.79401518866113,28.79401518866113 0 0,0 -0.3326425850839535,0.36563247141131433 l -5.7199136927087 -5.2942667206180625" fill="#ff3a05" stroke="none" /><path d="M 113.86319453409587 115.77377054828091 l 9.84478215665224 11.201554912535908 a35.91289938846553,35.91289938846553 0 0,0 -0.46656075687549486,0.40300406957600743 l -9.65104192001389 -11.368903114576632" fill="#ffa00e" stroke="none" /><path d="M 113.31354834802062 116.24036423190432 l 7.88888263275584 9.623154097588644 a33.4434546641732,33.4434546641732 0 0,0 -0.44710591112503156,0.3601568730355107 l -7.722525951275556 -9.757159264417558" fill="#ff7d0b" stroke="none" /><path d="M 113.03279911837588 116.46651593811092 l 18.47166936634082 23.33835082254155 a50.763756286722945,50.763756286722945 0 0,0 -0.6879457243886733,0.5349507562871494 l -18.068313697316913 -23.65200263044949" fill="#a1ff22" stroke="none" /><path d="M 112.16784306229584 117.11559508785304 l 2.2747864093115733 3.1997719640034417 a24.925964063718755,24.925964063718755 0 0,0 -0.3508684444981789,0.24493342407636157 l -2.2195228736396357 -3.238350203884925" fill="#ff0000" stroke="none" /><path d="M 111.5731344415666 117.5232005979908 l 8.263626838078041 12.512184273129407 a35.9947418718613,35.9947418718613 0 0,0 -0.5185203133065839,0.3360986025006307 l -8.047620892514448 -12.652196717333931" fill="#ffa10e" stroke="none" /><path d="M 110.96478420261333 117.91015095944535 l 4.727861793691896 7.722606927387978 a30.05490667512329,30.05490667512329 0 0,0 -0.44233272180970734,0.2656080901953478 l -4.594596315324752 -7.802629018119249" fill="#ff4d07" stroke="none" /><line stroke="#e1ed5e" stroke-width="0.3" x1="143.1302829299769" x2="145.66735839644613" y1="173.24464959558577" y2="177.55315839532614" /><path d="M 143.63769802327073 174.10635135553383 a86.0,86.0 0 0,1 -40.68552437913181,11.842963189579606" fill="none" id="id6" stroke="none" /><text fill="#e1ed5e" style="font-size:6.75px; font-family:Arial;" text-anchor="middle"><textPath startOffset="21.407464694133747" xlink:href="#id6">June</textPath></text><path d="M 110.02825361518725 118.45085714620011 l 2.9037525657219807 5.342577664460862 a27.08070021163131,27.08070021163131 0 0,0 -0.4103515087463107,0.2184890652667635 l -2.811612241189116 -5.391637197450193" fill="#ff2103" stroke="none" /><path d="M 109.71004243097381 118.62028667847754 l 7.054402860138746 13.527747642198708 a36.25662334804613,36.25662334804613 0 0,0 -0.55433403760197,0.28304690938595967 l -6.821141600823193 -13.646852503257504" fill="#ffa50f" stroke="none" /><path d="M 109.3889696526874 118.78422872680471 l 11.824497276729828 23.65691547016526 a47.44746463103667,47.44746463103667 0 0,0 -0.731684529488652,0.357903568552245 l -11.416652497979108 -23.856412788814726" fill="#c9ff1d" stroke="none" /><path d="M 107.407793817531 119.65005319985036 l 4.4555758560467 11.818944312419795 a33.63089865643243,33.63089865643243 0 0,0 -0.5419552830932085,0.19901348681469397 l -4.252031421299365 -11.893688648243211" fill="#ff800b" stroke="none" /><path d="M 107.06938296918513 119.77432235084164 l 5.061645081214713 14.158322147460211 a36.03590160114941,36.03590160114941 0 0,0 -0.584286499730711,0.20324517473543702 l -4.81785280943898 -14.24312575476424" fill="#ffa20e" stroke="none" /><path d="M 105.3480935250658 120.30758222061773 l 3.8383026940534917 14.574660518142442 a36.0716056473847,36.0716056473847 0 0,0 -0.600153718002718,0.15255672823343036 l -3.5875436828253764 -14.638402478211143" fill="#ffa20f" stroke="none" /><path d="M 104.9986988182912 120.39639698878246 l 6.3071443909616525 25.735301433424397 a47.49690189885706,47.49690189885706 0 0,0 -0.7935778892038201,0.1872822210515379 l -5.864434348017953 -25.839779798122162" fill="#c8ff1d" stroke="none" /><path d="M 104.64783097203109 120.47920084513623 l 3.371713247986759 14.856390693475012 a36.23419819563276,36.23419819563276 0 0,0 -0.6077641146749024,0.13245936005583644 l -3.1161867166927206 -14.912081511664566" fill="#ffa40f" stroke="none" /><path d="M 103.94208987418118 120.62667999033965 l 2.841423707911903 14.867529511167486 a36.136615290523835,36.136615290523835 0 0,0 -0.610304870979837,0.11121787781744583 l -2.585784103381009 -14.914115562916296" fill="#ffa30f" stroke="none" /><path d="M 102.875027216393 120.80226474461374 l 2.05385515334692 14.860672762818039 a36.001930407600604,36.001930407600604 0 0,0 -0.6129280274029568,0.07935580439391932 l -1.7984493040531881 -14.893740163412353" fill="#ffa10e" stroke="none" /><path d="M 102.51750503828377 120.84855314841334 l 1.8321623107342822 15.172932220983274 a36.28315055593668,36.28315055593668 0 0,0 -0.618997629571672,0.06935997549900741 l -1.571428779561811 -15.202147956989252" fill="#ffa50f" stroke="none" /><path d="M 102.15924093988457 120.88869738790638 l 1.5413801693018274 14.911454910625704 a35.99090859080731,35.99090859080731 0 0,0 -0.615102514638607,0.05825084765594967 l -1.285178091278205 -14.935717513786837" fill="#ffa10e" stroke="none" /><path d="M 101.80034050326958 120.92268563240118 l 1.3916029051657912 16.17253517156485 a37.232296588011444,37.232296588011444 0 0,0 -0.6372591328312148,0.04932788718956778 l -1.1137747775593405 -16.19404082574947" fill="#ffb210" stroke="none" /><path d="M 101.44090949804482 120.95050786540614 l 1.0309295887316623 14.989489962214705 a36.0249001708583,36.0249001708583 0 0,0 -0.6173220852546419,0.0371365637029527 l -0.7734631513445552 -15.00497850374235" fill="#ffa10e" stroke="none" /><line stroke="#e1ed5e" stroke-width="0.3" x1="101.45913802915013" x2="101.54496967792366" y1="184.9874750549273" y2="189.98673829345242" /><path d="M 101.47630435890484 185.9873277026323 a86.0,86.0 0 0,1 -42.54439059252881,-10.42667462771756" fill="none" id="id7" stroke="none" /><text fill="#e1ed5e" style="font-size:6.75px; font-family:Arial;" text-anchor="middle"><textPath startOffset="22.145653131862474" xlink:href="#id7">July</textPath></text><path d="M 100.36049292484886 120.99690560180557 l 0.25744531845840113 14.994899141402644 a35.99710899983173,35.99710899983173 0 0,0 -0.6179382433072516,0.005304256623521714 l -1.8366161533107894e-15 -14.997108999831731" fill="#ffa10e" stroke="none" /><path d="M 100.0 121.0 l 1.8401456698115353e-15 15.025929689219097 a36.0259296892191,36.0259296892191 0 0,0 -0.6184329887650329,-0.005308503418245649 l 0.25794006391617896 -15.023715583995287" fill="#ffa10e" stroke="none" /><path d="M 99.63950707515114 120.99690560180557 l -0.2592578436402023 15.100469646452668 a36.10269506323051,36.10269506323051 0 0,0 -0.61956812509296,-0.015957877142950133 l 0.5184392828039062 -15.09379405195967" fill="#ffa30f" stroke="none" /><path d="M 97.84075906011543 120.88869738790638 l -1.555767017056146 15.050634611952525 a36.130829892436935,36.130829892436935 0 0,0 -0.6163990093251813,-0.069068794680185 l 1.8139019279821265 -15.02171005676537" fill="#ffa30f" stroke="none" /><path d="M 97.48249496171623 120.84855314841334 l -1.9512043719286851 16.158771256840794 a37.27615086658814,37.27615086658814 0 0,0 -0.6346214594928551,-0.08216445349559771 l 2.2283036533123344 -16.1228952071448" fill="#ffb310" stroke="none" /><path d="M 97.12497278360702 120.80226474461374 l -2.055531768333939 14.87280391365936 a36.014176870704276,36.014176870704276 0 0,0 -0.6116834634278383,-0.0898964046469777 l 2.310540337369462 -14.835326435713501" fill="#ffa10e" stroke="none" /><path d="M 95.35216902796893 120.47920084513623 l -5.869166842206635 25.860632040721306 a47.51828442730108,47.51828442730108 0 0,0 -0.7939351483325027,-0.18736653323314023 l 6.312234144279025 -25.756069363841938" fill="#c8ff1d" stroke="none" /><path d="M 95.00130118170881 120.39639698878247 l -3.5653032216528597 14.547653807051333 a35.97817139547226,35.97817139547226 0 0,0 -0.5985991735718141,-0.15216156911809717 l 3.8145076884500524 -14.484307006097973" fill="#ffa10e" stroke="none" /><path d="M 94.30408787586889 120.21278271476187 l -4.773814998600914 16.94058531528187 a38.60036194131276,38.60036194131276 0 0,0 -0.6362442287824522,-0.1852014222758304 l 5.063919239764973 -16.856140198703525" fill="#ffc412" stroke="none" /><path d="M 92.93061703081489 119.77432235084164 l -5.069280989739241 14.179681142617776 a36.058584497197664,36.058584497197664 0 0,0 -0.5810769604689666,-0.2133795086387667 l 5.3119471018623265 -14.09057078497029" fill="#ffa20f" stroke="none" /><path d="M 92.25597844496254 119.51999308798841 l -9.769197913098782 24.624760453414897 a47.491811098023476,47.491811098023476 0 0,0 -0.7552227831510119,-0.3071425312019347 l 10.190475157440234 -24.45343066563367" fill="#c8ff1d" stroke="none" /><path d="M 91.92203290615298 119.3841803445677 l -5.760304351902006 13.822633479395703 a35.97485567650828,35.97485567650828 0 0,0 -0.568000015149336,-0.24244543109858172 l 5.996739442221773 -13.721713398637718" fill="#ffa10e" stroke="none" /><path d="M 90.6110303473126 118.78422872680471 l -6.976836587379564 13.958346772306983 a36.60486120998745,36.60486120998745 0 0,0 -0.55965830892759,-0.2857655202617564 l 7.2154221180207365 -13.83652330037239" fill="#ffa90f" stroke="none" /><path d="M 90.28995756902619 118.62028667847754 l -12.24461552174418 23.480664776018564 a47.48154503799009,47.48154503799009 0 0,0 -0.7194837464201201,-0.3830845698855352 l 12.645888083950862 -23.267009738410458" fill="#c8ff1d" stroke="none" /><line stroke="#e1ed5e" stroke-width="0.3" x1="58.13341422392154" x2="55.67067388415222" y1="173.97424548756322" y2="178.32567169271397" /><path d="M 57.64086615596768 174.84453072859336 a86.0,86.0 0 0,1 -31.369924170532247,-30.572349798747897" fill="none" id="id8" stroke="none" /><text fill="#e1ed5e" style="font-size:6.75px; font-family:Arial;" text-anchor="middle"><textPath startOffset="22.145653131862474" xlink:href="#id8">August</textPath></text><path d="M 89.65649057296885 118.27599006163327 l -7.367736462401945 13.01808436619173 a35.95841105013138,35.95841105013138 0 0,0 -0.5345946082677548,-0.30864834099071314 l 7.590123538530099 -12.889689127924845" fill="#ffa10e" stroke="none" /><path d="M 89.03521579738668 117.91015095944536 l -7.83439867190725 12.796901452642782 a36.004615601175296,36.004615601175296 0 0,0 -0.5243572847608073,-0.32723772698784304 l 8.052920085457771 -12.660527928813393" fill="#ffa10e" stroke="none" /><path d="M 88.4268655584334 117.5232005979908 l -8.270153249856788 12.522066092386027 a36.00658435481574,36.00658435481574 0 0,0 -0.5128430015939843,-0.3450636589284014 l 8.483892539547778 -12.378252759400503" fill="#ffa10e" stroke="none" /><path d="M 88.1277618465304 117.32195027204791 l -8.466884341475298 12.353437290116597 a35.97649970229235,35.97649970229235 0 0,0 -0.5064204721134851,-0.3535208201311076 l 8.677699904762548 -12.20627165418036" fill="#ffa10e" stroke="none" /><path d="M 87.83215693770417 117.11559508785305 l -8.673580762773323 12.20047756511823 a35.96939063774156,35.96939063774156 0 0,0 -0.500178338642755,-0.3620905445237833 l 8.881740111790032 -12.049786249221382" fill="#ffa10e" stroke="none" /><path d="M 87.54013794807813 116.9041958592261 l -8.982496011826989 12.186480978352401 a36.139205832481196,36.139205832481196 0 0,0 -0.4962205707111692,-0.3723731672351556 l 9.190369571448924 -12.03048878385323" fill="#ffa30f" stroke="none" /><path d="M 87.2517909369889 116.68781488649013 l -9.091557803417038 11.901141007599126 a35.97643417424958,35.97643417424958 0 0,0 -0.4875493044512739,-0.37912128805691386 l 9.29451705250354 -11.74331866792142" fill="#ffa10e" stroke="none" /><path d="M 86.96720088162412 116.46651593811092 l -2.860398862904643 3.614020521421438 a25.60901572834824,25.60901572834824 0 0,0 -0.34236721131875003,-0.27578679053511135 l 2.9220168445786547 -3.564385437092916" fill="#ff0a01" stroke="none" /><path d="M 86.40962598614128 116.0094264158162 l -19.383545515850784 22.833767878440305 a50.95167428194209,50.95167428194209 0 0,0 -0.6619362992644103,-0.5717648097755219 l 19.772661294878056 -22.49765893620006" fill="#9fff22" stroke="none" /><path d="M 85.86807049272751 115.53346607816431 l -10.233715909151108 11.2486464673181 a36.20726762623452,36.20726762623452 0 0,0 -0.45616024171282177,-0.4222151096524057 l 10.425305922177898 -11.071313611533316" fill="#ffa40f" stroke="none" /><path d="M 85.60350026404147 115.28858382429668 l -10.248468634463759 10.883518540087856 a35.94931721397414,35.94931721397414 0 0,0 -0.4456474469120547,-0.42692017318866016 l 10.433788567241127 -10.705986236593613" fill="#ffa00e" stroke="none" /><path d="M 85.34317274990678 115.03919595460226 l -10.573555482046352 10.84939940397693 a36.14957236884683,36.14957236884683 0 0,0 -0.44069441001292575,-0.4369278137570971 l 10.75824181218924 -10.666291579991174" fill="#ffa30f" stroke="none" /><path d="M 84.83555147118756 114.52719865689866 l -10.859268211920675 10.402933300435059 a36.03810916810127,36.03810916810127 0 0,0 -0.42412421162248987,-0.4504052151724259 l 11.036248257279418 -10.214986625318144" fill="#ffa20e" stroke="none" /><path d="M 84.58840730492382 114.26474011684316 l -9.954692927245564 9.213915158522337 a34.56437038067748,34.56437038067748 0 0,0 -0.3993045582526279,-0.4389056573825703 l 10.11139518634007 -9.041671925582092" fill="#ff8d0d" stroke="none" /><path d="M 84.1078160697243 113.72728997021213 l -11.714982661159272 10.119123003565104 a36.48022832882457,36.48022832882457 0 0,0 -0.40528740921983947,-0.47742754898027495 l 11.886964633886224 -9.916528672135275" fill="#ffa80f" stroke="none" /><path d="M 83.8745106332314 113.45245675266167 l -11.520154172005636 9.610522338768332 a36.00253617795151,36.00253617795151 0 0,0 -0.391833055187958,-0.4779726161657267 l 11.683434046432223 -9.41134744090411" fill="#ffa10e" stroke="none" /><path d="M 83.64595745247003 113.17365903436017 l -11.66388355076382 9.395598945500618 a35.97743165667836,35.97743165667836 0 0,0 -0.38330281909037733,-0.4842905904055041 l 11.82345280049576 -9.193988411180435" fill="#ffa10e" stroke="none" /><path d="M 83.20337586046588 112.60449989151573 l -11.941541326165432 8.961155235706645 a35.92992673803021,35.92992673803021 0 0,0 -0.3659685126555045,-0.49650657370513096 l 12.093611858404765 -8.754842352732634" fill="#ffa00e" stroke="none" /><path d="M 82.98947788004972 112.3143062007846 l -21.77108737076119 15.760588318048143 a47.87706065469796,47.87706065469796 0 0,0 -0.4762283379776991,-0.6698747970743164 l 22.038430807268853 -15.384536294264322" fill="#c4ff1e" stroke="none" /><path d="M 82.78059297857968 112.02048342749411 l -4.597771369540697 3.2096014968587565 a26.60723134311454,26.60723134311454 0 0,0 -0.25822984869789084,-0.3767650665427475 l 4.652190955053913 -3.1302016952459577" fill="#ff1a02" stroke="none" /><path d="M 82.576782715395 111.72311816256416 l -15.610652040798856 10.50354337431471 a39.81533631256715,39.81533631256715 0 0,0 -0.3766825848313925,-0.5703454435008405 l 15.788659064550975 -10.234018052474807" fill="#ffd513" stroke="none" /><path d="M 82.37810715431573 111.42229804090323 l -12.604429600963815 8.17003898494657 a36.02069181433397,36.02069181433397 0 0,0 -0.331874600069988,-0.5217619942159186 l 12.742821892659693 -7.95246331605198" fill="#ffa10e" stroke="none" /><path d="M 81.99639281039703 110.81064883170644 l -20.696580863223353 12.427702147297166 a45.14117312994291,45.14117312994291 0 0,0 -0.39321463433572257,-0.667764414032141 l 20.906869207688846 -12.070586564971467" fill="#e5ff1a" stroke="none" /><line stroke="#e1ed5e" stroke-width="0.3" x1="26.387840678322732" x2="22.057713659400548" y1="142.50000000000003" y2="145.00000000000006" /><path d="M 25.521815274538298 143.00000000000003 a86.0,86.0 0 0,1 -11.493303480769221,-40.785679425670985" fill="none" id="id9" stroke="none" /><text fill="#e1ed5e" style="font-size:6.75px; font-family:Arial;" text-anchor="middle"><textPath startOffset="21.40746469413373" xlink:href="#id9">September</textPath></text><path d="M 81.63589988554817 110.18625677009913 l -13.139750586268157 7.288398153604998 a36.025770965737735,36.025770965737735 0 0,0 -0.2953335240687994,-0.5433804201785233 l 13.262929459952286 -7.061762899951888" fill="#ffa10e" stroke="none" /><path d="M 81.4637452351635 109.86951160357371 l -13.259293238495944 7.059826816837375 a36.02165143611582,36.02165143611582 0 0,0 -0.2859294588855923,-0.5483074386254524 l 13.378530766356487 -6.831173135107419" fill="#ffa10e" stroke="none" /><path d="M 81.1358732173502 109.22738970284198 l -13.415730985232132 6.562306295729853 a35.93471465368834,35.93471465368834 0 0,0 -0.2662946171145621,-0.5564533308208252 l 13.526404860306608 -6.331040462843923" fill="#ffa00e" stroke="none" /><path d="M 80.28708602549918 107.23885506374661 l -14.040002624611203 5.155683438057312 a35.95669567158963,35.95669567158963 0 0,0 -0.20779516535646664,-0.5812400602168621 l 14.126437960011613 -4.913908421459529" fill="#ffa10e" stroke="none" /><path d="M 80.16572619554312 106.89939002012753 l -14.269519239287671 4.963679517696109 a36.10818631321433,36.10818631321433 0 0,0 -0.1986200914170176,-0.5871850077970329 l 14.352624752277057 -4.717992835424915" fill="#ffa30f" stroke="none" /><path d="M 80.05021161711548 106.5578916946017 l -17.070942459171786 5.611557858331496 a38.96960372522878,38.96960372522878 0 0,0 -0.20344969430777168,-0.6373032697151839 l 17.164756869256813 -5.31768555492492" fill="#ffc912" stroke="none" /><path d="M 79.48165901384964 104.47187691870673 l -17.68427831191611 3.8542061495333866 a39.09940895323401,39.09940895323401 0 0,0 -0.13729904388693923,-0.6570256278123936 l 17.747835066627417 -3.550064070435584" fill="#ffcb12" stroke="none" /><path d="M 79.407916724674 104.11899336999214 l -15.384300849502653 3.0772910323743177 a36.68905455169111,36.68905455169111 0 0,0 -0.1182325882940545,-0.6186428622907914 l 15.434859730078864 -2.8127456050502118" fill="#ffab0f" stroke="none" /><path d="M 79.34024301695615 103.76489593502545 l -29.7753987991062 5.426069531917631 a51.26576620888722,51.26576620888722 0 0,0 -0.15034340801784601,-0.8671408252409902 l 29.86415702461628 -4.914135673756048" fill="#9cff22" stroke="none" /><path d="M 79.13060592940153 102.33845913500099 l -19.49988144829372 2.1850023891417645 a40.62191662244198,40.62191662244198 0 0,0 -0.07170272676205545,-0.6936588379527386 l 19.534516567537445 -1.8499390289060944" fill="#ffdf14" stroke="none" /><path d="M 79.0935383218832 101.97986365728391 l -16.848431872676887 1.5955640155910722 a37.92381402332475,37.92381402332475 0 0,0 -0.05581370023550397,-0.6486398000199032 l 16.873339195610132 -1.306103168195507" fill="#ffbb11" stroke="none" /><path d="M 79.06263194458094 101.62068470465958 l -15.55550501470558 1.2040944680276366 a36.60203767943358,36.60203767943358 0 0,0 -0.04311378216553255,-0.6268649305123232 l 15.573882758036177 -0.9368861133609703" fill="#ffa90f" stroke="none" /><line stroke="#e1ed5e" stroke-width="0.3" x1="15.003131293944662" x2="10.003315487706104" y1="100.72959589197737" y2="100.7725132973878" /><path d="M 14.003168132696942 100.73817937305945 a86.0,86.0 0 0,1 10.791469493833604,-42.45332614584628" fill="none" id="id10" stroke="none" /><text fill="#e1ed5e" style="font-size:6.75px; font-family:Arial;" text-anchor="middle"><textPath startOffset="22.145653131862435" xlink:href="#id10">October</textPath></text><path d="M 79.00077361379809 100.18025310272382 l -29.883254236983795 0.2565117969888874 a50.88435513934012,50.88435513934012 0 0,0 0.0,-0.8735297994253989 l 29.883254236983795 0.2565117969888764" fill="#a0ff22" stroke="none" /><path d="M 79.06263194458094 98.37931529534042 l -17.48640150688411 -1.3535580683651594 a38.53871024632072,38.53871024632072 0 0,0 0.056718662838816235,-0.6591568372269333 l 17.46058922134755 1.6535359529677733" fill="#ffc412" stroke="none" /><path d="M 79.17382384314186 97.30363454192245 l -14.85289392119601 -1.9230044833945577 a35.97686229079566,35.97686229079566 0 0,0 0.08455502053280625,-0.6117980075390119 l 14.817694384107996 2.1776907991336367" fill="#ffa10e" stroke="none" /><path d="M 79.2786578344484 96.59031103205396 l -17.708317229554044 -2.913896861318098 a38.94645630816625,38.94645630816625 0 0,0 0.11421545808424477,-0.6587644106530659 l 17.655686953977565 3.2174543048917563" fill="#ffc912" stroke="none" /><path d="M 79.34024301695615 96.23510406497455 l -25.88385151051634 -4.7168999816757635 a47.31012950282822,47.31012950282822 0 0,0 0.15245961314607578,-0.7977331192806277 l 25.799065605088103 5.1605356659897055" fill="#caff1d" stroke="none" /><path d="M 79.48165901384962 95.52812308129327 l -14.763510974363573 -3.2176385025423335 a36.11007788938219,36.11007788938219 0 0,0 0.13719961923235874,-0.6045268373664259 l 14.706100493573553 3.470599673847768" fill="#ffa30f" stroke="none" /><path d="M 79.56144815229197 95.17655741523228 l -29.314889982020855 -6.91823421544987 a51.12017163493276,51.12017163493276 0 0,0 0.2088927796621406,-0.8523538258573822 l 29.191809675842418 7.42044386591537" fill="#9dff22" stroke="none" /><path d="M 79.73907114497095 94.47779374421319 l -15.140791970151755 -4.126690179576116 a36.693092535304245,36.693092535304245 0 0,0 0.17085266278804506,-0.6062958265354319 l 15.067720815289128 4.3859939300145605" fill="#ffab0f" stroke="none" /><path d="M 79.83685265289637 94.1308016681162 l -29.265702959787767 -8.518819608669215 a51.4803487062661,51.4803487062661 0 0,0 0.2542729150147763,-0.8463918363005063 l 29.11515372476936 9.019949048560445" fill="#99ff23" stroke="none" /><path d="M 80.16572619554312 93.10060997987247 l -14.344174347958809 -4.9896484398152205 a36.187229150756565,36.187229150756565 0 0,0 0.2091274274436513,-0.5849666343864366 l 14.256406750471214 5.235150030582578" fill="#ffa40f" stroke="none" /><path d="M 80.28708602549916 92.7611449362534 l -18.27934269164932 -6.712427831652207 a40.4728286757187,40.4728286757187 0 0,0 0.24509056889460165,-0.6501318525041866 l 18.161421438940284 7.025227964350538" fill="#ffdd14" stroke="none" /><path d="M 80.41425534168474 92.42381321644754 l -28.533271252970962 -11.037282285128631 a51.593613200098375,51.593613200098375 0 0,0 0.3266153953383795,-0.8232841572204206 l 28.339597182666452 11.525467459562636" fill="#98ff23" stroke="none" /><path d="M 80.68587082218212 91.75594674310238 l -28.065464611211112 -11.979477966841488 a51.515212537375255,51.515212537375255 0 0,0 0.3541452976710098,-0.8103537468882313 l 27.855685431523124 12.459493783505586" fill="#99ff23" stroke="none" /><path d="M 80.9802524753101 91.09779779509293 l -27.026970529885446 -12.649986879730013 a50.84089985373494,50.84089985373494 0 0,0 0.37675707434401856,-0.7872773817235971 l 26.80583419758152 13.112076763518697" fill="#a1ff22" stroke="none" /><path d="M 81.1358732173502 90.77261029715801 l -15.03989894011581 -7.356768230557592 a37.74277751530606,37.74277751530606 0 0,0 0.2896849597879461,-0.5795639718373586 l 14.91139406711612 7.613864058558721" fill="#ffb911" stroke="none" /><path d="M 81.46374523516351 90.13048839642627 l -26.819854301208036 -14.280061781092183 a51.38461369196319,51.38461369196319 0 0,0 0.42124286691858054,-0.7750394295572962 l 26.570766084674105 14.7383560441241" fill="#9aff22" stroke="none" /><line stroke="#e1ed5e" stroke-width="0.3" x1="26.387840678322718" x2="22.05771365940052" y1="57.49999999999999" y2="54.99999999999999" /><path d="M 25.521815274538284 56.99999999999999 a86.0,86.0 0 0,1 29.574782752854787,-30.34633250058573" fill="none" id="id11" stroke="none" /><text fill="#e1ed5e" style="font-size:6.75px; font-family:Arial;" text-anchor="middle"><textPath startOffset="21.40746469413373" xlink:href="#id11">November</textPath></text><path d="M 81.81346652052679 89.5 l -26.249080395672518 -15.15491363242166 a51.309827264843314,51.309827264843314 0 0,0 0.44694839692569893,-0.7590160902324838 l 25.98505828861704 15.603280890947717" fill="#9bff22" stroke="none" /><path d="M 82.18462484594161 88.88188828441811 l -14.000038573045003 -8.737059507956062 a37.50264490596321,37.50264490596321 0 0,0 0.34552849078763437,-0.5432281782750272 l 13.84799239063148 8.97610136090976" fill="#ffb610" stroke="none" /><path d="M 82.37810715431573 88.57770195909679 l -25.187436245429204 -16.326191868315668 a51.01585390320618,51.01585390320618 0 0,0 0.4826477808646478,-0.7307902560856748 l 24.903464025643828 16.756162002740403" fill="#9fff22" stroke="none" /><path d="M 82.78059297857968 87.97951657250589 l -12.254199497110653 -8.554382958076767 a35.94466035440154,35.94466035440154 0 0,0 0.3575379445953703,-0.5029218947768865 l 12.10554645398531 8.763482079563174" fill="#ffa00e" stroke="none" /><path d="M 83.8745106332314 86.54754324733833 l -17.600853982402818 -14.683258388184615 a43.92134677116637,43.92134677116637 0 0,0 0.4879566180858265,-0.5748116691556394 l 17.346202800809877 14.98323683978981" fill="#f4ff19" stroke="none" /><path d="M 84.10781606972428 86.27271002978789 l -12.827520977495695 -11.080107103568313 a37.95034123121529,37.95034123121529 0 0,0 0.43008387295358497,-0.4893564980135565 l 12.635426040583518 11.298675879393171" fill="#ffbc11" stroke="none" /><path d="M 84.34580500576568 86.00192230759919 l -22.541016522625405 -20.156315969337037 a51.23862594975213,51.23862594975213 0 0,0 0.5919337362435,-0.650638867659772 l 22.191685085540037 20.540292412554464" fill="#9cff22" stroke="none" /><path d="M 84.58840730492382 85.73525988315684 l -22.07731834574566 -20.434436265597075 a51.08278861462392,51.08278861462392 0 0,0 0.6011815810755955,-0.6384340057979687 l 21.723280930933793 20.810411731339553" fill="#9eff22" stroke="none" /><path d="M 85.60350026404147 84.71141617570332 l -22.706154517272324 -24.113149239858437 a54.121192901614094,54.121192901614094 0 0,0 0.6818503039400805,-0.6311104618929655 l 22.28887444201829 24.499377447883766" fill="#7bff26" stroke="none" /><path d="M 86.13680546590413 84.22622945171909 l -14.209563552429985 -16.16787490906141 a42.52468061146563,42.52468061146563 0 0,0 0.5524574041589885,-0.47719954767409667 l 13.929926668508148 16.409418589200218" fill="#fff817" stroke="none" /><path d="M 86.40962598614128 83.9905735841838 l -21.939305140532028 -25.84444628994865 a54.90086302859288,54.90086302859288 0 0,0 0.7237127601417169,-0.6037469242464832 l 21.4924180462284 26.217255398107014" fill="#73ff27" stroke="none" /><path d="M 87.54013794807813 83.09580414077388 l -17.765121804224997 -24.101799617862312 a50.941548015066594,50.941548015066594 0 0,0 0.7083761610164643,-0.5128097121641103 l 17.348764632834566 24.4032101013995" fill="#9fff22" stroke="none" /><path d="M 87.83215693770416 82.88440491214696 l -12.175317198467058 -17.126108396389565 a42.01289931656679,42.01289931656679 0 0,0 0.591391393904738,-0.4128371227157527 l 11.879530713388554 17.332590334910446" fill="#fff116" stroke="none" /><path d="M 88.12776184653039 82.6780497279521 l -17.156938304570993 -25.032485727682257 a51.34774907128157,51.34774907128157 0 0,0 0.7313477307183184,-0.4920833922394842 l 16.724694285755685 25.323318793978853" fill="#9bff22" stroke="none" /><path d="M 88.4268655584334 82.4767994020092 l -16.532031094084953 -25.03160216590878 a50.9981525945869,50.9981525945869 0 0,0 0.734651137533865,-0.47619199154621455 l 16.09989432429406 25.311707999158898" fill="#9fff22" stroke="none" /><line stroke="#e1ed5e" stroke-width="0.3" x1="56.869717070023135" x2="54.33264160355391" y1="26.7553504044142" y2="22.446841604673864" /><path d="M 56.362301976729285 25.89364864446614 a86.0,86.0 0 0,1 42.16139366436587,-11.88097634709845" fill="none" id="id12" stroke="none" /><text fill="#e1ed5e" style="font-size:6.75px; font-family:Arial;" text-anchor="middle"><textPath startOffset="22.145653131862474" xlink:href="#id12">December</textPath></text><path d="M 89.65649057296885 81.72400993836675 l -7.374265480090194 -13.02962051484846 a35.97166664509365,35.97166664509365 0 0,0 0.5400131891227163,-0.29953621301134625 l 7.1495081028113745 13.154289643292952" fill="#ffa10e" stroke="none" /><path d="M 89.97174638481275 81.54914285379989 l -14.42758039777572 -26.545122919660628 a51.21255743816094,51.21255743816094 0 0,0 0.7760194547140911,-0.41318665016563555 l 13.969772127275068 26.78888003754884" fill="#9cff22" stroke="none" /><path d="M 90.93487009805054 81.0573650232925 l -6.1213054492757335 -12.79117408804311 a35.180427178119785,35.180427178119785 0 0,0 0.5469907868798636,-0.2560193074437313 l 5.900825948524347 12.894369627057385" fill="#ff960d" stroke="none" /><path d="M 91.26138138417902 80.90454125486306 l -18.642155984028488 -40.73647519860095 a65.79944632848803,65.79944632848803 0 0,0 1.0311293279155465,-0.4612110329410652 l 17.940113253257323 41.050489982451865" fill="#35ff68" stroke="none" /><path d="M 92.25597844496254 80.48000691201159 l -6.922405016609568 -17.448982691503012 a39.771965485328195,39.771965485328195 0 0,0 0.6367827605389208,-0.24632125142817973 l 6.621849993577118 17.565243831069232" fill="#ffd413" stroke="none" /><path d="M 92.592206182469 80.34994680014964 l -5.559909520858712 -14.74832056106576 a36.76152128609705,36.76152128609705 0 0,0 0.5924046478529986,-0.21753919235100375 l 5.305915721351586 14.841590602425486" fill="#ffac0f" stroke="none" /><path d="M 94.30408787586887 79.78721728523814 l -7.153981431892213 -25.386956307781208 a47.37568958152659,47.37568958152659 0 0,0 0.784673618095246,-0.21386628390044518 l 6.717126412862289 25.50602308582579" fill="#caff1d" stroke="none" /><path d="M 94.6519064749342 79.69241777938228 l -4.193396166412071 -15.923008270875075 a37.465927359333136,37.465927359333136 0 0,0 0.6233522239882612,-0.1584536977379071 l 3.9194386491984314 15.992647200448245" fill="#ffb510" stroke="none" /><path d="M 95.35216902796891 79.52079915486377 l -6.77021517187682 -29.83081723582232 a51.58943396714861,51.58943396714861 0 0,0 0.8653208356464759,-0.18859264863643047 l 6.257131919611226 29.942641342592463" fill="#98ff23" stroke="none" /><path d="M 96.76829788921471 79.25015418208739 l -2.5878999061019328 -16.61617383130557 a37.816493651060746,37.816493651060746 0 0,0 0.6422949466323689,-0.09439523851372113 l 2.302279853861879 16.658150143118174" fill="#ffba11" stroke="none" /><path d="M 97.12497278360702 79.19773525538626 l -4.173690389465163 -30.198744536627967 a51.4857977270668,51.4857977270668 0 0,0 0.8765387878605204,-0.1134854950064414 l 3.654673779713848 30.265941627834803" fill="#99ff23" stroke="none" /><path d="M 97.84075906011542 79.11130261209362 l -2.702909707220434 -26.148199535333173 a47.287526696610016,47.287526696610016 0 0,0 0.8081673322788604,-0.07653428661521591 l 2.253642811556558 26.190745577453573" fill="#cbff1d" stroke="none" /><path d="M 98.9189461498227 79.02784411241856 l -0.7833985003740644 -15.197721620664828 a36.21789918712867,36.21789918712867 0 0,0 0.6211787758266784,-0.026676089401769097 l 0.522393963946566 15.208930278492426" fill="#ffa40f" stroke="none" /><path d="M 99.63950707515114 79.00309439819443 l -1.081478774546572 -62.990716805416696 a84.0,84.0 0 0,0 1.4419716993954086,-0.012377592777739643 l 1.543054966925665e-14 63.0" fill="#4dd2ff" stroke="none" /></svg>