<?xml version="1.0" encoding="utf-8" ?>
<svg baseProfile="full" height="200mm" version="1.1" viewBox="0,0,200,200" width="200mm" xmlns="http://www.w3.org/2000/svg" xmlns:ev="http://www.w3.org/2001/xml-events" xmlns:xlink="http://www.w3.org/1999/xlink"><defs /><rect fill="#1a1a1a" height="200" width="200" x="0" y="0" /><text alignment-baseline="middle" fill="#e1ed5e" style="dominant-baseline: central; font-size:9.0px; font-family:Arial;" text-anchor="middle" x="100.0" y="100.0">2024</text><line stroke="#e1ed5e" stroke-width="0.3" x1="100.0" x2="100.0" y1="15.0" y2="10.0" /><path d="M 100.0 14.0 a86.0,86.0 0 0,1 42.35913384403234,11.155469271406648" fill="none" id="id1" stroke="none" /><text fill="#e1ed5e" style="font-size:6.75px; font-family:Arial;" text-anchor="middle"><textPath startOffset="22.145653131862478" xlink:href="#id1">January</textPath></text><line stroke="#e1ed5e" stroke-width="0.3" x1="143.13028292997686" x2="145.6673583964461" y1="26.7553504044142" y2="22.446841604673864" /><path d="M 143.63769802327073 25.89364864446614 a86.0,86.0 0 0,1 29.32050498858742,28.57503671076993" fill="none" id="id2" stroke="none" /><text fill="#e1ed5e" style="font-size:6.75px; font-family:Arial;" text-anchor="middle"><textPath startOffset="20.669276256404974" xlink:href="#id2">February</textPath></text><line stroke="#e1ed5e" stroke-width="0.3" x1="172.87174338648825" x2="177.1583165268699" y1="56.24261187166439" y2="53.66864786411523" /><path d="M 173.72905801456457 55.72781907015455 a86.0,86.0 0 0,1 12.242430191666344,42.057860355516425" fill="none" id="id3" stroke="none" /><text fill="#e1ed5e" style="font-size:6.75px; font-family:Arial;" text-anchor="middle"><textPath startOffset="22.145653131862474" xlink:href="#id3">March</textPath></text><path d="M 120.51834098615036 95.52812308129327 l 10.603934713011572 -2.311078216440458 a31.852857408089235,31.852857408089235 0 0,0 0.11185250581226316,0.5352547313745963 l -10.642044929648202 2.1287070337804574" fill="red" stroke="none" /><line stroke="#e1ed5e" stroke-width="0.3" x1="184.99686870605535" x2="189.99668451229388" y1="99.2704041080226" y2="99.22748670261217" /><path d="M 185.99683186730306 99.26182062694052 a86.0,86.0 0 0,1 -10.086455211305974,41.156179273409016" fill="none" id="id4" stroke="none" /><text fill="#e1ed5e" style="font-size:6.75px; font-family:Arial;" text-anchor="middle"><textPath startOffset="21.40746469413373" xlink:href="#id4">April</textPath></text><line stroke="#e1ed5e" stroke-width="0.3" x1="174.33088141563837" x2="178.70328620479359" y1="141.23008692659167" y2="143.65538615756765" /><path d="M 175.20536237346943 141.71514677278685 a86.0,86.0 0 0,1 -30.301960400862466,31.631185727798858" fill="none" id="id5" stroke="none" /><text fill="#e1ed5e" style="font-size:6.75px; font-family:Arial;" text-anchor="middle"><textPath startOffset="22.145653131862474" xlink:href="#id5">May</textPath></text><path d="M 115.6541949942343 113.99807769240083 l 8.170348757663515 7.305976239973281 a31.960469316635482,31.960469316635482 0 0,0 -0.3692230161137296,0.40584077306136473 l -8.043728040707906 -7.445154588592317" fill="red" stroke="none" /><path d="M 113.86319453409587 115.77377054828091 l 13.844396007070554 15.75238127532411 a41.97152394662278,41.97152394662278 0 0,0 -0.5452710951553996,0.4709921851152033 l -13.571945432152297 -15.987717592904032" fill="red" stroke="none" /><path d="M 113.31354834802062 116.24036423190432 l 11.093878308660598 13.53272769718504 a38.49882438489881,38.49882438489881 0 0,0 -0.5146912042042266,0.41459880102823743 l -10.859936334101118 -13.721174792006682" fill="red" stroke="none" /><path d="M 113.03279911837588 116.46651593811092 l 25.976106078334794 32.81996145754018 a62.85579956311103,62.85579956311103 0 0,0 -0.851815975126791,0.6623772544214609 l -25.408880158572774 -33.26103976358244" fill="red" stroke="none" /><path d="M 112.16784306229584 117.11559508785304 l 3.1989579231807865 4.499734935429957 a26.520955196649396,26.520955196649396 0 0,0 -0.37332021632811346,0.2606065045061282 l -3.1212426156789146 -4.553986255741207" fill="red" stroke="none" /><path d="M 111.5731344415666 117.5232005979908 l 11.62086886033368 17.59547659199288 a42.0866163612952,42.0866163612952 0 0,0 -0.6062764828085243,0.3929810913318279 l -11.317106745268145 -17.792371525028603" fill="red" stroke="none" /><path d="M 110.96478420261333 117.91015095944535 l 6.648637816159411 10.860050208166548 a33.73361988337815,33.73361988337815 0 0,0 -0.49647413850928246,0.29811845531418957 l -6.461230921092692 -10.972582664016661" fill="red" stroke="none" /><line stroke="#e1ed5e" stroke-width="0.3" x1="143.1302829299769" x2="145.66735839644613" y1="173.24464959558577" y2="177.55315839532614" /><path d="M 143.63769802327073 174.10635135553383 a86.0,86.0 0 0,1 -40.68552437913181,11.842963189579606" fill="none" id="id6" stroke="none" /><text fill="#e1ed5e" style="font-size:6.75px; font-family:Arial;" text-anchor="middle"><textPath startOffset="21.407464694133747" xlink:href="#id6">June</textPath></text><path d="M 110.02825361518725 118.45085714620011 l 4.0834525118707825 7.51309269300056 a29.55109035330128,29.55109035330128 0 0,0 -0.44778511695821666,0.23842035318323593 l -3.953878579126012 -7.5820835139063645" fill="red" stroke="none" /><path d="M 109.71004243097381 118.62028667847754 l 9.920376625416662 19.0236302299248 a42.45489173859943,42.45489173859943 0 0,0 -0.6491004782076761,0.3314353291968558 l -9.592348925495402 -19.191123510794494" fill="red" stroke="none" /><path d="M 109.3889696526874 118.78422872680471 l 16.628404801518023 33.26794852981639 a58.19220678617578,58.19220678617578 0 0,0 -0.8973785590726323,0.4389528214554766 l -16.05486599318332 -33.548495101369085" fill="red" stroke="none" /><path d="M 107.407793817531 119.65005319985036 l 6.2657309841002125 16.62059584894822 a38.762420756732126,38.762420756732126 0 0,0 -0.6246487472488284,0.22937967227646655 l -5.979493085197258 -16.72570637023341" fill="red" stroke="none" /><path d="M 107.06938296918513 119.77432235084164 l 7.11802636528899 19.910386587139257 a42.14449794595001,42.14449794595001 0 0,0 -0.6833313471741148,0.2376981140632447 l -6.775189246069853 -20.029643133771092" fill="red" stroke="none" /><path d="M 105.3480935250658 120.30758222061773 l 5.397679872030041 20.495869656743658 a42.1947073814937,42.1947073814937 0 0,0 -0.7020289244284359,0.17845300732695163 l -5.045045654376208 -20.585507895905877" fill="red" stroke="none" /><path d="M 104.9986988182912 120.39639698878246 l 8.86953141601459 36.19071491235673 a58.26172880325267,58.26172880325267 0 0,0 -0.9734365383137388,0.22972837251176767 l -8.246962723960971 -36.33763942851473" fill="red" stroke="none" /><path d="M 104.64783097203109 120.47920084513623 l 4.7415303543179945 20.892057612188662 a42.423355978275886,42.423355978275886 0 0,0 -0.7115762089854302,0.15508472283459165 l -4.382191728713428 -20.970373793156973" fill="red" stroke="none" /><path d="M 103.94208987418118 120.62667999033965 l 3.995801472319032 20.907721768157927 a42.286128322005666,42.286128322005666 0 0,0 -0.7141629032580156,0.1301442709916147 l -3.6363038355099593 -20.973234213080904" fill="red" stroke="none" /><path d="M 102.875027216393 120.80226474461374 l 2.8882695047633855 20.89807934662334 a42.096725364613135,42.096725364613135 0 0,0 -0.7166910925534443,0.0927900105865857 l -2.529100590319166 -20.944580953410323" fill="red" stroke="none" /><path d="M 102.51750503828377 120.84855314841334 l 2.5765100918861146 21.337199636641298 a42.4921960857302,42.4921960857302 0 0,0 -0.7249251580788655,0.08122937601191946 l -2.20984903220645 -21.37828477316019" fill="red" stroke="none" /><path d="M 102.15924093988457 120.88869738790638 l 2.1675926517927673 20.969492624555937 a42.08122574319178,42.08122574319178 0 0,0 -0.7191890615488221,0.0681079518667219 l -1.8073040268589298 -21.00361233192784" fill="red" stroke="none" /><path d="M 101.80034050326958 120.92268563240118 l 1.9569657710187982 22.742908658687703 a43.82694918920072,43.82694918920072 0 0,0 -0.7501316382385275,0.058064932963708904 l -1.5662651380050348 -22.773151358646466" fill="red" stroke="none" /><path d="M 101.44090949804482 120.95050786540614 l 1.4497626513922752 21.07923077207811 a42.12902699340167,42.12902699340167 0 0,0 -0.7219223001304488,0.043429052884634264 l -1.0876959991293613 -21.101011802787433" fill="red" stroke="none" /><line stroke="#e1ed5e" stroke-width="0.3" x1="101.45913802915013" x2="101.54496967792366" y1="184.9874750549273" y2="189.98673829345242" /><path d="M 101.47630435890484 185.9873277026323 a86.0,86.0 0 0,1 -42.54439059252881,-10.42667462771756" fill="none" id="id7" stroke="none" /><text fill="#e1ed5e" style="font-size:6.75px; font-family:Arial;" text-anchor="middle"><textPath startOffset="22.145653131862474" xlink:href="#id7">July</textPath></text><path d="M 100.36049292484886 120.99690560180557 l 0.36203695340238057 21.086837524321012 a42.08994517614357,42.08994517614357 0 0,0 -0.7225298782512303,0.006202050016996336 l -2.582773385415739e-15 -21.089945176143573" fill="red" stroke="none" /><path d="M 100.0 121.0 l 2.5877368293368215e-15 21.130474771489254 a42.130474771489254,42.130474771489254 0 0,0 -0.723225622649759,-0.0062080221458848525 l 0.3627326978009042 -21.127361147537805" fill="red" stroke="none" /><path d="M 99.63950707515114 120.99690560180557 l -0.36458584844041736 21.235297881830434 a42.23842741285134,42.23842741285134 0 0,0 -0.7248650892467112,-0.018669953425504326 l 0.7290642517578725 -21.22591021105488" fill="red" stroke="none" /><path d="M 97.84075906011543 120.88869738790638 l -2.1878244064862553 21.165216498447073 a42.27799250539752,42.27799250539752 0 0,0 -0.7212708031940194,-0.08081989792481759 l 2.550831111281074 -21.124540840015282" fill="red" stroke="none" /><path d="M 97.48249496171623 120.84855314841334 l -2.7439150593550625 22.72355291439441 a43.88862003062304,43.88862003062304 0 0,0 -0.7471978584550322,-0.09673972219927726 l 3.133590739700889 -22.673101595994734" fill="red" stroke="none" /><path d="M 97.12497278360702 120.80226474461374 l -2.890627273727931 20.915138988329602 a42.11394716619242,42.11394716619242 0 0,0 -0.7152851265688199,-0.10512228140949424 l 3.2492375059044356 -20.862435633621228" fill="red" stroke="none" /><path d="M 95.35216902796893 120.47920084513623 l -8.253617876163096 36.36696325707532 a58.291798355498834,58.291798355498834 0 0,0 -0.9739389401725057,-0.2298469379824666 l 8.87668897007549 -36.21992017544663" fill="red" stroke="none" /><path d="M 95.00130118170881 120.39639698878247 l -5.013769619319999 20.457890999903473 a42.06331384088334,42.06331384088334 0 0,0 -0.6998428193049668,-0.1778973079532679 l 5.364217731850344 -20.36880846011494" fill="red" stroke="none" /><path d="M 94.30408787586889 120.21278271476187 l -6.713260309215251 23.82299252176444 a45.75081486883471,45.75081486883471 0 0,0 -0.7541041186776117,-0.21950871851587186 l 7.121224440274469 -23.704240108946056" fill="red" stroke="none" /><path d="M 92.93061703081489 119.77432235084164 l -7.128764494361346 19.940423045292338 a42.17639616273961,42.17639616273961 0 0,0 -0.6796642859811751,-0.2495821401435976 l 7.470017931996639 -19.81511005614002" fill="red" stroke="none" /><path d="M 92.25597844496254 119.51999308798841 l -13.738104350942653 34.62899735835857 a58.2545697761039,58.2545697761039 0 0,0 -0.9263739853333369,-0.3767482351469415 l 14.33053279746643 -34.388061866632334" fill="red" stroke="none" /><path d="M 91.92203290615298 119.3841803445677 l -8.100528107175696 19.438318563508002 a42.05865105346407,42.05865105346407 0 0,0 -0.6640558797607086,-0.2834459678663992 l 8.433019062106837 -19.2963979459822" fill="red" stroke="none" /><path d="M 90.6110303473126 118.78422872680471 l -9.811297706271159 19.62916774031967 a42.944607284221064,42.944607284221064 0 0,0 -0.6565878272935232,-0.3352584229895637 l 10.146812755278264 -19.45785136565727" fill="red" stroke="none" /><path d="M 90.28995756902619 118.62028667847754 l -17.219203385095007 33.020092927989865 a58.24013295076098,58.24013295076098 0 0,0 -0.8825076988099871,-0.4698856421725042 l 17.783499899691556 -32.71963681809479" fill="red" stroke="none" /><line stroke="#e1ed5e" stroke-width="0.3" x1="58.13341422392154" x2="55.67067388415222" y1="173.97424548756322" y2="178.32567169271397" /><path d="M 57.64086615596768 174.84453072859336 a86.0,86.0 0 0,1 -31.369924170532247,-30.572349798747897" fill="none" id="id8" stroke="none" /><text fill="#e1ed5e" style="font-size:6.75px; font-family:Arial;" text-anchor="middle"><textPath startOffset="22.145653131862474" xlink:href="#id8">August</textPath></text><path d="M 89.65649057296885 118.27599006163327 l -10.361007449240677 18.306907390249396 a42.03552551181902,42.03552551181902 0 0,0 -0.6249432229636297,-0.36081113800628667 l 10.673743140064706 -18.126349354966937" fill="red" stroke="none" /><path d="M 89.03521579738668 117.91015095944536 l -11.017259291802826 17.995865073980358 a42.10050146474538,42.10050146474538 0 0,0 -0.6131354068504945,-0.38264184117332767 l 11.324558827443033 -17.80408743596548" fill="red" stroke="none" /><path d="M 88.4268655584334 117.5232005979908 l -11.630046740324568 17.609373072065473 a42.10327005876859,42.10327005876859 0 0,0 -0.5996783027538993,-0.4034903248851538 l 11.930621331175471 -17.407133073123198" fill="red" stroke="none" /><path d="M 88.1277618465304 117.32195027204791 l -11.906703257038805 17.372235888157494 a42.060962993295576,42.060962993295576 0 0,0 -0.5920679586084174,-0.4133094174235791 l 12.203166306820988 -17.165281654928787" fill="red" stroke="none" /><path d="M 87.83215693770417 117.11559508785305 l -12.197373691809224 17.15713361648569 a42.05096574771768,42.05096574771768 0 0,0 -0.5847466919260947,-0.4233115105754841 l 12.490101394109272 -16.94522133453714" fill="red" stroke="none" /><path d="M 87.54013794807813 116.9041958592261 l -12.631791129642721 17.137450673089884 a42.28977131665602,42.28977131665602 0 0,0 -0.580672817085951,-0.43574770734668533 l 12.92411693563944 -16.918083938479185" fill="red" stroke="none" /><path d="M 87.2517909369889 116.68781488649013 l -12.785161169526535 16.736186380097376 a42.06087084334658,42.06087084334658 0 0,0 -0.570005026761834,-0.44323935645458284 l 13.070576140923597 -16.514245972022" fill="red" stroke="none" /><path d="M 86.96720088162412 116.46651593811092 l -4.0224856138099145 5.082279168811211 a27.481508471261925,27.481508471261925 0 0,0 -0.3674005872753396,-0.29595190618603456 l 4.109136971440516 -5.012478968831766" fill="red" stroke="none" /><path d="M 86.40962598614128 116.0094264158162 l -27.258447761709494 32.11038292290183 a63.120062509844765,63.120062509844765 0 0,0 -0.8200213472064992,-0.7083149090304012 l 27.805648588678856 -31.637723881406703" fill="red" stroke="none" /><path d="M 85.86807049272751 115.53346607816431 l -14.391340856070777 15.818604592673264 a42.385484397014615,42.385484397014615 0 0,0 -0.5339970142803062,-0.49425966430532836 l 14.66076764166505 -15.569227182235558" fill="red" stroke="none" /><path d="M 85.60350026404147 115.28858382429668 l -14.412087132439506 15.30513709919494 a42.02273714667483,42.02273714667483 0 0,0 -0.5209368904061509,-0.4990457569398905 l 14.67269650871097 -15.055479211949468" fill="red" stroke="none" /><path d="M 85.34317274990678 115.03919595460226 l -14.869246161761708 15.257156471058893 a42.30434943858741,42.30434943858741 0 0,0 -0.5157264414249457,-0.511318549608832 l 15.128964523316618 -14.999657911221403" fill="red" stroke="none" /><path d="M 84.83555147118756 114.52719865689866 l -15.27103465374662 14.629305753509918 a42.1476023753429,42.1476023753429 0 0,0 -0.49602543090809736,-0.526761818393935 l 15.519915918390971 -14.365002475171494" fill="red" stroke="none" /><path d="M 84.58840730492382 114.26474011684316 l -13.998959938432709 12.957228326676463 a40.07513159240247,40.07513159240247 0 0,0 -0.46296757444671693,-0.5088824642988234 l 14.219325213721305 -12.715008286819964" fill="red" stroke="none" /><path d="M 84.1078160697243 113.72728997021213 l -16.474397970041675 14.230192591001094 a42.76934012900473,42.76934012900473 0 0,0 -0.4751580746338206,-0.5597350171506553 l 16.71625060818261 -13.945290791400884" fill="red" stroke="none" /><path d="M 83.8745106332314 113.45245675266167 l -16.200417021110308 13.514964066807904 a42.0975772396972,42.0975772396972 0 0,0 -0.4581683419276312,-0.5588908800213781 l 16.43003218227657 -13.23487090508803" fill="red" stroke="none" /><path d="M 83.64595745247003 113.17365903436017 l -16.40253895796128 13.21272430972287 a42.06227357034798,42.06227357034798 0 0,0 -0.44813060005833616,-0.5661983739020008 l 16.626935988661177 -12.929205991906187" fill="red" stroke="none" /><path d="M 83.20337586046588 112.60449989151573 l -16.79300003022632 12.601780292327375 a41.995468952878184,41.995468952878184 0 0,0 -0.42774980931669504,-0.5803247680676141 l 17.006851859126847 -12.311649214990881" fill="red" stroke="none" /><path d="M 82.98947788004972 112.3143062007846 l -30.615969989918522 22.16360123642054 a58.79633366069589,58.79633366069589 0 0,0 -0.5848412554054295,-0.8226524674047146 l 30.991926343853912 -21.63477154230632" fill="red" stroke="none" /><path d="M 82.78059297857968 112.02048342749411 l -6.465695896265327 4.51355788684199 a28.88526652820663,28.88526652820663 0 0,0 -0.28033875110825124,-0.4090226158920167 l 6.542224384188903 -4.401900535879922" fill="red" stroke="none" /><path d="M 82.576782715395 111.72311816256416 l -21.952750740692462 14.770790418475237 a47.45939369429113,47.45939369429113 0 0,0 -0.44900103193787694,-0.6798447897652884 l 22.203076211551064 -14.391765750370887" fill="red" stroke="none" /><path d="M 82.37810715431573 111.42229804090323 l -17.725198187455376 11.489259315339522 a42.1231089188994,42.1231089188994 0 0,0 -0.38809887378679614,-0.6101558911023842 l 17.919814752868064 -11.183289749558465" fill="red" stroke="none" /><path d="M 81.99639281039703 110.81064883170644 l -29.10492653910165 17.476672134267996 a54.94894428012752,54.94894428012752 0 0,0 -0.4786479290214153,-0.8128488259106642 l 29.400648178252837 -16.974472140063774" fill="red" stroke="none" /><line stroke="#e1ed5e" stroke-width="0.3" x1="26.387840678322732" x2="22.057713659400548" y1="142.50000000000003" y2="145.00000000000006" /><path d="M 25.521815274538298 143.00000000000003 a86.0,86.0 0 0,1 -11.493303480769221,-40.785679425670985" fill="none" id="id9" stroke="none" /><text fill="#e1ed5e" style="font-size:6.75px; font-family:Arial;" text-anchor="middle"><textPath startOffset="21.40746469413373" xlink:href="#id9">September</textPath></text><path d="M 81.63589988554817 110.18625677009913 l -18.478002626753263 10.249436573619628 a42.13025156383502,42.13025156383502 0 0,0 -0.34537708231382047,-0.6354549308259269 l 18.651225058682414 -9.930726809319115" fill="red" stroke="none" /><path d="M 81.4637452351635 109.86951160357371 l -18.646111559063034 9.928004158790806 a42.12445840370805,42.12445840370805 0 0,0 -0.33437177689040576,-0.6412019707587321 l 18.813791404928388 -9.60645594492757" fill="red" stroke="none" /><path d="M 81.1358732173502 109.22738970284198 l -18.866104859250594 9.228357279230098 a42.002202042484925,42.002202042484925 0 0,0 -0.3112578023413907,-0.6504090947596011 l 19.021741919551896 -8.903135682405392" fill="red" stroke="none" /><path d="M 80.28708602549918 107.23885506374661 l -19.743997701776017 7.2502694389565425 a42.03311323093193,42.03311323093193 0 0,0 -0.2429110225823609,-0.6794653626849512 l 19.865548894402323 -6.910269119890669" fill="red" stroke="none" /><path d="M 80.16572619554312 106.89939002012753 l -20.066759430092798 6.980260588979669 a42.24614957857732,42.24614957857732 0 0,0 -0.23238315041714624,-0.6869994924284883 l 20.183628002082312 -6.634759422077019" fill="red" stroke="none" /><path d="M 80.05021161711548 106.5578916946017 l -24.0063095209266 7.891350765423974 a46.27006754477496,46.27006754477496 0 0,0 -0.24156342887033422,-0.7566940003841257 l 24.13823766557419 -7.478087731348457" fill="red" stroke="none" /><path d="M 79.48165901384964 104.47187691870673 l -24.86882372343631 5.420044382695795 a46.45260840263215,46.45260840263215 0 0,0 -0.16312008008520706,-0.7805886333414314 l 24.958201514345884 -4.992339298068955" fill="red" stroke="none" /><path d="M 79.407916724674 104.11899336999214 l -21.63444044401827 4.327493996645674 a43.06300563424616,43.06300563424616 0 0,0 -0.13877301222589547,-0.7261190398591661 l 21.705539748526324 -3.9554723917531933" fill="red" stroke="none" /><path d="M 79.34024301695615 103.76489593502545 l -41.872172048493255 7.630504582674556 a63.5617597409322,63.5617597409322 0 0,0 -0.18640297972190775,-1.0751228523717382 l 41.9969898457074 -6.910588697382225" fill="red" stroke="none" /><path d="M 79.13060592940153 102.33845913500099 l -27.422047188590014 3.072697584398405 a48.5936612731697,48.5936612731697 0 0,0 -0.08577384590251037,-0.8297841513463668 l 27.47075342697419 -2.6015089107691067" fill="red" stroke="none" /><path d="M 79.0935383218832 101.97986365728391 l -23.693400141502764 2.243789627335559 a44.79940760096986,44.79940760096986 0 0,0 -0.0659327330587273,-0.7662383000146267 l 23.728426497259232 -1.8367302799452705" fill="red" stroke="none" /><path d="M 79.06263194458094 101.62068470465958 l -21.875199276810484 1.6932787724544474 a42.9406366453076,42.9406366453076 0 0,0 -0.05058005979310072,-0.7354229685944693 l 21.90104329776865 -1.3175123797056347" fill="red" stroke="none" /><line stroke="#e1ed5e" stroke-width="0.3" x1="15.003131293944662" x2="10.003315487706104" y1="100.72959589197737" y2="100.7725132973878" /><path d="M 14.003168132696942 100.73817937305945 a86.0,86.0 0 0,1 10.791469493833604,-42.45332614584628" fill="none" id="id10" stroke="none" /><text fill="#e1ed5e" style="font-size:6.75px; font-family:Arial;" text-anchor="middle"><textPath startOffset="22.145653131862435" xlink:href="#id10">October</textPath></text><path d="M 79.00077361379809 100.18025310272382 l -42.02384563250288 0.3607241726115616 a63.025393795574814,63.025393795574814 0 0,0 0.0,-1.0819545506707429 l 42.02384563250288 0.36072417261154616" fill="red" stroke="none" /><path d="M 79.06263194458094 98.37931529534042 l -24.590556027322204 -1.9034645580603766 a45.664116101264696,45.664116101264696 0 0,0 0.06720535244760713,-0.7810280663698843 l 24.554257052176855 2.3253136718059415" fill="red" stroke="none" /><path d="M 79.17382384314186 97.30363454192245 l -20.88714021539849 -2.7042584759985777 a42.06147288968003,42.06147288968003 0 0,0 0.09885544423191313,-0.7152687496776502 l 20.83764025461137 3.062415533876295" fill="red" stroke="none" /><path d="M 79.2786578344484 96.59031103205396 l -24.902628869153634 -4.097718103857553 a46.237516087235804,46.237516087235804 0 0,0 0.1355974222351509,-0.782089897839635 l 24.82861662942625 4.52460103461778" fill="red" stroke="none" /><path d="M 79.34024301695615 96.23510406497455 l -36.399616040021826 -6.633222577498814 a57.99907687529047,57.99907687529047 0 0,0 0.18690536077918973,-0.9779678262845695 l 36.28038438696047 7.257092968816698" fill="red" stroke="none" /><path d="M 79.48165901384962 95.52812308129327 l -20.76144389296732 -4.524860065765203 a42.248809640438374,42.248809640438374 0 0,0 0.1605236248297587,-0.7072967095964175 l 20.680709406579904 4.880591109300629" fill="red" stroke="none" /><path d="M 79.56144815229197 95.17655741523228 l -41.22457352096575 -9.728887102253871 a63.35701484091994,63.35701484091994 0 0,0 0.2588962931449021,-1.0563852246078649 l 41.05148970130455 10.435128151469854" fill="red" stroke="none" /><path d="M 79.73907114497095 94.47779374421319 l -21.29200185032182 -5.803229785631807 a43.06868411888104,43.06868411888104 0 0,0 0.20053908940512802,-0.711642481770279 l 21.189244268842113 6.167880191305099" fill="red" stroke="none" /><path d="M 79.83685265289637 94.1308016681162 l -41.15540341609518 -11.979738129149183 a63.86352010724889,63.86352010724889 0 0,0 0.3154361582402879,-1.049984380731465 l 40.943690937851265 12.684460113471372" fill="red" stroke="none" /><path d="M 80.16572619554312 93.10060997987247 l -20.17174447414435 -7.016779837041527 a42.35730494261122,42.35730494261122 0 0,0 0.2447845392967686,-0.6847059223776252 l 20.04831976480364 7.362020715800074" fill="red" stroke="none" /><path d="M 80.28708602549916 92.7611449362534 l -25.705643349471583 -9.439468298186918 a48.38400375698755,48.38400375698755 0 0,0 0.2929981272426604,-0.7772123427827412 l 25.539814538414486 9.879348921163805" fill="red" stroke="none" /><path d="M 80.41425534168474 92.42381321644754 l -40.125408598946834 -15.521370038025013 a64.02280027020251,64.02280027020251 0 0,0 0.40529885239521146,-1.021617868842039 l 39.85305107158549 16.207888924080635" fill="red" stroke="none" /><path d="M 80.68587082218212 91.75594674310238 l -39.467547378636844 -16.846349090504145 a63.91254797566877,63.91254797566877 0 0,0 0.4393717353167141,-1.0053685149349063 l 39.17254176130315 17.52137967521492" fill="red" stroke="none" /><path d="M 80.9802524753101 91.09779779509293 l -38.0071470280657 -17.789263902491797 a62.964284044953054,62.964284044953054 0 0,0 0.4665975526237576,-0.9750094279924493 l 37.69617021748204 18.43908583254933" fill="red" stroke="none" /><path d="M 81.1358732173502 90.77261029715801 l -21.150119273344025 -10.34558318258507 a44.54482186520988,44.54482186520988 0 0,0 0.34189229781913966,-0.6840136202090349 l 20.96940706231314 10.707128658957876" fill="red" stroke="none" /><path d="M 81.46374523516351 90.13048839642627 l -37.715886231871906 -20.081585062731513 a63.72889107954039,63.72889107954039 0 0,0 0.5224392839618893,-0.9612294389269928 l 37.36560159829467 20.726069335133126" fill="red" stroke="none" /><line stroke="#e1ed5e" stroke-width="0.3" x1="26.387840678322718" x2="22.05771365940052" y1="57.49999999999999" y2="54.99999999999999" /><path d="M 25.521815274538284 56.99999999999999 a86.0,86.0 0 0,1 29.574782752854787,-30.34633250058573" fill="none" id="id11" stroke="none" /><text fill="#e1ed5e" style="font-size:6.75px; font-family:Arial;" text-anchor="middle"><textPath startOffset="21.40746469413373" xlink:href="#id11">November</textPath></text><path d="M 81.81346652052679 89.5 l -36.9132255073381 -21.311860683319015 a63.62372136663802,63.62372136663802 0 0,0 0.5542119665397989,-0.9411730814933977 l 36.54193983066852 21.942384933105988" fill="red" stroke="none" /><path d="M 82.18462484594161 88.88188828441811 l -19.687797559698165 -12.286641780463475 a44.207131209890804,44.207131209890804 0 0,0 0.40729989490889706,-0.6403430855111657 l 19.473979973163377 12.622798540653314" fill="red" stroke="none" /><path d="M 82.37810715431573 88.57770195909679 l -35.42026997001046 -22.958991058999555 a63.21031621766942,63.21031621766942 0 0,0 0.5980164305020769,-0.9054730959440828 l 35.02092910058765 23.5636440332827" fill="red" stroke="none" /><path d="M 82.78059297857968 87.97951657250589 l -17.23268101702065 -12.029749707333602 a42.01618835696608,42.01618835696608 0 0,0 0.41793082690909455,-0.587872046958997 l 17.023635091581582 12.32379898100212" fill="red" stroke="none" /><path d="M 83.8745106332314 86.54754324733833 l -24.75150681016912 -20.648587298887957 a53.23354226289201,53.23354226289201 0 0,0 0.5914130863669755,-0.6966831286532438 l 24.39339916029503 21.070437209990757" fill="red" stroke="none" /><path d="M 84.10781606972428 86.27271002978789 l -18.038924312962667 -15.581593183237958 a44.83671194810063,44.83671194810063 0 0,0 0.50812577962493,-0.5781538618503349 l 17.768787469379145 15.888959322899593" fill="red" stroke="none" /><path d="M 84.34580500576568 86.00192230759919 l -31.698696240858826 -28.345169642436744 a63.52359327983414,63.52359327983414 0 0,0 0.7338557038320934,-0.8066359711090404 l 31.207442836184867 28.88514318910344" fill="red" stroke="none" /><path d="M 84.58840730492382 85.73525988315684 l -31.046612620690343 -28.73628114269741 a63.30444431890526,63.30444431890526 0 0,0 0.7450154339040218,-0.7911805730935172 l 30.54874135305005 29.265003175735437" fill="red" stroke="none" /><path d="M 85.60350026404147 84.71141617570332 l -31.930924415878486 -33.90953519764965 a67.57725315401484,67.57725315401484 0 0,0 0.8513775867110752,-0.7880223839304219 l 31.344117057853456 34.45267532771244" fill="red" stroke="none" /><path d="M 86.13680546590413 84.22622945171909 l -19.982445703437826 -22.73635508354832 a51.26945620218564,51.26945620218564 0 0,0 0.666064748255054,-0.5753308656851703 l 19.589201475419923 23.076030081698203" fill="red" stroke="none" /><path d="M 86.40962598614128 83.9905735841838 l -30.852529152231728 -36.34420176374792 a68.67367782050516,68.67367782050516 0 0,0 0.9052684089624706,-0.7552071037431666 l 30.224086409107347 36.86847105140296" fill="red" stroke="none" /><path d="M 87.54013794807813 83.09580414077388 l -24.982511289530656 -33.893574594464674 a63.10582227105971,63.10582227105971 0 0,0 0.8775284980530863,-0.6352629595223604 l 24.3970017811036 34.317438325360115" fill="red" stroke="none" /><path d="M 87.83215693770416 82.88440491214696 l -17.121751413603064 -24.08388757890608 a50.54975486163303,50.54975486163303 0 0,0 0.7115597941457876,-0.49672399883228463 l 16.70579652828351 24.37425639354349" fill="red" stroke="none" /><path d="M 88.12776184653039 82.6780497279521 l -24.12724267310051 -35.20236811143659 a63.67704956601112,63.67704956601112 0 0,0 0.9069543756298057,-0.610239380011492 l 23.519392009373718 35.61135716550519" fill="red" stroke="none" /><path d="M 88.4268655584334 82.4767994020092 l -23.248456047659882 -35.201125587336605 a63.18542344478027,63.18542344478027 0 0,0 0.9102142106652281,-0.5899898544570901 l 22.640756204737627 35.595029283497595" fill="red" stroke="none" /><line stroke="#e1ed5e" stroke-width="0.3" x1="56.869717070023135" x2="54.33264160355391" y1="26.7553504044142" y2="22.446841604673864" /><path d="M 56.362301976729285 25.89364864446614 a86.0,86.0 0 0,1 42.16139366436587,-11.88097634709845" fill="none" id="id12" stroke="none" /><text fill="#e1ed5e" style="font-size:6.75px; font-family:Arial;" text-anchor="middle"><textPath startOffset="22.145653131862474" xlink:href="#id12">December</textPath></text><path d="M 89.65649057296885 81.72400993836675 l -10.370188993837095 -18.323130299792638 a42.054166422612866,42.054166422612866 0 0,0 0.6313247798561519,-0.35018521315293305 l 10.05412002582484 18.498448428378715" fill="red" stroke="none" /><path d="M 89.97174638481275 81.54914285379989 l -20.289035681270814 -37.329540451824165 a63.48693398234634,63.48693398234634 0 0,0 0.9620120211715618,-0.51221721573127 l 19.64523484431269 37.67232813527801" fill="red" stroke="none" /><path d="M 90.93487009805054 81.0573650232925 l -8.60819217444526 -17.987810867972232 a40.9414721706829,40.9414721706829 0 0,0 0.6365644159258543,-0.29794428867492884 l 8.298139044647883 18.132931388217706" fill="red" stroke="none" /><path d="M 91.26138138417902 80.90454125486306 l -26.215855847462933 -57.286376235410835 a84.0,84.0 0 0,0 1.3163463885775248,-0.5887849963606175 l 25.22859605602979 57.7279649826813" fill="red" stroke="none" /><path d="M 92.25597844496254 80.48000691201159 l -9.734752363871936 -24.537935167865058 a47.39840271471475,47.39840271471475 0 0,0 0.7588884621994807,-0.29355435995971435 l 9.312091639178925 24.701429415962814" fill="red" stroke="none" /><path d="M 92.592206182469 80.34994680014964 l -7.81871939322069 -20.740082110262573 a43.164913238954014,43.164913238954014 0 0,0 0.6955940432366873,-0.25543176765795217 l 7.461536198329877 20.87124472692925" fill="red" stroke="none" /><path d="M 94.30408787586887 79.78721728523814 l -10.060410722589848 -35.70084852529013 a58.091271875374005,58.091271875374005 0 0,0 0.9621535619816832,-0.2622392318249471 l 9.446075759673487 35.86828825125921" fill="red" stroke="none" /></svg>