<?xml version="1.0" encoding="utf-8" ?>
<svg baseProfile="full" height="200mm" version="1.1" viewBox="0,0,200,200" width="200mm" xmlns="http://www.w3.org/2000/svg" xmlns:ev="http://www.w3.org/2001/xml-events" xmlns:xlink="http://www.w3.org/1999/xlink"><defs /><rect fill="#1a1a1a" height="200" width="200" x="0" y="0" /><text alignment-baseline="middle" fill="#e1ed5e" style="dominant-baseline: central; font-size:9.0px; font-family:Arial;" text-anchor="middle" x="100.0" y="100.0">2025</text><line stroke="#e1ed5e" stroke-width="0.3" x1="100.0" x2="100.0" y1="15.0" y2="10.0" /><path d="M 100.0 14.0 a86.0,86.0 0 0,1 42.46469731375804,11.215312516191453" fill="none" id="id13" stroke="none" /><text fill="#e1ed5e" style="font-size:6.75px; font-family:Arial;" text-anchor="middle"><textPath startOffset="22.20632615414155" xlink:href="#id13">January</textPath></text><path d="M 101.80526077348638 79.07773832637324 l 2.876862911230703 -33.34170858411703 a54.46559235271651,54.46559235271651 0 0,0 0.9333713393280201,0.0886348553005886 l -3.4503593776489674 33.28724818430126" fill="red" stroke="none" /><path d="M 102.52436894288641 79.15227682838746 l 7.4828725591480465 -61.797961855449046 a83.2493491630554,83.2493491630554 0 0,0 1.4211269302982394,0.18450306216870815 l -8.545514217954132 61.6600004701162" fill="red" stroke="none" /><path d="M 103.95276090670814 79.375362276772 l 11.858282720124386 -61.87391316968404 a84.0,84.0 0 0,0 1.4177343621314986,0.2843841756911667 l -12.921583491723009 61.66062503791566" fill="red" stroke="none" /><path d="M 104.307194497241 79.44645832069477 l 7.44245962912932 -35.51474266644819 a57.28618403738888,57.28618403738888 0 0,0 0.9633825094420908,0.2105581025372489 l -8.052684862724938 35.381371065815074" fill="red" stroke="none" /><path d="M 105.01212808612495 79.60689891045804 l 14.944258997465584 -60.80446852251792 a83.61401016776679,83.61401016776679 0 0,0 1.3947259306270783,0.355546694585114 l -15.988693816777687 60.538218831763935" fill="red" stroke="none" /><path d="M 106.0581310904928 79.89281104454417 l 18.05696082518163 -59.931803694868016 a83.59293033851618,83.59293033851618 0 0,0 1.374166775753798,0.4269603063278143 l -19.085912973646145 59.612103253657686" fill="red" stroke="none" /><path d="M 107.08798089147638 80.2323363322302 l 21.155611739203884 -59.00086695343742 a83.67904122844546,83.67904122844546 0 0,0 1.3516861784330454,0.4978374268658002 l -22.168080243409506 58.6279662587653" fill="red" stroke="none" /><line stroke="#e1ed5e" stroke-width="0.3" x1="143.23703022742887" x2="145.7803849466894" y1="26.81831364943548" y2="22.513508569990506" /><path d="M 143.74570117128098 25.957352633546492 a86.0,86.0 0 0,1 28.547481713284135,27.462654790039103" fill="none" id="id14" stroke="none" /><text fill="#e1ed5e" style="font-size:6.75px; font-family:Arial;" text-anchor="middle"><textPath startOffset="19.985693538727396" xlink:href="#id14">February</textPath></text><path d="M 113.6212207817346 84.01681056812373 l 20.220508274557904 -23.726817099570116 a52.17420094497881,52.17420094497881 0 0,0 0.6785284680344557,0.5884132011489261 l -20.625930541239125 23.37523890500152" fill="red" stroke="none" /><path d="M 113.89432698308785 84.25364557470407 l 22.945530376627996 -26.00402698357127 a55.6800632010246,55.6800632010246 0 0,0 0.7132059624303079,0.6403233549921717 l -23.389747326654295 25.605204619809797" fill="red" stroke="none" /><path d="M 114.42810811169701 84.74124197986012 l 25.22589657588778 -26.678192921252908 a57.71609777197157,57.71609777197157 0 0,0 0.7160005039477413,0.6887919175112713 l -25.681380323447943 26.240017916979333" fill="red" stroke="none" /><path d="M 115.19652480421416 85.50635884689758 l 45.34714058777464 -43.2497029068271 a83.66498193581648,83.66498193581648 0 0,0 0.9849865495849882,1.0507149748961853 l -46.08489445933009 42.462718515052856" fill="red" stroke="none" /><path d="M 115.9244219780498 86.31012108654704 l 47.253407133574534 -40.622725446387086 a83.31444702814828,83.31444702814828 0 0,0 0.9255417254693705,1.0955494720677632 l -47.94565947253102 39.803317024690216" fill="red" stroke="none" /><line stroke="#e1ed5e" stroke-width="0.3" x1="172.23445277983987" x2="176.4835382374775" y1="55.19839476539836" y2="52.563006222186495" /><path d="M 173.08426987136738 54.67131705675599 a86.0,86.0 0 0,1 12.851231095245387,41.99856678651699" fill="none" id="id15" stroke="none" /><text fill="#e1ed5e" style="font-size:6.75px; font-family:Arial;" text-anchor="middle"><textPath startOffset="22.20632615414155" xlink:href="#id15">March</textPath></text><path d="M 118.21658344932153 89.55222093294921 l 47.98693268646023 -27.522003355258555 a76.31913210944047,76.31913210944047 0 0,0 0.6437786226847952,1.145210335007126 l -48.45356895043745 26.691909510316634" fill="red" stroke="none" /><path d="M 118.89224826269711 90.83032412892265 l 49.71775242482826 -24.13136162699673 a76.26461363430859,76.26461363430859 0 0,0 0.5630573068487538,1.1859422857393964 l -50.12576792551877 23.271976925616794" fill="red" stroke="none" /><path d="M 119.34039704204932 91.81776055985345 l 50.916955789718905 -21.541167067513896 a76.28614894820161,76.28614894820161 0 0,0 0.5012301974200545,1.2137686802752934 l -51.28020767402516 20.661523816785298" fill="red" stroke="none" /><path d="M 119.61058180528143 92.48833698450437 l 58.24847350249858 -22.311571806602853 a83.37540301955951,83.37540301955951 0 0,0 0.5018223035000029,1.344634283027594 l -58.623900394500204 21.305614386545926" fill="red" stroke="none" /><path d="M 119.85752413597 93.16781622104841 l 52.262394964224086 -17.981410203950926 a76.26924135827545,76.26924135827545 0 0,0 0.41643988648161445,1.2451022551107946 l -52.56417214447747 17.079134845917817" fill="red" stroke="none" /><path d="M 120.18372546131832 94.20196356495316 l 53.14969073066073 -15.267936732415036 a76.29918188210303,76.29918188210303 0 0,0 0.35175096195956346,1.2654353622818089 l -53.40462846318666 14.350790066714275" fill="red" stroke="none" /><path d="M 120.37134235888165 94.90015583598534 l 53.61462633389123 -13.42210220601937 a76.26916848073266,76.26916848073266 0 0,0 0.30786303993083236,1.2762910558660185 l -53.83772217408288 12.497225918493946" fill="red" stroke="none" /><path d="M 120.53481517161879 95.60439243477599 l 54.05511475662953 -11.570840515364736 a76.27965070063661,76.27965070063661 0 0,0 0.2637848543446824,1.2863086310689087 l -54.24627890688921 10.638656228132415" fill="red" stroke="none" /><path d="M 120.78858239683441 97.02765380044208 l 54.74919052263101 -7.82802527235309 a76.3059837860963,76.3059837860963 0 0,0 0.174718904583971,1.3018587800604489 l -54.87582542627281 6.884448150227977" fill="red" stroke="none" /><line stroke="#e1ed5e" stroke-width="0.3" x1="184.98032266829074" x2="189.97916517819016" y1="98.17113171792111" y2="98.06355123074" /><path d="M 185.9800911702706 98.14961562048488 a86.0,86.0 0 0,1 -9.607161424134198,41.387399972396054" fill="none" id="id16" stroke="none" /><text fill="#e1ed5e" style="font-size:6.75px; font-family:Arial;" text-anchor="middle"><textPath startOffset="21.466115282336823" xlink:href="#id16">April</textPath></text><path d="M 120.99513854157772 99.54816195383933 l 55.286483450268676 -1.1898248069091462 a76.29928512528863,76.29928512528863 0 0,0 0.016956581933481606,1.3133059575570718 l -55.298773039319876 0.23798259129161178" fill="red" stroke="none" /><path d="M 120.99980553446 99.90962569577887 l 55.277839159009886 -0.2378925007017461 a76.2783510511236,76.2783510511236 0 0,0 -0.00565078273726065,1.313042901106342 l -55.27374407898312 -0.7136598786082806" fill="red" stroke="none" /><path d="M 120.92983693683757 101.71520430193887 l 62.01596421216142 5.0822206081486305 a83.22386024246629,83.22386024246629 0 0,0 -0.12929581141860577,1.426768504958121 l -61.91929380446574 -6.148970501655321" fill="red" stroke="none" /><path d="M 120.5718875245553 104.21870165774334 l 32.390036980247295 6.642263746573303 a54.0640917501272,54.0640917501272 0 0,0 -0.19480054632206098,0.9100432999755366 l -32.27090239520079 -7.1988208659650095" fill="red" stroke="none" /><path d="M 120.32669344350535 105.2749913415812 l 52.89741271626929 13.727436528026304 a75.64960005074437,75.64960005074437 0 0,0 -0.33794450022550077,1.2576172037789697 l -52.65328013970201 -14.635944664980823" fill="red" stroke="none" /><path d="M 119.9155931802556 106.66101706037122 l 51.823710652506286 17.33308255815938 a75.6455189083484,75.6455189083484 0 0,0 -0.4236479343656656,1.2313192024689499 l -51.51767188719739 -18.222574463717628" fill="red" stroke="none" /><path d="M 119.67450827220406 107.3425965602758 l 51.25955256248958 19.13024758328295 a75.71296100106753,75.71296100106753 0 0,0 -0.46619614125484593,1.2170910152019838 l -50.92266214164123 -20.00976216531808" fill="red" stroke="none" /><path d="M 119.26925614724726 108.34839909993367 l 50.703685546023344 21.967355643679653 a76.25783602282957,76.25783602282957 0 0,0 -0.5322031299164935,1.1999775604386607 l -50.318041331375575 -22.836881540611003" fill="red" stroke="none" /><path d="M 118.97047184881838 109.00673069616215 l 56.260012072962176 26.710921148519777 a83.27890707978337,83.27890707978337 0 0,0 -0.6259668702490294,1.2896771579755792 l -55.79189194609843 -27.675387262460628" fill="red" stroke="none" /><line stroke="#e1ed5e" stroke-width="0.3" x1="174.80103733775053" x2="179.2010983576182" y1="140.37084112569926" y2="142.7455964860345" /><path d="M 175.68104954172406 140.8457921977663 a86.0,86.0 0 0,1 -30.038265399797805,32.042727171017184" fill="none" id="id17" stroke="none" /><text fill="#e1ed5e" style="font-size:6.75px; font-family:Arial;" text-anchor="middle"><textPath startOffset="22.206326154141568" xlink:href="#id17">May</textPath></text><path d="M 117.35343817320211 111.8261652097733 l 31.229967710627 21.28285783805633 a58.79247174983029,58.79247174983029 0 0,0 -0.5771155615336072,0.8313780097016625 l -30.858991241931257 -21.817277109945014" fill="red" stroke="none" /><path d="M 116.71984013943494 112.70617746262583 l 24.828369458246886 18.868222770865906 a52.184255009318875,52.184255009318875 0 0,0 -0.5496572122197713,0.7105060413319045 l -24.499905428809043 -19.292806806311063" fill="red" stroke="none" /><path d="M 116.27256486870786 113.27417163493432 l 24.253889109515764 19.784851954929803 a52.30002402259744,52.30002402259744 0 0,0 -0.5750611786895964,0.692698234979279 l -23.909731930932622 -20.19941144702285" fill="red" stroke="none" /><path d="M 116.0416608686014 113.55231037782055 l 36.155895191881484 30.545210850791925 a68.33137081308395,68.33137081308395 0 0,0 -0.7667999696857094,0.8919615993119939 l -35.624752712624996 -31.163049549265445" fill="red" stroke="none" /><path d="M 115.56566222782051 114.09645910891815 l 23.089326376935162 20.90998380674132 a52.15035176910235,52.15035176910235 0 0,0 -0.6083055233394417,0.6601955037849928 l -22.7259744456 -21.304330565327646" fill="red" stroke="none" /><path d="M 114.55890576462653 115.13401014063108 l 22.008005625766906 22.877363567025338 a52.74470153272269,52.74470153272269 0 0,0 -0.659721096114214,0.6238074740906011 l -21.610948695261882 -23.25280567786186" fill="red" stroke="none" /><path d="M 113.75828350139079 115.86535959552629 l 20.472257270631793 23.60757599578957 a52.24789532355605,52.24789532355605 0 0,0 -0.6845333228428055,0.5833741483599262 l -20.06285847121194 -23.956474534372443" fill="red" stroke="none" /><path d="M 112.63410532772338 116.77436683061366 l 19.562911034819578 25.97377791782714 a53.5168360619675,53.5168360619675 0 0,0 -0.7406093759644539,0.5478851108689414 l -19.11291668843656 -26.30667297743585" fill="red" stroke="none" /><path d="M 111.7513745106137 117.40417183066458 l 34.84018800568726 51.59946337477192 a83.26028686760175,83.26028686760175 0 0,0 -1.194687191589386,0.7917735262840278 l -33.94682611535791 -52.19153492214726" fill="red" stroke="none" /><line stroke="#e1ed5e" stroke-width="0.3" x1="143.8653032363475" x2="146.44561519142675" y1="172.8068346515853" y2="177.08958963109032" /><path d="M 144.38136562736335 173.6633856474863 a86.0,86.0 0 0,1 -40.68145358897372,12.25698825130547" fill="none" id="id18" stroke="none" /><text fill="#e1ed5e" style="font-size:6.75px; font-family:Arial;" text-anchor="middle"><textPath startOffset="21.466115282336833" xlink:href="#id18">June</textPath></text><path d="M 110.21172684928248 118.3499491758327 l 15.777101769091738 28.350642342643095 a53.44496665852417,53.44496665852417 0 0,0 -0.8077244398979154,0.4404357665069043 l -15.286754517325175 -28.61801876090977" fill="red" stroke="none" /><path d="M 109.89434966115114 118.52300852407294 l 29.345679893181458 54.937443836291 a83.2839599227498,83.2839599227498 0 0,0 -1.2703147636607381,0.6645686455638146 l -28.395674226994224 -55.434441900799534" fill="red" stroke="none" /><path d="M 109.2508944713604 118.85261126421891 l 16.47097971348609 33.56658954877529 a58.38995997133483,58.38995997133483 0 0,0 -0.9061213462205484,0.43499331108939077 l -15.89074569926531 -33.845137136364244" fill="red" stroke="none" /><path d="M 108.2653958097858 119.30500536409082 l 12.7045046127435 29.673174200170067 a53.27850220454567,53.27850220454567 0 0,0 -0.8461857657354008,0.35370571870509515 l -12.191847387510638 -29.887464961895137" fill="red" stroke="none" /><path d="M 106.57524785965236 119.94407469862006 l 19.50356011931172 59.158296114657134 a83.2903913659006,83.2903913659006 0 0,0 -1.3654811383953054,0.4371839400410561 l -18.482357635825473 -59.485252901357896" fill="red" stroke="none" /><path d="M 106.2309692047433 120.05430185196036 l 9.276254263204258 29.855516363043243 a52.26340913047645,52.26340913047645 0 0,0 -0.8614130391012405,0.25953668240229466 l -8.760966249662772 -30.010768414551265" fill="red" stroke="none" /><path d="M 105.88484417918355 120.15858648285463 l 8.73362134227537 29.917098189197723 a52.16582913725136,52.16582913725136 0 0,0 -0.8641364784204929,0.24421360042761064 l -8.21735369575027 -30.063000582963856" fill="red" stroke="none" /><path d="M 105.53697534728816 120.25689768951611 l 8.239622619326234 30.144470930624852 a52.25028813621083,52.25028813621083 0 0,0 -0.869617860450415,0.22967398077869408 l -7.719514316064322 -30.281836260707127" fill="red" stroke="none" /><path d="M 105.18746579009965 120.34920634021253 l 7.695253872830645 30.186668256667605 a52.15207653761493,52.15207653761493 0 0,0 -0.8718007220166842,0.21426740666551514 l -7.17449986607075 -30.31465692164715" fill="red" stroke="none" /><path d="M 104.83641907484287 120.43548508189849 l 7.455098737398302 31.500280822363 a53.3704524075906,53.3704524075906 0 0,0 -0.8958099567363286,0.20388342964636452 l -6.911768631269111 -31.623940985587048" fill="red" stroke="none" /><path d="M 102.70371172650421 120.8252237178851 l 4.21694363180365 32.48082762564635 a53.753423894926776,53.753423894926776 0 0,0 -0.9186014168087563,0.11122983878838719 l -3.657214791943513 -32.54860299316009" fill="red" stroke="none" /><path d="M 102.34483914955558 120.86867818915974 l 3.553609659498253 31.626534556971112 a52.8255530933143,52.8255530933143 0 0,0 -0.904492712315995,0.09375436787912805 l -3.0086843505766554 -31.683018293306" fill="red" stroke="none" /><path d="M 100.90346689309514 120.98055641714683 l 1.609461531159575 37.37535787287006 a58.4099952224722,58.4099952224722 0 0,0 -1.0048734539361903,0.03460987354686288 l -0.9658677255487326 -37.397524544843016" fill="red" stroke="none" /><line stroke="#e1ed5e" stroke-width="0.3" x1="102.19456741930631" x2="102.32365962044197" y1="184.97166512339345" y2="189.96999836594603" /><path d="M 102.22038585953345 185.97133177190398 a86.0,86.0 0 0,1 -42.740103519485714,-10.115201625700543" fill="none" id="id19" stroke="none" /><text fill="#e1ed5e" style="font-size:6.75px; font-family:Arial;" text-anchor="middle"><textPath startOffset="22.20632615414155" xlink:href="#id19">July</textPath></text><path d="M 100.18074693466247 120.99922214144158 l 0.2679930303471296 31.135494425545094 a52.13664775449445,52.13664775449445 0 0,0 -0.8974799300191487,0.0 l 0.2679930303471082 -31.135494425545094" fill="red" stroke="none" /><path d="M 99.81925306533755 120.99922214144158 l -0.2721116245265999 31.613993683345033 a52.6151647369863,52.6151647369863 0 0,0 -0.9055829266135567,-0.015590431335078796 l 0.8162542410328245 -31.604625774730795" fill="red" stroke="none" /><path d="M 99.09653310690486 120.98055641714683 l -2.380106680836659 55.27149127185918 a76.32271373701194,76.32271373701194 0 0,0 -1.3120671576249059,-0.06781888508408528 l 3.331161906875054 -55.222332580012896" fill="red" stroke="none" /><line stroke="#e1ed5e" stroke-width="0.3" x1="58.666819895761336" x2="56.23545636021788" y1="174.27360380694188" y2="178.64263932499728" /><path d="M 58.180547188652646 175.14741091055294 a86.0,86.0 0 0,1 -31.652253787137756,-30.449443065178592" fill="none" id="id20" stroke="none" /><text fill="#e1ed5e" style="font-size:6.75px; font-family:Arial;" text-anchor="middle"><textPath startOffset="22.20632615414155" xlink:href="#id20">August</textPath></text><line stroke="#e1ed5e" stroke-width="0.3" x1="26.63291911575756" x2="22.317208475507996" y1="142.92168965132927" y2="145.44649492493687" /><path d="M 25.769776987707644 143.4266507060508 a86.0,86.0 0 0,1 -11.730757126820373,-40.83630448921669" fill="none" id="id21" stroke="none" /><text fill="#e1ed5e" style="font-size:6.75px; font-family:Arial;" text-anchor="middle"><textPath startOffset="21.46611528233685" xlink:href="#id21">September</textPath></text><line stroke="#e1ed5e" stroke-width="0.3" x1="15.007084014347285" x2="10.007500721073583" y1="101.09737516637583" y2="101.16192664675087" /><path d="M 14.007167355692545 101.11028546245083 a86.0,86.0 0 0,1 10.666146001902534,-42.60595125391555" fill="none" id="id22" stroke="none" /><text fill="#e1ed5e" style="font-size:6.75px; font-family:Arial;" text-anchor="middle"><textPath startOffset="22.20632615414155" xlink:href="#id22">October</textPath></text><line stroke="#e1ed5e" stroke-width="0.3" x1="26.266209847984243" x2="21.928928074336255" y1="57.711370442889674" y2="55.22380399835377" /><path d="M 25.398753493254645 57.213857153982495 a86.0,86.0 0 0,1 29.58750427330803,-30.492523968695096" fill="none" id="id23" stroke="none" /><text fill="#e1ed5e" style="font-size:6.75px; font-family:Arial;" text-anchor="middle"><textPath startOffset="21.46611528233685" xlink:href="#id23">November</textPath></text><line stroke="#e1ed5e" stroke-width="0.3" x1="56.762969772571076" x2="54.21961505331055" y1="26.818313649435495" y2="22.513508569990535" /><path d="M 56.25429882871897 25.957352633546506 a86.0,86.0 0 0,1 42.265352541879196,-11.944610805530505" fill="none" id="id24" stroke="none" /><text fill="#e1ed5e" style="font-size:6.75px; font-family:Arial;" text-anchor="middle"><textPath startOffset="22.20632615414155" xlink:href="#id24">December</textPath></text></svg>