<?xml version="1.0" encoding="utf-8" ?>
<svg baseProfile="full" height="200mm" version="1.1" viewBox="0,0,200,200" width="200mm" xmlns="http://www.w3.org/2000/svg" xmlns:ev="http://www.w3.org/2001/xml-events" xmlns:xlink="http://www.w3.org/1999/xlink"><defs /><rect fill="#1a1a1a" height="200" width="200" x="0" y="0" /><text alignment-baseline="middle" fill="#e1ed5e" style="dominant-baseline: central; font-size:9.0px; font-family:Arial;" text-anchor="middle" x="100.0" y="100.0">2025</text><line stroke="#e1ed5e" stroke-width="0.3" x1="100.0" x2="100.0" y1="15.0" y2="10.0" /><path d="M 100.0 14.0 a86.0,86.0 0 0,1 42.46469731375804,11.215312516191453" fill="none" id="id13" stroke="none" /><text fill="#e1ed5e" style="font-size:6.75px; font-family:Arial;" text-anchor="middle"><textPath startOffset="22.20632615414155" xlink:href="#id13">January</textPath></text><path d="M 101.80526077348638 79.07773832637324 l 1.3663949053897098 -15.835979034133567 a36.89481887304768,36.89481887304768 0 0,0 0.6322627739507855,0.060040968818930035 l -1.6387828064307395 15.810112520799459" fill="#ff8b0c" stroke="none" /><path d="M 102.52436894288641 79.15227682838746 l 3.5540654031812564 -29.351562048060938 a50.565952978912435,50.565952978912435 0 0,0 0.8631975896145196,0.11206782106866675 l -4.058777721303622 29.286035903828132" fill="#b8ff1f" stroke="none" /><path d="M 103.95276090670814 79.375362276772 l 5.632210360874377 -29.387635886832744 a50.92248212575622,50.92248212575622 0 0,0 0.8594589608894242,0.1723993821843018 l -6.137235731230927 29.286332548571234" fill="#b4ff20" stroke="none" /><path d="M 104.307194497241 79.44645832069477 l 3.534870876575941 -16.868083375200438 a38.23448719477253,38.23448719477253 0 0,0 0.642989873385366,0.14053268184108206 l -3.824703474114835 16.80473719526349" fill="#ff9f0e" stroke="none" /><path d="M 105.01212808612495 79.60689891045804 l 7.097925757687865 -28.879692421129356 a50.73915238201461,50.73915238201461 0 0,0 0.8463559083369407,0.21575496593548363 l -7.593990554709832 28.753234459025006" fill="#b6ff1f" stroke="none" /><path d="M 106.0581310904928 79.89281104454417 l 8.576334722809168 -28.465211505143156 a50.729140305602456,50.729140305602456 0 0,0 0.8339257744430587,0.2591047974621242 l -9.065045869962946 28.31336657279851" fill="#b6ff1f" stroke="none" /><path d="M 107.08798089147638 80.2323363322302 l 10.048070065488359 -28.02305375902146 a50.77003953678883,50.77003953678883 0 0,0 0.8200997491478023,0.30204965871762346 l -10.528952140408737 27.84594083249751" fill="#b6ff1f" stroke="none" /><line stroke="#e1ed5e" stroke-width="0.3" x1="143.23703022742887" x2="145.7803849466894" y1="26.81831364943548" y2="22.513508569990506" /><path d="M 143.74570117128098 25.957352633546492 a86.0,86.0 0 0,1 28.547481713284135,27.462654790039103" fill="none" id="id14" stroke="none" /><text fill="#e1ed5e" style="font-size:6.75px; font-family:Arial;" text-anchor="middle"><textPath startOffset="19.985693538727396" xlink:href="#id14">February</textPath></text><path d="M 113.6212207817346 84.01681056812373 l 9.603933292367694 -11.269289850205935 a35.80649953271208,35.80649953271208 0 0,0 0.4656655748159719,0.4038205977356383 l -9.79649266583043 11.102304259050626" fill="#ff7b0b" stroke="none" /><path d="M 113.89432698308785 84.25364557470407 l 10.898209881915042 -12.350873533549107 a37.471643988138965,37.471643988138965 0 0,0 0.4799743099773408,0.4309256745799789 l -11.109195179488374 12.16144885019983" fill="#ff940d" stroke="none" /><path d="M 114.42810811169701 84.74124197986012 l 11.981292688859954 -12.671075410058192 a38.43867903665614,38.43867903665614 0 0,0 0.4768533324977616,0.45873252805244646 l -12.197629264970132 12.462959795243444" fill="#ffa20e" stroke="none" /><path d="M 115.19652480421416 85.50635884689758 l 21.538079423680013 -20.54188035196509 a50.76336193468738,50.76336193468738 0 0,0 0.597636281756925,0.6375167163935933 l -21.8884830274074 20.16809421869344" fill="#b6ff1f" stroke="none" /><path d="M 115.9244219780498 86.31012108654704 l 22.443479846594688 -19.294171048714603 a50.596871863113485,50.596871863113485 0 0,0 0.5620815807817469,0.6653273019886505 l -22.77227204086355 18.904984797096844" fill="#b8ff1f" stroke="none" /><line stroke="#e1ed5e" stroke-width="0.3" x1="172.23445277983987" x2="176.4835382374775" y1="55.19839476539836" y2="52.563006222186495" /><path d="M 173.08426987136738 54.67131705675599 a86.0,86.0 0 0,1 12.851231095245387,41.99856678651699" fill="none" id="id15" stroke="none" /><text fill="#e1ed5e" style="font-size:6.75px; font-family:Arial;" text-anchor="middle"><textPath startOffset="22.20632615414155" xlink:href="#id15">March</textPath></text><path d="M 118.21658344932153 89.55222093294921 l 22.79187516794402 -13.071851642265505 a47.27437685328698,47.27437685328698 0 0,0 0.3987759343915079,0.7093778906679817 l -23.01350874362796 12.677590241662731" fill="#e3ff1b" stroke="none" /><path d="M 118.89224826269711 90.83032412892265 l 23.613945369280895 -11.461432332602683 a47.24848275649876,47.24848275649876 0 0,0 0.3488328621335336,0.7347309711243722 l -23.807736425256184 11.05325894583777" fill="#e3ff1b" stroke="none" /><path d="M 119.34039704204932 91.81776055985345 l 24.183519039933074 -10.231193437231953 a47.25871116991205,47.25871116991205 0 0,0 0.31050844034080405,0.7519208175938165 l -24.356049167160077 9.813398049184835" fill="#e3ff1b" stroke="none" /><path d="M 119.61058180528143 92.48833698450437 l 27.66569694017617 -10.597104898104767 a50.62582352285096,50.62582352285096 0 0,0 0.30470818079118317,0.8164664331440834 l -27.844009709468978 10.119315327931352" fill="#b8ff1f" stroke="none" /><path d="M 119.85752413597 93.16781622104841 l 24.82254887565408 -8.540451197200191 a47.25068074043021,47.25068074043021 0 0,0 0.257994805943992,0.7713716315738127 l -24.96588097536984 8.111906462704065" fill="#e3ff1b" stroke="none" /><path d="M 120.18372546131832 94.20196356495316 l 25.243978902820107 -7.251659745601042 a47.26490129263762,47.26490129263762 0 0,0 0.2178984634763013,0.783896707868793 l -25.36506413686277 6.816051734313298" fill="#e3ff1b" stroke="none" /><path d="M 120.37134235888165 94.90015583598534 l 25.464804732618397 -6.3749621166617105 a47.250646126510034,47.250646126510034 0 0,0 0.19072880752434354,0.7906940410709954 l -25.570766340403562 5.935682843931309" fill="#e3ff1b" stroke="none" /><path d="M 120.53481517161879 95.60439243477599 l 25.674019128745204 -5.495686801602812 a47.2556247620293,47.2556247620293 0 0,0 0.16341603534263213,0.7968746243543645 l -25.764814460002835 5.052936521085035" fill="#e3ff1b" stroke="none" /><path d="M 120.78858239683441 97.02765380044208 l 26.003677377984893 -3.7179991474913225 a47.26813192518778,47.26813192518778 0 0,0 0.10823051904881202,0.8064430796982117 l -26.06382389609154 3.269837725728446" fill="#e3ff1b" stroke="none" /><line stroke="#e1ed5e" stroke-width="0.3" x1="184.98032266829074" x2="189.97916517819016" y1="98.17113171792111" y2="98.06355123074" /><path d="M 185.9800911702706 98.14961562048488 a86.0,86.0 0 0,1 -9.607161424134198,41.387399972396054" fill="none" id="id16" stroke="none" /><text fill="#e1ed5e" style="font-size:6.75px; font-family:Arial;" text-anchor="middle"><textPath startOffset="21.466115282336823" xlink:href="#id16">April</textPath></text><path d="M 120.99513854157772 99.54816195383933 l 26.25887004502511 -0.5651192304368299 a47.26495032902454,47.26495032902454 0 0,0 0.01050405651271836,0.8135507527864559 l -26.264707108655543 0.11303221958991115" fill="#e3ff1b" stroke="none" /><path d="M 120.99980553446 99.90962569577887 l 26.25476435215715 -0.11298943016030867 a47.25500748045275,47.25500748045275 0 0,0 -0.0035007020581855107,0.8134398719808402 l -26.25281935280946 -0.3389599200242163" fill="#e3ff1b" stroke="none" /><path d="M 120.92983693683757 101.71520430193887 l 29.45510445476091 2.4138516715313854 a50.55384676032937,50.55384676032937 0 0,0 -0.07853998382393394,0.8666821768658155 l -29.4091898746599 -2.9205152369457714" fill="#b9ff1f" stroke="none" /><path d="M 120.5718875245553 104.21870165774334 l 15.38397305704814 3.154809813196797 a36.70412213329436,36.70412213329436 0 0,0 -0.13225012780910297,0.617828568789556 l -15.327388890514593 -3.419152201402522" fill="#ff880c" stroke="none" /><path d="M 120.32669344350535 105.2749913415812 l 25.124156928592342 6.519983716544763 a46.95637588409721,46.95637588409721 0 0,0 -0.20976514046217812,0.7806141222073985 l -25.008203711788386 -6.95148877192771" fill="#e7ff1a" stroke="none" /><path d="M 119.9155931802556 106.66101706037122 l 24.61419136015843 8.232521476679059 a46.95443750456711,46.95443750456711 0 0,0 -0.2629653513542923,0.7643004023880263 l -24.468835177860907 -8.654994582156386" fill="#e7ff1a" stroke="none" /><path d="M 119.67450827220406 107.3425965602758 l 24.34623881468819 9.086103037651986 a46.986469803200634,46.986469803200634 0 0,0 -0.289315206060038,0.755310708726984 l -24.186229329034642 -9.503837313212115" fill="#e6ff1a" stroke="none" /><path d="M 119.26925614724726 108.34839909993367 l 24.08222419779123 10.433615977748167 a47.245263661921996,47.245263661921996 0 0,0 -0.3297245044702999,0.7434417128535094 l -23.899058608589655 -10.846606027094364" fill="#e3ff1b" stroke="none" /><path d="M 118.97047184881838 109.00673069616215 l 26.721257232508567 12.686620009985186 a50.57999180803889,50.57999180803889 0 0,0 -0.38018509463587463,0.783293902055245 l -26.49891888125798 -13.144702868005707" fill="#b8ff1f" stroke="none" /><line stroke="#e1ed5e" stroke-width="0.3" x1="174.80103733775053" x2="179.2010983576182" y1="140.37084112569926" y2="142.7455964860345" /><path d="M 175.68104954172406 140.8457921977663 a86.0,86.0 0 0,1 -30.038265399797805,32.042727171017184" fill="none" id="id17" stroke="none" /><text fill="#e1ed5e" style="font-size:6.75px; font-family:Arial;" text-anchor="middle"><textPath startOffset="22.206326154141568" xlink:href="#id17">May</textPath></text><path d="M 117.35343817320211 111.8261652097733 l 14.832986517606038 10.108506876892877 a38.94991365749911,38.94991365749911 0 0,0 -0.38233808892714227,0.5507865332216907 l -14.65678752151676 -10.362334672301587" fill="#ffa90f" stroke="none" /><path d="M 116.71984013943494 112.70617746262583 l 11.792483195651814 8.961651723905106 a35.81127481145029,35.81127481145029 0 0,0 -0.37720046928681455,0.48758245368816266 l -11.636475909146931 -9.163312171706522" fill="#ff7b0b" stroke="none" /><path d="M 116.27256486870786 113.27417163493432 l 11.519627989834266 9.397013952097142 a35.866260465903366,35.866260465903366 0 0,0 -0.394364905258912,0.4750379332388779 l -11.356167084681811 -9.59391314244979" fill="#ff7c0b" stroke="none" /><path d="M 116.0416608686014 113.55231037782055 l 17.17260520031411 14.50775437635359 a43.48050947844514,43.48050947844514 0 0,0 -0.48792894029877854,0.5675715899126695 l -16.920333750444552 -14.801203065427789" fill="#ffe915" stroke="none" /><path d="M 115.56566222782051 114.09645910891815 l 10.966507235072921 9.931406614397922 a35.795172127333075,35.795172127333075 0 0,0 -0.4175312375715072,0.45314769496293966 l -10.793929589505693 -10.118705564162196" fill="#ff7b0b" stroke="none" /><path d="M 114.55890576462653 115.13401014063108 l 10.452923094611945 10.865833371726067 a36.07746451111684,36.07746451111684 0 0,0 -0.45125033871941683,0.4266853608852219 l -10.264336921501721 -11.044153369357211" fill="#ff7f0b" stroke="none" /><path d="M 113.75828350139079 115.86535959552629 l 9.723504004037501 11.212655091530872 a35.841501417247734,35.841501417247734 0 0,0 -0.4695825910094067,0.4001884714349656 l -9.529055936451048 -11.378367953188784" fill="#ff7c0b" stroke="none" /><path d="M 112.63410532772338 116.77436683061366 l 9.291600885192826 12.336506436262606 a36.444197553180445,36.444197553180445 0 0,0 -0.5043443595232963,0.3731019000045832 l -9.077871555250965 -12.49461828500696" fill="#ff850c" stroke="none" /><path d="M 111.7513745106137 117.40417183066458 l 16.547696870764494 24.50768286555913 a50.57114795143282,50.57114795143282 0 0,0 -0.7256364948348257,0.4809123010278501 l -16.123385677189702 -24.788893187678298" fill="#b8ff1f" stroke="none" /><line stroke="#e1ed5e" stroke-width="0.3" x1="143.8653032363475" x2="146.44561519142675" y1="172.8068346515853" y2="177.08958963109032" /><path d="M 144.38136562736335 173.6633856474863 a86.0,86.0 0 0,1 -40.68145358897372,12.25698825130547" fill="none" id="id18" stroke="none" /><text fill="#e1ed5e" style="font-size:6.75px; font-family:Arial;" text-anchor="middle"><textPath startOffset="21.466115282336833" xlink:href="#id18">June</textPath></text><path d="M 110.21172684928248 118.3499491758327 l 7.4934927886013405 13.465422043673739 a36.41006245889597,36.41006245889597 0 0,0 -0.5502725353757751,0.30005246088202786 l -7.260597441356917 -13.592415156315537" fill="#ff840c" stroke="none" /><path d="M 109.89434966115114 118.52300852407294 l 13.938025112252156 26.093090178192917 a50.58239170650472,50.58239170650472 0 0,0 -0.7715238207410382,0.40362479854404454 l -13.486810388984622 -26.329144395681677" fill="#b8ff1f" stroke="none" /><path d="M 109.2508944713604 118.85261126421891 l 7.823057080483823 15.942788504695622 a38.758736649603286,38.758736649603286 0 0,0 -0.6014752989724197,0.2887446951004859 l -7.54746911351117 -16.075087476295668" fill="#ffa60f" stroke="none" /><path d="M 108.2653958097858 119.30500536409082 l 6.034131939546109 14.093571819349833 a36.33099849621747,36.33099849621747 0 0,0 -0.5770202334973022,0.2411945043995989 l -5.790640246551345 -14.195351366769405" fill="#ff830c" stroke="none" /><path d="M 106.57524785965236 119.94407469862006 l 9.263411572360582 28.09782631874637 a50.58544638496063,50.58544638496063 0 0,0 -0.8293090209232666,0.26551855978391653 l -8.778381206346374 -28.253117725189995" fill="#b8ff1f" stroke="none" /><path d="M 106.2309692047433 120.05430185196036 l 4.405850037852368 14.18017705918069 a35.84886985550611,35.84886985550611 0 0,0 -0.5908662378583501,0.17802315051706358 l -4.1611088255537725 -14.253915578803479" fill="#ff7c0b" stroke="none" /><path d="M 105.88484417918355 120.15858648285463 l 4.148121087418378 14.209425965408933 a35.80252325863137,35.80252325863137 0 0,0 -0.5930753307089418,0.16760901252770416 l -3.9029145886048306 -14.278723771275155" fill="#ff7b0b" stroke="none" /><path d="M 105.53697534728816 120.25689768951611 l 3.9134914372978717 14.317418930349207 a35.84263790762699,35.84263790762699 0 0,0 -0.5965402144553593,0.15755169250729806 l -3.6664607800310147 -14.38266197216009" fill="#ff7c0b" stroke="none" /><path d="M 105.18746579009965 120.34920634021253 l 3.6549380390941475 14.337460973750302 a35.79599132344401,35.79599132344401 0 0,0 -0.5983840558788349,0.14706824232326907 l -3.4076006984721015 -14.3982504743876" fill="#ff7b0b" stroke="none" /><path d="M 104.83641907484287 120.43548508189849 l 3.5408739478658484 14.961374442277116 a36.37467116775829,36.37467116775829 0 0,0 -0.6105399361473909,0.13895690171977115 l -3.2828138623255954 -15.020108077574571" fill="#ff840c" stroke="none" /><path d="M 102.70371172650421 120.8252237178851 l 2.002879689650258 15.427094985050347 a36.55656731830577,36.55656731830577 0 0,0 -0.6247214056150515,0.07564506211586158 l -1.7370308609838263 -15.45928557589156" fill="#ff860c" stroke="none" /><path d="M 102.34483914955558 120.86867818915974 l 1.6878225637817637 15.021339920326657 a36.11586577106353,36.11586577106353 0 0,0 -0.6183851465067576,0.06409814885974266 l -1.4290048206694035 -15.048167437642158" fill="#ff800b" stroke="none" /><path d="M 100.90346689309514 120.98055641714683 l 0.7644299031462636 17.75180123642375 a38.76825259315952,38.76825259315952 0 0,0 -0.66696098395452,0.022971484842133152 l -0.45874856751709137 -17.762329519691974" fill="#ffa70f" stroke="none" /><line stroke="#e1ed5e" stroke-width="0.3" x1="102.19456741930631" x2="102.32365962044197" y1="184.97166512339345" y2="189.96999836594603" /><path d="M 102.22038585953345 185.97133177190398 a86.0,86.0 0 0,1 -42.740103519485714,-10.115201625700543" fill="none" id="id19" stroke="none" /><text fill="#e1ed5e" style="font-size:6.75px; font-family:Arial;" text-anchor="middle"><textPath startOffset="22.20632615414155" xlink:href="#id19">July</textPath></text><path d="M 100.18074693466247 120.99922214144158 l 0.12728597873633704 14.788115482935805 a35.788663268092506,35.788663268092506 0 0,0 -0.6160658267975748,0.0 l 0.12728597873632685 -14.788115482935805" fill="#ff7b0b" stroke="none" /><path d="M 99.81925306533755 120.99922214144158 l -0.1292421463667885 15.015383506566062 a36.01593971024303,36.01593971024303 0 0,0 -0.619886305603677,-0.01067190491235253 l 0.3876881418631334 -15.010934124374549" fill="#ff7e0b" stroke="none" /><path d="M 99.09653310690486 120.98055641714683 l -1.1304555494401252 26.25174935946186 a47.27607798323917,47.27607798323917 0 0,0 -0.8127251538363668,-0.042008607175831214 l 1.5821687716899808 -26.228400945523827" fill="#e3ff1b" stroke="none" /><path d="M 98.37488393609728 120.93702456842531 l -2.403534039394725 30.965696759530832 a52.05883693382203,52.05883693382203 0 0,0 -0.8928231396896429,-0.07703653729626919 l 2.9362014968259094 -30.919735969955898" fill="#a6ff21" stroke="none" /><path d="M 97.65516085044442 120.86867818915974 l -1.6574813711777199 14.75130835570994 a35.84413495967478,35.84413495967478 0 0,0 -0.6125465276891559,-0.07417085395094838 l 1.911155321918265 -14.720591973033644" fill="#ff7c0b" stroke="none" /><path d="M 96.58105272829116 120.7198165907248 l -2.4084288141323005 14.595780319155422 a35.79315153974255,35.79315153974255 0 0,0 -0.6070365588160043,-0.10554108678828072 l 2.6593143444203546 -14.552160653846135" fill="#ff7b0b" stroke="none" /><path d="M 95.86986931433489 120.58985236759428 l -2.9092277730924967 14.503311132401468 a35.79221552165101,35.79221552165101 0 0,0 -0.6030281650437982,-0.12637041511795638 l 3.1584473995656817 -14.45108473655697" fill="#ff7b0b" stroke="none" /><path d="M 95.16358092515715 120.4354850818985 l -3.4126388647507184 14.419538408752627 a35.81786732099796,35.81786732099796 0 0,0 -0.5987497462161827,-0.1471581201109872 l 3.6603418957101113 -14.35865903032761" fill="#ff7b0b" stroke="none" /><path d="M 93.42475214034765 119.94407469862007 l -4.709664786317831 14.285378788557127 a36.04170833157059,36.04170833157059 0 0,0 -0.587531792311675,-0.19932268346274484 l 4.954866311566732 -14.20219311819626" fill="#ff7f0b" stroke="none" /><path d="M 92.7421414339146 119.70592522655815 l -5.127499025673423 13.921752742788476 a35.835984823718995,35.835984823718995 0 0,0 -0.5770101732039026,-0.2181758747078385 l 5.3663794196376084 -13.831428617974003" fill="#ff7c0b" stroke="none" /><path d="M 92.06813273071674 119.44442032107085 l -5.584091939156707 13.689012572984986 a35.784151920495674,35.784151920495674 0 0,0 -0.5683350458649525,-0.237564095264888 l 5.818898444519122 -13.590863434700124" fill="#ff7b0b" stroke="none" /><path d="M 91.40352486487194 119.15986991738527 l -6.231499491100226 13.888799509446189 a36.22269153997331,36.22269153997331 0 0,0 -0.5666815928726653,-0.26013572531088164 l 6.46964907974031 -13.779476713801232" fill="#ff810b" stroke="none" /><path d="M 90.7491055286396 118.85261126421891 l -6.517382875549904 13.281924920147851 a35.79478993196442,35.79478993196442 0 0,0 -0.5508069758014652,-0.27618605223210335 l 6.74504375903413 -13.167771027006447" fill="#ff7b0b" stroke="none" /><line stroke="#e1ed5e" stroke-width="0.3" x1="58.666819895761336" x2="56.23545636021788" y1="174.27360380694188" y2="178.64263932499728" /><path d="M 58.180547188652646 175.14741091055294 a86.0,86.0 0 0,1 -31.652253787137756,-30.449443065178592" fill="none" id="id20" stroke="none" /><text fill="#e1ed5e" style="font-size:6.75px; font-family:Arial;" text-anchor="middle"><textPath startOffset="22.20632615414155" xlink:href="#id20">August</textPath></text><path d="M 89.1626897886671 117.98757091392108 l -7.627989224664343 12.660798153197838 a35.78113762494664,35.78113762494664 0 0,0 -0.5248254589794398,-0.3223906623162361 l 7.8447938835760915 -12.527619024053225" fill="#ff7b0b" stroke="none" /><path d="M 88.54995079064634 117.60387380957326 l -8.071024705733402 12.408793869428193 a35.8026891169989,35.8026891169989 0 0,0 -0.5137264801951993,-0.34046989842461894 l 8.283425884668564 -12.268025949912255" fill="#ff7b0b" stroke="none" /><path d="M 87.95078237400918 117.19931262002967 l -8.484996336712205 12.111666425555107 a35.788090696162854,35.788090696162854 0 0,0 -0.5014979562069635,-0.3578054761570905 l 8.692221620768056 -11.963816687553798" fill="#ff7b0b" stroke="none" /><path d="M 86.79598089348748 116.32954008644616 l -11.167769820985512 13.811290599999225 a38.76149855198434,38.76149855198434 0 0,0 -0.5152139099157438,-0.423985972276244 l 11.403853859445944 -13.6170095088658" fill="#ffa60f" stroke="none" /><path d="M 85.97065885151581 115.62618273729859 l -10.09060260165062 11.23913079837605 a36.10424847410302,36.10424847410302 0 0,0 -0.4588685801856534,-0.4191655683305663 l 10.282570731303128 -11.063772463458907" fill="#ff800b" stroke="none" /><path d="M 85.44109423537348 115.13401014063109 l -11.308003648257406 11.754691228157084 a37.31084646418805,37.31084646418805 0 0,0 -0.45901233147249587,-0.44924017563532165 l 11.508665932105696 -11.558300949599193" fill="#ff910d" stroke="none" /><path d="M 84.67929136418377 114.36230785411682 l -10.80022175720259 10.124604119619438 a35.80379676244466,35.80379676244466 0 0,0 -0.4176318392548433,-0.4532568782211243 l 10.97290000445316 -9.93719598659697" fill="#ff7b0b" stroke="none" /><path d="M 84.19399662182784 113.82643327865904 l -13.754096427014847 12.031510560030956 a39.27381774232629,39.27381774232629 0 0,0 -0.44072234898720175,-0.5126596593584686 l 13.959161285572828 -11.792973801510957" fill="#ffae10" stroke="none" /><path d="M 83.72743513129214 113.27417163493432 l -23.040337791234254 18.794910380467446 a50.733917026587335,50.733917026587335 0 0,0 -0.5461918995717289,-0.6814583755595386 l 23.36044760286084 -18.395524171329647" fill="#b6ff1f" stroke="none" /><path d="M 83.28015986056508 112.70617746262583 l -14.15283547479529 10.755392255094431 a38.77586044436582,38.77586044436582 0 0,0 -0.39927823549037245,-0.5348984455560599 l 14.33587497698075 -10.510180930029064" fill="#ffa70f" stroke="none" /><path d="M 82.85270091963577 112.12312394758628 l -12.445948826427315 8.799273842542053 a36.24233782416898,36.24233782416898 0 0,0 -0.3557601257808417,-0.512498995031291 l 12.595569859370292 -8.58373358532375" fill="#ff820b" stroke="none" /><path d="M 82.44556493220864 111.52570212397912 l -24.714803212406043 16.22697960822465 a50.56579721627162,50.56579721627162 0 0,0 -0.4714541511623098,-0.7317073122274811 l 24.990462226945397 -15.79915069607572" fill="#b8ff1f" stroke="none" /><line stroke="#e1ed5e" stroke-width="0.3" x1="26.63291911575756" x2="22.317208475507996" y1="142.92168965132927" y2="145.44649492493687" /><path d="M 25.769776987707644 143.4266507060508 a86.0,86.0 0 0,1 -11.730757126820373,-40.83630448921669" fill="none" id="id21" stroke="none" /><text fill="#e1ed5e" style="font-size:6.75px; font-family:Arial;" text-anchor="middle"><textPath startOffset="21.46611528233685" xlink:href="#id21">September</textPath></text><path d="M 81.87401531095188 110.60418214915194 l -18.73460734597202 10.960242557722252 a42.705124494732914,42.705124494732914 0 0,0 -0.3657348283067588,-0.6376895010332637 l 18.920494170431155 -10.636133210830682" fill="#ffde14" stroke="none" /><path d="M 81.51974371655577 109.97397251340807 l -13.047436749731508 7.041827424700554 a35.82642705500921,35.82642705500921 0 0,0 -0.2882278566765661,-0.5452184833282439 l 13.16671711463296 -6.816193926286184" fill="#ff7b0b" stroke="none" /><path d="M 80.87730276802145 108.67885076344099 l -7.106769928773107 3.2254129673081877 a28.80445178280919,28.80445178280919 0 0,0 -0.20102615277136504,-0.4532609051450109 l 7.161237166275752 -3.102603725670481" fill="#ff0f01" stroke="none" /><path d="M 80.58989483394504 108.01547362559985 l -13.871516673317666 5.728293334365518 a36.007741980146996,36.007741980146996 0 0,0 -0.23164532419106523,-0.5749246975474497 l 13.96806461176612 -5.488669268975263" fill="#ff7e0b" stroke="none" /><path d="M 80.45479744820244 107.68017299344265 l -27.50678385543844 10.80862978744487 a50.55418136155778,50.55418136155778 0 0,0 -0.31128308764364876,-0.8126619155097299 l 27.688761222675595 -10.333544305101983" fill="#b9ff1f" stroke="none" /><path d="M 80.32549172779594 107.34259656027581 l -16.70418451818293 6.234061156115604 a38.82956249927888,38.82956249927888 0 0,0 -0.22830994878296595,-0.62821092382946 l 16.80901872797112 -5.945602435280027" fill="#ffa70f" stroke="none" /><path d="M 80.0844068197444 106.66101706037122 l -28.418078334728598 9.504778637387473 a50.96544665418001,50.96544665418001 0 0,0 -0.27110644388999416,-0.8343798391823651 l 28.577477029634842 -9.014199898227304" fill="#b3ff20" stroke="none" /><path d="M 79.97269907076064 106.31721596034903 l -14.35584088899815 4.528266065838493 a36.053084773336515,36.053084773336515 0 0,0 -0.18159291131361385,-0.5934561410684238 l 14.431660572817895 -4.280482952218022" fill="#ff7f0b" stroke="none" /><path d="M 79.86692584326677 105.97154293290107 l -22.687428689189833 6.729173766506971 a44.664344489271606,44.664344489271606 0 0,0 -0.21227764041356514,-0.7389663144897578 l 22.7998989664895 -6.337649976512617" fill="#fff917" stroke="none" /><path d="M 79.76711848015287 105.62410040840567 l -14.264031009697819 3.9649489643113784 a35.80484383353012,35.80484383353012 0 0,0 -0.15994863220503808,-0.5952283627866315 l 14.330167718244631 -3.7188296683492084" fill="#ff7b0b" stroke="none" /><path d="M 79.58551787078972 104.9243191809786 l -28.787668932406373 6.944073790472115 a50.61334232013261,50.61334232013261 0 0,0 -0.19700504560051055,-0.8486925803459298 l 28.90293454393744 -6.447512552777611" fill="#b8ff1f" stroke="none" /><path d="M 79.50377843672027 104.57218783832718 l -23.113606422782034 5.156060099167588 a44.68171779270877,44.68171779270877 0 0,0 -0.1609945299156461,-0.7521128459271171 l 23.19893499142212 -4.757433433824307" fill="#fff917" stroke="none" /><path d="M 79.4281124754447 104.21870165774334 l -15.075609835639998 3.091573397394468 a36.389341700928036,36.389341700928036 0 0,0 -0.12055280671928281,-0.6146961642589457 l 15.126592575334948 -2.8316135060675673" fill="#ff840c" stroke="none" /><path d="M 79.29508885075956 103.50808413554451 l -29.19579525037927 4.9467155596182595 a50.61189718896508,50.61189718896508 0 0,0 -0.13814215025324753,-0.8602113014939662 l 29.276619154993806 -4.44342502843108" fill="#b8ff1f" stroke="none" /><path d="M 79.23777060512086 103.15116336523772 l -14.765214761584913 2.2409734018279037 a35.93430710623781,35.93430710623781 0 0,0 -0.08755299638817274,-0.6123454528197175 l 14.801601808989684 -1.9864824770277856" fill="#ff7d0b" stroke="none" /><path d="M 79.18660465613746 102.79330883721812 l -23.955085908592572 3.214946531274272 a45.1698577175581,45.1698577175581 0 0,0 -0.09678930594403448,-0.7715060002215223 l 24.006876723783456 -2.802122776765341" fill="#feff18" stroke="none" /><path d="M 79.1416061653843 102.43462659150553 l -29.565975088301084 3.450990029458046 a50.76669640899808,50.76669640899808 0 0,0 -0.09384030071391045,-0.8688446388167874 l 29.62099769051605 -2.9415490687564763" fill="#b6ff1f" stroke="none" /><path d="M 79.10278846688536 102.07522291339032 l -15.609161934404003 1.5500867402219909 a36.685939729472985,36.685939729472985 0 0,0 -0.05699493307756846,-0.6289343371998025 l 15.633531463758647 -1.2811710144736221" fill="#ff880c" stroke="none" /><path d="M 79.07016306316243 101.71520430193888 l -20.805641721389293 1.7050264793184766 a41.87538844510425,41.87538844510425 0 0,0 -0.052690089047018177,-0.7189144025758679 l 20.831908369100645 -1.3466389402458478" fill="#ffd313" stroke="none" /><path d="M 79.04373962182676 101.35467743843564 l -17.904966532933905 1.15743237392554 a38.942337535719645,38.942337535719645 0 0,0 -0.03748413078887348,-0.6693043356501598 l 17.92223701461031 -0.8490563219399427" fill="#ffa90f" stroke="none" /><path d="M 79.0235259727143 100.99374915477108 l -62.30820472963425 2.951817626967952 a83.37808592713385,83.37808592713385 0 0,0 -0.05557692237757993,-1.434193416062039 l 62.34978378486303 -1.8788469638919159" fill="#4cd8ff" stroke="none" /><line stroke="#e1ed5e" stroke-width="0.3" x1="15.007084014347285" x2="10.007500721073583" y1="101.09737516637583" y2="101.16192664675087" /><path d="M 14.007167355692545 101.11028546245083 a86.0,86.0 0 0,1 10.666146001902534,-42.60595125391555" fill="none" id="id22" stroke="none" /><text fill="#e1ed5e" style="font-size:6.75px; font-family:Arial;" text-anchor="middle"><textPath startOffset="22.20632615414155" xlink:href="#id22">October</textPath></text><path d="M 79.01574976396665 99.18683210126434 l -8.882085838466862 -0.34419276344948396 a29.88875230278719,29.88875230278719 0 0,0 0.024347081252542493,-0.5139284044491627 l 8.87484514898082 0.49703227452165566" fill="#ff2003" stroke="none" /><path d="M 79.16333360222342 97.38593545837743 l -14.943155885175743 -1.8746940222426682 a36.060291679967385,36.060291679967385 0 0,0 0.08256776662449226,-0.6152257661300325 l 14.908672119493417 2.13163813043736" fill="#ff7f0b" stroke="none" /><path d="M 79.21141760316559 97.0276538004421 l -14.656576962091322 -2.095593629243033 a35.805632742460894,35.805632742460894 0 0,0 0.09248783609310754,-0.6093792820722997 l 14.618333232558912 2.347572023707425" fill="#ff7b0b" stroke="none" /><path d="M 79.32604984820605 96.31383870115002 l -20.632470534466314 -3.678765491132466 a41.95786620566053,41.95786620566053 0 0,0 0.13289509985506626,-0.7099309374173072 l 20.566089710701384 4.033374506012346" fill="#ffd413" stroke="none" /><path d="M 79.3925641242962 95.95851677861259 l -16.030995394136383 -3.143962174543383 a37.336379999307724,37.336379999307724 0 0,0 0.12911400969214482,-0.6296057651661291 l 15.974502088529242 3.4194435958729144" fill="#ff920d" stroke="none" /><path d="M 79.54389044137918 95.25157060432595 l -28.801804212974055 -6.6856961917129745 a50.5675913711343,50.5675913711343 0 0,0 0.20411776752792574,-0.8461999241537831 l 28.682453645185316 7.180481347526154" fill="#b8ff1f" stroke="none" /><path d="M 79.71946130924805 94.55025226153421 l -28.552294526579974 -7.672518215465061 a50.56520012614851,50.56520012614851 0 0,0 0.23311334862717617,-0.8386327449665041 l 28.41599440738644 8.162862263850508" fill="#b8ff1f" stroke="none" /><path d="M 80.14247586403 93.16781622104843 l -14.139701955376662 -4.864908720606485 a35.95321063339628,35.95321063339628 0 0,0 0.20638327508818655,-0.5834733105450218 l 14.053865599478666 5.1075796575781185" fill="#ff7d0b" stroke="none" /><path d="M 80.2630227832202 92.82701384747504 l -14.175583105742188 -5.151815306095048 a36.0827171735042,36.0827171735042 0 0,0 0.21717570881545012,-0.5819229266561863 l 14.08480280842511 5.395061369780576" fill="#ff7f0b" stroke="none" /><path d="M 80.52162464483688 92.15188598940014 l -6.372050141293251 -2.567389480810707 a27.869826180430827,27.869826180430827 0 0,0 0.18311579062622252,-0.4434294116156191 l 6.326912663780829 2.676693462879638" fill="#ff0000" stroke="none" /><path d="M 80.803312248108 91.48605970444005 l -57.59006325567602 -25.54182088667983 a84.0,84.0 0 0,0 0.5975907321465934,-1.3167119646317162 l 57.141870206566075 26.529354860153617" fill="#4dd2ff" stroke="none" /><line stroke="#e1ed5e" stroke-width="0.3" x1="26.266209847984243" x2="21.928928074336255" y1="57.711370442889674" y2="55.22380399835377" /><path d="M 25.398753493254645 57.213857153982495 a86.0,86.0 0 0,1 29.58750427330803,-30.492523968695096" fill="none" id="id23" stroke="none" /><text fill="#e1ed5e" style="font-size:6.75px; font-family:Arial;" text-anchor="middle"><textPath startOffset="21.46611528233685" xlink:href="#id23">November</textPath></text><path d="M 82.15384107792192 88.93136811851018 l -16.606035719099197 -10.299476609400099 a40.54071750810543,40.54071750810543 0 0,0 0.3729213262359101,-0.5898719808550048 l 16.426286796617322 10.583796237969318" fill="#ffc011" stroke="none" /><path d="M 82.54541684631803 88.32363383020206 l -17.3097546025894 -11.579482091873604 a41.825753525812374,41.825753525812374 0 0,0 0.40546191061070574,-0.594965322449288 l 17.107868226309957 11.875725437593308" fill="#ffd213" stroke="none" /><path d="M 83.17141714833178 87.43820079747576 l -18.462676891031045 -13.781578751488617 a44.0391482235367,44.0391482235367 0 0,0 0.4586867280249606,-0.6035779674269479 l 18.222714222781978 14.097341494796591" fill="#fff016" stroke="none" /><path d="M 83.6137871275137 86.86637796730984 l -18.855306988461646 -15.112611878282172 a45.164305067862514,45.164305067862514 0 0,0 0.49143389582516245,-0.6024398484837242 l 18.592374600560092 15.434935896373979" fill="#feff18" stroke="none" /><path d="M 84.07557802195018 86.31012108654704 l -12.340142633951437 -10.608551988034064 a37.27330622550585,37.27330622550585 0 0,0 0.4224452453821433,-0.48292794251638743 l 12.15570552499145 10.819395486753393" fill="#ff910d" stroke="none" /><path d="M 84.5562425177563 85.77008943001954 l -5.970501864587464 -5.501232953746053 a29.118525514305162,29.118525514305162 0 0,0 0.3428119544368225,-0.3656878911209083 l 5.874922588180185 5.603190261745011" fill="#ff1402" stroke="none" /><path d="M 85.31137513191541 84.99185889309783 l -16.07366425079403 -16.423308740428286 a43.9801599740011,43.9801599740011 0 0,0 0.5455985058015861,-0.5248653303039906 l 15.788582501380017 16.69755715749459" fill="#fff016" stroke="none" /><path d="M 85.83668400450813 84.49514656593479 l -12.940171829399505 -14.165854076144344 a40.18643970832004,40.18643970832004 0 0,0 0.5147481299607165,-0.462145953504424 l 12.694412711842817 14.386499038418046" fill="#ffbb11" stroke="none" /><path d="M 86.37877921826538 84.01681056812374 l -12.068399951197595 -14.161103887127014 a39.60599743856991,39.60599743856991 0 0,0 0.5226906514912586,-0.43773838884550986 l 11.822851762747227 14.366743433366336" fill="#ffb310" stroke="none" /><path d="M 87.22198572758235 83.33499621200491 l -9.019502835913986 -11.763177417229457 a35.82308248497179,35.82308248497179 0 0,0 0.4925739453221933,-0.3709964834878457 l 8.815682736833404 11.916690490223157" fill="#ff7b0b" stroke="none" /><path d="M 87.80319425747018 82.90503203632743 l -11.16789122291835 -15.6528476969881 a40.22845379618555,40.22845379618555 0 0,0 0.5671615462737157,-0.39733290807139504 l 10.896798537060972 15.842765447823439" fill="#ffbb11" stroke="none" /><path d="M 88.39885842347998 82.49532879139004 l -11.154151610918563 -16.830219273876434 a41.19087365534535,41.19087365534535 0 0,0 0.5943901406820453,-0.3866078815370112 l 10.86279444445223 17.01972607957298" fill="#ffc912" stroke="none" /><line stroke="#e1ed5e" stroke-width="0.3" x1="56.762969772571076" x2="54.21961505331055" y1="26.818313649435495" y2="22.513508569990535" /><path d="M 56.25429882871897 25.957352633546506 a86.0,86.0 0 0,1 42.265352541879196,-11.944610805530505" fill="none" id="id24" stroke="none" /><text fill="#e1ed5e" style="font-size:6.75px; font-family:Arial;" text-anchor="middle"><textPath startOffset="22.20632615414155" xlink:href="#id24">December</textPath></text></svg>