<?xml version="1.0" encoding="utf-8" ?>
<svg baseProfile="full" height="200mm" version="1.1" viewBox="0,0,200,200" width="200mm" xmlns="http://www.w3.org/2000/svg" xmlns:ev="http://www.w3.org/2001/xml-events" xmlns:xlink="http://www.w3.org/1999/xlink"><defs /><rect fill="#1a1a1a" height="200" width="200" x="0" y="0" /><text alignment-baseline="middle" fill="#e1ed5e" style="dominant-baseline: central; font-size:9.0px; font-family:Arial;" text-anchor="middle" x="100.0" y="100.0">2026</text><line stroke="#e1ed5e" stroke-width="0.3" x1="100.0" x2="100.0" y1="15.0" y2="10.0" /><path d="M 100.0 14.0 a86.0,86.0 0 0,1 42.46469731375804,11.215312516191453" fill="none" id="id25" stroke="none" /><text fill="#e1ed5e" style="font-size:6.75px; font-family:Arial;" text-anchor="middle"><textPath startOffset="22.20632615414155" xlink:href="#id25">January</textPath></text><path d="M 101.44485096284872 79.0497635885617 l 3.2771490433157004 -47.51842852886101 a68.6313001681098,68.6313001681098 0 0,0 1.1778758998764178,0.09142583942226964 l -4.09461513255446 47.45497742725028" fill="red" stroke="none" /><path d="M 102.16513564639614 79.11191278185805 l 5.982560430814214 -57.71658892349544 a79.02581896252823,79.02581896252823 0 0,0 1.3518431168453657,0.15189532541082693 l -6.975170251169304 57.605057644614014" fill="red" stroke="none" /><path d="M 102.88285421437855 79.19881850522331 l 6.153679474366524 -44.40176092448471 a65.82615468973819,65.82615468973819 0 0,0 1.1210226102929566,0.16520959231535734 l -6.917071065088137 44.289256848008385" fill="red" stroke="none" /><path d="M 103.95276090670814 79.375362276772 l 6.74168865789856 -35.17664981354769 a56.816854385400774,56.816854385400774 0 0,0 0.9589429382191,0.19235493213996724 l -7.346198005584786 35.055390925330514" fill="red" stroke="none" /><path d="M 104.307194497241 79.44645832069477 l 9.525664632106224 -45.45560809118111 a67.4429821783917,67.4429821783917 0 0,0 1.1341895171944274,0.24788989868250477 l -10.30669687345418 45.28490469440274" fill="red" stroke="none" /><path d="M 105.01212808612495 79.60689891045804 l 10.54233081513658 -42.89411889285741 a65.17064833812569,65.17064833812569 0 0,0 1.0870808967371177,0.2771211254441417 l -11.279120600558723 42.7062947712444" fill="red" stroke="none" /><path d="M 106.40334571778207 80.00007090966166 l 13.470088163394605 -42.07188241615204 a65.17563316091969,65.17563316091969 0 0,0 1.0655197350176406,0.35128510412051067 l -14.192290720654663 41.833783587772295" fill="red" stroke="none" /><path d="M 106.74666289553966 80.11325718540242 l 12.691623942948652 -37.41035607690906 a60.50458277352583,60.50458277352583 0 0,0 0.9833953779641721,0.3430873378972861 l -13.333701324976097 37.18634788583957" fill="red" stroke="none" /><path d="M 107.4271985657038 80.35727306442388 l 15.648315671925124 -41.38513182677976 a65.24476149430751,65.24476149430751 0 0,0 1.0470753818649101,0.40624898087151506 l -16.3583742187897 41.1096401420177" fill="red" stroke="none" /><path d="M 108.76106565485865 80.91482961587045 l 18.514008722893998 -40.33105387969993 a65.37749909626109,65.37749909626109 0 0,0 1.0187115330970224,0.47829872421939357 l -19.205498467290617 40.00639017284053" fill="red" stroke="none" /><path d="M 109.41281617654863 81.2277094730956 l 19.847311339691945 -39.58214923764019 a65.2793665908342,65.2793665908342 0 0,0 1.0001405513071369,0.5123108360492812 l -20.525712378587837 39.23464587627841" fill="red" stroke="none" /><line stroke="#e1ed5e" stroke-width="0.3" x1="143.23703022742887" x2="145.7803849466894" y1="26.81831364943548" y2="22.513508569990506" /><path d="M 143.74570117128098 25.957352633546492 a86.0,86.0 0 0,1 28.547481713284135,27.462654790039103" fill="none" id="id26" stroke="none" /><text fill="#e1ed5e" style="font-size:6.75px; font-family:Arial;" text-anchor="middle"><textPath startOffset="19.985693538727396" xlink:href="#id26">February</textPath></text><path d="M 110.68208982089419 81.91981866633111 l 28.697252923780898 -48.57210015452625 a77.41614342360509,77.41614342360509 0 0,0 1.1414749852897195,0.6877259065862718 l -29.529089975288255 48.07092763848136" fill="red" stroke="none" /><path d="M 111.60114157652 82.49532879139004 l 25.82421062010712 -38.96550293307155 a67.74612575367996,67.74612575367996 0 0,0 0.9664962499022187,0.6525825822802731 l -26.491111564415878 38.51520843849261" fill="red" stroke="none" /><path d="M 112.77801427241765 83.33499621200491 l 30.229108541634748 -39.42460836356095 a70.67996324316368,70.67996324316368 0 0,0 0.9591185012776067,0.7486072035327515 l -30.903259598071784 38.89842277080497" fill="red" stroke="none" /><path d="M 114.42810811169701 84.74124197986012 l 12.99462220916661 -13.74274397708871 a39.91357233255458,39.91357233255458 0 0,0 0.49515020951991645,0.47633410925116276 l -13.229255662298945 13.517026781075245" fill="red" stroke="none" /><path d="M 117.04232023915458 87.72973835380427 l 37.168866806401795 -26.761128438329013 a66.80046566318708,66.80046566318708 0 0,0 0.6638292464348184,0.9389393918699436 l -37.62400867264049 26.117362546127275" fill="red" stroke="none" /><path d="M 117.2510076193507 88.02491185347247 l 38.38456924250381 -26.64531894530422 a67.72631140620408,67.72631140620408 0 0,0 0.656543811085893,0.9633970295173953 l -38.83753751925843 25.980643892516415" fill="red" stroke="none" /><path d="M 117.65298651832404 88.62581576622439 l 37.17205990020059 -23.950726819790525 a65.21989769798584,65.21989769798584 0 0,0 0.5999373529006089,0.9489568170218287 l -37.57882484934715 23.307322355054488" fill="red" stroke="none" /><line stroke="#e1ed5e" stroke-width="0.3" x1="172.23445277983987" x2="176.4835382374775" y1="55.19839476539836" y2="52.563006222186495" /><path d="M 173.08426987136738 54.67131705675599 a86.0,86.0 0 0,1 12.851231095245387,41.99856678651699" fill="none" id="id27" stroke="none" /><text fill="#e1ed5e" style="font-size:6.75px; font-family:Arial;" text-anchor="middle"><textPath startOffset="22.20632615414155" xlink:href="#id27">March</textPath></text><path d="M 118.03404312379186 89.2402003453031 l 37.91708370742791 -22.62278188988348 a65.15309159405868,65.15309159405868 0 0,0 0.5663365023259073,0.9680526631494606 l -38.300879884224145 21.966749814380126" fill="red" stroke="none" /><path d="M 118.21658344932153 89.55222093294921 l 38.76048821537306 -22.23034953463385 a65.68292612537891,65.68292612537891 0 0,0 0.5540584981268808,0.9856082446591252 l -39.13740435479237 21.55985778003993" fill="red" stroke="none" /><path d="M 118.56541770881063 90.18545643968196 l 39.03693046956522 -20.63673764651317 a65.15605146723021,65.15605146723021 0 0,0 0.5156343393517915,0.9960414205137991 l -39.38637424207713 19.961723503739023" fill="red" stroke="none" /><path d="M 119.04729006885535 91.15688171328212 l 40.444627412839324 -18.77729708431243 a65.59097187050224,65.59097187050224 0 0,0 0.4666256774083485,1.0281478265918427 l -40.76185540721102 18.078327248878526" fill="red" stroke="none" /><path d="M 119.47837535516314 92.15188598940014 l 58.435126065489385 -23.54434203179955 a84.0,84.0 0 0,0 0.5288258004731983,1.3458039804168624 l -58.83174541584429 22.534989046486903" fill="red" stroke="none" /><path d="M 119.7369772167798 92.82701384747503 l 41.58941660612829 -15.114792206059139 a65.25083634317487,65.25083634317487 0 0,0 0.3745612997977639,1.058935233495358 l -41.84343098673586 14.396659346137167" fill="red" stroke="none" /><path d="M 119.97218684219823 93.5106431181261 l 42.038162258181536 -13.659026911117973 a65.20153959087673,65.20153959087673 0 0,0 0.33763380382752584,1.0703914248902855 l -42.267051545777264 12.933385319801268" fill="red" stroke="none" /><path d="M 120.18372546131832 94.20196356495316 l 51.094651770485754 -14.677600186797106 a74.16103259710697,74.16103259710697 0 0,0 0.3418937649456734,1.2299737800167145 l -51.33973230599779 13.79591510336144" fill="red" stroke="none" /><path d="M 120.67395015179393 96.31383870115 l 43.488541113399215 -7.75399843854943 a65.17440095753241,65.17440095753241 0 0,0 0.18741717858857032,1.1061467971079246 l -43.615570153508 7.004265853125667" fill="red" stroke="none" /><path d="M 120.83666639777658 97.38593545837742 l 28.63995313863466 -3.5930260889249492 a49.864454823517534,49.864454823517534 0 0,0 0.09951436663438609,0.8525783209238795 l -28.697557858272635 3.099504029676217" fill="red" stroke="none" /><line stroke="#e1ed5e" stroke-width="0.3" x1="184.98032266829074" x2="189.97916517819016" y1="98.17113171792111" y2="98.06355123074" /><path d="M 185.9800911702706 98.14961562048488 a86.0,86.0 0 0,1 -9.607161424134198,41.387399972396054" fill="none" id="id28" stroke="none" /><text fill="#e1ed5e" style="font-size:6.75px; font-family:Arial;" text-anchor="middle"><textPath startOffset="21.466115282336823" xlink:href="#id28">April</textPath></text><path d="M 120.99513854157772 99.54816195383933 l 30.818236941059446 -0.663241727983301 a51.825372953867394,51.825372953867394 0 0,0 0.011517554604639815,0.8920472969198571 l -30.825087502781802 0.13265817300298127" fill="red" stroke="none" /><path d="M 120.9764740272857 100.99374915477107 l 44.13275848513258 2.0907656541927873 a65.18225517702547,65.18225517702547 0 0,0 -0.06274148735751997,1.120291404115727 l -44.09023064688753 -2.8501287746439377" fill="red" stroke="none" /><path d="M 120.23288151984713 105.62410040840565 l 31.483937135996374 8.75153761618593 a53.67763314915707,53.67763314915707 0 0,0 -0.25511538203869843,0.8880901128705746 l -31.328629117071575 -9.292185204561086" fill="red" stroke="none" /><line stroke="#e1ed5e" stroke-width="0.3" x1="174.80103733775053" x2="179.2010983576182" y1="140.37084112569926" y2="142.7455964860345" /><path d="M 175.68104954172406 140.8457921977663 a86.0,86.0 0 0,1 -30.038265399797805,32.042727171017184" fill="none" id="id29" stroke="none" /><text fill="#e1ed5e" style="font-size:6.75px; font-family:Arial;" text-anchor="middle"><textPath startOffset="22.206326154141568" xlink:href="#id29">May</textPath></text><line stroke="#e1ed5e" stroke-width="0.3" x1="143.8653032363475" x2="146.44561519142675" y1="172.8068346515853" y2="177.08958963109032" /><path d="M 144.38136562736335 173.6633856474863 a86.0,86.0 0 0,1 -40.68145358897372,12.25698825130547" fill="none" id="id30" stroke="none" /><text fill="#e1ed5e" style="font-size:6.75px; font-family:Arial;" text-anchor="middle"><textPath startOffset="21.466115282336833" xlink:href="#id30">June</textPath></text><line stroke="#e1ed5e" stroke-width="0.3" x1="102.19456741930631" x2="102.32365962044197" y1="184.97166512339345" y2="189.96999836594603" /><path d="M 102.22038585953345 185.97133177190398 a86.0,86.0 0 0,1 -42.740103519485714,-10.115201625700543" fill="none" id="id31" stroke="none" /><text fill="#e1ed5e" style="font-size:6.75px; font-family:Arial;" text-anchor="middle"><textPath startOffset="22.20632615414155" xlink:href="#id31">July</textPath></text><line stroke="#e1ed5e" stroke-width="0.3" x1="58.666819895761336" x2="56.23545636021788" y1="174.27360380694188" y2="178.64263932499728" /><path d="M 58.180547188652646 175.14741091055294 a86.0,86.0 0 0,1 -31.652253787137756,-30.449443065178592" fill="none" id="id32" stroke="none" /><text fill="#e1ed5e" style="font-size:6.75px; font-family:Arial;" text-anchor="middle"><textPath startOffset="22.20632615414155" xlink:href="#id32">August</textPath></text><line stroke="#e1ed5e" stroke-width="0.3" x1="26.63291911575756" x2="22.317208475507996" y1="142.92168965132927" y2="145.44649492493687" /><path d="M 25.769776987707644 143.4266507060508 a86.0,86.0 0 0,1 -11.730757126820373,-40.83630448921669" fill="none" id="id33" stroke="none" /><text fill="#e1ed5e" style="font-size:6.75px; font-family:Arial;" text-anchor="middle"><textPath startOffset="21.46611528233685" xlink:href="#id33">September</textPath></text><line stroke="#e1ed5e" stroke-width="0.3" x1="15.007084014347285" x2="10.007500721073583" y1="101.09737516637583" y2="101.16192664675087" /><path d="M 14.007167355692545 101.11028546245083 a86.0,86.0 0 0,1 10.666146001902534,-42.60595125391555" fill="none" id="id34" stroke="none" /><text fill="#e1ed5e" style="font-size:6.75px; font-family:Arial;" text-anchor="middle"><textPath startOffset="22.20632615414155" xlink:href="#id34">October</textPath></text><line stroke="#e1ed5e" stroke-width="0.3" x1="26.266209847984243" x2="21.928928074336255" y1="57.711370442889674" y2="55.22380399835377" /><path d="M 25.398753493254645 57.213857153982495 a86.0,86.0 0 0,1 29.58750427330803,-30.492523968695096" fill="none" id="id35" stroke="none" /><text fill="#e1ed5e" style="font-size:6.75px; font-family:Arial;" text-anchor="middle"><textPath startOffset="21.46611528233685" xlink:href="#id35">November</textPath></text><line stroke="#e1ed5e" stroke-width="0.3" x1="56.762969772571076" x2="54.21961505331055" y1="26.818313649435495" y2="22.513508569990535" /><path d="M 56.25429882871897 25.957352633546506 a86.0,86.0 0 0,1 42.265352541879196,-11.944610805530505" fill="none" id="id36" stroke="none" /><text fill="#e1ed5e" style="font-size:6.75px; font-family:Arial;" text-anchor="middle"><textPath startOffset="22.20632615414155" xlink:href="#id36">December</textPath></text></svg>