<?xml version="1.0" encoding="utf-8" ?>
<svg baseProfile="full" height="200mm" version="1.1" viewBox="0,0,200,200" width="200mm" xmlns="http://www.w3.org/2000/svg" xmlns:ev="http://www.w3.org/2001/xml-events" xmlns:xlink="http://www.w3.org/1999/xlink"><defs /><rect fill="#1a1a1a" height="200" width="200" x="0" y="0" /><text alignment-baseline="middle" fill="#e1ed5e" style="dominant-baseline: central; font-size:9.0px; font-family:Arial;" text-anchor="middle" x="100.0" y="100.0">2025</text><line stroke="#e1ed5e" stroke-width="0.3" x1="100.0" x2="100.0" y1="15.0" y2="10.0" /><path d="M 100.0 14.0 a86.0,86.0 0 0,1 42.46469731375804,11.215312516191453" fill="none" id="id13" stroke="none" /><text fill="#e1ed5e" style="font-size:6.75px; font-family:Arial;" text-anchor="middle"><textPath startOffset="22.20632615414155" xlink:href="#id13">January</textPath></text><path d="M 101.80526077348638 79.07773832637324 l 2.7716066516904996 -32.121829973098215 a53.241181185749475,53.241181185749475 0 0,0 0.9123887291803273,0.08664230363770127 l -3.324120507961071 32.069362124945336" fill="red" stroke="none" /><path d="M 102.52436894288641 79.15227682838746 l 7.209095462186895 -59.53694959562952 a80.97182192109436,80.97182192109436 0 0,0 1.382247884028469,0.17945544612679265 l -8.23285807472321 59.40403582633859" fill="red" stroke="none" /><path d="M 103.95276090670814 79.375362276772 l 11.424421767342118 -59.61012206655836 a81.69500857161245,81.69500857161245 0 0,0 1.3788312007928845,0.276580567508581 l -12.448819377602126 59.40463754297257" fill="red" stroke="none" /><path d="M 104.307194497241 79.44645832069477 l 7.1701611267283125 -34.215358897756886 a55.9585754155623,55.9585754155623 0 0,0 0.9410560978099688,0.2056784137078891 l -7.758059948691809 34.08686698595312" fill="red" stroke="none" /><path d="M 105.01212808612495 79.60689891045804 l 14.397490919802705 -58.57980536772327 a81.32314101326406,81.32314101326406 0 0,0 1.3565130210076517,0.3458053730771972 l -15.403712829495381 58.323296998477204" fill="red" stroke="none" /><path d="M 106.0581310904928 79.89281104454417 l 17.396307810502687 -57.739068872574755 a81.30283243521558,81.30283243521558 0 0,0 1.3365203331755178,0.4152633733652502 l -18.387613516388924 57.43106536432699" fill="red" stroke="none" /><path d="M 107.08798089147638 80.2323363322302 l 20.381587870614045 -56.84219246780081 a81.38579277176107,81.38579277176107 0 0,0 1.3146428256758025,0.48419404742359373 l -21.357013022062425 56.48293515257089" fill="red" stroke="none" /><line stroke="#e1ed5e" stroke-width="0.3" x1="143.23703022742887" x2="145.7803849466894" y1="26.81831364943548" y2="22.513508569990506" /><path d="M 143.74570117128098 25.957352633546492 a86.0,86.0 0 0,1 28.547481713284135,27.462654790039103" fill="none" id="id14" stroke="none" /><text fill="#e1ed5e" style="font-size:6.75px; font-family:Arial;" text-anchor="middle"><textPath startOffset="19.985693538727396" xlink:href="#id14">February</textPath></text><path d="M 113.6212207817346 84.01681056812373 l 19.48069719121671 -22.85872011484904 a51.0336252947406,51.0336252947406 0 0,0 0.6636952164538579,0.5755499515475201 l -19.871286206317333 22.520005169881845" fill="red" stroke="none" /><path d="M 113.89432698308785 84.25364557470407 l 22.106018458565565 -25.052613343877777 a54.41121798809921,54.41121798809921 0 0,0 0.6969533233484814,0.6257315751521806 l -22.533982769510036 24.668382759956298" fill="red" stroke="none" /><path d="M 114.42810811169701 84.74124197986012 l 24.3029525222241 -25.702113460802796 a56.372759825174214,56.372759825174214 0 0,0 0.6993356446795508,0.6727603360988228 l -24.74177141051607 25.27997003794167" fill="red" stroke="none" /><path d="M 115.19652480421416 85.50635884689758 l 43.68801724877931 -41.66731886745338 a81.37224786879875,81.37224786879875 0 0,0 0.9579942265660194,1.0219214466848456 l -44.39877879731579 40.90912800389048" fill="red" stroke="none" /><path d="M 115.9244219780498 86.31012108654704 l 45.5245389049238 -39.13645506620196 a81.03453803982143,81.03453803982143 0 0,0 0.9002141745554668,1.0655696405064956 l -46.19146369296638 38.34702647606636" fill="red" stroke="none" /><line stroke="#e1ed5e" stroke-width="0.3" x1="172.23445277983987" x2="176.4835382374775" y1="55.19839476539836" y2="52.563006222186495" /><path d="M 173.08426987136738 54.67131705675599 a86.0,86.0 0 0,1 12.851231095245387,41.99856678651699" fill="none" id="id15" stroke="none" /><text fill="#e1ed5e" style="font-size:6.75px; font-family:Arial;" text-anchor="middle"><textPath startOffset="22.20632615414155" xlink:href="#id15">March</textPath></text><path d="M 118.21658344932153 89.55222093294921 l 46.23122683698561 -26.51505126278357 a74.2951618659786,74.2951618659786 0 0,0 0.6267057244523778,1.1148395540968346 l -46.68079020273042 25.71532819875194" fill="red" stroke="none" /><path d="M 118.89224826269711 90.83032412892265 l 47.89872078708345 -23.24846350468645 a74.2426380673208,74.2426380673208 0 0,0 0.5481291761862002,1.1544998354160925 l -48.291808157111404 22.42052125362982" fill="red" stroke="none" /><path d="M 119.34039704204932 91.81776055985345 l 49.054048699958756 -20.75303682230622 a74.26338546511968,74.26338546511968 0 0,0 0.48793984059987144,1.1815850270535733 l -49.40401022744482 19.905577224799345" fill="red" stroke="none" /><path d="M 119.61058180528143 92.48833698450437 l 56.117326960595115 -21.495254635681064 a81.09326382428486,81.09326382428486 0 0,0 0.48808649765794054,1.3078291523838785 l -56.47901804675468 20.52610234626785" fill="red" stroke="none" /><path d="M 119.85752413597 93.16781622104841 l 50.35026206867582 -17.323521372356844 a74.24709647598486,74.24709647598486 0 0,0 0.40539871483451895,1.2120905572328327 l -50.640998077282106 16.4542577122017" fill="red" stroke="none" /><path d="M 120.18372546131832 94.20196356495316 l 51.205094198031816 -14.709326203885196 a74.27594156091111,74.27594156091111 0 0,0 0.3424235129398045,1.2318795654085632 l -51.45070448153798 13.825735335057681" fill="red" stroke="none" /><path d="M 120.37134235888165 94.90015583598534 l 51.65301912538615 -12.931025530847686 a74.2470262648248,74.2470262648248 0 0,0 0.2997005954966947,1.2424524540395903 l -51.867952521143664 12.03998784514869" fill="red" stroke="none" /><path d="M 120.53481517161879 95.60439243477599 l 52.077391325287685 -11.147496258108307 a74.25712497001399,74.25712497001399 0 0,0 0.25679069993573717,1.2522026502475112 l -52.261561321138416 10.249417951697383" fill="red" stroke="none" /><path d="M 120.78858239683441 97.02765380044208 l 52.74607282634813 -7.541620015940789 a74.28249460251706,74.28249460251706 0 0,0 0.17008569240255753,1.267335967702973 l -52.86807451780853 6.6325657061731516" fill="red" stroke="none" /><line stroke="#e1ed5e" stroke-width="0.3" x1="184.98032266829074" x2="189.97916517819016" y1="98.17113171792111" y2="98.06355123074" /><path d="M 185.9800911702706 98.14961562048488 a86.0,86.0 0 0,1 -9.607161424134198,41.387399972396054" fill="none" id="id16" stroke="none" /><text fill="#e1ed5e" style="font-size:6.75px; font-family:Arial;" text-anchor="middle"><textPath startOffset="21.466115282336823" xlink:href="#id16">April</textPath></text><path d="M 120.99513854157772 99.54816195383933 l 53.26370772870426 -1.1462924897471076 a74.2760410267212,74.2760410267212 0 0,0 0.016506940704570264,1.2784807488558685 l -53.27554767652655 0.2292754828307766" fill="red" stroke="none" /><path d="M 120.99980553446 99.90962569577887 l 53.255379707560635 -0.22918868840023499 a74.25587287099285,74.25587287099285 0 0,0 -0.005500955366463011,1.2782282966940979 l -53.25143445490467 -0.6875490864975476" fill="red" stroke="none" /><path d="M 120.92983693683757 101.71520430193887 l 59.74697586403094 4.896276561498517 a80.94726556786202,80.94726556786202 0 0,0 -0.1257589152103951,1.3877391500253233 l -59.65384235254347 -5.923997100072412" fill="red" stroke="none" /><path d="M 120.5718875245553 104.21870165774334 l 31.20497733572943 6.399242143383768 a52.85437035216748,52.85437035216748 0 0,0 -0.19044174953862134,0.8896804525214741 l -31.090201547466368 -6.935436415321411" fill="red" stroke="none" /><path d="M 120.32669344350535 105.2749913415812 l 50.96204632111248 13.225188535473373 a73.65012608754162,73.65012608754162 0 0,0 -0.3290123812353779,1.2243774661868985 l -50.72684586353533 -14.10045693483582" fill="red" stroke="none" /><path d="M 119.9155931802556 106.66101706037122 l 49.92762797248623 16.69891419745952 a73.64619426257804,73.64619426257804 0 0,0 -0.41245084340072413,1.1987752148827298 l -49.63278629814228 -17.55586211543155" fill="red" stroke="none" /><path d="M 119.67450827220406 107.3425965602758 l 49.38411082789405 18.430326048324243 a73.71116884028717,73.71116884028717 0 0,0 -0.45387027566180904,1.1849120696030502 l -49.05954627263873 -19.27766168476044" fill="red" stroke="none" /><path d="M 119.26925614724726 108.34839909993367 l 48.84858140997191 21.163632366488827 a74.23610842943486,74.23610842943486 0 0,0 -0.5180935011995039,1.1681640725150457 l -48.477046824041125 -22.00134477549656" fill="red" stroke="none" /><path d="M 118.97047184881838 109.00673069616215 l 54.2016176985311 25.733644255001145 a81.00029839743027,81.00029839743027 0 0,0 -0.6088396816795593,1.2543900766167868 l -53.75062476023683 -26.66282328758321" fill="red" stroke="none" /><line stroke="#e1ed5e" stroke-width="0.3" x1="174.80103733775053" x2="179.2010983576182" y1="140.37084112569926" y2="142.7455964860345" /><path d="M 175.68104954172406 140.8457921977663 a86.0,86.0 0 0,1 -30.038265399797805,32.042727171017184" fill="none" id="id17" stroke="none" /><text fill="#e1ed5e" style="font-size:6.75px; font-family:Arial;" text-anchor="middle"><textPath startOffset="22.206326154141568" xlink:href="#id17">May</textPath></text><path d="M 117.35343817320211 111.8261652097733 l 30.08735171250295 20.504178395384734 a57.409752330132875,57.409752330132875 0 0,0 -0.5635425840657157,0.8118251233386701 l -29.7299482212751 -21.019044780910423" fill="red" stroke="none" /><path d="M 116.71984013943494 112.70617746262583 l 23.91996979503898 18.177887981092056 a51.043311509364415,51.043311509364415 0 0,0 -0.5376396444040912,0.6949717149456938 l -23.603523333416824 -18.586937690151004" fill="red" stroke="none" /><path d="M 116.27256486870786 113.27417163493432 l 23.366508053920587 19.06098030146901 a51.154844862590906,51.154844862590906 0 0,0 -0.5624694430284506,0.6775306782200539 l -23.03494261099859 -19.460372236802833" fill="red" stroke="none" /><path d="M 116.0416608686014 113.55231037782055 l 34.833053469612196 29.42764816524644 a66.59965011438568,66.59965011438568 0 0,0 -0.7473669718771584,0.8693566325801275 l -34.32134398816426 -30.022881896988093" fill="red" stroke="none" /><path d="M 115.56566222782051 114.09645910891815 l 22.244553370806944 20.14494676797527 a51.01064869260969,51.01064869260969 0 0,0 -0.5950115060820511,0.6457674736523913 l -21.89449545672917 -20.524865496428998" fill="red" stroke="none" /><path d="M 114.55890576462653 115.13401014063108 l 21.20279508095266 22.040345679309485 a51.58325288304576,51.58325288304576 0 0,0 -0.6451939084730086,0.6100711114345073 l -20.820265338088845 -22.402051427489916" fill="red" stroke="none" /><path d="M 113.75828350139079 115.86535959552629 l 19.723235405099235 22.743841705070476 a51.104623404890205,51.104623404890205 0 0,0 -0.669554581200664,0.5706089397756331 l -19.328815347321523 -23.079975035069058" fill="red" stroke="none" /><path d="M 112.63410532772338 116.77436683061366 l 18.847159570540732 25.02347100570915 a52.32713719845769,52.32713719845769 0 0,0 -0.7241453583257917,0.5357054242189313 l -18.41362924179638 -25.34418637866785" fill="red" stroke="none" /><path d="M 111.7513745106137 117.40417183066458 l 33.565484280028215 49.711585267021974 a80.98235944603394,80.98235944603394 0 0,0 -1.162001612229747,0.7701113065746257 l -32.7048079690585 -50.281994594687916" fill="red" stroke="none" /><line stroke="#e1ed5e" stroke-width="0.3" x1="143.8653032363475" x2="146.44561519142675" y1="172.8068346515853" y2="177.08958963109032" /><path d="M 144.38136562736335 173.6633856474863 a86.0,86.0 0 0,1 -40.68145358897372,12.25698825130547" fill="none" id="id18" stroke="none" /><text fill="#e1ed5e" style="font-size:6.75px; font-family:Arial;" text-anchor="middle"><textPath startOffset="21.466115282336833" xlink:href="#id18">June</textPath></text><path d="M 110.21172684928248 118.3499491758327 l 15.19986233508294 27.313372698372092 a52.257897292774686,52.257897292774686 0 0,0 -0.7897840238303707,0.4306532212329734 l -14.72745549938392 -27.57096657136484" fill="red" stroke="none" /><path d="M 109.89434966115114 118.52300852407294 l 28.272004645340385 52.9274384848597 a81.0051663711947,81.0051663711947 0 0,0 -1.235556749097545,0.6463848951095706 l -27.356756993716342 -53.40625279891398" fill="red" stroke="none" /><path d="M 109.2508944713604 118.85261126421891 l 15.868353252268145 32.33848318067799 a57.02196731670499,57.02196731670499 0 0,0 -0.8848922282961389,0.42480204439430247 l -15.309348355971773 -32.606839501571855" fill="red" stroke="none" /><path d="M 108.2653958097858 119.30500536409082 l 12.239682799500903 28.587516863909084 a52.09752330132875,52.09752330132875 0 0,0 -0.8274290909756756,0.34586542713431867 l -11.745782249027766 -28.793967334063375" fill="red" stroke="none" /><path d="M 106.57524785965236 119.94407469862006 l 18.789980136802914 56.99386174223972 a81.01136250607034,81.01136250607034 0 0,0 -1.3281182340923867,0.4252215179648911 l -17.80614055761959 -57.30885610686432" fill="red" stroke="none" /><path d="M 106.2309692047433 120.05430185196036 l 8.936862412978396 28.76318764388612 a51.11956960558881,51.11956960558881 0 0,0 -0.8425601112541933,0.2538564498949047 l -8.440427327283958 -28.912759462886747" fill="red" stroke="none" /><path d="M 105.88484417918355 120.15858648285463 l 8.41408289254954 28.822516365573446 a51.025559787728255,51.025559787728255 0 0,0 -0.8452477085793156,0.23887544539567168 l -7.916704015865618 -28.96308060430764" fill="red" stroke="none" /><path d="M 105.53697534728816 120.25689768951611 l 7.938158182648534 29.04157018287298 a51.1069286713123,51.1069286713123 0 0,0 -0.8505885718654642,0.22464817270889603 l -7.437079167971572 -29.17390970488546" fill="red" stroke="none" /><path d="M 105.18746579009965 120.34920634021253 l 7.4137063455903185 29.082223628362893 a51.012310356731206,51.012310356731206 0 0,0 -0.8527478089709696,0.20958466419394983 l -6.912005251876138 -29.205529550870875" fill="red" stroke="none" /><path d="M 104.83641907484287 120.43548508189849 l 7.182337805850908 30.34777483367495 a52.18610930707436,52.18610930707436 0 0,0 -0.8759310482059687,0.19935905478502425 l -6.658886608252077 -30.46691062203766" fill="red" stroke="none" /><path d="M 102.70371172650421 120.8252237178851 l 4.062657617116335 31.292446208756697 a52.55506895321011,52.55506895321011 0 0,0 -0.8981225250929005,0.1087501301983081 l -3.5234076689720544 -31.357741867680353" fill="red" stroke="none" /><path d="M 102.34483914955558 120.86867818915974 l 3.4235931546573224 30.46940930199618 a51.66114631420665,51.66114631420665 0 0,0 -0.8845554398370155,0.09168778806809288 l -2.898605118214704 -30.52382645852003" fill="red" stroke="none" /><path d="M 100.90346689309514 120.98055641714683 l 1.5505758957049351 36.007899467633834 a57.041269534792555,57.041269534792555 0 0,0 -0.9813261808362488,0.03379885785013997 l -0.9305293631940341 -36.02925512391007" fill="red" stroke="none" /><line stroke="#e1ed5e" stroke-width="0.3" x1="102.19456741930631" x2="102.32365962044197" y1="184.97166512339345" y2="189.96999836594603" /><path d="M 102.22038585953345 185.97133177190398 a86.0,86.0 0 0,1 -42.740103519485714,-10.115201625700543" fill="none" id="id19" stroke="none" /><text fill="#e1ed5e" style="font-size:6.75px; font-family:Arial;" text-anchor="middle"><textPath startOffset="22.20632615414155" xlink:href="#id19">July</textPath></text><path d="M 100.18074693466247 120.99922214144158 l 0.25818792498494336 29.996334937140496 a50.99744606905267,50.99744606905267 0 0,0 -0.877869719294777,0.0 l 0.2581879249849227 -29.996334937140496" fill="red" stroke="none" /><path d="M 99.81925306533755 120.99922214144158 l -0.2621558314774186 30.457327263389345 a51.458455471497196,51.458455471497196 0 0,0 -0.8856742906315374,-0.015247686111940105 l 0.7863898120016238 -30.448302099998244" fill="red" stroke="none" /><path d="M 99.09653310690486 120.98055641714683 l -2.2930253237259226 53.24926407160788 a74.29861245194924,74.29861245194924 0 0,0 -1.2772707426417047,-0.06602030788826882 l 3.209284134781116 -53.20190395695741" fill="red" stroke="none" /><path d="M 98.37488393609728 120.93702456842531 l -4.875348191708155 62.81107370527595 a84.0,84.0 0 0,0 -1.4406227290338331,-0.12430299088534635 l 5.955815238483529 -62.71784646211194" fill="red" stroke="none" /><path d="M 97.65516085044442 120.86867818915974 l -3.3620488303116405 29.921675057887125 a51.109965303985064,51.109965303985064 0 0,0 -0.8734269026854857,-0.10575983424525948 l 3.8766031560485157 -29.859369694916516" fill="red" stroke="none" /><path d="M 96.58105272829116 120.7198165907248 l -4.885276792998804 29.606200710801552 a51.00655011614096,51.00655011614096 0 0,0 -0.8650492993107635,-0.15039990894909455 l 5.394175063781617 -29.51772222333145" fill="red" stroke="none" /><path d="M 95.86986931433489 120.58985236759428 l -5.901101515660427 29.418635452710536 a51.00465148935423,51.00465148935423 0 0,0 -0.8593276763691368,-0.1800804696696538 l 6.406620653458951 -29.312699002314343" fill="red" stroke="none" /><path d="M 95.16358092515715 120.4354850818985 l -6.922224709746664 29.248710171827604 a51.05668380989158,51.05668380989158 0 0,0 -0.8534895782555687,-0.2097669730369469 l 7.424667572745443 -29.125221940476624" fill="red" stroke="none" /><path d="M 93.42475214034765 119.94407469862007 l -9.553122744751505 28.97657969603659 a51.51072475469976,51.51072475469976 0 0,0 -0.8396990553273058,-0.28487151027255925 l 10.050491533016036 -28.80784519886591" fill="red" stroke="none" /><line stroke="#e1ed5e" stroke-width="0.3" x1="58.666819895761336" x2="56.23545636021788" y1="174.27360380694188" y2="178.64263932499728" /><path d="M 58.180547188652646 175.14741091055294 a86.0,86.0 0 0,1 -31.652253787137756,-30.449443065178592" fill="none" id="id20" stroke="none" /><text fill="#e1ed5e" style="font-size:6.75px; font-family:Arial;" text-anchor="middle"><textPath startOffset="22.20632615414155" xlink:href="#id20">August</textPath></text><line stroke="#e1ed5e" stroke-width="0.3" x1="26.63291911575756" x2="22.317208475507996" y1="142.92168965132927" y2="145.44649492493687" /><path d="M 25.769776987707644 143.4266507060508 a86.0,86.0 0 0,1 -11.730757126820373,-40.83630448921669" fill="none" id="id21" stroke="none" /><text fill="#e1ed5e" style="font-size:6.75px; font-family:Arial;" text-anchor="middle"><textPath startOffset="21.46611528233685" xlink:href="#id21">September</textPath></text><line stroke="#e1ed5e" stroke-width="0.3" x1="15.007084014347285" x2="10.007500721073583" y1="101.09737516637583" y2="101.16192664675087" /><path d="M 14.007167355692545 101.11028546245083 a86.0,86.0 0 0,1 10.666146001902534,-42.60595125391555" fill="none" id="id22" stroke="none" /><text fill="#e1ed5e" style="font-size:6.75px; font-family:Arial;" text-anchor="middle"><textPath startOffset="22.20632615414155" xlink:href="#id22">October</textPath></text><line stroke="#e1ed5e" stroke-width="0.3" x1="26.266209847984243" x2="21.928928074336255" y1="57.711370442889674" y2="55.22380399835377" /><path d="M 25.398753493254645 57.213857153982495 a86.0,86.0 0 0,1 29.58750427330803,-30.492523968695096" fill="none" id="id23" stroke="none" /><text fill="#e1ed5e" style="font-size:6.75px; font-family:Arial;" text-anchor="middle"><textPath startOffset="21.46611528233685" xlink:href="#id23">November</textPath></text><line stroke="#e1ed5e" stroke-width="0.3" x1="56.762969772571076" x2="54.21961505331055" y1="26.818313649435495" y2="22.513508569990535" /><path d="M 56.25429882871897 25.957352633546506 a86.0,86.0 0 0,1 42.265352541879196,-11.944610805530505" fill="none" id="id24" stroke="none" /><text fill="#e1ed5e" style="font-size:6.75px; font-family:Arial;" text-anchor="middle"><textPath startOffset="22.20632615414155" xlink:href="#id24">December</textPath></text></svg>