<?xml version="1.0" encoding="utf-8" ?>
<svg baseProfile="full" height="200mm" version="1.1" viewBox="0,0,200,200" width="200mm" xmlns="http://www.w3.org/2000/svg" xmlns:ev="http://www.w3.org/2001/xml-events" xmlns:xlink="http://www.w3.org/1999/xlink"><defs /><rect fill="#1a1a1a" height="200" width="200" x="0" y="0" /><text alignment-baseline="middle" fill="#e1ed5e" style="dominant-baseline: central; font-size:9.0px; font-family:Arial;" text-anchor="middle" x="100.0" y="100.0">2024</text><line stroke="#e1ed5e" stroke-width="0.3" x1="100.0" x2="100.0" y1="15.0" y2="10.0" /><path d="M 100.0 14.0 a86.0,86.0 0 0,1 42.35913384403234,11.155469271406648" fill="none" id="id1" stroke="none" /><text fill="#e1ed5e" style="font-size:6.75px; font-family:Arial;" text-anchor="middle"><textPath startOffset="22.145653131862478" xlink:href="#id1">January</textPath></text><line stroke="#e1ed5e" stroke-width="0.3" x1="143.13028292997686" x2="145.6673583964461" y1="26.7553504044142" y2="22.446841604673864" /><path d="M 143.63769802327073 25.89364864446614 a86.0,86.0 0 0,1 29.32050498858742,28.57503671076993" fill="none" id="id2" stroke="none" /><text fill="#e1ed5e" style="font-size:6.75px; font-family:Arial;" text-anchor="middle"><textPath startOffset="20.669276256404974" xlink:href="#id2">February</textPath></text><line stroke="#e1ed5e" stroke-width="0.3" x1="172.87174338648825" x2="177.1583165268699" y1="56.24261187166439" y2="53.66864786411523" /><path d="M 173.72905801456457 55.72781907015455 a86.0,86.0 0 0,1 12.242430191666344,42.057860355516425" fill="none" id="id3" stroke="none" /><text fill="#e1ed5e" style="font-size:6.75px; font-family:Arial;" text-anchor="middle"><textPath startOffset="22.145653131862474" xlink:href="#id3">March</textPath></text><path d="M 120.51834098615036 95.52812308129327 l 7.541118939921749 -1.6435517740650105 a28.718143384265336,28.718143384265336 0 0,0 0.10084483971570436,0.48257906428257796 l -7.568221490461821 1.513856258497028" fill="#ff3905" stroke="none" /><line stroke="#e1ed5e" stroke-width="0.3" x1="184.99686870605535" x2="189.99668451229388" y1="99.2704041080226" y2="99.22748670261217" /><path d="M 185.99683186730306 99.26182062694052 a86.0,86.0 0 0,1 -10.086455211305974,41.156179273409016" fill="none" id="id4" stroke="none" /><text fill="#e1ed5e" style="font-size:6.75px; font-family:Arial;" text-anchor="middle"><textPath startOffset="21.40746469413373" xlink:href="#id4">April</textPath></text><line stroke="#e1ed5e" stroke-width="0.3" x1="174.33088141563837" x2="178.70328620479359" y1="141.23008692659167" y2="143.65538615756765" /><path d="M 175.20536237346943 141.71514677278685 a86.0,86.0 0 0,1 -30.301960400862466,31.631185727798858" fill="none" id="id5" stroke="none" /><text fill="#e1ed5e" style="font-size:6.75px; font-family:Arial;" text-anchor="middle"><textPath startOffset="22.145653131862474" xlink:href="#id5">May</textPath></text><path d="M 115.6541949942343 113.99807769240083 l 5.810444276555142 5.195735101073012 a28.794672920108617,28.794672920108617 0 0,0 -0.3326501835202101,0.36564082342381043 l -5.720396392193052 -5.2947135000544945" fill="#ff3a05" stroke="none" /><path d="M 113.86319453409587 115.77377054828091 l 9.845612950878497 11.202500203858595 a35.91415787753228,35.91415787753228 0 0,0 -0.4665771064774903,0.4030181919728078 l -9.651856364638151 -11.369862528296121" fill="#ffa00e" stroke="none" /><path d="M 113.31354834802062 116.24036423190432 l 7.889548370000058 9.623966188779228 a33.44450475854047,33.44450475854047 0 0,0 -0.4471199498481108,0.36016818163707426 l -7.723177649796694 -9.757982664209706" fill="#ff7e0b" stroke="none" /><path d="M 113.03279911837588 116.46651593811092 l 18.47322817749729 23.340320329515407 a50.76626802913442,50.76626802913442 0 0,0 -0.6879797632892422,0.5349772251421141 l -18.06983846957282 -23.653998606278314" fill="#a1ff22" stroke="none" /><path d="M 112.16784306229584 117.11559508785304 l 2.274978376933075 3.2000419905038475 a24.926295373058537,24.926295373058537 0 0,0 -0.35087310814899697,0.24493667966682994 l -2.2197101776103194 -3.238623485975799" fill="#ff0000" stroke="none" /><path d="M 111.5731344415666 117.5232005979908 l 8.264324199721576 12.513240167539923 a35.99600726755753,35.99600726755753 0 0,0 -0.5185385418960596,0.3361104180520973 l -8.048300025568507 -12.653264427295916" fill="#ffa10e" stroke="none" /><path d="M 110.96478420261333 117.91015095944535 l 9.40992562512445 15.3704063252758 a39.02210006837306,39.02210006837306 0 0,0 -0.5743072810224726,0.34485502106553456 l -9.14468558754454 -15.529675346877259" fill="#ffca12" stroke="none" /><line stroke="#e1ed5e" stroke-width="0.3" x1="143.1302829299769" x2="145.66735839644613" y1="173.24464959558577" y2="177.55315839532614" /><path d="M 143.63769802327073 174.10635135553383 a86.0,86.0 0 0,1 -40.68552437913181,11.842963189579606" fill="none" id="id6" stroke="none" /><text fill="#e1ed5e" style="font-size:6.75px; font-family:Arial;" text-anchor="middle"><textPath startOffset="21.407464694133747" xlink:href="#id6">June</textPath></text><path d="M 110.02825361518725 118.45085714620011 l 2.9039976113540407 5.343028520823787 a27.08121335763566,27.08121335763566 0 0,0 -0.41035928440334496,0.21849320536616862 l -2.8118495111641417 -5.392092193912524" fill="#ff2103" stroke="none" /><path d="M 109.71004243097381 118.62028667847754 l 7.054998176223205 13.528889239286029 a36.25791084373552,36.25791084373552 0 0,0 -0.5543537223552093,0.28305696056122304 l -6.821717232154414 -13.64800415152009" fill="#ffa50f" stroke="none" /><path d="M 109.3889696526874 118.78422872680471 l 11.825495137719496 23.65891186058517 a47.449696513933105,47.449696513933105 0 0,0 -0.7317189472220262,0.3579204039903329 l -11.4176159412354 -23.858426014672727" fill="#c9ff1d" stroke="none" /><path d="M 107.407793817531 119.65005319985036 l 4.455951858952294 11.819941704798715 a33.631964569066064,33.631964569066064 0 0,0 -0.5419724600645709,0.1990197944365041 l -4.2523902472335955 -11.894692348243941" fill="#ff800b" stroke="none" /><path d="M 107.06938296918513 119.77432235084164 l 5.062072229874978 14.159516958285518 a36.03717047028618,36.03717047028618 0 0,0 -0.5843070731886681,0.20325233125207626 l -4.818259384641288 -14.244327722106185" fill="#ffa20e" stroke="none" /><path d="M 105.3480935250658 120.30758222061773 l 3.8386266057120846 14.575890463469364 a36.07287752956076,36.07287752956076 0 0,0 -0.6001748793789065,0.15256210737250653 l -3.587846433107781 -14.63963780267714" fill="#ffa20f" stroke="none" /><path d="M 104.9986988182912 120.39639698878246 l 6.307676646430669 25.73747321737061 a47.49913795372967,47.49913795372967 0 0,0 -0.7936152491922617,0.18729103790708415 l -5.864929243498528 -25.84196039892392" fill="#c8ff1d" stroke="none" /><path d="M 104.64783097203109 120.47920084513623 l 3.3719977844909126 14.857644413812821 a36.23548379887934,36.23548379887934 0 0,0 -0.6077856783787483,0.13246405976472497 l -3.1164496894930287 -14.913339931711265" fill="#ffa40f" stroke="none" /><path d="M 103.94208987418118 120.62667999033965 l 2.84166349365559 14.868784171502266 a36.13789265881785,36.13789265881785 0 0,0 -0.6103264442258537,0.11122180918151268 l -2.586002315878679 -14.915374154615144" fill="#ffa30f" stroke="none" /><path d="M 102.875027216393 120.80226474461374 l 2.054028476735474 14.861926844516663 a36.00319640993229,36.00319640993229 0 0,0 -0.6129495809225338,0.07935859492854505 l -1.7986010739221647 -14.894997035645602" fill="#ffa10e" stroke="none" /><path d="M 102.51750503828377 120.84855314841334 l 1.8323169256201268 15.174212654037449 a36.28444029023844,36.28444029023844 0 0,0 -0.619019632690567,0.0693624409943737 l -1.5715613913287605 -15.203430855538793" fill="#ffa50f" stroke="none" /><path d="M 102.15924093988457 120.88869738790638 l 1.5415102452877396 14.912713277793983 a35.99217366301565,35.99217366301565 0 0,0 -0.6151241353513652,0.05825289515992685 l -1.2852865465513592 -14.936977928459095" fill="#ffa10e" stroke="none" /><path d="M 101.80034050326958 120.92268563240118 l 1.3917203415539665 16.17389996040737 a37.23366642007777,37.23366642007777 0 0,0 -0.6372825785510523,0.0493297020365643 l -1.1138687682276784 -16.195407429438987" fill="#ffb210" stroke="none" /><path d="M 101.44090949804482 120.95050786540614 l 1.0310165881529156 14.990754914705978 a36.02616811159212,36.02616811159212 0 0,0 -0.6173438126657956,0.03713787077005378 l -0.7735284233546549 -15.006244763300725" fill="#ffa10e" stroke="none" /><line stroke="#e1ed5e" stroke-width="0.3" x1="101.45913802915013" x2="101.54496967792366" y1="184.9874750549273" y2="189.98673829345242" /><path d="M 101.47630435890484 185.9873277026323 a86.0,86.0 0 0,1 -42.54439059252881,-10.42667462771756" fill="none" id="id7" stroke="none" /><text fill="#e1ed5e" style="font-size:6.75px; font-family:Arial;" text-anchor="middle"><textPath startOffset="22.145653131862474" xlink:href="#id7">July</textPath></text><path d="M 100.36049292484886 120.99690560180557 l 0.2574670440873433 14.996164550370738 a35.99837459528822,35.99837459528822 0 0,0 -0.6179599689361936,0.005304443111916734 l -1.8367711440532697e-15 -14.998374595288219" fill="#ffa10e" stroke="none" /><path d="M 100.0 121.0 l 1.8403009584074253e-15 15.02719771683325 a36.02719771683325,36.02719771683325 0 0,0 -0.6184547561451955,-0.005308690265024683 l 0.2579618312963416 -15.02498342476266" fill="#ffa10e" stroke="none" /><path d="M 99.63950707515114 120.99690560180557 l -0.2592797222268669 15.101743964441265 a36.103969569020464,36.103969569020464 0 0,0 -0.6195899972319047,-0.01595844049166353 l 0.5184830335295154 -15.095067806599554" fill="#ffa30f" stroke="none" /><path d="M 97.84075906011543 120.88869738790638 l -1.5558983071379981 15.051904724397684 a36.13210677250528,36.13210677250528 0 0,0 -0.6164207931483456,-0.06907123560300725 l 1.814055001887143 -15.022977728287707" fill="#ffa30f" stroke="none" /><path d="M 97.48249496171623 120.84855314841334 l -1.9513690326901572 16.160134884156253 a37.27752439948612,37.27752439948612 0 0,0 -0.6346448437058737,-0.08216748105014123 l 2.228491698286825 -16.124255806905715" fill="#ffb310" stroke="none" /><path d="M 97.12497278360702 120.80226474461374 l -2.0557052332108485 14.874059019097247 a36.01544390650635,36.01544390650635 0 0,0 -0.6117049834212143,-0.0898995673449223 l 2.3107353222397475 -14.836578378453442" fill="#ffa10e" stroke="none" /><path d="M 95.35216902796893 120.47920084513623 l -5.869662137059059 25.86281440122912 a47.5205222866302,47.5205222866302 0 0,0 -0.7939725384697902,-0.18737535720373202 l 6.312766829268737 -25.75824290037916" fill="#c8ff1d" stroke="none" /><path d="M 95.00130118170881 120.39639698878247 l -3.565604095078422 14.548881473300936 a35.97943539279766,35.97943539279766 0 0,0 -0.5986202037610938,-0.15216691490997414 l 3.814829592064895 -14.4855293265557" fill="#ffa10e" stroke="none" /><path d="M 94.30408787586889 120.21278271476187 l -4.77421785748341 16.94201491933459 a38.60184722344985,38.60184722344985 0 0,0 -0.636268710474859,-0.18520854853969 l 5.064346580339875 -16.857562676492382" fill="#ffc412" stroke="none" /><path d="M 92.93061703081489 119.77432235084164 l -5.069708782788445 14.180877755913631 a36.05985528052804,36.05985528052804 0 0,0 -0.5810974388911045,-0.21338702859903144 l 5.312395373333668 -14.09175987830588" fill="#ffa20f" stroke="none" /><path d="M 92.25597844496254 119.51999308798841 l -9.770022328824007 24.626838519590674 a47.494046723287,47.494046723287 0 0,0 -0.7552583344406882,-0.307156989601949 l 10.191335124455136 -24.455494273409432" fill="#c8ff1d" stroke="none" /><path d="M 91.92203290615298 119.3841803445677 l -5.760790459925615 13.823799961690952 a35.9761193940225,35.9761193940225 0 0,0 -0.5680199677399363,-0.24245394767305467 l 5.997245502835982 -13.722871364358493" fill="#ffa10e" stroke="none" /><path d="M 90.6110303473126 118.78422872680471 l -6.9774253577009455 13.959524707351349 a36.60617809322452,36.60617809322452 0 0,0 -0.5596784429923332,-0.2857758008586751 l 7.216031022406861 -13.837690954819838" fill="#ffa90f" stroke="none" /><path d="M 90.28995756902619 118.62028667847754 l -12.245648836216384 23.48264629276664 a47.48377979690804,47.48377979690804 0 0,0 -0.7195176095287731,-0.3831026000835457 l 12.64695526153172 -23.26897322496052" fill="#c8ff1d" stroke="none" /><line stroke="#e1ed5e" stroke-width="0.3" x1="58.13341422392154" x2="55.67067388415222" y1="173.97424548756322" y2="178.32567169271397" /><path d="M 57.64086615596768 174.84453072859336 a86.0,86.0 0 0,1 -31.369924170532247,-30.572349798747897" fill="none" id="id8" stroke="none" /><text fill="#e1ed5e" style="font-size:6.75px; font-family:Arial;" text-anchor="middle"><textPath startOffset="22.145653131862474" xlink:href="#id8">August</textPath></text><path d="M 89.65649057296885 118.27599006163327 l -7.36835822048822 13.019182953154468 a35.95967337989517,35.95967337989517 0 0,0 -0.5346133753563405,-0.30865917617435995 l 7.5907640637049605 -12.890776879703937" fill="#ffa10e" stroke="none" /><path d="M 89.03521579738668 117.91015095944536 l -7.835059811288419 12.797981374135368 a36.00588183010858,36.00588183010858 0 0,0 -0.5243757256288532,-0.3272492354533843 l 8.053599665706985 -12.661596341840436" fill="#ffa10e" stroke="none" /><path d="M 88.4268655584334 117.5232005979908 l -8.27085116225961 12.523122820716301 a36.00785074989076,36.00785074989076 0 0,0 -0.5128610389019688,-0.3450757952341928 l 8.484608489258585 -12.379297351424986" fill="#ffa10e" stroke="none" /><path d="M 88.1277618465304 117.32195027204791 l -8.467598855876258 12.35447978798112 a35.977763558544744,35.977763558544744 0 0,0 -0.5064382626902593,-0.3535332393353818 l 8.678432209740283 -12.207301732840609" fill="#ffa10e" stroke="none" /><path d="M 87.83215693770417 117.11559508785305 l -8.674312720139568 12.201507154819387 a35.97065389406501,35.97065389406501 0 0,0 -0.5001959050634793,-0.36210326125770403 l 8.882489635577002 -12.050803122188618" fill="#ffa10e" stroke="none" /><path d="M 87.54013794807813 116.9041958592261 l -8.98325403833334 12.187509386891474 a36.14048341938923,36.14048341938923 0 0,0 -0.49623811301432813,-0.37238633130648485 l 9.191145140258435 -12.031504028320974" fill="#ffa30f" stroke="none" /><path d="M 87.2517909369889 116.68781488649013 l -9.092325033571099 11.90214533649921 a35.97769802497211,35.97769802497211 0 0,0 -0.48756643203923095,-0.37913460657290454 l 9.295301410245557 -11.74430967830551" fill="#ffa10e" stroke="none" /><path d="M 86.96720088162412 116.46651593811092 l -2.8606402499482844 3.6143255060655863 a25.609404679936492,25.609404679936492 0 0,0 -0.34237241121678674,-0.27579097920488826 l 2.922263431520333 -3.5646862330672877" fill="#ff0a01" stroke="none" /><path d="M 86.40962598614128 116.0094264158162 l -19.385181279592697 22.835694804015212 a50.954201882620715,50.954201882620715 0 0,0 -0.6619691364707005,-0.571793173772222 l 19.774329895826263 -22.499557497778266" fill="#9fff22" stroke="none" /><path d="M 85.86807049272751 115.53346607816431 l -10.234579525222559 11.249595732663893 a36.208550956829335,36.208550956829335 0 0,0 -0.45617640985896224,-0.42223007464709694 l 10.42618570639549 -11.072247911884418" fill="#ffa40f" stroke="none" /><path d="M 85.60350026404147 115.28858382429668 l -10.249333495507303 10.884436992545266 a35.95057877631551,35.95057877631551 0 0,0 -0.445663085930543,-0.42693515501460305 l 10.43466906730316 -10.70688970722508" fill="#ffa00e" stroke="none" /><path d="M 85.34317274990678 115.03919595460226 l -10.574447776939799 10.850314977144496 a36.15085083057956,36.15085083057956 0 0,0 -0.4407099955621344,-0.4369432660972839 l 10.759149692631896 -10.667191700818554" fill="#ffa30f" stroke="none" /><path d="M 84.83555147118756 114.52719865689866 l -10.860184617909985 10.403811196642875 a36.039378223533056,36.039378223533056 0 0,0 -0.424139146843758,-0.45042107585984853 l 11.037179598489995 -10.215848660838537" fill="#ffa20e" stroke="none" /><path d="M 84.58840730492382 114.26474011684316 l -9.955532996764266 9.214692714327338 a34.565515068331884,34.565515068331884 0 0,0 -0.39931778224580766,-0.43892019286757755 l 10.112248479851953 -9.042434945902086" fill="#ff8d0d" stroke="none" /><path d="M 84.1078160697243 113.72728997021213 l -11.715971280287727 10.119976949222034 a36.48153469438066,36.48153469438066 0 0,0 -0.4053019226572815,-0.47744464577308815 l 11.887967766452121 -9.917365520999391" fill="#ffa80f" stroke="none" /><path d="M 83.8745106332314 113.45245675266167 l -11.521126349695237 9.611333363973696 a36.00380223140374,36.00380223140374 0 0,0 -0.391846834261459,-0.4779894243949519 l 11.684420003195326 -9.412141657880248" fill="#ffa10e" stroke="none" /><path d="M 83.64595745247003 113.17365903436017 l -11.664867857674373 9.396391833472329 a35.97869559157773,35.97869559157773 0 0,0 -0.38331628502687604,-0.4843076041763728 l 11.82445057334281 -9.194764285381277" fill="#ffa10e" stroke="none" /><path d="M 83.20337586046588 112.60449989151573 l -11.942549064419916 8.96191146127994 a35.93118666402298,35.93118666402298 0 0,0 -0.36598134578052005,-0.4965239843038876 l 12.094632429784266 -8.755581167707172" fill="#ffa00e" stroke="none" /><path d="M 82.98947788004972 112.3143062007846 l -21.77292461747718 15.76191834298609 a47.87932879089999,47.87932879089999 0 0,0 -0.47625089890184585,-0.6699065318395108 l 22.040290614908987 -15.385834584437077" fill="#c4ff1e" stroke="none" /><path d="M 82.78059297857968 112.02048342749411 l -4.598159372225434 3.20987235286651 a26.607704533414843,26.607704533414843 0 0,0 -0.25823444112835,-0.37677176703603377 l 4.652583550169109 -3.1304658507604253" fill="#ff1a02" stroke="none" /><path d="M 82.576782715395 111.72311816256416 l -15.61196941272006 10.504429760935736 a39.816924125534946,39.816924125534946 0 0,0 -0.3766976067186433,-0.5703681885527523 l 15.78999145835943 -10.234881694043922" fill="#ffd513" stroke="none" /><path d="M 82.37810715431573 111.42229804090323 l -12.60549327989252 8.170728448777153 a36.02195939992755,36.02195939992755 0 0,0 -0.33188627889792643,-0.5217803552732397 l 12.743897250416337 -7.9531344188252415" fill="#ffa10e" stroke="none" /><path d="M 81.99639281039703 110.81064883170644 l -41.347139039248965 24.8277689932713 a69.22866388273917,69.22866388273917 0 0,0 -0.6030353636544126,-1.0240858836081346 l 41.76724811303315 -24.114331941369606" fill="#3aff90" stroke="none" /><line stroke="#e1ed5e" stroke-width="0.3" x1="26.387840678322732" x2="22.057713659400548" y1="142.50000000000003" y2="145.00000000000006" /><path d="M 25.521815274538298 143.00000000000003 a86.0,86.0 0 0,1 -11.493303480769221,-40.785679425670985" fill="none" id="id9" stroke="none" /><text fill="#e1ed5e" style="font-size:6.75px; font-family:Arial;" text-anchor="middle"><textPath startOffset="21.40746469413373" xlink:href="#id9">September</textPath></text><path d="M 81.63589988554817 110.18625677009913 l -26.312030683271352 14.5948398784652 a51.08874058107868,51.08874058107868 0 0,0 -0.41881734634898676,-0.7705767449013045 l 26.558693379235667 -14.141008300089307" fill="#9eff22" stroke="none" /><path d="M 81.4637452351635 109.86951160357371 l -26.608569273024564 14.167564404261006 a51.14524572641979,51.14524572641979 0 0,0 -0.40597617966131616,-0.778512854466355 l 26.84785352166083 -13.708705306690147" fill="#9dff22" stroke="none" /><path d="M 81.1358732173502 109.22738970284198 l -26.935960100321545 13.175727863240965 a50.985759140837146,50.985759140837146 0 0,0 -0.37783055576067986,-0.7895205450152405 l 27.158169914042137 -12.71139481616062" fill="#9fff22" stroke="none" /><path d="M 80.28708602549918 107.23885506374661 l -28.01118505911756 10.286095149049165 a50.840077778575306,50.840077778575306 0 0,0 -0.29380681876955234,-0.8218299628905434 l 28.18363204793106 -9.8037302297777" fill="#a1ff22" stroke="none" /><path d="M 80.16572619554312 106.89939002012753 l -28.43181580133834 9.890061422353616 a51.10284811606968,51.10284811606968 0 0,0 -0.2811011407894825,-0.8310255743447161 l 28.59740236370019 -9.400534173534739" fill="#9eff22" stroke="none" /><path d="M 80.05021161711548 106.5578916946017 l -34.00718386421377 11.178836804667627 a56.7974153631213,56.7974153631213 0 0,0 -0.2965238464977674,-0.9288567258089593 l 34.194072426488795 -10.593411045167276" fill="#5eff2a" stroke="none" /><path d="M 79.48165901384964 104.47187691870673 l -35.06257949034365 7.641726006942903 a56.88565809459058,56.88565809459058 0 0,0 -0.19975612615035704,-0.9559053761611437 l 35.18859332731837 -7.03870417949635" fill="#5dff2a" stroke="none" /><path d="M 79.407916724674 104.11899336999214 l -30.754737762375562 6.151808889140496 a52.36397053054663,52.36397053054663 0 0,0 -0.16874590650618865,-0.8829498880732224 l 30.855809961163907 -5.6229564360339594" fill="#8fff24" stroke="none" /><path d="M 79.34024301695615 103.76489593502545 l -59.3747406242704 10.820055618416658 a81.35257598301017,81.35257598301017 0 0,0 -0.23857682092335983,-1.376047703762956 l 59.551732262685995 -9.79921488173311" fill="#4aecff" stroke="none" /><path d="M 79.13060592940153 102.33845913500099 l -39.183679595080605 4.3906130279632105 a60.428900940442865,60.428900940442865 0 0,0 -0.10666451346783888,-1.031882409555025 l 39.25327650103011 -3.717326096125254" fill="#38ff2e" stroke="none" /><path d="M 79.0935383218832 101.97986365728391 l -33.49329922280168 3.171850259251225 a54.64315274904003,54.64315274904003 0 0,0 -0.08042009027841968,-0.9346033510710434 l 33.54281293577784 -2.596425860804519" fill="#75ff27" stroke="none" /><path d="M 79.06263194458094 101.62068470465958 l -30.906332523392162 2.392345602618385 a51.99878558151683,51.99878558151683 0 0,0 -0.061249713310181045,-0.8905573890657545 l 30.942846197867407 -1.8614447893982875" fill="#93ff23" stroke="none" /><line stroke="#e1ed5e" stroke-width="0.3" x1="15.003131293944662" x2="10.003315487706104" y1="100.72959589197737" y2="100.7725132973878" /><path d="M 14.003168132696942 100.73817937305945 a86.0,86.0 0 0,1 10.791469493833604,-42.45332614584628" fill="none" id="id10" stroke="none" /><text fill="#e1ed5e" style="font-size:6.75px; font-family:Arial;" text-anchor="middle"><textPath startOffset="22.145653131862435" xlink:href="#id10">October</textPath></text><path d="M 79.00077361379809 100.18025310272382 l -59.62751138850875 0.5118304711711181 a80.62970807255357,80.62970807255357 0 0,0 0.0,-1.3841671477898494 l 59.62751138850875 0.5118304711710963" fill="#49f3ff" stroke="none" /><path d="M 79.06263194458094 98.37931529534042 l -34.75082698455523 -2.6899337881947085 a55.85478044537598,55.85478044537598 0 0,0 0.08220328183711949,-0.9553267399729265 l 34.699530080020374 3.2860815755433155" fill="#68ff28" stroke="none" /><path d="M 79.17382384314186 97.30363454192245 l -29.61233552625394 -3.8339096934844914 a50.859492273935864,50.859492273935864 0 0,0 0.11953308709222736,-0.8648818728586123 l 29.542157922606506 4.341679874543171" fill="#a0ff22" stroke="none" /><path d="M 79.2786578344484 96.59031103205396 l -35.407122249889674 -5.826228492229126 a56.883272488198386,56.883272488198386 0 0,0 0.16681746275355544,-0.9621587951468781 l 35.30188996964389 6.433180320296597" fill="#5dff2a" stroke="none" /><path d="M 79.34024301695615 96.23510406497455 l -51.70165598928501 -9.421763994024715 a73.55312425340163,73.55312425340163 0 0,0 0.23702917297422507,-1.2402367919959725 l 51.53230052402862 10.307903351054001" fill="#3fffc1" stroke="none" /><path d="M 79.48165901384962 95.52812308129327 l -29.416724146907416 -6.411238112540934 a51.107268784646394,51.107268784646394 0 0,0 0.19418118783180685,-0.8555981424205878 l 29.302332097517947 6.91527058890053" fill="#9dff22" stroke="none" /><path d="M 79.56144815229197 95.17655741523228 l -58.49972981315831 -13.80577694939946 a81.10672063412787,81.10672063412787 0 0,0 0.3314270625602908,-1.3523355150084033 l 58.25411522408172 14.80796828901598" fill="#49eeff" stroke="none" /><path d="M 79.73907114497095 94.47779374421319 l -30.19279840277979 -8.229181466088393 a52.29416084499974,52.29416084499974 0 0,0 0.2434953287199249,-0.8640790209217247 l 30.047084581985285 8.746268410913132" fill="#90ff24" stroke="none" /><path d="M 79.83685265289637 94.1308016681162 l -58.361589966373984 -16.988208268285682 a81.78383340634099,81.78383340634099 0 0,0 0.40394857929122735,-1.3446134433052541 l 58.06136506707913 17.987559315181656" fill="#4ae7ff" stroke="none" /><path d="M 80.16572619554312 93.10060997987247 l -28.454004065961858 -9.897779652575528 a51.12634045875323,51.12634045875323 0 0,0 0.2954611421118932,-0.8264573997102155 l 28.27990275380602 10.384772008666664" fill="#9dff22" stroke="none" /><path d="M 80.28708602549916 92.7611449362534 l -36.308353852291646 -13.332930457665642 a59.6789812954293,59.6789812954293 0 0,0 0.3613969162852767,-0.9586482569832678 l 36.07412625219194 13.954246994843054" fill="#3fff2d" stroke="none" /><path d="M 80.41425534168474 92.42381321644754 l -58.757233974945805 -22.728560350657368 a84.0,84.0 0 0,0 0.5317653001354743,-1.3403959311456688 l 58.3584099998442 23.73385729901662" fill="#4dd2ff" stroke="none" /><path d="M 80.68587082218212 91.75594674310238 l -28.06783303598528 -11.980488906542337 a51.517787694649996,51.517787694649996 0 0,0 0.35416300078810264,-0.8103942550846188 l 27.8580361531802 12.460545231402824" fill="#99ff23" stroke="none" /><line stroke="#e1ed5e" stroke-width="0.3" x1="26.387840678322718" x2="22.05771365940052" y1="57.49999999999999" y2="54.99999999999999" /><path d="M 25.521815274538284 56.99999999999999 a86.0,86.0 0 0,1 29.574782752854787,-30.34633250058573" fill="none" id="id11" stroke="none" /><text fill="#e1ed5e" style="font-size:6.75px; font-family:Arial;" text-anchor="middle"><textPath startOffset="21.40746469413373" xlink:href="#id11">November</textPath></text><line stroke="#e1ed5e" stroke-width="0.3" x1="56.869717070023135" x2="54.33264160355391" y1="26.7553504044142" y2="22.446841604673864" /><path d="M 56.362301976729285 25.89364864446614 a86.0,86.0 0 0,1 42.16139366436587,-11.88097634709845" fill="none" id="id12" stroke="none" /><text fill="#e1ed5e" style="font-size:6.75px; font-family:Arial;" text-anchor="middle"><textPath startOffset="22.145653131862474" xlink:href="#id12">December</textPath></text></svg>