<?xml version="1.0" encoding="utf-8" ?>
<svg baseProfile="full" height="200mm" version="1.1" viewBox="0,0,200,200" width="200mm" xmlns="http://www.w3.org/2000/svg" xmlns:ev="http://www.w3.org/2001/xml-events" xmlns:xlink="http://www.w3.org/1999/xlink"><defs /><rect fill="#1a1a1a" height="200" width="200" x="0" y="0" /><text alignment-baseline="middle" fill="#e1ed5e" style="dominant-baseline: central; font-size:9.0px; font-family:Arial;" text-anchor="middle" x="100.0" y="100.0">2025</text><line stroke="#e1ed5e" stroke-width="0.3" x1="100.0" x2="100.0" y1="15.0" y2="10.0" /><path d="M 100.0 14.0 a86.0,86.0 0 0,1 42.46469731375804,11.215312516191453" fill="none" id="id13" stroke="none" /><text fill="#e1ed5e" style="font-size:6.75px; font-family:Arial;" text-anchor="middle"><textPath startOffset="22.20632615414155" xlink:href="#id13">January</textPath></text><path d="M 101.80526077348638 79.07773832637324 l 1.3800179623996205 -15.99386490178339 a37.053291378189215,37.053291378189215 0 0,0 0.634978501219714,0.06029885984619325 l -1.6551215907095789 15.967740497422017" fill="#ff810b" stroke="none" /><path d="M 102.52436894288641 79.15227682838746 l 3.58949969484431 -29.64419926555453 a50.860727689646,50.860727689646 0 0,0 0.8682296082910121,0.1127211215127785 l -4.099244031643169 29.578019820877614" fill="#bcff1f" stroke="none" /><path d="M 103.95276090670814 79.375362276772 l 5.688363909555912 -29.680632763133776 a51.22081145812515,51.22081145812515 0 0,0 0.8644941007195572,0.1734093838660903 l -6.198424419742595 29.578319423190475" fill="#b8ff1f" stroke="none" /><path d="M 104.307194497241 79.44645832069477 l 3.5701137974067487 -17.036259398516883 a38.40631629093269,38.40631629093269 0 0,0 0.6458795255525605,0.14116424788193688 l -3.8628360471128373 16.972281652539078" fill="#ff950d" stroke="none" /><path d="M 105.01212808612495 79.60689891045804 l 7.168692595933298 -29.167625063976505 a51.0356539034478,51.0356539034478 0 0,0 0.8513017105964367,0.21701576105431014 l -7.66970319521476 29.039906306753327" fill="#baff1f" stroke="none" /><path d="M 106.0581310904928 79.89281104454417 l 8.66184140642168 -28.749011742983722 a51.02554200590252,51.02554200590252 0 0,0 0.838798260276249,0.26061870252854213 l -9.155425039408648 28.595652905572656" fill="#baff1f" stroke="none" /><path d="M 107.08798089147638 80.2323363322302 l 10.148250057964756 -28.302445651837445 a51.06684900541116,51.06684900541116 0 0,0 0.8248941785589805,0.30381548753161464 l -10.633926562296312 28.123566896499504" fill="#baff1f" stroke="none" /><line stroke="#e1ed5e" stroke-width="0.3" x1="143.23703022742887" x2="145.7803849466894" y1="26.81831364943548" y2="22.513508569990506" /><path d="M 143.74570117128098 25.957352633546492 a86.0,86.0 0 0,1 28.547481713284135,27.462654790039103" fill="none" id="id14" stroke="none" /><text fill="#e1ed5e" style="font-size:6.75px; font-family:Arial;" text-anchor="middle"><textPath startOffset="19.985693538727396" xlink:href="#id14">February</textPath></text><path d="M 113.6212207817346 84.01681056812373 l 9.699685208775778 -11.381645493135371 a35.95412141453828,35.95412141453828 0 0,0 0.4675854058341704,0.405485456276291 l -9.894164413256712 11.21299504343941" fill="#ff700a" stroke="none" /><path d="M 113.89432698308785 84.25364557470407 l 11.006865830456478 -12.474012644801686 a37.63586748180998,37.63586748180998 0 0,0 0.4820778488047743,0.4328142525087846 l -11.219954666857243 12.282699383523605" fill="#ff8a0c" stroke="none" /><path d="M 114.42810811169701 84.74124197986012 l 12.10074705209634 -12.797406957407508 a38.61254394039431,38.61254394039431 0 0,0 0.47901022396307147,0.4608074559331717 l -12.31924051967183 12.587216414712035" fill="#ff980e" stroke="none" /><path d="M 115.19652480421416 85.50635884689758 l 21.75281564870209 -20.746684399478553 a51.06010482712902,51.06010482712902 0 0,0 0.60112983128,0.6412433914441136 l -22.10671280195255 20.369171591156384" fill="#baff1f" stroke="none" /><path d="M 115.9244219780498 86.31012108654704 l 22.667242979964794 -19.48653534334043 a50.891954837380894,50.891954837380894 0 0,0 0.5653596629739964,0.6692075173439253 l -22.999313256425907 19.0934688763674" fill="#bcff1f" stroke="none" /><line stroke="#e1ed5e" stroke-width="0.3" x1="172.23445277983987" x2="176.4835382374775" y1="55.19839476539836" y2="52.563006222186495" /><path d="M 173.08426987136738 54.67131705675599 a86.0,86.0 0 0,1 12.851231095245387,41.99856678651699" fill="none" id="id15" stroke="none" /><text fill="#e1ed5e" style="font-size:6.75px; font-family:Arial;" text-anchor="middle"><textPath startOffset="22.20632615414155" xlink:href="#id15">March</textPath></text><path d="M 118.21658344932153 89.55222093294921 l 23.0191118281152 -13.20217895792312 a47.536334309627264,47.536334309627264 0 0,0 0.4009856373294675,0.7133087056293321 l -23.2429551067371 12.803986742358994" fill="#e8ff1a" stroke="none" /><path d="M 118.89224826269711 90.83032412892265 l 23.849378129404432 -11.57570365011594 a47.51018204680273,47.51018204680273 0 0,0 0.3507649731163459,0.738800489603908 l -24.045101296362535 11.163460744871491" fill="#e8ff1a" stroke="none" /><path d="M 119.34039704204932 91.81776055985345 l 24.424630491155373 -10.33319918310019 a47.520512438244836,47.520512438244836 0 0,0 0.31222857831107126,0.7560862681289384 l -24.598880756352642 9.911238344517947" fill="#e8ff1a" stroke="none" /><path d="M 119.61058180528143 92.48833698450437 l 27.941525959406484 -10.702758807964535 a50.92119514728061,50.92119514728061 0 0,0 0.30648597212521794,0.8212300300570541 l -28.121616520033328 10.220205640878149" fill="#bcff1f" stroke="none" /><path d="M 119.85752413597 93.16781622104841 l 25.070031501014046 -8.625600119441405 a47.51240194479452,47.51240194479452 0 0,0 0.2594238374473121,0.775644253878177 l -25.214792632233127 8.192782762640913" fill="#e8ff1a" stroke="none" /><path d="M 120.18372546131832 94.20196356495316 l 25.495663216332698 -7.323959322934892 a47.526764276946125,47.526764276946125 0 0,0 0.21910569210392208,0.7882397515586802 l -25.617955679002982 6.88400826795726" fill="#e8ff1a" stroke="none" /><path d="M 120.37134235888165 94.90015583598534 l 25.71869069578347 -6.438520954599953 a47.51236698577103,47.51236698577103 0 0,0 0.19178525249352865,0.7950736875056194 l -25.825708748537817 5.994862035434927" fill="#e8ff1a" stroke="none" /><path d="M 120.53481517161879 95.60439243477599 l 25.929990974720937 -5.550479200426559 a47.51739525865007,47.51739525865007 0 0,0 0.1643212714270741,0.8012888769901554 l -26.021691542063007 5.103314667272992" fill="#e8ff1a" stroke="none" /><path d="M 120.78858239683441 97.02765380044208 l 26.262935940784192 -3.7550678705590714 a47.53002711913878,47.53002711913878 0 0,0 0.10883018422751145,0.8109112818074528 l -26.32368212406954 3.3024382466869544" fill="#e8ff1a" stroke="none" /><line stroke="#e1ed5e" stroke-width="0.3" x1="184.98032266829074" x2="189.97916517819016" y1="98.17113171792111" y2="98.06355123074" /><path d="M 185.9800911702706 98.14961562048488 a86.0,86.0 0 0,1 -9.607161424134198,41.387399972396054" fill="none" id="id16" stroke="none" /><text fill="#e1ed5e" style="font-size:6.75px; font-family:Arial;" text-anchor="middle"><textPath startOffset="21.466115282336823" xlink:href="#id16">April</textPath></text><path d="M 120.99513854157772 99.54816195383933 l 26.520672897354384 -0.5707535104412932 a47.526813802229405,47.526813802229405 0 0,0 0.01056225246346014,0.8180580933055946 l -26.52656815693556 0.11415915907523581" fill="#e8ff1a" stroke="none" /><path d="M 120.99980553446 99.90962569577887 l 26.51652627042865 -0.11411594303189483 a47.516771822731116,47.516771822731116 0 0,0 -0.0035200938437471257,0.8179458400131201 l -26.5145618792954 -0.34233937518491" fill="#e8ff1a" stroke="none" /><path d="M 120.92983693683757 101.71520430193887 l 29.748773997612172 2.4379179490072675 a50.84850077117941,50.84850077117941 0 0,0 -0.07899775554119877,0.871733649620331 l -29.7024016457939 -2.949632987176169" fill="#bdff1f" stroke="none" /><path d="M 120.5718875245553 104.21870165774334 l 15.537352392091348 3.186263497465584 a36.86069337801183,36.86069337801183 0 0,0 -0.13281427608242002,0.6204640817078625 l -15.480204077284485 -3.4532413985896158" fill="#ff7e0b" stroke="none" /><path d="M 120.32669344350535 105.2749913415812 l 25.37464660826993 6.584988430426397 a47.21516284754749,47.21516284754749 0 0,0 -0.21092120250308005,0.78491625912723 l -25.257537329425073 -7.020795622729175" fill="#ecff1a" stroke="none" /><path d="M 119.9155931802556 106.66101706037122 l 24.859596645870226 8.314600317115113 a47.2132051422319,47.2132051422319 0 0,0 -0.26441456310879413,0.768512490107594 l -24.712791251818203 -8.741285510312007" fill="#ecff1a" stroke="none" /><path d="M 119.67450827220406 107.3425965602758 l 24.588972593950054 9.176692148597592 a47.24555680522247,47.24555680522247 0 0,0 -0.2909105123192948,0.7594755499661471 l -24.427367802037253 -9.598591265396882" fill="#ecff1a" stroke="none" /><path d="M 119.26925614724726 108.34839909993367 l 24.322325732038678 10.537639891130544 a47.50693085761791,47.50693085761791 0 0,0 -0.331550678773281,0.7475592538107955 l -24.137333968534126 -10.954747481434026" fill="#e8ff1a" stroke="none" /><path d="M 118.97047184881838 109.00673069616215 l 26.987670118870387 12.81310653813117 a50.87490648692426,50.87490648692426 0 0,0 -0.38240182423771146,0.7878610216086486 l -26.76311503801796 -13.275756515705094" fill="#bcff1f" stroke="none" /><line stroke="#e1ed5e" stroke-width="0.3" x1="174.80103733775053" x2="179.2010983576182" y1="140.37084112569926" y2="142.7455964860345" /><path d="M 175.68104954172406 140.8457921977663 a86.0,86.0 0 0,1 -30.038265399797805,32.042727171017184" fill="none" id="id17" stroke="none" /><text fill="#e1ed5e" style="font-size:6.75px; font-family:Arial;" text-anchor="middle"><textPath startOffset="22.206326154141568" xlink:href="#id17">May</textPath></text><path d="M 117.35343817320211 111.8261652097733 l 14.980872476606264 10.209289428793353 a39.128875607748284,39.128875607748284 0 0,0 -0.38409480578794514,0.5533172148818118 l -14.802916763656182 -10.465647905862184" fill="#ffa00e" stroke="none" /><path d="M 116.71984013943494 112.70617746262583 l 11.910055114450035 9.051000046162576 a35.9589443031543,35.9589443031543 0 0,0 -0.37875587332823357,0.48959302308227154 l -11.752492423903732 -9.254671063358101" fill="#ff700a" stroke="none" /><path d="M 116.27256486870786 113.27417163493432 l 11.634479522300804 9.490702867569084 a36.014478168598494,36.014478168598494 0 0,0 -0.39599462242266886,0.47700103254845444 l -11.469388899984592 -9.689565157231309" fill="#ff710a" stroke="none" /><path d="M 116.0416608686014 113.55231037782055 l 17.343817328469584 14.652397747150177 a43.704641799949485,43.704641799949485 0 0,0 -0.49044410508019703,0.5704972947765948 l -17.08903071381861 -14.9487721410883" fill="#ffe215" stroke="none" /><path d="M 115.56566222782051 114.09645910891815 l 11.075844113213867 10.030423463745706 a35.94268107410028,35.94268107410028 0 0,0 -0.4192518493030974,0.45501507917263667 l -10.901545855915046 -10.219589797719678" fill="#ff700a" stroke="none" /><path d="M 114.55890576462653 115.13401014063108 l 10.557139501359671 10.974166524096098 a36.227787933569346,36.227787933569346 0 0,0 -0.4531305566398933,0.4284632242863178 l -10.36667311032897 -11.154264385128338" fill="#ff740a" stroke="none" /><path d="M 113.75828350139079 115.86535959552629 l 9.820448049174523 11.32444608177964 a35.98947227041933,35.98947227041933 0 0,0 -0.4715212524459712,0.40184064076956755 l -9.624061320151505 -11.491811112772155" fill="#ff710a" stroke="none" /><path d="M 112.63410532772338 116.77436683061366 l 9.38423882468823 12.459502306505847 a36.59817733084896,36.59817733084896 0 0,0 -0.5064752565538715,0.3746782866852496 l -9.168378597715794 -12.619190541930866" fill="#ff7a0b" stroke="none" /><path d="M 111.7513745106137 117.40417183066458 l 16.712678617230285 24.752026253800256 a50.86597445642187,50.86597445642187 0 0,0 -0.7298669084269813,0.48371598847932834 l -16.28413701006334 -25.036040263370904" fill="#bcff1f" stroke="none" /><line stroke="#e1ed5e" stroke-width="0.3" x1="143.8653032363475" x2="146.44561519142675" y1="172.8068346515853" y2="177.08958963109032" /><path d="M 144.38136562736335 173.6633856474863 a86.0,86.0 0 0,1 -40.68145358897372,12.25698825130547" fill="none" id="id18" stroke="none" /><text fill="#e1ed5e" style="font-size:6.75px; font-family:Arial;" text-anchor="middle"><textPath startOffset="21.466115282336833" xlink:href="#id18">June</textPath></text><path d="M 110.21172684928248 118.3499491758327 l 7.5682034590376865 13.599673284980263 a36.563701907181205,36.563701907181205 0 0,0 -0.5525945189987665,0.30131859149080076 l -7.332986128170271 -13.727932528230834" fill="#ff790b" stroke="none" /><path d="M 109.89434966115114 118.52300852407294 l 14.076988240671922 26.35324019314111 a50.87733031255309,50.87733031255309 0 0,0 -0.7760224644892975,0.4059782763340998 l -13.621274873656128 -26.591647888419928" fill="#bcff1f" stroke="none" /><path d="M 109.2508944713604 118.85261126421891 l 7.901053530982022 16.10173927056845 a38.935792551119945,38.935792551119945 0 0,0 -0.6042229311324234,0.29006372551061904 l -7.622717931849366 -16.23535727257863" fill="#ff9d0e" stroke="none" /><path d="M 108.2653958097858 119.30500536409082 l 6.094292675723851 14.234085759800687 a36.48384967101987,36.48384967101987 0 0,0 -0.5794478634613948,0.24220925392147621 l -5.8483733527649955 -14.336880056742135" fill="#ff780b" stroke="none" /><path d="M 106.57524785965236 119.94407469862006 l 9.355768462348067 28.377963699444294 a50.880415446376325,50.880415446376325 0 0,0 -0.8341448090996467,0.26706682644883606 l -8.86590230815748 -28.534803372552837" fill="#bcff1f" stroke="none" /><path d="M 106.2309692047433 120.05430185196036 l 4.449776684538499 14.321554460198412 a35.996914172545345,35.996914172545345 0 0,0 -0.5933063256211684,0.17875832894365556 l -4.202595384477085 -14.396028158247793" fill="#ff710a" stroke="none" /><path d="M 105.88484417918355 120.15858648285463 l 4.189478157643838 14.351094980158118 a35.95010549671454,35.95010549671454 0 0,0 -0.5955200574122991,0.1682999167137879 l -3.941826932126933 -14.421083690210425" fill="#ff700a" stroke="none" /><path d="M 105.53697534728816 120.25689768951611 l 3.95250923277399 14.46016464284679 a35.99062009169067,35.99062009169067 0 0,0 -0.5990031281517348,0.1582021703995851 l -3.703015661810758 -14.526058162549958" fill="#ff710a" stroke="none" /><path d="M 105.18746579009965 120.34920634021253 l 3.6913780383051162 14.480406506884494 a35.94350843765627,35.94350843765627 0 0,0 -0.6008500272306624,0.14767431808476333 l -3.441574726331243 -14.541802083283287" fill="#ff700a" stroke="none" /><path d="M 104.83641907484287 120.43548508189849 l 3.576176719755887 15.110540438263929 a36.52795776228585,36.52795776228585 0 0,0 -0.6131128140492553,0.1395424803536642 l -3.3155437563137697 -15.169859652195276" fill="#ff790b" stroke="none" /><path d="M 102.70371172650421 120.8252237178851 l 2.022848546448883 15.58090424886541 a36.711667430740206,36.711667430740206 0 0,0 -0.6273719378547833,0.07596600465778906 l -1.754349185542719 -15.613415782248552" fill="#ff7c0b" stroke="none" /><path d="M 102.34483914955558 120.86867818915974 l 1.7046502780233177 15.17110377650958 a36.26657205688259,36.26657205688259 0 0,0 -0.6209655783099561,0.06436562116689329 l -1.443252103107759 -15.198198766132231" fill="#ff750a" stroke="none" /><path d="M 100.90346689309514 120.98055641714683 l 0.7720513251155385 17.928787991364437 a38.94540336932849,38.94540336932849 0 0,0 -0.6700086491980861,0.02307645259531622 l -0.4633223242428002 -17.939421242385848" fill="#ff9d0e" stroke="none" /><line stroke="#e1ed5e" stroke-width="0.3" x1="102.19456741930631" x2="102.32365962044197" y1="184.97166512339345" y2="189.96999836594603" /><path d="M 102.22038585953345 185.97133177190398 a86.0,86.0 0 0,1 -42.740103519485714,-10.115201625700543" fill="none" id="id19" stroke="none" /><text fill="#e1ed5e" style="font-size:6.75px; font-family:Arial;" text-anchor="middle"><textPath startOffset="22.20632615414155" xlink:href="#id19">July</textPath></text><path d="M 100.18074693466247 120.99922214144158 l 0.12855502924146378 14.935554074442937 a35.93610732105766,35.93610732105766 0 0,0 -0.6186039278078281,0.0 l 0.12855502924145348 -14.935554074442937" fill="#ff700a" stroke="none" /><path d="M 99.81925306533755 120.99922214144158 l -0.13053070000607175 15.165087976868724 a36.16564972593698,36.16564972593698 0 0,0 -0.622463031055991,-0.010716265577790289 l 0.39155342095473067 -15.160594234011773" fill="#ff730a" stroke="none" /><path d="M 99.09653310690486 120.98055641714683 l -1.1417262738379161 26.51348121803597 a47.53805239996933,47.53805239996933 0 0,0 -0.8172287676558908,-0.04224139256819046 l 1.5979431099072958 -26.489900018705576" fill="#e8ff1a" stroke="none" /><path d="M 98.37488393609728 120.93702456842531 l -2.4274974493245924 31.274427017996185 a52.36849580662814,52.36849580662814 0 0,0 -0.8981338731469224,-0.07749476972536425 l 2.965475640213057 -31.228007995992158" fill="#a9ff21" stroke="none" /><path d="M 97.65516085044442 120.86867818915974 l -1.6740065815128533 14.898379977470196 a35.99213206945674,35.99213206945674 0 0,0 -0.6150756755066986,-0.07447709852979369 l 1.9302096800709412 -14.867357350215054" fill="#ff710a" stroke="none" /><path d="M 96.58105272829116 120.7198165907248 l -2.4324410253238216 14.741301315031265 a35.94064034110389,35.94064034110389 0 0,0 -0.6095379058779659,-0.10597597803744867 l 2.685827902673837 -14.69724675847281" fill="#ff700a" stroke="none" /><path d="M 95.86986931433489 120.58985236759428 l -2.9382329864838272 14.64791020373131 a35.939694990843606,35.939694990843606 0 0,0 -0.6055129029230459,-0.12689111609920664 l 3.18993735083626 -14.595163106905563" fill="#ff700a" stroke="none" /><path d="M 95.16358092515715 120.4354850818985 l -3.4466631234956493 14.563302259908824 a35.96560254050368,35.96560254050368 0 0,0 -0.6012193635273838,-0.1477650919605898 l 3.696835771766244 -14.501815909634205" fill="#ff700a" stroke="none" /><path d="M 93.42475214034765 119.94407469862007 l -4.756620488237166 14.427805058500793 a36.191675262301345,36.191675262301345 0 0,0 -0.5899764694282295,-0.20015205067222702 l 5.004266690602622 -14.343790020930442" fill="#ff740a" stroke="none" /><path d="M 92.7421414339146 119.70592522655815 l -5.1786205654782655 14.060553634496136 a35.983900676050176,35.983900676050176 0 0,0 -0.5793918281798452,-0.21907641282962473 l 5.419882614418394 -13.969328971559879" fill="#ff710a" stroke="none" /><path d="M 92.06813273071674 119.44442032107085 l -5.639765743659088 13.82549302820007 a35.931550994995774,35.931550994995774 0 0,0 -0.5706760838739737,-0.23854264934252264 l 5.876913287030524 -13.726365335837574" fill="#ff700a" stroke="none" /><path d="M 91.40352486487194 119.15986991738527 l -6.2936279961829324 14.02727185501048 a36.37446288651108,36.37446288651108 0 0,0 -0.5690559616661478,-0.2612256815685342 l 6.5341519536165 -13.91685910310787" fill="#ff770a" stroke="none" /><path d="M 90.7491055286396 118.85261126421891 l -6.582361658856852 13.414346681729967 a35.94229506821588,35.94229506821588 0 0,0 -0.5530767714384357,-0.2773241748846648 l 6.8122923379780485 -13.299054665936" fill="#ff700a" stroke="none" /><line stroke="#e1ed5e" stroke-width="0.3" x1="58.666819895761336" x2="56.23545636021788" y1="174.27360380694188" y2="178.64263932499728" /><path d="M 58.180547188652646 175.14741091055294 a86.0,86.0 0 0,1 -31.652253787137756,-30.449443065178592" fill="none" id="id20" stroke="none" /><text fill="#e1ed5e" style="font-size:6.75px; font-family:Arial;" text-anchor="middle"><textPath startOffset="22.20632615414155" xlink:href="#id20">August</textPath></text><path d="M 89.1626897886671 117.98757091392108 l -7.704040834392021 12.78702723554559 a35.928506646699944,35.928506646699944 0 0,0 -0.5269870172644705,-0.3237184679613763 l 7.9230070515888 -12.652520300755835" fill="#ff700a" stroke="none" /><path d="M 88.54995079064634 117.60387380957326 l -8.151493411567198 12.532510450660054 a35.95027300870211,35.95027300870211 0 0,0 -0.5158441354632278,-0.3418733648640559 l 8.366012245770388 -12.39033906470468" fill="#ff700a" stroke="none" /><path d="M 87.95078237400918 117.19931262002967 l -8.569592369943866 12.232420624469006 a35.935529040544054,35.935529040544054 0 0,0 -0.5035640074249916,-0.3592795488440915 l 8.778883705217744 -12.083096813780696" fill="#ff700a" stroke="none" /><path d="M 86.79598089348748 116.32954008644616 l -11.279113301808469 13.948990176074979 a38.93858198986946,38.93858198986946 0 0,0 -0.5175676850230647,-0.4259229689453756 l 11.517551115376222 -13.752772088272422" fill="#ff9d0e" stroke="none" /><path d="M 85.97065885151581 115.62618273729859 l -10.191206646619182 11.351185753355887 a36.25483893462283,36.25483893462283 0 0,0 -0.4607825164598788,-0.4209139037380801 l 10.385088712545917 -11.17407908303123" fill="#ff750a" stroke="none" /><path d="M 85.44109423537348 115.13401014063109 l -11.42074527058112 11.871886358279012 a37.47346679480043,37.47346679480043 0 0,0 -0.46101294909908497,-0.45119820105713293 l 11.623408172056001 -11.67353805429931" fill="#ff870c" stroke="none" /><path d="M 84.67929136418377 114.36230785411682 l -10.907900756983471 10.225547162205668 a35.951391697453886,35.951391697453886 0 0,0 -0.4193534539925646,-0.4551253509958805 l 11.082300618971765 -10.036270556408443" fill="#ff700a" stroke="none" /><path d="M 84.19399662182784 113.82643327865904 l -13.891225773008417 12.151465599110892 a39.456009039959554,39.456009039959554 0 0,0 -0.442766860605216,-0.5150378882639332 l 14.098335143184412 -11.910550611685428" fill="#ffa50f" stroke="none" /><path d="M 83.72743513129214 113.27417163493432 l -23.270051641907656 18.98229700976423 a51.03036635114452,51.03036635114452 0 0,0 -0.5493834177748629,-0.6854402852363056 l 23.593352971737378 -18.578928890949665" fill="#baff1f" stroke="none" /><path d="M 83.28015986056508 112.70617746262583 l -14.29394027821962 10.862624301464885 a38.953087071366994,38.953087071366994 0 0,0 -0.40110315269659325,-0.5373432203775004 l 14.478804697611299 -10.614968201578078" fill="#ff9d0e" stroke="none" /><path d="M 82.85270091963577 112.12312394758628 l -12.570035845294306 8.887003245462054 a36.39430504559517,36.39430504559517 0 0,0 -0.35725185840778867,-0.5146479471390848 l 12.72114861086423 -8.669314036135956" fill="#ff770a" stroke="none" /><path d="M 82.44556493220864 111.52570212397912 l -24.961211605633554 16.38876378015733 a50.86057037404028,50.86057037404028 0 0,0 -0.4742024916717429,-0.7359727977307593 l 25.239618960682343 -15.956669382505122" fill="#bcff1f" stroke="none" /><line stroke="#e1ed5e" stroke-width="0.3" x1="26.63291911575756" x2="22.317208475507996" y1="142.92168965132927" y2="145.44649492493687" /><path d="M 25.769776987707644 143.4266507060508 a86.0,86.0 0 0,1 -11.730757126820373,-40.83630448921669" fill="none" id="id21" stroke="none" /><text fill="#e1ed5e" style="font-size:6.75px; font-family:Arial;" text-anchor="middle"><textPath startOffset="21.46611528233685" xlink:href="#id21">September</textPath></text><path d="M 81.87401531095188 110.60418214915194 l -18.921392749610277 11.06951697657243 a42.92152617131457,42.92152617131457 0 0,0 -0.3675881335240202,-0.6409208948951207 l 19.109132879286673 -10.742176235819002" fill="#ffd714" stroke="none" /><path d="M 81.51974371655577 109.97397251340807 l -13.177520647127263 7.112034958468612 a35.97424761568824,35.97424761568824 0 0,0 -0.2894170906270191,-0.5474680657879851 l 13.29799024597917 -6.8841518775945" fill="#ff700a" stroke="none" /><path d="M 80.87730276802145 108.67885076344099 l -7.177624944050249 3.2575705701804067 a28.882262737130617,28.882262737130617 0 0,0 -0.20156919510762086,-0.4544853222542779 l 7.23263522388915 -3.133536911433433" fill="#ff0000" stroke="none" /><path d="M 80.58989483394504 108.01547362559985 l -14.009816707743392 5.785404837310778 a36.15737026387311,36.15737026387311 0 0,0 -0.23260791418937724,-0.5773137669818289 l 14.107327236190157 -5.543391702486144" fill="#ff730a" stroke="none" /><path d="M 80.45479744820244 107.68017299344265 l -27.781028499606702 10.916392615901396 a50.848838708406504,50.848838708406504 0 0,0 -0.3130974152868554,-0.8173985524695202 l 27.964820194487068 -10.436570496598717" fill="#bdff1f" stroke="none" /><path d="M 80.32549172779594 107.34259656027581 l -16.870726457923528 6.29621520118562 a39.00732453969,39.00732453969 0 0,0 -0.22935515351177466,-0.6310868783455726 l 16.976605872440526 -6.00488052583393" fill="#ff9e0e" stroke="none" /><path d="M 80.0844068197444 106.66101706037122 l -28.70140865141747 9.599541974643024 a51.26420434603551,51.26420434603551 0 0,0 -0.27269566052088745,-0.8392709450442706 l 28.862396562954608 -9.10407212962095" fill="#b7ff1f" stroke="none" /><path d="M 79.97269907076064 106.31721596034903 l -14.498969671229851 4.573413209265063 a36.203165128022626,36.203165128022626 0 0,0 -0.18234883909926025,-0.5959265568096053 l 14.575545282835243 -4.3231596799034095" fill="#ff740a" stroke="none" /><path d="M 79.86692584326677 105.97154293290107 l -22.913624010338935 6.796264120466228 a44.900279732302664,44.900279732302664 0 0,0 -0.21339897729321114,-0.7428698352733839 l 23.02721562451825 -6.400836809688249" fill="#fff216" stroke="none" /><path d="M 79.76711848015287 105.62410040840567 l -14.406244440726992 4.004479795090345 a35.95244920791454,35.95244920791454 0 0,0 -0.1606080200199569,-0.5976821901442324 l 14.473040537088723 -3.7559066717705734" fill="#ff700a" stroke="none" /><path d="M 79.58551787078972 104.9243191809786 l -29.07468409434944 7.013306713366868 a50.90858950605951,50.90858950605951 0 0,0 -0.19815425216661825,-0.8536433321551914 l 29.191098912446616 -6.511794723863102" fill="#bcff1f" stroke="none" /><path d="M 79.50377843672027 104.57218783832718 l -23.344050767063607 5.207466394961303 a44.917826248844065,44.917826248844065 0 0,0 -0.16184526197749208,-0.7560871828967748 l 23.43023006776554 -4.804865392648364" fill="#fff316" stroke="none" /><path d="M 79.4281124754447 104.21870165774334 l -15.225914766842537 3.1223966099788396 a36.54277456174286,36.54277456174286 0 0,0 -0.12106110835788389,-0.6172879833632672 l 15.277405808176088 -2.8598448995476176" fill="#ff790b" stroke="none" /><path d="M 79.29508885075956 103.50808413554451 l -29.486879461522577 4.996034675061882 a50.90712996682869,50.90712996682869 0 0,0 -0.13894797048573254,-0.8652291448508658 l 29.5685091863696 -4.487726300517802" fill="#bcff1f" stroke="none" /><path d="M 79.23777060512086 103.15116336523772 l -14.912425031227487 2.2633160703276007 a36.08320323890729,36.08320323890729 0 0,0 -0.08791577790855332,-0.614882745928307 l 14.94917486015264 -2.006287852418893" fill="#ff720a" stroke="none" /><path d="M 79.18660465613746 102.79330883721812 l -24.193919864810372 3.2469997830147515 a45.41083296439849,45.41083296439849 0 0,0 -0.09730566415435285,-0.7756218832071344 l 24.246227038211575 -2.8300601455202083" fill="#fff917" stroke="none" /><path d="M 79.1416061653843 102.43462659150553 l -29.86075001946687 3.485396652116327 a51.06347254639215,51.06347254639215 0 0,0 -0.09438888007691261,-0.8739238024051805 l 29.916321201044834 -2.970876527826364" fill="#baff1f" stroke="none" /><path d="M 79.10278846688536 102.07522291339032 l -15.764786419002526 1.5655412182422588 a36.84232969429629,36.84232969429629 0 0,0 -0.057237899065214856,-0.6316154466274514 l 15.789398914344815 -1.2939443830662412" fill="#ff7e0b" stroke="none" /><path d="M 79.07016306316243 101.71520430193888 l -21.01307548902137 1.7220257178545266 a42.083517592666155,42.083517592666155 0 0,0 -0.052951969443248835,-0.7224875525174915 l 21.03960401712896 -1.3600650288402745" fill="#ffcb12" stroke="none" /><path d="M 79.04373962182676 101.35467743843564 l -18.083480357068176 1.168972059233871 a39.12122395148131,39.12122395148131 0 0,0 -0.037656318752644594,-0.6723788674126248 l 18.10092302670835 -0.8575214754858087" fill="#ffa00e" stroke="none" /><path d="M 79.0235259727143 100.99374915477108 l -62.92942208185711 2.9812474643132365 a84.0,84.0 0 0,0 -0.05599146859519655,-1.4448910119440128 l 62.97141568330351 -1.8975792053552267" fill="#4dd2ff" stroke="none" /><line stroke="#e1ed5e" stroke-width="0.3" x1="15.007084014347285" x2="10.007500721073583" y1="101.09737516637583" y2="101.16192664675087" /><path d="M 14.007167355692545 101.11028546245083 a86.0,86.0 0 0,1 10.666146001902534,-42.60595125391555" fill="none" id="id22" stroke="none" /><text fill="#e1ed5e" style="font-size:6.75px; font-family:Arial;" text-anchor="middle"><textPath startOffset="22.20632615414155" xlink:href="#id22">October</textPath></text><path d="M 79.01574976396665 99.18683210126434 l -8.970640883034921 -0.34762439044134086 a29.97737381249145,29.97737381249145 0 0,0 0.02441927145558725,-0.5154522255381393 l 8.963328003345836 0.5019877226024893" fill="#ff1202" stroke="none" /><path d="M 79.16333360222342 97.38593545837743 l -15.092140240817551 -1.8933848585744 a36.21044388803901,36.21044388803901 0 0,0 0.08291157228708199,-0.6177875176562494 l 15.057312669472635 2.1528907182953088" fill="#ff740a" stroke="none" /><path d="M 79.21141760316559 97.0276538004421 l -14.802704104937897 -2.116486850791339 a35.95324598232497,35.95324598232497 0 0,0 0.09286912886991501,-0.6118915250699236 l 14.76407908262868 2.3709774882533545" fill="#ff700a" stroke="none" /><path d="M 79.32604984820605 96.31383870115002 l -20.838177772716136 -3.7154430517806434 a42.16681766251946,42.16681766251946 0 0,0 0.13355692151654014,-0.713466415196741 l 20.771135127289735 4.073587544439957" fill="#ffcc13" stroke="none" /><path d="M 79.3925641242962 95.95851677861259 l -16.190825589139674 -3.17530770706247 a37.49925490113024,37.49925490113024 0 0,0 0.129677252075389,-0.6323523350582886 l 16.13376904114929 3.453535698284161" fill="#ff880c" stroke="none" /><path d="M 79.54389044137918 95.25157060432595 l -29.088960304696847 -6.75235307107588 a50.86238241675799,50.86238241675799 0 0,0 0.20530770140629273,-0.8511329682969608 l 28.96841980302974 7.2520712710322375" fill="#bcff1f" stroke="none" /><path d="M 79.71946130924805 94.55025226153421 l -28.83696298850491 -7.749013782483476 a50.85996733088503,50.85996733088503 0 0,0 0.23447227077106517,-0.8435215109442433 l 28.699303947167486 8.244246596846661" fill="#bcff1f" stroke="none" /><line stroke="#e1ed5e" stroke-width="0.3" x1="26.266209847984243" x2="21.928928074336255" y1="57.711370442889674" y2="55.22380399835377" /><path d="M 25.398753493254645 57.213857153982495 a86.0,86.0 0 0,1 29.58750427330803,-30.492523968695096" fill="none" id="id23" stroke="none" /><text fill="#e1ed5e" style="font-size:6.75px; font-family:Arial;" text-anchor="middle"><textPath startOffset="21.46611528233685" xlink:href="#id23">November</textPath></text><line stroke="#e1ed5e" stroke-width="0.3" x1="56.762969772571076" x2="54.21961505331055" y1="26.818313649435495" y2="22.513508569990535" /><path d="M 56.25429882871897 25.957352633546506 a86.0,86.0 0 0,1 42.265352541879196,-11.944610805530505" fill="none" id="id24" stroke="none" /><text fill="#e1ed5e" style="font-size:6.75px; font-family:Arial;" text-anchor="middle"><textPath startOffset="22.20632615414155" xlink:href="#id24">December</textPath></text></svg>