<?xml version="1.0" encoding="utf-8" ?>
<svg baseProfile="full" height="200mm" version="1.1" viewBox="0,0,200,200" width="200mm" xmlns="http://www.w3.org/2000/svg" xmlns:ev="http://www.w3.org/2001/xml-events" xmlns:xlink="http://www.w3.org/1999/xlink"><defs /><rect fill="#1a1a1a" height="200" width="200" x="0" y="0" /><text alignment-baseline="middle" fill="#e1ed5e" style="dominant-baseline: central; font-size:9.0px; font-family:Arial;" text-anchor="middle" x="100.0" y="100.0">2024</text><line stroke="#e1ed5e" stroke-width="0.3" x1="100.0" x2="100.0" y1="15.0" y2="10.0" /><path d="M 100.0 14.0 a86.0,86.0 0 0,1 42.35913384403234,11.155469271406648" fill="none" id="id1" stroke="none" /><text fill="#e1ed5e" style="font-size:6.75px; font-family:Arial;" text-anchor="middle"><textPath startOffset="22.145653131862478" xlink:href="#id1">January</textPath></text><line stroke="#e1ed5e" stroke-width="0.3" x1="143.13028292997686" x2="145.6673583964461" y1="26.7553504044142" y2="22.446841604673864" /><path d="M 143.63769802327073 25.89364864446614 a86.0,86.0 0 0,1 29.32050498858742,28.57503671076993" fill="none" id="id2" stroke="none" /><text fill="#e1ed5e" style="font-size:6.75px; font-family:Arial;" text-anchor="middle"><textPath startOffset="20.669276256404974" xlink:href="#id2">February</textPath></text><line stroke="#e1ed5e" stroke-width="0.3" x1="172.87174338648825" x2="177.1583165268699" y1="56.24261187166439" y2="53.66864786411523" /><path d="M 173.72905801456457 55.72781907015455 a86.0,86.0 0 0,1 12.242430191666344,42.057860355516425" fill="none" id="id3" stroke="none" /><text fill="#e1ed5e" style="font-size:6.75px; font-family:Arial;" text-anchor="middle"><textPath startOffset="22.145653131862474" xlink:href="#id3">March</textPath></text><line stroke="#e1ed5e" stroke-width="0.3" x1="184.99686870605535" x2="189.99668451229388" y1="99.2704041080226" y2="99.22748670261217" /><path d="M 185.99683186730306 99.26182062694052 a86.0,86.0 0 0,1 -10.086455211305974,41.156179273409016" fill="none" id="id4" stroke="none" /><text fill="#e1ed5e" style="font-size:6.75px; font-family:Arial;" text-anchor="middle"><textPath startOffset="21.40746469413373" xlink:href="#id4">April</textPath></text><line stroke="#e1ed5e" stroke-width="0.3" x1="174.33088141563837" x2="178.70328620479359" y1="141.23008692659167" y2="143.65538615756765" /><path d="M 175.20536237346943 141.71514677278685 a86.0,86.0 0 0,1 -30.301960400862466,31.631185727798858" fill="none" id="id5" stroke="none" /><text fill="#e1ed5e" style="font-size:6.75px; font-family:Arial;" text-anchor="middle"><textPath startOffset="22.145653131862474" xlink:href="#id5">May</textPath></text><path d="M 110.96478420261333 117.91015095944535 l 9.772043485229446 15.96189863554362 a39.71563629504978,39.71563629504978 0 0,0 -0.5845143919656408,0.350984097912789 l -9.49659633670637 -16.12729673399233" fill="#ff940d" stroke="none" /><line stroke="#e1ed5e" stroke-width="0.3" x1="143.1302829299769" x2="145.66735839644613" y1="173.24464959558577" y2="177.55315839532614" /><path d="M 143.63769802327073 174.10635135553383 a86.0,86.0 0 0,1 -40.68552437913181,11.842963189579606" fill="none" id="id6" stroke="none" /><text fill="#e1ed5e" style="font-size:6.75px; font-family:Arial;" text-anchor="middle"><textPath startOffset="21.407464694133747" xlink:href="#id6">June</textPath></text><path d="M 110.02825361518725 118.45085714620011 l 6.001782112252442 11.042603091736945 a33.568232634885135,33.568232634885135 0 0,0 -0.5086565266047264,0.2708309502242191 l -5.811336769861162 -11.144004509683732" fill="#ff3304" stroke="none" /><path d="M 109.71004243097381 118.62028667847754 l 14.580783982217902 27.96057583433469 a52.53399851784869,52.53399851784869 0 0,0 -0.8032017551723917,0.41012053923010944 l -14.098655005331928 -28.206754325237636" fill="#b3ff20" stroke="none" /><path d="M 109.3889696526874 118.78422872680471 l 24.440118307466577 48.8966084011375 a75.66440977470765,75.66440977470765 0 0,0 -1.1668163619606648,0.5707483525484965 l -23.597141696243842 -49.308950503783215" fill="#41ffcf" stroke="none" /><path d="M 107.407793817531 119.65005319985036 l 9.209254186558436 24.42864085506262 a47.10687374425132,47.10687374425132 0 0,0 -0.7591179574625723,0.27875862885959246 l -8.788547077441738 -24.583130332930935" fill="#fdff18" stroke="none" /><path d="M 107.06938296918513 119.77432235084164 l 10.461941993825397 29.26391373949809 a52.07778752799099,52.07778752799099 0 0,0 -0.8443898122831754,0.29372260872262684 l -9.958046409497198 -29.439194780789308" fill="#b9ff1f" stroke="none" /><path d="M 105.3480935250658 120.30758222061773 l 7.933408900786576 30.124445802492126 a52.15158441707845,52.15158441707845 0 0,0 -0.8676898831064792,0.2205633752107699 l -7.4151137244547 -30.256194409538168" fill="#b8ff1f" stroke="none" /><path d="M 104.9986988182912 120.39639698878246 l 13.036271351741375 53.19243575361156 a75.76659193484954,75.76659193484954 0 0,0 -1.2659076633642905,0.29875076166611225 l -12.121231534637205 -53.408382658923905" fill="#41ffd0" stroke="none" /><path d="M 104.64783097203109 120.47920084513623 l 6.9690126143306665 30.706755447863834 a52.48764784726886,52.48764784726886 0 0,0 -0.8803867730984666,0.1918761995821755 l -6.440863424613064 -30.82186310557973" fill="#b4ff20" stroke="none" /><path d="M 103.94208987418118 120.62667999033965 l 5.872954254019063 30.72977833127598 a52.2859532052191,52.2859532052191 0 0,0 -0.8830481678602852,0.1609207920663134 l -5.34457135260772 -30.826067297273656" fill="#b7ff1f" stroke="none" /><path d="M 102.875027216393 120.80226474461374 l 4.245124486855219 30.715606080486527 a52.007572281630154,52.007572281630154 0 0,0 -0.8854219295381595,0.11463559554329794 l -3.7172247354262837 -30.783953272230217" fill="#baff1f" stroke="none" /><path d="M 102.51750503828377 120.84855314841334 l 3.7869063339334645 31.361016868072607 a52.58882774940406,52.58882774940406 0 0,0 -0.8971756647386244,0.10053040456332064 l -3.2479947675940406 -31.421403033142898" fill="#b3ff20" stroke="none" /><path d="M 102.15924093988457 120.88869738790638 l 3.1858871301577993 30.820567980454054 a51.984791228018544,51.984791228018544 0 0,0 -0.8884459175749849,0.08413675210808932 l -2.6563416491977994 -30.87071648806733" fill="#bbff1f" stroke="none" /><path d="M 101.80034050326958 120.92268563240118 l 2.8763116810216016 33.427101691888716 a54.550622891479236,54.550622891479236 0 0,0 -0.9336754867391149,0.07227238765008073 l -2.302067199507251 -33.47155184653385" fill="#99ff23" stroke="none" /><path d="M 101.44090949804482 120.95050786540614 l 2.1308340241114996 30.981859056795862 a52.05504861135263,52.05504861135263 0 0,0 -0.8920144401340153,0.05366137365120529 l -1.598675231845019 -31.01387240827176" fill="#baff1f" stroke="none" /><line stroke="#e1ed5e" stroke-width="0.3" x1="101.45913802915013" x2="101.54496967792366" y1="184.9874750549273" y2="189.98673829345242" /><path d="M 101.47630435890484 185.9873277026323 a86.0,86.0 0 0,1 -42.54439059252881,-10.42667462771756" fill="none" id="id7" stroke="none" /><text fill="#e1ed5e" style="font-size:6.75px; font-family:Arial;" text-anchor="middle"><textPath startOffset="22.145653131862474" xlink:href="#id7">July</textPath></text><path d="M 100.36049292484886 120.99690560180557 l 0.5321151414368493 30.99303931894195 a51.99760688745549,51.99760688745549 0 0,0 -0.8926080662856978,0.007661966707975169 l -3.796112005595031e-15 -30.99760688745549" fill="#baff1f" stroke="none" /><path d="M 100.0 121.0 l 3.803407182618426e-15 31.057176528501984 a52.057176528501984,52.057176528501984 0 0,0 -0.8936306583872713,-0.0076707444312940935 l 0.5331377335384153 -31.052600182265124" fill="#baff1f" stroke="none" /><path d="M 99.63950707515114 120.99690560180557 l -0.5358614596812337 31.211243575141435 a52.2158433012914,52.2158433012914 0 0,0 -0.8960902247787502,-0.023080105539439007 l 1.0715649985307278 -31.197445752251948" fill="#b8ff1f" stroke="none" /><path d="M 97.84075906011543 120.88869738790638 l -3.215623384728133 31.108239268866416 a52.27399533416626,52.27399533416626 0 0,0 -0.8918045622913857,-0.09992856133105991 l 3.7491638486203174 -31.048454947028386" fill="#b7ff1f" stroke="none" /><path d="M 97.48249496171623 120.84855314841334 l -4.032955023452087 33.398652981016944 a54.64126554051704,54.64126554051704 0 0,0 -0.9302602033661501,-0.12044080778384686 l 4.605693048709031 -33.324500577032694" fill="#98ff23" stroke="none" /><path d="M 97.12497278360702 120.80226474461374 l -4.248589891572205 30.740680022729375 a52.03288456342082,52.03288456342082 0 0,0 -0.8837535050755069,-0.12988133152274614 l 4.775668502255398 -30.663217617907748" fill="#baff1f" stroke="none" /><path d="M 95.35216902796893 120.47920084513623 l -12.131013152845064 53.451482273577476 a75.81078760022581,75.81078760022581 0 0,0 -1.2666460842178116,-0.2989250269769265 l 13.046791390802763 -53.23536110295432" fill="#41ffd0" stroke="none" /><path d="M 95.00130118170881 120.39639698878247 l -7.369144793214072 30.06862548314025 a51.95846464908596,51.95846464908596 0 0,0 -0.864476786691758,-0.21974661866686915 l 7.884226873131208 -29.937693632638116" fill="#bbff1f" stroke="none" /><path d="M 94.30408787586889 120.21278271476187 l -9.867024416621252 35.01458874856484 a57.378284677391306,57.378284677391306 0 0,0 -0.9457580356093747,-0.2752963805405954 l 10.466642464612233 -34.840048673721725" fill="#76ff27" stroke="none" /><path d="M 92.93061703081489 119.77432235084164 l -10.477724695056317 29.308060763795417 a52.124670930304106,52.124670930304106 0 0,0 -0.8399787671082906,-0.3084518382004175 l 10.979292613818727 -29.12387807658628" fill="#b9ff1f" stroke="none" /><path d="M 92.25597844496254 119.51999308798841 l -20.192008774450088 50.89705250800536 a75.75606973067117,75.75606973067117 0 0,0 -1.204685786871596,-0.48993522194728384 l 21.062749022512126 -50.54293002947878" fill="#41ffd0" stroke="none" /><path d="M 91.92203290615298 119.3841803445677 l -11.906004674258275 28.57007698940486 a51.951611371364514,51.951611371364514 0 0,0 -0.8202539104343547,-0.35011761905194566 l 12.394693659863062 -28.36148472069351" fill="#bbff1f" stroke="none" /><path d="M 90.6110303473126 118.78422872680471 l -14.420461827411849 28.850583539241434 a53.2537732656288,53.2537732656288 0 0,0 -0.8142065207919235,-0.4157396509675018 l 14.913595569917355 -28.598785936601097" fill="#aaff21" stroke="none" /><path d="M 90.28995756902619 118.62028667847754 l -25.308463013459487 48.53231487424097 a75.73485075485378,75.73485075485378 0 0,0 -1.1476036449966676,-0.6110343019283621 l 26.137855474242716 -48.09071010459003" fill="#41ffd0" stroke="none" /><line stroke="#e1ed5e" stroke-width="0.3" x1="58.13341422392154" x2="55.67067388415222" y1="173.97424548756322" y2="178.32567169271397" /><path d="M 57.64086615596768 174.84453072859336 a86.0,86.0 0 0,1 -31.369924170532247,-30.572349798747897" fill="none" id="id8" stroke="none" /><text fill="#e1ed5e" style="font-size:6.75px; font-family:Arial;" text-anchor="middle"><textPath startOffset="22.145653131862474" xlink:href="#id8">August</textPath></text><path d="M 89.65649057296885 118.27599006163327 l -15.22841492413437 26.90715001241032 a51.91762188286724,51.91762188286724 0 0,0 -0.7718606001241375,-0.4456339252585403 l 15.688067992118908 -26.641769189875607" fill="#bbff1f" stroke="none" /><path d="M 89.03521579738668 117.91015095944536 l -16.19296160574076 26.449985834668528 a52.01312232296452,52.01312232296452 0 0,0 -0.7574989800005287,-0.4727353879026539 l 16.644624714531 -26.168114649924327" fill="#baff1f" stroke="none" /><path d="M 88.4268655584334 117.5232005979908 l -17.09362513408081 25.88192712041188 a52.01719155066737,52.01719155066737 0 0,0 -0.740882622646366,-0.4984988930573796 l 17.535404044824183 -25.58467855329738" fill="#baff1f" stroke="none" /><path d="M 88.1277618465304 117.32195027204791 l -17.50024970689674 25.53338732366112 a51.9550094172791,51.9550094172791 0 0,0 -0.7313407534219499,-0.5105326446737565 l 17.935985551492454 -25.229209863182234" fill="#bbff1f" stroke="none" /><path d="M 87.83215693770417 117.11559508785305 l -17.927471674311395 25.21723402870503 a51.94031565274854,51.94031565274854 0 0,0 -0.7222646903701684,-0.5228639363633589 l 18.35771737505552 -24.905769320968602" fill="#bbff1f" stroke="none" /><path d="M 87.54013794807813 116.9041958592261 l -18.56597029773364 25.188304406713332 a52.29130761060621,52.29130761060621 0 0,0 -0.7180020121650476,-0.5388020955437901 l 18.995625298809454 -24.86588328390553" fill="#b7ff1f" stroke="none" /><path d="M 87.2517909369889 116.68781488649013 l -18.79139071324091 24.598533655378034 a51.95487397700793,51.95487397700793 0 0,0 -0.7040876410279248,-0.5475028082993368 l 19.210888298904067 -24.272329795457903" fill="#bbff1f" stroke="none" /><path d="M 86.96720088162412 116.46651593811092 l -5.91217410599854 7.469838847438903 a30.52639990061025,30.52639990061025 0 0,0 -0.4081077740915971,-0.32874273437465096 l 6.039532650445399 -7.367247819270842" fill="#ff0000" stroke="none" /><path d="M 86.40962598614128 116.0094264158162 l -40.063956592712955 47.19524012682995 a82.90727993129667,82.90727993129667 0 0,0 -1.0770860591572544,-0.9303612846285635 l 40.86822213163307 -46.50053470973667" fill="#4bdeff" stroke="none" /><path d="M 85.86807049272751 115.53346607816431 l -21.15212356950426 23.249889109547954 a52.431984905599805,52.431984905599805 0 0,0 -0.6605686779493884,-0.6114125065922121 l 21.548122018767614 -22.883358856823364" fill="#b5ff20" stroke="none" /><path d="M 85.60350026404147 115.28858382429668 l -21.18261605840764 22.49520419313896 a51.89882578301198,51.89882578301198 0 0,0 -0.6433663001238398,-0.616330361984146 l 21.565654844396793 -22.128261700849233" fill="#bcff1f" stroke="none" /><path d="M 85.34317274990678 115.03919595460226 l -21.85453984756997 22.424683163484655 a52.312734261506066,52.312734261506066 0 0,0 -0.6377372690971281,-0.6322865559603013 l 22.23626903679706 -22.046216597295693" fill="#b6ff1f" stroke="none" /><path d="M 84.83555147118756 114.52719865689866 l -22.44508105677805 21.501879924118974 a52.08235036023768,52.08235036023768 0 0,0 -0.6129451931827289,-0.650926554200359 l 22.810882083697035 -21.113411909974126" fill="#b9ff1f" stroke="none" /><path d="M 84.58840730492382 114.26474011684316 l -20.575409437082417 19.044291801936428 a49.03627157346146,49.03627157346146 0 0,0 -0.5664910583744629,-0.6226729077805496 l 20.89929819629876 -18.688281318598204" fill="#e2ff1b" stroke="none" /><path d="M 84.1078160697243 113.72728997021213 l -24.21376194758915 20.915270864127102 a52.99616887963808,52.99616887963808 0 0,0 -0.5887759196626076,-0.6935765529065585 l 24.569232430758866 -20.496527528770986" fill="#adff20" stroke="none" /><path d="M 83.8745106332314 113.45245675266167 l -23.811069874248272 19.864041359144124 a52.00882435169257,52.00882435169257 0 0,0 -0.5660372492018447,-0.6904734076569347 l 24.148553942688746 -19.452365669788694" fill="#baff1f" stroke="none" /><path d="M 83.64595745247003 113.17365903436017 l -24.10814491590959 19.419815018220326 a51.95693567891359,51.95693567891359 0 0,0 -0.5535481272557207,-0.6993899757969823 l 24.437959473806874 -19.003105098508662" fill="#bbff1f" stroke="none" /><path d="M 83.20337586046588 112.60449989151573 l -24.682037295516963 18.521860930464314 a51.85874750187944,51.85874750187944 0 0,0 -0.5282133979792425,-0.716622920679222 l 24.996352713080036 -18.09543170051621" fill="#bcff1f" stroke="none" /><path d="M 82.98947788004972 112.3143062007846 l -44.99877995411478 32.57564647982229 a76.55234415339464,76.55234415339464 0 0,0 -0.7614585174182087,-1.0710867648113762 l 45.55135357006295 -31.79838248830141" fill="#42ffd9" stroke="none" /><path d="M 82.78059297857968 112.02048342749411 l -9.503158873688216 6.633942946346038 a32.58961723241684,32.58961723241684 0 0,0 -0.3162904031060331,-0.46147715058491734 l 9.615639013609574 -6.469831060691069" fill="#ff2303" stroke="none" /><path d="M 82.576782715395 111.72311816256416 l -32.26574236560973 21.709831437912346 a59.88952187243332,59.88952187243332 0 0,0 -0.5665992552750048,-0.8579034883752789 l 32.63366605980546 -21.152748071198005" fill="#58ff2a" stroke="none" /><path d="M 82.37810715431573 111.42229804090323 l -26.052164708255948 16.886698410567078 a52.046350336159406,52.046350336159406 0 0,0 -0.4795260954994172,-0.7538946692925141 l 26.338208495381256 -16.436990066595893" fill="#baff1f" stroke="none" /><path d="M 81.99639281039703 110.81064883170644 l -42.777876557397164 25.686885764491436 a70.89752321546574,70.89752321546574 0 0,0 -0.6175724229901736,-1.0487729884649868 l 43.212522690517105 -24.94876160773289" fill="#3aff94" stroke="none" /><line stroke="#e1ed5e" stroke-width="0.3" x1="26.387840678322732" x2="22.057713659400548" y1="142.50000000000003" y2="145.00000000000006" /><path d="M 25.521815274538298 143.00000000000003 a86.0,86.0 0 0,1 -11.493303480769221,-40.785679425670985" fill="none" id="id9" stroke="none" /><text fill="#e1ed5e" style="font-size:6.75px; font-family:Arial;" text-anchor="middle"><textPath startOffset="21.40746469413373" xlink:href="#id9">September</textPath></text><path d="M 81.63589988554817 110.18625677009913 l -27.15862259032211 15.064430138317928 a52.056848462067364,52.056848462067364 0 0,0 -0.4267537403388082,-0.7851788159478913 l 27.41322168027625 -14.595996488895448" fill="#baff1f" stroke="none" /><path d="M 81.4637452351635 109.86951160357371 l -27.405705954194605 14.591994788081928 a52.04833378368617,52.04833378368617 0 0,0 -0.4131446316685254,-0.7922593063860052 l 27.652158654838082 -14.11938923859142" fill="#baff1f" stroke="none" /><path d="M 81.1358732173502 109.22738970284198 l -27.729047991366038 13.563666892891861 a51.86864367102662,51.86864367102662 0 0,0 -0.3843731817475275,-0.8031921169837043 l 27.95780043107348 -13.085662273843052" fill="#bcff1f" stroke="none" /><path d="M 80.28708602549918 107.23885506374661 l -29.019358468450452 10.656310389613003 a51.914076357546264,51.914076357546264 0 0,0 -0.3000134990036934,-0.8391911521504103 l 29.198012137498086 -10.156584281081672" fill="#bcff1f" stroke="none" /><path d="M 80.16572619554312 106.89939002012753 l -29.493747618783402 10.25945643300886 a52.22719319601585,52.22719319601585 0 0,0 -0.2872858192617284,-0.8493094773025652 l 29.665518859617496 -9.75164528123213" fill="#b7ff1f" stroke="none" /><path d="M 80.05021161711548 106.5578916946017 l -35.28402464459763 11.598559730460256 a58.14147254675866,58.14147254675866 0 0,0 -0.30354080322822957,-0.9508372428256547 l 35.47793016360312 -10.991153453943209" fill="#6dff28" stroke="none" /><path d="M 79.48165901384964 104.47187691870673 l -36.55173188427724 7.966279840187192 a58.40976768482079,58.40976768482079 0 0,0 -0.20510809425217189,-0.9815164809625903 l 36.68309768935378 -7.337646907939192" fill="#69ff28" stroke="none" /><path d="M 79.407916724674 104.11899336999214 l -31.797895846231526 6.360469721257707 a53.42779294560184,53.42779294560184 0 0,0 -0.17217413541952845,-0.9008878303794658 l 31.90239627393321 -5.813679325844927" fill="#a8ff21" stroke="none" /><path d="M 79.34024301695615 103.76489593502545 l -61.54293516852241 11.215172890739774 a83.55647825865948,83.55647825865948 0 0,0 -0.2450400458697952,-1.4133258677188034 l 61.72639003188444 -10.15705399010038" fill="#4cd7ff" stroke="none" /><path d="M 79.13060592940153 102.33845913500099 l -40.304411969865455 4.516193428181884 a61.55664714097292,61.55664714097292 0 0,0 -0.10865512554124557,-1.0511397756275338 l 40.375999487888365 -3.823649130271419" fill="#44ff2d" stroke="none" /><path d="M 79.0935383218832 101.97986365728391 l -34.824116292358305 3.297880019383528 a55.97992407318724,55.97992407318724 0 0,0 -0.08238745975036894,-0.9574671665046361 l 34.87559737480642 -2.6995918055032297" fill="#87ff25" stroke="none" /><path d="M 79.06263194458094 101.62068470465958 l -32.151758674761666 2.488749463359859 a53.24793729483307,53.24793729483307 0 0,0 -0.06272109737167222,-0.9119509903954238 l 32.1897437332984 -1.9364550488100916" fill="#aaff21" stroke="none" /><line stroke="#e1ed5e" stroke-width="0.3" x1="15.003131293944662" x2="10.003315487706104" y1="100.72959589197737" y2="100.7725132973878" /><path d="M 14.003168132696942 100.73817937305945 a86.0,86.0 0 0,1 10.791469493833604,-42.45332614584628" fill="none" id="id10" stroke="none" /><text fill="#e1ed5e" style="font-size:6.75px; font-family:Arial;" text-anchor="middle"><textPath startOffset="22.145653131862435" xlink:href="#id10">October</textPath></text><path d="M 79.00077361379809 100.18025310272382 l -61.76586216492163 0.5301856407888703 a82.76813762604306,82.76813762604306 0 0,0 0.0,-1.420877487025353 l 61.76586216492163 0.5301856407888477" fill="#4bdfff" stroke="none" /><path d="M 79.06263194458094 98.37931529534042 l -36.142739230119936 -2.7976765990696992 a57.250856450702415,57.250856450702415 0 0,0 0.08425793192108359,-0.9792048884194547 l 36.08938767550111 3.4177025348648344" fill="#78ff26" stroke="none" /><path d="M 79.17382384314186 97.30363454192245 l -30.699527950052037 -3.9746685190957627 a51.95575885344627,51.95575885344627 0 0,0 0.12210959980727996,-0.8835242353763593 l 30.626773833689548 4.501081062672188" fill="#bbff1f" stroke="none" /><path d="M 79.2786578344484 96.59031103205396 l -36.601418055055156 -6.022749412486251 a58.093629023412106,58.093629023412106 0 0,0 0.1703669879021556,-0.9826315129544022 l 36.49263624966076 6.650173958361246" fill="#6dff28" stroke="none" /><path d="M 79.34024301695615 96.23510406497455 l -53.49947472311223 -9.749386455821043 a75.38055104459563,75.38055104459563 0 0,0 0.2429181609048448,-1.2710504652984103 l 53.32423026992522 10.666339486152769" fill="#41ffcb" stroke="none" /><path d="M 79.48165901384962 95.52812308129327 l -30.51478184676072 -6.650554677495997 a52.231102905177096,52.231102905177096 0 0,0 0.19845117622367578,-0.8744124991408947 l 30.396119808979382 7.1734015105759" fill="#b7ff1f" stroke="none" /><path d="M 79.56144815229197 95.17655741523228 l -60.591106967475206 -14.299336263293494 a83.25554803481182,83.25554803481182 0 0,0 0.3402078337194453,-1.3881640577832588 l 60.33671160723946 15.33735614568487" fill="#4cdaff" stroke="none" /><path d="M 79.73907114497095 94.47779374421319 l -31.29458600726131 -8.529478577121681 a53.43613907609001,53.43613907609001 0 0,0 0.24881267888440148,-0.8829484207914189 l 31.143554836302325 9.065434921816115" fill="#a8ff21" stroke="none" /><path d="M 79.83685265289637 94.1308016681162 l -60.48944204131091 -17.607594995651397 a84.0,84.0 0 0,0 0.41489471998548133,-1.3810495856371061 l 60.1782710013218 18.643382184879226" fill="#4dd2ff" stroke="none" /><path d="M 80.16572619554312 93.10060997987247 l -29.648052672561036 -10.313131740639692 a52.39056727067454,52.39056727067454 0 0,0 0.3027671588224007,-0.8468936287508476 l 29.466645343694694 10.820560325771462" fill="#b5ff1f" stroke="none" /><path d="M 80.28708602549916 92.7611449362534 l -37.781673716126605 -13.873953919272372 a61.24849644577975,61.24849644577975 0 0,0 0.37090140049541714,-0.9838600305513183 l 37.53794163181675 14.520482230017835" fill="#48ff2c" stroke="none" /><line stroke="#e1ed5e" stroke-width="0.3" x1="26.387840678322718" x2="22.05771365940052" y1="57.49999999999999" y2="54.99999999999999" /><path d="M 25.521815274538284 56.99999999999999 a86.0,86.0 0 0,1 29.574782752854787,-30.34633250058573" fill="none" id="id11" stroke="none" /><text fill="#e1ed5e" style="font-size:6.75px; font-family:Arial;" text-anchor="middle"><textPath startOffset="21.40746469413373" xlink:href="#id11">November</textPath></text><line stroke="#e1ed5e" stroke-width="0.3" x1="56.869717070023135" x2="54.33264160355391" y1="26.7553504044142" y2="22.446841604673864" /><path d="M 56.362301976729285 25.89364864446614 a86.0,86.0 0 0,1 42.16139366436587,-11.88097634709845" fill="none" id="id12" stroke="none" /><text fill="#e1ed5e" style="font-size:6.75px; font-family:Arial;" text-anchor="middle"><textPath startOffset="22.145653131862474" xlink:href="#id12">December</textPath></text></svg>