<?xml version="1.0" encoding="utf-8" ?>
<svg baseProfile="full" height="200mm" version="1.1" viewBox="0,0,200,200" width="200mm" xmlns="http://www.w3.org/2000/svg" xmlns:ev="http://www.w3.org/2001/xml-events" xmlns:xlink="http://www.w3.org/1999/xlink"><defs /><rect fill="#1a1a1a" height="200" width="200" x="0" y="0" /><text alignment-baseline="middle" fill="#e1ed5e" style="dominant-baseline: central; font-size:9.0px; font-family:Arial;" text-anchor="middle" x="100.0" y="100.0">2026</text><line stroke="#e1ed5e" stroke-width="0.3" x1="100.0" x2="100.0" y1="15.0" y2="10.0" /><path d="M 100.0 14.0 a86.0,86.0 0 0,1 42.46469731375804,11.215312516191453" fill="none" id="id25" stroke="none" /><text fill="#e1ed5e" style="font-size:6.75px; font-family:Arial;" text-anchor="middle"><textPath startOffset="22.20632615414155" xlink:href="#id25">January</textPath></text><path d="M 101.44485096284872 79.0497635885617 l 3.5580779973517744 -51.591878423146106 a72.71442582359325,72.71442582359325 0 0,0 1.2479520210336823,0.09686509512054123 l -4.4456202077477975 51.522988065837104" fill="red" stroke="none" /><path d="M 102.16513564639614 79.11191278185805 l 6.4954069391883955 -62.66426165442583 a84.0,84.0 0 0,0 1.436933185961099,0.1614561861175967 l -7.57310682865922 62.54316951483763" fill="red" stroke="none" /><path d="M 102.88285421437855 79.19881850522331 l 6.681194920065621 -48.20803890848963 a69.66881322738783,69.66881322738783 0 0,0 1.1864632717541077,0.17485384471631357 l -7.510027172248384 48.08589057961235" fill="red" stroke="none" /><path d="M 103.95276090670814 79.375362276772 l 7.319610356932455 -38.19211823075914 a59.88720343158656,59.88720343158656 0 0,0 1.0107636447252342,0.20274967836120183 l -7.975940411124815 38.060464596320735" fill="red" stroke="none" /><path d="M 104.307194497241 79.44645832069477 l 10.342238723252384 -49.35222562896914 a71.42424095949704,71.42424095949704 0 0,0 1.2011423984122849,0.2625232052772009 l -11.190223845818197 49.16688892559607" fill="red" stroke="none" /><path d="M 105.01212808612495 79.60689891045804 l 11.446057172971717 -46.57115640186174 a68.95711452343234,68.95711452343234 0 0,0 1.150241156166053,0.29322208189441695 l -12.246007217822795 46.36723132379846" fill="red" stroke="none" /><path d="M 106.40334571778207 80.00007090966166 l 14.624792367719564 -45.67843486929896 a68.9625266630908,68.9625266630908 0 0,0 1.127429525000208,0.3716957885080176 l -15.408904714962189 45.41992535653171" fill="red" stroke="none" /><path d="M 106.74666289553966 80.11325718540242 l 13.77959540600557 -40.61730579567128 a63.89105710579166,63.89105710579166 0 0,0 1.0384365509346547,0.3622901223849258 l -14.476713961003497 40.374094820114145" fill="red" stroke="none" /><path d="M 107.4271985657038 80.35727306442388 l 16.989745340223774 -44.93281355961277 a69.03758092481944,69.03758092481944 0 0,0 1.1079441437791433,0.4298651148412834 l -17.760672649002586 44.633705740880934" fill="red" stroke="none" /><path d="M 108.76106565485865 80.91482961587045 l 20.101095863817886 -43.78837627542875 a69.18169726945003,69.18169726945003 0 0,0 1.0779885107542455,0.5061300600469532 l -20.85186258587173 43.4358812327418" fill="red" stroke="none" /><path d="M 109.41281617654863 81.2277094730956 l 21.548693956530972 -42.975272845036294 a69.07515249416842,69.07515249416842 0 0,0 1.0582955182479097,0.5421000688675156 l -22.285249962367637 42.597980250856274" fill="red" stroke="none" /><line stroke="#e1ed5e" stroke-width="0.3" x1="143.23703022742887" x2="145.7803849466894" y1="26.81831364943548" y2="22.513508569990506" /><path d="M 143.74570117128098 25.957352633546492 a86.0,86.0 0 0,1 28.547481713284135,27.462654790039103" fill="none" id="id26" stroke="none" /><text fill="#e1ed5e" style="font-size:6.75px; font-family:Arial;" text-anchor="middle"><textPath startOffset="19.985693538727396" xlink:href="#id26">February</textPath></text><path d="M 110.68208982089419 81.91981866633111 l 31.157284231795416 -52.735874554588534 a82.25233730836878,82.25233730836878 0 0,0 1.2127830368063446,0.7306882097538042 l -32.060429334819396 52.19173973537612" fill="red" stroke="none" /><path d="M 111.60114157652 82.49532879139004 l 28.037954451231094 -42.30576541054559 a71.7533710878541,71.7533710878541 0 0,0 1.0236653875441168,0.6911834392136142 l -28.76202453318175 41.8168700590333" fill="red" stroke="none" /><path d="M 112.77801427241765 83.33499621200491 l 32.820455999989065 -42.80422700295346 a74.93870763531129,74.93870763531129 0 0,0 1.0169091444994833,0.7937137172274197 l -33.55239769964798 42.23293489650281" fill="red" stroke="none" /><path d="M 114.42810811169701 84.74124197986012 l 14.108567768878363 -14.920821214358016 a41.534911497249496,41.534911497249496 0 0,0 0.5152638295289864,0.49568339576388787 l -14.363314842019767 14.675754731831827" fill="red" stroke="none" /><path d="M 117.04232023915458 87.72973835380427 l 40.355115199933486 -29.055188220669084 a70.7266456272531,70.7266456272531 0 0,0 0.7028456374290768,0.9941253099804465 l -40.84927345716645 28.356236410356843" fill="red" stroke="none" /><path d="M 117.2510076193507 88.02491185347247 l 41.67503200324284 -28.929451123097515 a71.73185818354186,71.73185818354186 0 0,0 0.6953738742042465,1.0203753557654522 l -42.16683034311582 28.207797744061658" fill="red" stroke="none" /><line stroke="#e1ed5e" stroke-width="0.3" x1="172.23445277983987" x2="176.4835382374775" y1="55.19839476539836" y2="52.563006222186495" /><path d="M 173.08426987136738 54.67131705675599 a86.0,86.0 0 0,1 12.851231095245387,41.99856678651699" fill="none" id="id27" stroke="none" /><text fill="#e1ed5e" style="font-size:6.75px; font-family:Arial;" text-anchor="middle"><textPath startOffset="22.20632615414155" xlink:href="#id27">March</textPath></text><line stroke="#e1ed5e" stroke-width="0.3" x1="184.98032266829074" x2="189.97916517819016" y1="98.17113171792111" y2="98.06355123074" /><path d="M 185.9800911702706 98.14961562048488 a86.0,86.0 0 0,1 -9.607161424134198,41.387399972396054" fill="none" id="id28" stroke="none" /><text fill="#e1ed5e" style="font-size:6.75px; font-family:Arial;" text-anchor="middle"><textPath startOffset="21.466115282336823" xlink:href="#id28">April</textPath></text><line stroke="#e1ed5e" stroke-width="0.3" x1="174.80103733775053" x2="179.2010983576182" y1="140.37084112569926" y2="142.7455964860345" /><path d="M 175.68104954172406 140.8457921977663 a86.0,86.0 0 0,1 -30.038265399797805,32.042727171017184" fill="none" id="id29" stroke="none" /><text fill="#e1ed5e" style="font-size:6.75px; font-family:Arial;" text-anchor="middle"><textPath startOffset="22.206326154141568" xlink:href="#id29">May</textPath></text><line stroke="#e1ed5e" stroke-width="0.3" x1="143.8653032363475" x2="146.44561519142675" y1="172.8068346515853" y2="177.08958963109032" /><path d="M 144.38136562736335 173.6633856474863 a86.0,86.0 0 0,1 -40.68145358897372,12.25698825130547" fill="none" id="id30" stroke="none" /><text fill="#e1ed5e" style="font-size:6.75px; font-family:Arial;" text-anchor="middle"><textPath startOffset="21.466115282336833" xlink:href="#id30">June</textPath></text><line stroke="#e1ed5e" stroke-width="0.3" x1="102.19456741930631" x2="102.32365962044197" y1="184.97166512339345" y2="189.96999836594603" /><path d="M 102.22038585953345 185.97133177190398 a86.0,86.0 0 0,1 -42.740103519485714,-10.115201625700543" fill="none" id="id31" stroke="none" /><text fill="#e1ed5e" style="font-size:6.75px; font-family:Arial;" text-anchor="middle"><textPath startOffset="22.20632615414155" xlink:href="#id31">July</textPath></text><line stroke="#e1ed5e" stroke-width="0.3" x1="58.666819895761336" x2="56.23545636021788" y1="174.27360380694188" y2="178.64263932499728" /><path d="M 58.180547188652646 175.14741091055294 a86.0,86.0 0 0,1 -31.652253787137756,-30.449443065178592" fill="none" id="id32" stroke="none" /><text fill="#e1ed5e" style="font-size:6.75px; font-family:Arial;" text-anchor="middle"><textPath startOffset="22.20632615414155" xlink:href="#id32">August</textPath></text><line stroke="#e1ed5e" stroke-width="0.3" x1="26.63291911575756" x2="22.317208475507996" y1="142.92168965132927" y2="145.44649492493687" /><path d="M 25.769776987707644 143.4266507060508 a86.0,86.0 0 0,1 -11.730757126820373,-40.83630448921669" fill="none" id="id33" stroke="none" /><text fill="#e1ed5e" style="font-size:6.75px; font-family:Arial;" text-anchor="middle"><textPath startOffset="21.46611528233685" xlink:href="#id33">September</textPath></text><line stroke="#e1ed5e" stroke-width="0.3" x1="15.007084014347285" x2="10.007500721073583" y1="101.09737516637583" y2="101.16192664675087" /><path d="M 14.007167355692545 101.11028546245083 a86.0,86.0 0 0,1 10.666146001902534,-42.60595125391555" fill="none" id="id34" stroke="none" /><text fill="#e1ed5e" style="font-size:6.75px; font-family:Arial;" text-anchor="middle"><textPath startOffset="22.20632615414155" xlink:href="#id34">October</textPath></text><line stroke="#e1ed5e" stroke-width="0.3" x1="26.266209847984243" x2="21.928928074336255" y1="57.711370442889674" y2="55.22380399835377" /><path d="M 25.398753493254645 57.213857153982495 a86.0,86.0 0 0,1 29.58750427330803,-30.492523968695096" fill="none" id="id35" stroke="none" /><text fill="#e1ed5e" style="font-size:6.75px; font-family:Arial;" text-anchor="middle"><textPath startOffset="21.46611528233685" xlink:href="#id35">November</textPath></text><line stroke="#e1ed5e" stroke-width="0.3" x1="56.762969772571076" x2="54.21961505331055" y1="26.818313649435495" y2="22.513508569990535" /><path d="M 56.25429882871897 25.957352633546506 a86.0,86.0 0 0,1 42.265352541879196,-11.944610805530505" fill="none" id="id36" stroke="none" /><text fill="#e1ed5e" style="font-size:6.75px; font-family:Arial;" text-anchor="middle"><textPath startOffset="22.20632615414155" xlink:href="#id36">December</textPath></text></svg>