<?xml version="1.0" encoding="utf-8" ?>
<svg baseProfile="full" height="200mm" version="1.1" viewBox="0,0,200,200" width="200mm" xmlns="http://www.w3.org/2000/svg" xmlns:ev="http://www.w3.org/2001/xml-events" xmlns:xlink="http://www.w3.org/1999/xlink"><defs /><rect fill="#1a1a1a" height="200" width="200" x="0" y="0" /><text alignment-baseline="middle" fill="#e1ed5e" style="dominant-baseline: central; font-size:9.0px; font-family:Arial;" text-anchor="middle" x="100.0" y="100.0">2024</text><line stroke="#e1ed5e" stroke-width="0.3" x1="100.0" x2="100.0" y1="15.0" y2="10.0" /><path d="M 100.0 14.0 a86.0,86.0 0 0,1 42.35913384403234,11.155469271406648" fill="none" id="id1" stroke="none" /><text fill="#e1ed5e" style="font-size:6.75px; font-family:Arial;" text-anchor="middle"><textPath startOffset="22.145653131862478" xlink:href="#id1">January</textPath></text><line stroke="#e1ed5e" stroke-width="0.3" x1="143.13028292997686" x2="145.6673583964461" y1="26.7553504044142" y2="22.446841604673864" /><path d="M 143.63769802327073 25.89364864446614 a86.0,86.0 0 0,1 29.32050498858742,28.57503671076993" fill="none" id="id2" stroke="none" /><text fill="#e1ed5e" style="font-size:6.75px; font-family:Arial;" text-anchor="middle"><textPath startOffset="20.669276256404974" xlink:href="#id2">February</textPath></text><line stroke="#e1ed5e" stroke-width="0.3" x1="172.87174338648825" x2="177.1583165268699" y1="56.24261187166439" y2="53.66864786411523" /><path d="M 173.72905801456457 55.72781907015455 a86.0,86.0 0 0,1 12.242430191666344,42.057860355516425" fill="none" id="id3" stroke="none" /><text fill="#e1ed5e" style="font-size:6.75px; font-family:Arial;" text-anchor="middle"><textPath startOffset="22.145653131862474" xlink:href="#id3">March</textPath></text><path d="M 120.51834098615036 95.52812308129327 l 14.012929512906004 -3.0540527664749426 a35.34187685883843,35.34187685883843 0 0,0 0.1241043287301944,0.5938841392467215 l -14.063291552460566 2.8130521759428166" fill="red" stroke="none" /><line stroke="#e1ed5e" stroke-width="0.3" x1="184.99686870605535" x2="189.99668451229388" y1="99.2704041080226" y2="99.22748670261217" /><path d="M 185.99683186730306 99.26182062694052 a86.0,86.0 0 0,1 -10.086455211305974,41.156179273409016" fill="none" id="id4" stroke="none" /><text fill="#e1ed5e" style="font-size:6.75px; font-family:Arial;" text-anchor="middle"><textPath startOffset="21.40746469413373" xlink:href="#id4">April</textPath></text><line stroke="#e1ed5e" stroke-width="0.3" x1="174.33088141563837" x2="178.70328620479359" y1="141.23008692659167" y2="143.65538615756765" /><path d="M 175.20536237346943 141.71514677278685 a86.0,86.0 0 0,1 -30.301960400862466,31.631185727798858" fill="none" id="id5" stroke="none" /><text fill="#e1ed5e" style="font-size:6.75px; font-family:Arial;" text-anchor="middle"><textPath startOffset="22.145653131862474" xlink:href="#id5">May</textPath></text><path d="M 115.6541949942343 113.99807769240083 l 10.796984735912439 9.654730328364659 a35.48408426863675,35.48408426863675 0 0,0 -0.40992954414722654,0.4505843781043122 l -10.629657490923332 -9.838652282026644" fill="red" stroke="none" /><path d="M 113.86319453409587 115.77377054828091 l 18.295147098349105 20.8165190040902 a48.71353226851244,48.71353226851244 0 0,0 -0.6328595817183088,0.5466490336878224 l -17.93510803686794 -21.127512170242742" fill="red" stroke="none" /><path d="M 113.31354834802062 116.24036423190432 l 14.660382110167385 17.883282429616912 a44.12441554015065,44.12441554015065 0 0,0 -0.589899793877239,0.4751815171320918 l -14.351231545934894 -18.132312240542408" fill="red" stroke="none" /><path d="M 113.03279911837588 116.46651593811092 l 34.327007223915324 43.37105225256403 a76.3117672692292,76.3117672692292 0 0,0 -1.0341700034349204,0.8041768497923427 l -33.577427275845174 -43.95393015397716" fill="red" stroke="none" /><path d="M 112.16784306229584 117.11559508785304 l 4.2273715470239335 5.946327489131892 a28.295853672093013,28.295853672093013 0 0,0 -0.3983044402333204,0.27804743316457464 l -4.124672015616854 -6.018019738101588" fill="red" stroke="none" /><path d="M 111.5731344415666 117.5232005979908 l 15.356791665150881 23.252139880400897 a48.86562504708225,48.86562504708225 0 0,0 -0.7039311269278151,0.45627965182001423 l -14.955374905966055 -23.512333373924807" fill="red" stroke="none" /><path d="M 110.96478420261333 117.91015095944535 l 8.78606815264173 14.351382028684496 a37.82727428064669,37.82727428064669 0 0,0 -0.5567224470888213,0.33429583354169407 l -8.538412948995473 -14.500091862762114" fill="red" stroke="none" /><line stroke="#e1ed5e" stroke-width="0.3" x1="143.1302829299769" x2="145.66735839644613" y1="173.24464959558577" y2="177.55315839532614" /><path d="M 143.63769802327073 174.10635135553383 a86.0,86.0 0 0,1 -40.68552437913181,11.842963189579606" fill="none" id="id6" stroke="none" /><text fill="#e1ed5e" style="font-size:6.75px; font-family:Arial;" text-anchor="middle"><textPath startOffset="21.407464694133747" xlink:href="#id6">June</textPath></text><path d="M 110.02825361518725 118.45085714620011 l 5.396216948406043 9.928431396485445 a32.30012864302803,32.30012864302803 0 0,0 -0.48944105646402886,0.26059979468995753 l -5.224987076155461 -10.01960165889797" fill="red" stroke="none" /><path d="M 109.71004243097381 118.62028667847754 l 13.10961847236453 25.139421988747316 a49.35229504677308,49.35229504677308 0 0,0 -0.7545561183561162,0.3852817304578341 l -12.676135132294833 -25.360761670877984" fill="red" stroke="none" /><path d="M 109.3889696526874 118.78422872680471 l 21.97417003235801 43.96305997765842 a70.14890427273198,70.14890427273198 0 0,0 -1.0817620797247847,0.5291440409824919 l -21.216247703371156 -44.33379776873813" fill="red" stroke="none" /><path d="M 107.407793817531 119.65005319985036 l 8.280062920350764 21.963850626883367 a44.47275391437938,44.47275391437938 0 0,0 -0.7166696371639224,0.26317101767542694 l -7.901804131532715 -22.102752493567518" fill="red" stroke="none" /><path d="M 107.06938296918513 119.77432235084164 l 9.40635758586948 26.311256280929445 a48.94211463211032,48.94211463211032 0 0,0 -0.7935479779116402,0.2760371795445176 l -8.953303835912818 -26.468851893042554" fill="red" stroke="none" /><path d="M 105.3480935250658 120.30758222061773 l 7.132947309377301 27.08496275945945 a49.00846559523849,49.00846559523849 0 0,0 -0.8153951650534074,0.20727026237858345 l -6.666946851098497 -27.203418253673306" fill="red" stroke="none" /><path d="M 104.9986988182912 120.39639698878246 l 11.720943395908492 47.82544883704789 a70.24077650235805,70.24077650235805 0 0,0 -1.1735823795724225,0.2769622460799457 l -10.898228862596191 -48.019607226774056" fill="red" stroke="none" /><path d="M 104.64783097203109 120.47920084513623 l 6.265856253984064 27.60851878312121 a49.31062104570558,49.31062104570558 0 0,0 -0.8270978091499482,0.1802621179142656 l -5.79099602821498 -27.71201235916919" fill="red" stroke="none" /><path d="M 103.94208987418118 120.62667999033965 l 5.280387506579652 27.62921871379949 a49.129276900670774,49.129276900670774 0 0,0 -0.8297356229723949,0.1512054704534299 l -4.8053171500562 -27.71579235818428" fill="red" stroke="none" /><path d="M 102.875027216393 120.80226474461374 l 3.816801789138012 27.616476408518036 a48.878983932701,48.878983932701 0 0,0 -0.8321581333040502,0.10773953074244207 l -3.3421658339431866 -27.677927535460874" fill="red" stroke="none" /><path d="M 102.51750503828377 120.84855314841334 l 3.4048167292645695 28.196766823184397 a49.40159214271116,49.40159214271116 0 0,0 -0.8428008032615929,0.0944375879197116 l -2.920280024402177 -28.25106017161108" fill="red" stroke="none" /><path d="M 102.15924093988457 120.88869738790638 l 2.8644388959688887 27.710847909007104 a48.85850143178672,48.85850143178672 0 0,0 -0.8350160712486719,0.07907689011018568 l -2.3883232613352017 -27.755936554622473" fill="red" stroke="none" /><path d="M 101.80034050326958 120.92268563240118 l 2.586098853928905 30.054388731910567 a51.16544694399679,51.16544694399679 0 0,0 -0.8757356203740526,0.06778747555609994 l -2.069794238779617 -30.094353974461722" fill="red" stroke="none" /><path d="M 101.44090949804482 120.95050786540614 l 1.9158380727745903 27.85586510948253 a48.92167001665156,48.92167001665156 0 0,0 -0.8383209170763763,0.05043130463683743 l -1.437372803565749 -27.884648391944058" fill="red" stroke="none" /><line stroke="#e1ed5e" stroke-width="0.3" x1="101.45913802915013" x2="101.54496967792366" y1="184.9874750549273" y2="189.98673829345242" /><path d="M 101.47630435890484 185.9873277026323 a86.0,86.0 0 0,1 -42.54439059252881,-10.42667462771756" fill="none" id="id7" stroke="none" /><text fill="#e1ed5e" style="font-size:6.75px; font-family:Arial;" text-anchor="middle"><textPath startOffset="22.145653131862474" xlink:href="#id7">July</textPath></text><path d="M 100.36049292484886 120.99690560180557 l 0.4784260226413614 27.865917310470817 a48.87002402247148,48.87002402247148 0 0,0 -0.8389189474902102,0.007201110195101261 l -3.4130935711279545e-15 -27.870024022471483" fill="red" stroke="none" /><path d="M 100.0 121.0 l 3.419652682598346e-15 27.92358323215511 a48.92358323215511,48.92358323215511 0 0,0 -0.8398383625450407,-0.007209002267565088 l 0.4793454376961852 -27.91946862808198" fill="red" stroke="none" /><path d="M 99.63950707515114 120.99690560180557 l -0.4817943465202306 28.06210528989017 a49.06624091490025,49.06624091490025 0 0,0 -0.8420390454441605,-0.02168793889251292 l 0.963446706035135 -28.04969963364761" fill="red" stroke="none" /><path d="M 97.84075906011543 120.88869738790638 l -2.8911748350438793 27.969493866668838 a49.11852554961616,49.11852554961616 0 0,0 -0.8379716319395876,-0.09389646920039343 l 3.370882368584266 -27.915741636961474" fill="red" stroke="none" /><path d="M 97.48249496171623 120.84855314841334 l -3.6260397066537298 30.028810426518053 a51.246943971019434,51.246943971019434 0 0,0 -0.8724723347599671,-0.11295901123934174 l 4.140989863304491 -29.962139819078317" fill="red" stroke="none" /><path d="M 97.12497278360702 120.80226474461374 l -3.819917542978646 27.639020451197965 a48.901742267050196,48.901742267050196 0 0,0 -0.8305725599381114,-0.12206556397397371 l 4.2938152085244425 -27.56937381392511" fill="red" stroke="none" /><path d="M 95.35216902796893 120.47920084513623 l -10.90702353940532 48.05835819552191 a70.2805129329863,70.2805129329863 0 0,0 -1.1742462955644217,-0.2771189284463071 l 11.730401988709628 -47.864043123429376" fill="red" stroke="none" /><path d="M 95.00130118170881 120.39639698878247 l -6.625616072802768 27.034774574064137 a48.83483114040118,48.83483114040118 0 0,0 -0.8125062622232674,-0.20653591457613377 l 7.088727628251414 -26.917053427652743" fill="red" stroke="none" /><path d="M 94.30408787586889 120.21278271476187 l -8.871465739919271 31.4817022198699 a53.70780455847079,53.70780455847079 0 0,0 -0.8852580383276267,-0.25768571306828625 l 9.410583790628506 -31.3247728124991" fill="red" stroke="none" /><path d="M 92.93061703081489 119.77432235084164 l -9.420547851074222 26.3509489782449 a48.98426761357969,48.98426761357969 0 0,0 -0.7893717885101511,-0.2898682546794868 l 9.871508791238492 -26.185349874556692" fill="red" stroke="none" /><path d="M 92.25597844496254 119.51999308798841 l -18.154684380929442 45.76166415753726 a70.23131596289494,70.23131596289494 0 0,0 -1.1168302214539687,-0.45420512833177973 l 18.93756906357385 -45.44327177262619" fill="red" stroke="none" /><path d="M 91.92203290615298 119.3841803445677 l -10.704717867027387 25.687425965157637 a48.82866934167191,48.82866934167191 0 0,0 -0.7709463847523486,-0.3290711683450115 l 11.144099326950167 -25.49988014715322" fill="red" stroke="none" /><path d="M 90.6110303473126 118.78422872680471 l -12.965472431607191 25.939630088875642 a49.999446279583836,49.999446279583836 0 0,0 -0.7644505299889749,-0.39033388753804577 l 13.408850183309749 -25.713238249664762" fill="red" stroke="none" /><path d="M 90.28995756902619 118.62028667847754 l -22.75490087728018 43.635522778328806 a70.21223792993871,70.21223792993871 0 0,0 -1.0639199703791178,-0.5664774586962344 l 23.500609663445857 -43.23847485191" fill="red" stroke="none" /><line stroke="#e1ed5e" stroke-width="0.3" x1="58.13341422392154" x2="55.67067388415222" y1="173.97424548756322" y2="178.32567169271397" /><path d="M 57.64086615596768 174.84453072859336 a86.0,86.0 0 0,1 -31.369924170532247,-30.572349798747897" fill="none" id="id8" stroke="none" /><text fill="#e1ed5e" style="font-size:6.75px; font-family:Arial;" text-anchor="middle"><textPath startOffset="22.145653131862474" xlink:href="#id8">August</textPath></text><path d="M 89.65649057296885 118.27599006163327 l -13.691905033209078 24.19228426067949 a48.7981093095904,48.7981093095904 0 0,0 -0.7254827276488416,-0.4188576481004858 l 14.10518022871832 -23.95367971530283" fill="red" stroke="none" /><path d="M 89.03521579738668 117.91015095944536 l -14.559131309249246 23.78124683246326 a48.88397398841323,48.88397398841323 0 0,0 -0.7119272749032091,-0.44429527345319053 l 14.965222712942166 -23.527815762168522" fill="red" stroke="none" /><path d="M 88.4268655584334 117.5232005979908 l -15.368920086238987 23.2705038557558 a48.88763264097449,48.88763264097449 0 0,0 -0.696308209003117,-0.46850723826532564 l 15.76612458333911 -23.00324694343335" fill="red" stroke="none" /><path d="M 88.1277618465304 117.32195027204791 l -15.734517232291356 22.95713087365755 a48.83172453304887,48.83172453304887 0 0,0 -0.6873760704009387,-0.4798418814557381 l 16.126288393866062 -22.683644176396683" fill="red" stroke="none" /><path d="M 87.83215693770417 117.11559508785305 l -16.11863354610888 22.67287667438336 a48.81851333348969,48.81851333348969 0 0,0 -0.6788539494614914,-0.4914379076863544 l 16.505468505944325 -22.39283799532394" fill="red" stroke="none" /><path d="M 87.54013794807813 116.9041958592261 l -16.69270921710187 22.646865980628938 a49.13409105962526,49.13409105962526 0 0,0 -0.6746508714109134,-0.5062705913323897 l 17.07901307742355 -22.356976362032533" fill="red" stroke="none" /><path d="M 87.2517909369889 116.68781488649013 l -16.895385262970613 22.116601658381605 a48.83160275837043,48.83160275837043 0 0,0 -0.6617613586931037,-0.5145896351475501 l 17.272556566298945 -21.82331097161326" fill="red" stroke="none" /><path d="M 86.96720088162412 116.46651593811092 l -5.315650171236134 6.716150342766096 a29.565209406056567,29.565209406056567 0 0,0 -0.3952576078588451,-0.31839155007308567 l 5.430158549450241 -6.6239104988996" fill="red" stroke="none" /><path d="M 86.40962598614128 116.0094264158162 l -36.02160117483257 42.433355608924984 a76.66098651148921,76.66098651148921 0 0,0 -0.995937629616984,-0.860267203927391 l 36.74471828421242 -41.80874427253287" fill="red" stroke="none" /><path d="M 85.86807049272751 115.53346607816431 l -19.017925936951592 20.904032054975524 a49.26057435896907,49.26057435896907 0 0,0 -0.6206134011122747,-0.5744304988494272 l 19.373969109377832 -20.574483809993723" fill="red" stroke="none" /><path d="M 85.60350026404147 115.28858382429668 l -19.04534180816151 20.22549300432941 a48.78120969032635,48.78120969032635 0 0,0 -0.6047186216745474,-0.5793067602755793 l 19.38973291570137 -19.89557411374825" fill="red" stroke="none" /><path d="M 85.34317274990678 115.03919595460226 l -19.64947012726742 20.16208737441447 a49.1533558137551,49.1533558137551 0 0,0 -0.5992217257641994,-0.5941002033273516 l 19.99268377316158 -19.821807160858455" fill="red" stroke="none" /><path d="M 84.83555147118756 114.52719865689866 l -20.180427170068974 19.33239272919512 a48.9462170857219,48.9462170857219 0 0,0 -0.5760367625435766,-0.6117310798837439 l 20.509319766348803 -18.98312018936689" fill="red" stroke="none" /><path d="M 84.58840730492382 114.26474011684316 l -18.49940085264258 17.122769249187485 a46.20748021258122,46.20748021258122 0 0,0 -0.5338114732321688,-0.5867523190884623 l 18.790610026716628 -16.80267935454135" fill="red" stroke="none" /><path d="M 84.1078160697243 113.72728997021213 l -21.770652476621276 18.804971091352847 a49.76783354728737,49.76783354728737 0 0,0 -0.5529098156692983,-0.651326372586476 l 22.090256855797687 -18.428477936316817" fill="red" stroke="none" /><path d="M 83.8745106332314 113.45245675266167 l -21.408591050446763 17.859808077208584 a48.88010967195061,48.88010967195061 0 0,0 -0.5319859305470916,-0.6489363355651022 l 21.712023800232483 -17.489669459944984" fill="red" stroke="none" /><path d="M 83.64595745247003 113.17365903436017 l -21.675691945610648 17.46040308965868 a48.83345643958674,48.83345643958674 0 0,0 -0.5202706434923123,-0.657344962151542 l 21.97222901974452 -17.085738183592454" fill="red" stroke="none" /><path d="M 83.20337586046588 112.60449989151573 l -22.19167998507584 16.65305037731222 a48.74517520992279,48.74517520992279 0 0,0 -0.49649973963975336,-0.6735972523572671 l 22.47428174429942 -16.269646815686073" fill="red" stroke="none" /><path d="M 82.98947788004972 112.3143062007846 l -40.45851290573723 29.288843272207576 a70.94724824019482,70.94724824019482 0 0,0 -0.7057051884868343,-0.9926627254887288 l 40.955333192754026 -28.590003320009345" fill="red" stroke="none" /><path d="M 82.78059297857968 112.02048342749411 l -8.544313342016023 5.964594297542121 a31.420253145717,31.420253145717 0 0,0 -0.304941431569414,-0.44491866194486657 l 8.645444510400761 -5.8170409005272035" fill="red" stroke="none" /><path d="M 82.576782715395 111.72311816256416 l -29.01020772659512 19.519362442888607 a55.96566405085208,55.96566405085208 0 0,0 -0.5294766526893883,-0.8016951366005981 l 29.341008818205232 -19.018487427948948" fill="red" stroke="none" /><path d="M 82.37810715431573 111.42229804090323 l -23.423564886562723 15.182871763987604 a48.91384937619149,48.91384937619149 0 0,0 -0.4506649756556692,-0.7085201951935536 l 23.680747553844284 -14.778537894115379" fill="red" stroke="none" /><path d="M 81.99639281039703 110.81064883170644 l -38.4616932401792 23.09514169652157 a65.86298493060906,65.86298493060906 0 0,0 -0.5737176891969133,-0.9742980629234593 l 38.85248463950588 -22.43149246530455" fill="red" stroke="none" /><line stroke="#e1ed5e" stroke-width="0.3" x1="26.387840678322732" x2="22.057713659400548" y1="142.50000000000003" y2="145.00000000000006" /><path d="M 25.521815274538298 143.00000000000003 a86.0,86.0 0 0,1 -11.493303480769221,-40.785679425670985" fill="none" id="id9" stroke="none" /><text fill="#e1ed5e" style="font-size:6.75px; font-family:Arial;" text-anchor="middle"><textPath startOffset="21.40746469413373" xlink:href="#id9">September</textPath></text><path d="M 81.63589988554817 110.18625677009913 l -24.418383869363495 13.544465911969247 a48.92328826682288,48.92328826682288 0 0,0 -0.4010653136782542,-0.7379150042402666 l 24.64729453265708 -13.123296074254393" fill="red" stroke="none" /><path d="M 81.4637452351635 109.86951160357371 l -24.64053712499003 13.11969813528419 a48.915632698704705,48.915632698704705 0 0,0 -0.38827815580281916,-0.7445745601457707 l 24.8621233497678 -12.694777332033917" fill="red" stroke="none" /><path d="M 81.1358732173502 109.22738970284198 l -24.93125473993886 12.195126014411105 a48.7540728797611,48.7540728797611 0 0,0 -0.36129261900118825,-0.7549626178050023 l 25.136926616899963 -11.765350894541" fill="red" stroke="none" /><path d="M 80.28708602549918 107.23885506374661 l -26.09137603973322 9.581114685005485 a48.79492151911914,48.79492151911914 0 0,0 -0.2819877799180683,-0.7887700077084425 l 26.25200398969523 -9.13180972091612" fill="red" stroke="none" /><path d="M 80.16572619554312 106.89939002012753 l -26.517900482854976 9.224302323840712 a49.07644563295385,49.07644563295385 0 0,0 -0.26995452038177614,-0.79807257173398 l 26.672340424809118 -8.76772807763257" fill="red" stroke="none" /><path d="M 80.05021161711548 106.5578916946017 l -31.723952691727746 10.428293367537853 a54.393988634878795,54.393988634878795 0 0,0 -0.283976209713986,-0.8895514322978991 l 31.898293617218986 -9.882172901548563" fill="red" stroke="none" /><path d="M 79.48165901384964 104.47187691870673 l -32.86375136559343 7.162501651235452 a54.63521344846045,54.63521344846045 0 0,0 -0.19185360520422923,-0.9180889526891364 l 32.981862681622026 -6.597296247260906" fill="red" stroke="none" /><path d="M 79.407916724674 104.11899336999214 l -28.58956577893634 5.718713853274695 a50.155907798656585,50.155907798656585 0 0,0 -0.1616302973661606,-0.8457180142823749 l 28.683522368584658 -5.227093273959006" fill="red" stroke="none" /><path d="M 79.34024301695615 103.76489593502545 l -55.333403245856864 10.0835893240385 a77.2446823124148,77.2446823124148 0 0,0 -0.2265298979983069,-1.3065642536764381 l 55.498347961347406 -9.13223203744147" fill="red" stroke="none" /><path d="M 79.13060592940153 102.33845913500099 l -36.23779519141921 4.060520536006095 a57.46458044950706,57.46458044950706 0 0,0 -0.10143211972895491,-0.9812637465762811 l 36.30215970362983 -3.437852267146882" fill="red" stroke="none" /><path d="M 79.0935383218832 101.97986365728391 l -31.31044796952183 2.965131976063732 a52.45053512561606,52.45053512561606 0 0,0 -0.07719314420465186,-0.897101346238325 l 31.356734736424226 -2.4272095824497453" fill="red" stroke="none" /><path d="M 79.06263194458094 101.62068470465958 l -28.907724711901768 2.2376407179298217 a49.994199143994884,49.994199143994884 0 0,0 -0.05888849769272749,-0.8562258322035743 l 28.94187717075956 -1.7410714615719038" fill="red" stroke="none" /><line stroke="#e1ed5e" stroke-width="0.3" x1="15.003131293944662" x2="10.003315487706104" y1="100.72959589197737" y2="100.7725132973878" /><path d="M 14.003168132696942 100.73817937305945 a86.0,86.0 0 0,1 10.791469493833604,-42.45332614584628" fill="none" id="id10" stroke="none" /><text fill="#e1ed5e" style="font-size:6.75px; font-family:Arial;" text-anchor="middle"><textPath startOffset="22.145653131862435" xlink:href="#id10">October</textPath></text><path d="M 79.00077361379809 100.18025310272382 l -55.533837452518746 0.4766912038985537 a76.53588332516777,76.53588332516777 0 0,0 0.0,-1.313888613244722 l 55.533837452518746 0.47669120389853326" fill="red" stroke="none" /><path d="M 79.06263194458094 98.37931529534042 l -32.496025071826175 -2.515397859785534 a53.59323352878277,53.59323352878277 0 0,0 0.0788748902994535,-0.9166457850770833 l 32.44805655882898 3.072864692238298" fill="red" stroke="none" /><path d="M 79.17382384314186 97.30363454192245 l -27.602020522195183 -3.573634168300572 a48.832398352936266,48.832398352936266 0 0,0 0.11476888707037335,-0.8304104947840635 l 27.536607118569602 4.046932971284702" fill="red" stroke="none" /><path d="M 79.2786578344484 96.59031103205396 l -32.9084243230315 -5.415068699230689 a54.35097240624445,54.35097240624445 0 0,0 0.15939116929110003,-0.9193259079161261 l 32.81061833624816 5.979187640067408" fill="red" stroke="none" /><path d="M 79.34024301695615 96.23510406497455 l -48.10150832405562 -8.76569716219132 a69.89368619554514,69.89368619554514 0 0,0 0.2252364233771335,-1.1785321429623319 l 47.943945608396334 9.590131870186966" fill="red" stroke="none" /><path d="M 79.48165901384962 95.52812308129327 l -27.435914849732104 -5.979529945570858 a49.07996086200494,49.07996086200494 0 0,0 0.186478466283955,-0.8216585300332464 l 27.329225521890486 6.449622809543112" fill="red" stroke="none" /><path d="M 79.56144815229197 95.17655741523228 l -54.47761218673526 -12.856568141222114 a76.9741152135361,76.9741152135361 0 0,0 0.3145399628901416,-1.283430385617302 l 54.24888469732882 13.789854351447534" fill="red" stroke="none" /><path d="M 79.73907114497095 94.47779374421319 l -28.137038674060943 -7.668875010468615 a50.1634118249527,50.1634118249527 0 0,0 0.23357400242512463,-0.8288717339642132 l 28.001246179561235 8.150754668335841" fill="red" stroke="none" /><path d="M 79.83685265289637 94.1308016681162 l -54.3862050034411 -15.831031643457154 a77.64345379275935,77.64345379275935 0 0,0 0.38349832166729225,-1.276541186761001 l 54.10643036177017 16.762310433808878" fill="red" stroke="none" /><path d="M 80.16572619554312 93.10060997987247 l -26.656636533388987 -9.272561923961335 a49.223335662300904,49.223335662300904 0 0,0 0.28446360218317823,-0.7956953232228343 l 26.493532761161866 9.728792203565092" fill="red" stroke="none" /><path d="M 80.28708602549916 92.7611449362534 l -33.96959506908774 -12.474105837288525 a57.1875214072153,57.1875214072153 0 0,0 0.34630942817632737,-0.9186269022728615 l 33.75045495709698 13.05540101975553" fill="red" stroke="none" /><path d="M 80.41425534168474 92.42381321644754 l -53.02508338566576 -20.511241362104215 a77.85393997139778,77.85393997139778 0 0,0 0.49285742566213736,-1.242322670968104 l 52.66516728503749 21.418465050285903" fill="red" stroke="none" /><path d="M 80.68587082218212 91.75594674310238 l -52.155730342764954 -22.2621799118941 a77.70824333389947,77.70824333389947 0 0,0 0.5342113059711985,-1.2223800125844593 l 51.765885154776775 23.154221994254428" fill="red" stroke="none" /><path d="M 80.9802524753101 91.09779779509293 l -50.2258347212778 -23.50822670062479 a76.45512777063166,76.45512777063166 0 0,0 0.5665716055445702,-1.1839167478107513 l 49.814883857773324 24.366955950500625" fill="red" stroke="none" /><path d="M 81.1358732173502 90.77261029715801 l -27.9495431260301 -13.671522112408175 a52.114104162322946,52.114104162322946 0 0,0 0.399988372941687,-0.8002446874720102 l 27.710734839876668 14.149298656043955" fill="red" stroke="none" /><path d="M 81.46374523516351 90.13048839642627 l -49.84093825431554 -26.5374923184116 a77.46554369365666,77.46554369365666 0 0,0 0.6350501710208687,-1.1684207874869716 l 49.378042733679315 27.389167939373195" fill="red" stroke="none" /><line stroke="#e1ed5e" stroke-width="0.3" x1="26.387840678322718" x2="22.05771365940052" y1="57.49999999999999" y2="54.99999999999999" /><path d="M 25.521815274538284 56.99999999999999 a86.0,86.0 0 0,1 29.574782752854787,-30.34633250058573" fill="none" id="id11" stroke="none" /><text fill="#e1ed5e" style="font-size:6.75px; font-family:Arial;" text-anchor="middle"><textPath startOffset="21.40746469413373" xlink:href="#id11">November</textPath></text><path d="M 81.81346652052679 89.5 l -48.780234990849685 -28.163281803100276 a77.32656360620054,77.32656360620054 0 0,0 0.6735743518521854,-1.1438765068637586 l 48.28958692886772 28.996509478257607" fill="red" stroke="none" /><path d="M 82.18462484594161 88.88188828441811 l -26.017108454080695 -16.23659989236796 a51.667851381801114,51.667851381801114 0 0,0 0.4760388168610158,-0.7484120880513611 l 25.73455194559379 16.68082565509799" fill="red" stroke="none" /><path d="M 82.37810715431573 88.57770195909679 l -46.80731821262733 -30.339938155449936 a76.7802553376612,76.7802553376612 0 0,0 0.726398109953311,-1.0998593215158667 l 46.27959566375329 31.138977355304863" fill="red" stroke="none" /><path d="M 82.78059297857968 87.97951657250589 l -22.772711351532077 -15.897121141260971 a48.772555569844926,48.772555569844926 0 0,0 0.4851357364118337,-0.6824041684759937 l 22.49646051659027 16.285702536446486" fill="red" stroke="none" /><path d="M 83.8745106332314 86.54754324733833 l -32.70871894783743 -27.28677667218746 a63.59610869981498,63.59610869981498 0 0,0 0.7065389475933012,-0.8323011036979948 l 32.235485436737015 27.844244558335014" fill="red" stroke="none" /><path d="M 84.10781606972428 86.27271002978789 l -23.83814892560781 -20.590825281824035 a52.49983222155414,52.49983222155414 0 0,0 0.5949704387028606,-0.6769671420268359 l 23.48116742294636 20.99700470166217" fill="red" stroke="none" /><path d="M 84.34580500576568 86.00192230759919 l -41.88931826684365 -37.4576866965661 a77.19424594670727,77.19424594670727 0 0,0 0.8917857880214124,-0.9802287989117814 l 41.24013477798037 38.171253071035544" fill="red" stroke="none" /><path d="M 84.58840730492382 85.73525988315684 l -41.02760022978999 -37.97453426618709 a76.90464411253578,76.90464411253578 0 0,0 0.9050730548095905,-0.9611562198696708 l 40.36967134124413 38.67323194600127" fill="red" stroke="none" /><path d="M 85.60350026404147 84.71141617570332 l -42.19620407249354 -44.8109064606942 a82.55109240262601,82.55109240262601 0 0,0 1.04002673310694,-0.9626332174662099 l 41.42074756807265 45.528657424292774" fill="red" stroke="none" /><path d="M 86.13680546590413 84.22622945171909 l -26.406481246452397 -30.04572828755938 a61.00060049735614,61.00060049735614 0 0,0 0.7924864553555876,-0.6845309252560983 l 25.886815311333958 30.49460334528019" fill="red" stroke="none" /><path d="M 86.40962598614128 83.9905735841838 l -40.77112204157617 -48.0282792474486 a84.0,84.0 0 0,0 1.107302663352364,-0.9237512643524726 l 39.940645044061895 48.721092695712954" fill="red" stroke="none" /><line stroke="#e1ed5e" stroke-width="0.3" x1="56.869717070023135" x2="54.33264160355391" y1="26.7553504044142" y2="22.446841604673864" /><path d="M 56.362301976729285 25.89364864446614 a86.0,86.0 0 0,1 42.16139366436587,-11.88097634709845" fill="none" id="id12" stroke="none" /><text fill="#e1ed5e" style="font-size:6.75px; font-family:Arial;" text-anchor="middle"><textPath startOffset="22.145653131862474" xlink:href="#id12">December</textPath></text></svg>