<?xml version="1.0" encoding="utf-8" ?>
<svg baseProfile="full" height="200mm" version="1.1" viewBox="0,0,200,200" width="200mm" xmlns="http://www.w3.org/2000/svg" xmlns:ev="http://www.w3.org/2001/xml-events" xmlns:xlink="http://www.w3.org/1999/xlink"><defs /><rect fill="#1a1a1a" height="200" width="200" x="0" y="0" /><text alignment-baseline="middle" fill="#e1ed5e" style="dominant-baseline: central; font-size:9.0px; font-family:Arial;" text-anchor="middle" x="100.0" y="100.0">2025</text><line stroke="#e1ed5e" stroke-width="0.3" x1="100.0" x2="100.0" y1="15.0" y2="10.0" /><path d="M 100.0 14.0 a86.0,86.0 0 0,1 42.46469731375804,11.215312516191453" fill="none" id="id13" stroke="none" /><text fill="#e1ed5e" style="font-size:6.75px; font-family:Arial;" text-anchor="middle"><textPath startOffset="22.20632615414155" xlink:href="#id13">January</textPath></text><path d="M 101.80526077348638 79.07773832637324 l 2.876862911230703 -33.34170858411703 a54.46559235271651,54.46559235271651 0 0,0 0.9333713393280201,0.0886348553005886 l -3.4503593776489674 33.28724818430126" fill="red" stroke="none" /><path d="M 102.52436894288641 79.15227682838746 l 7.4828725591480465 -61.797961855449046 a83.2493491630554,83.2493491630554 0 0,0 1.4211269302982394,0.18450306216870815 l -8.545514217954132 61.6600004701162" fill="red" stroke="none" /><path d="M 103.95276090670814 79.375362276772 l 11.858282720124386 -61.87391316968404 a84.0,84.0 0 0,0 1.4177343621314986,0.2843841756911667 l -12.921583491723009 61.66062503791566" fill="red" stroke="none" /><path d="M 104.307194497241 79.44645832069477 l 7.44245962912932 -35.51474266644819 a57.28618403738888,57.28618403738888 0 0,0 0.9633825094420908,0.2105581025372489 l -8.052684862724938 35.381371065815074" fill="red" stroke="none" /><path d="M 105.01212808612495 79.60689891045804 l 14.944258997465584 -60.80446852251792 a83.61401016776679,83.61401016776679 0 0,0 1.3947259306270783,0.355546694585114 l -15.988693816777687 60.538218831763935" fill="red" stroke="none" /><path d="M 106.0581310904928 79.89281104454417 l 18.05696082518163 -59.931803694868016 a83.59293033851618,83.59293033851618 0 0,0 1.374166775753798,0.4269603063278143 l -19.085912973646145 59.612103253657686" fill="red" stroke="none" /><path d="M 107.08798089147638 80.2323363322302 l 21.155611739203884 -59.00086695343742 a83.67904122844546,83.67904122844546 0 0,0 1.3516861784330454,0.4978374268658002 l -22.168080243409506 58.6279662587653" fill="red" stroke="none" /><line stroke="#e1ed5e" stroke-width="0.3" x1="143.23703022742887" x2="145.7803849466894" y1="26.81831364943548" y2="22.513508569990506" /><path d="M 143.74570117128098 25.957352633546492 a86.0,86.0 0 0,1 28.547481713284135,27.462654790039103" fill="none" id="id14" stroke="none" /><text fill="#e1ed5e" style="font-size:6.75px; font-family:Arial;" text-anchor="middle"><textPath startOffset="19.985693538727396" xlink:href="#id14">February</textPath></text><path d="M 113.6212207817346 84.01681056812373 l 20.220508274557904 -23.726817099570116 a52.17420094497881,52.17420094497881 0 0,0 0.6785284680344557,0.5884132011489261 l -20.625930541239125 23.37523890500152" fill="red" stroke="none" /><path d="M 113.89432698308785 84.25364557470407 l 22.945530376627996 -26.00402698357127 a55.6800632010246,55.6800632010246 0 0,0 0.7132059624303079,0.6403233549921717 l -23.389747326654295 25.605204619809797" fill="red" stroke="none" /><path d="M 114.42810811169701 84.74124197986012 l 25.22589657588778 -26.678192921252908 a57.71609777197157,57.71609777197157 0 0,0 0.7160005039477413,0.6887919175112713 l -25.681380323447943 26.240017916979333" fill="red" stroke="none" /><path d="M 115.19652480421416 85.50635884689758 l 45.34714058777464 -43.2497029068271 a83.66498193581648,83.66498193581648 0 0,0 0.9849865495849882,1.0507149748961853 l -46.08489445933009 42.462718515052856" fill="red" stroke="none" /><path d="M 115.9244219780498 86.31012108654704 l 47.253407133574534 -40.622725446387086 a83.31444702814828,83.31444702814828 0 0,0 0.9255417254693705,1.0955494720677632 l -47.94565947253102 39.803317024690216" fill="red" stroke="none" /><line stroke="#e1ed5e" stroke-width="0.3" x1="172.23445277983987" x2="176.4835382374775" y1="55.19839476539836" y2="52.563006222186495" /><path d="M 173.08426987136738 54.67131705675599 a86.0,86.0 0 0,1 12.851231095245387,41.99856678651699" fill="none" id="id15" stroke="none" /><text fill="#e1ed5e" style="font-size:6.75px; font-family:Arial;" text-anchor="middle"><textPath startOffset="22.20632615414155" xlink:href="#id15">March</textPath></text><path d="M 118.21658344932153 89.55222093294921 l 47.98693268646023 -27.522003355258555 a76.31913210944047,76.31913210944047 0 0,0 0.6437786226847952,1.145210335007126 l -48.45356895043745 26.691909510316634" fill="red" stroke="none" /><path d="M 118.89224826269711 90.83032412892265 l 49.71775242482826 -24.13136162699673 a76.26461363430859,76.26461363430859 0 0,0 0.5630573068487538,1.1859422857393964 l -50.12576792551877 23.271976925616794" fill="red" stroke="none" /><path d="M 119.34039704204932 91.81776055985345 l 50.916955789718905 -21.541167067513896 a76.28614894820161,76.28614894820161 0 0,0 0.5012301974200545,1.2137686802752934 l -51.28020767402516 20.661523816785298" fill="red" stroke="none" /><path d="M 119.61058180528143 92.48833698450437 l 58.24847350249858 -22.311571806602853 a83.37540301955951,83.37540301955951 0 0,0 0.5018223035000029,1.344634283027594 l -58.623900394500204 21.305614386545926" fill="red" stroke="none" /><path d="M 119.85752413597 93.16781622104841 l 52.262394964224086 -17.981410203950926 a76.26924135827545,76.26924135827545 0 0,0 0.41643988648161445,1.2451022551107946 l -52.56417214447747 17.079134845917817" fill="red" stroke="none" /><path d="M 120.18372546131832 94.20196356495316 l 53.14969073066073 -15.267936732415036 a76.29918188210303,76.29918188210303 0 0,0 0.35175096195956346,1.2654353622818089 l -53.40462846318666 14.350790066714275" fill="red" stroke="none" /><path d="M 120.37134235888165 94.90015583598534 l 53.61462633389123 -13.42210220601937 a76.26916848073266,76.26916848073266 0 0,0 0.30786303993083236,1.2762910558660185 l -53.83772217408288 12.497225918493946" fill="red" stroke="none" /><path d="M 120.53481517161879 95.60439243477599 l 54.05511475662953 -11.570840515364736 a76.27965070063661,76.27965070063661 0 0,0 0.2637848543446824,1.2863086310689087 l -54.24627890688921 10.638656228132415" fill="red" stroke="none" /><path d="M 120.78858239683441 97.02765380044208 l 54.74919052263101 -7.82802527235309 a76.3059837860963,76.3059837860963 0 0,0 0.174718904583971,1.3018587800604489 l -54.87582542627281 6.884448150227977" fill="red" stroke="none" /><line stroke="#e1ed5e" stroke-width="0.3" x1="184.98032266829074" x2="189.97916517819016" y1="98.17113171792111" y2="98.06355123074" /><path d="M 185.9800911702706 98.14961562048488 a86.0,86.0 0 0,1 -9.607161424134198,41.387399972396054" fill="none" id="id16" stroke="none" /><text fill="#e1ed5e" style="font-size:6.75px; font-family:Arial;" text-anchor="middle"><textPath startOffset="21.466115282336823" xlink:href="#id16">April</textPath></text><path d="M 120.99513854157772 99.54816195383933 l 55.286483450268676 -1.1898248069091462 a76.29928512528863,76.29928512528863 0 0,0 0.016956581933481606,1.3133059575570718 l -55.298773039319876 0.23798259129161178" fill="red" stroke="none" /><path d="M 120.99980553446 99.90962569577887 l 55.277839159009886 -0.2378925007017461 a76.2783510511236,76.2783510511236 0 0,0 -0.00565078273726065,1.313042901106342 l -55.27374407898312 -0.7136598786082806" fill="red" stroke="none" /><path d="M 120.92983693683757 101.71520430193887 l 62.01596421216142 5.0822206081486305 a83.22386024246629,83.22386024246629 0 0,0 -0.12929581141860577,1.426768504958121 l -61.91929380446574 -6.148970501655321" fill="red" stroke="none" /><line stroke="#e1ed5e" stroke-width="0.3" x1="174.80103733775053" x2="179.2010983576182" y1="140.37084112569926" y2="142.7455964860345" /><path d="M 175.68104954172406 140.8457921977663 a86.0,86.0 0 0,1 -30.038265399797805,32.042727171017184" fill="none" id="id17" stroke="none" /><text fill="#e1ed5e" style="font-size:6.75px; font-family:Arial;" text-anchor="middle"><textPath startOffset="22.206326154141568" xlink:href="#id17">May</textPath></text><line stroke="#e1ed5e" stroke-width="0.3" x1="143.8653032363475" x2="146.44561519142675" y1="172.8068346515853" y2="177.08958963109032" /><path d="M 144.38136562736335 173.6633856474863 a86.0,86.0 0 0,1 -40.68145358897372,12.25698825130547" fill="none" id="id18" stroke="none" /><text fill="#e1ed5e" style="font-size:6.75px; font-family:Arial;" text-anchor="middle"><textPath startOffset="21.466115282336833" xlink:href="#id18">June</textPath></text><line stroke="#e1ed5e" stroke-width="0.3" x1="102.19456741930631" x2="102.32365962044197" y1="184.97166512339345" y2="189.96999836594603" /><path d="M 102.22038585953345 185.97133177190398 a86.0,86.0 0 0,1 -42.740103519485714,-10.115201625700543" fill="none" id="id19" stroke="none" /><text fill="#e1ed5e" style="font-size:6.75px; font-family:Arial;" text-anchor="middle"><textPath startOffset="22.20632615414155" xlink:href="#id19">July</textPath></text><line stroke="#e1ed5e" stroke-width="0.3" x1="58.666819895761336" x2="56.23545636021788" y1="174.27360380694188" y2="178.64263932499728" /><path d="M 58.180547188652646 175.14741091055294 a86.0,86.0 0 0,1 -31.652253787137756,-30.449443065178592" fill="none" id="id20" stroke="none" /><text fill="#e1ed5e" style="font-size:6.75px; font-family:Arial;" text-anchor="middle"><textPath startOffset="22.20632615414155" xlink:href="#id20">August</textPath></text><line stroke="#e1ed5e" stroke-width="0.3" x1="26.63291911575756" x2="22.317208475507996" y1="142.92168965132927" y2="145.44649492493687" /><path d="M 25.769776987707644 143.4266507060508 a86.0,86.0 0 0,1 -11.730757126820373,-40.83630448921669" fill="none" id="id21" stroke="none" /><text fill="#e1ed5e" style="font-size:6.75px; font-family:Arial;" text-anchor="middle"><textPath startOffset="21.46611528233685" xlink:href="#id21">September</textPath></text><line stroke="#e1ed5e" stroke-width="0.3" x1="15.007084014347285" x2="10.007500721073583" y1="101.09737516637583" y2="101.16192664675087" /><path d="M 14.007167355692545 101.11028546245083 a86.0,86.0 0 0,1 10.666146001902534,-42.60595125391555" fill="none" id="id22" stroke="none" /><text fill="#e1ed5e" style="font-size:6.75px; font-family:Arial;" text-anchor="middle"><textPath startOffset="22.20632615414155" xlink:href="#id22">October</textPath></text><line stroke="#e1ed5e" stroke-width="0.3" x1="26.266209847984243" x2="21.928928074336255" y1="57.711370442889674" y2="55.22380399835377" /><path d="M 25.398753493254645 57.213857153982495 a86.0,86.0 0 0,1 29.58750427330803,-30.492523968695096" fill="none" id="id23" stroke="none" /><text fill="#e1ed5e" style="font-size:6.75px; font-family:Arial;" text-anchor="middle"><textPath startOffset="21.46611528233685" xlink:href="#id23">November</textPath></text><line stroke="#e1ed5e" stroke-width="0.3" x1="56.762969772571076" x2="54.21961505331055" y1="26.818313649435495" y2="22.513508569990535" /><path d="M 56.25429882871897 25.957352633546506 a86.0,86.0 0 0,1 42.265352541879196,-11.944610805530505" fill="none" id="id24" stroke="none" /><text fill="#e1ed5e" style="font-size:6.75px; font-family:Arial;" text-anchor="middle"><textPath startOffset="22.20632615414155" xlink:href="#id24">December</textPath></text></svg>