<?xml version="1.0" encoding="utf-8" ?>
<svg baseProfile="full" height="200mm" version="1.1" viewBox="0,0,200,200" width="200mm" xmlns="http://www.w3.org/2000/svg" xmlns:ev="http://www.w3.org/2001/xml-events" xmlns:xlink="http://www.w3.org/1999/xlink"><defs /><rect fill="#1a1a1a" height="200" width="200" x="0" y="0" /><text alignment-baseline="middle" fill="#e1ed5e" style="dominant-baseline: central; font-size:9.0px; font-family:Arial;" text-anchor="middle" x="100.0" y="100.0">2024</text><line stroke="#e1ed5e" stroke-width="0.3" x1="100.0" x2="100.0" y1="15.0" y2="10.0" /><path d="M 100.0 14.0 a86.0,86.0 0 0,1 42.35913384403234,11.155469271406648" fill="none" id="id1" stroke="none" /><text fill="#e1ed5e" style="font-size:6.75px; font-family:Arial;" text-anchor="middle"><textPath startOffset="22.145653131862478" xlink:href="#id1">January</textPath></text><line stroke="#e1ed5e" stroke-width="0.3" x1="143.13028292997686" x2="145.6673583964461" y1="26.7553504044142" y2="22.446841604673864" /><path d="M 143.63769802327073 25.89364864446614 a86.0,86.0 0 0,1 29.32050498858742,28.57503671076993" fill="none" id="id2" stroke="none" /><text fill="#e1ed5e" style="font-size:6.75px; font-family:Arial;" text-anchor="middle"><textPath startOffset="20.669276256404974" xlink:href="#id2">February</textPath></text><line stroke="#e1ed5e" stroke-width="0.3" x1="172.87174338648825" x2="177.1583165268699" y1="56.24261187166439" y2="53.66864786411523" /><path d="M 173.72905801456457 55.72781907015455 a86.0,86.0 0 0,1 12.242430191666344,42.057860355516425" fill="none" id="id3" stroke="none" /><text fill="#e1ed5e" style="font-size:6.75px; font-family:Arial;" text-anchor="middle"><textPath startOffset="22.145653131862474" xlink:href="#id3">March</textPath></text><path d="M 120.51834098615036 95.52812308129327 l 15.527763946653598 -3.3842038807638866 a36.89227136345125,36.89227136345125 0 0,0 0.12954859729664542,0.6199369351845966 l -15.58357025477461 3.1171504942938855" fill="red" stroke="none" /><line stroke="#e1ed5e" stroke-width="0.3" x1="184.99686870605535" x2="189.99668451229388" y1="99.2704041080226" y2="99.22748670261217" /><path d="M 185.99683186730306 99.26182062694052 a86.0,86.0 0 0,1 -10.086455211305974,41.156179273409016" fill="none" id="id4" stroke="none" /><text fill="#e1ed5e" style="font-size:6.75px; font-family:Arial;" text-anchor="middle"><textPath startOffset="21.40746469413373" xlink:href="#id4">April</textPath></text><line stroke="#e1ed5e" stroke-width="0.3" x1="174.33088141563837" x2="178.70328620479359" y1="141.23008692659167" y2="143.65538615756765" /><path d="M 175.20536237346943 141.71514677278685 a86.0,86.0 0 0,1 -30.301960400862466,31.631185727798858" fill="none" id="id5" stroke="none" /><text fill="#e1ed5e" style="font-size:6.75px; font-family:Arial;" text-anchor="middle"><textPath startOffset="22.145653131862474" xlink:href="#id5">May</textPath></text><path d="M 115.6541949942343 113.99807769240083 l 11.9641671044203 10.698431999488031 a37.049851767233314,37.049851767233314 0 0,0 -0.4280180581999211,0.47046682368949116 l -11.778751345378499 -10.902236398735194" fill="red" stroke="none" /><path d="M 113.86319453409587 115.77377054828091 l 20.272900484572283 23.066839306430573 a51.70943779436644,51.70943779436644 0 0,0 -0.671780748582348,0.5802682106282447 l -19.87394025622708 -23.411451649523535" fill="red" stroke="none" /><path d="M 113.31354834802062 116.24036423190432 l 16.245207867831052 19.816512164902942 a46.624225511238116,46.624225511238116 0 0,0 -0.6233197807172897,0.5021022928536962 l -15.90263731675851 -20.092462751550045" fill="red" stroke="none" /><path d="M 113.03279911837588 116.46651593811092 l 38.03784673840779 48.05957675556248 a82.2911143838844,82.2911143838844 0 0,0 -1.1152015618351538,0.8671874797193638 l -37.2072352319374 -48.70546528690264" fill="red" stroke="none" /><path d="M 112.16784306229584 117.11559508785304 l 4.684361498895081 6.589141086858243 a29.084554589762753,29.084554589762753 0 0,0 -0.4094065289408888,0.28579755331411794 l -4.570559878780434 -6.668583455977482" fill="red" stroke="none" /><path d="M 111.5731344415666 117.5232005979908 l 17.016901122265697 25.76575718766746 a51.87797220121174,51.87797220121174 0 0,0 -0.7473253314399046,0.4844072509108455 l -16.572090158568784 -26.0540782802822" fill="red" stroke="none" /><path d="M 110.96478420261333 117.91015095944535 l 9.735865164224265 15.90280406708803 a39.64634676530894,39.64634676530894 0 0,0 -0.5834946241581916,0.3503717566447248 l -9.461437783508636 -16.06758982426868" fill="red" stroke="none" /><line stroke="#e1ed5e" stroke-width="0.3" x1="143.1302829299769" x2="145.66735839644613" y1="173.24464959558577" y2="177.55315839532614" /><path d="M 143.63769802327073 174.10635135553383 a86.0,86.0 0 0,1 -40.68552437913181,11.842963189579606" fill="none" id="id6" stroke="none" /><text fill="#e1ed5e" style="font-size:6.75px; font-family:Arial;" text-anchor="middle"><textPath startOffset="21.407464694133747" xlink:href="#id6">June</textPath></text><path d="M 110.02825361518725 118.45085714620011 l 5.979562153838583 11.001720870941519 a33.52170218755138,33.52170218755138 0 0,0 -0.5079514547595808,0.2704555391800087 l -5.789821883292449 -11.102746877844096" fill="red" stroke="none" /><path d="M 109.71004243097381 118.62028667847754 l 14.526802613406641 27.857059441928822 a52.41725250431733,52.41725250431733 0 0,0 -0.8014168043667548,0.4092091306304732 l -14.046458587326304 -28.102326524232133" fill="red" stroke="none" /><path d="M 109.3889696526874 118.78422872680471 l 24.34963544716529 48.71558206846974 a75.46202973338085,75.46202973338085 0 0,0 -1.1636954713826837,0.5692217685769847 l -23.509779726520538 -49.12639758714395" fill="red" stroke="none" /><path d="M 107.407793817531 119.65005319985036 l 9.175159439161618 24.33820048689289 a47.01022017735009,47.01022017735009 0 0,0 -0.7575604043401581,0.2781866737786832 l -8.756009883167332 -24.492118009680294" fill="red" stroke="none" /><path d="M 107.06938296918513 119.77432235084164 l 10.423209512091937 29.15557209460715 a51.96273051099982,51.96273051099982 0 0,0 -0.8425242765607368,0.29307367855898797 l -9.921179463486178 -29.33020420573473" fill="red" stroke="none" /><path d="M 105.3480935250658 120.30758222061773 l 7.904037621963282 30.012918272759673 a52.03625418726884,52.03625418726884 0 0,0 -0.8657710368290231,0.22007561199063058 l -7.387661291908862 -30.144179116585576" fill="red" stroke="none" /><path d="M 104.9986988182912 120.39639698878246 l 12.988008118939883 52.9955052939129 a75.56383359199387,75.56383359199387 0 0,0 -1.262519978456241,0.2979512772520003 l -12.076355986743764 -53.210652714811125" fill="red" stroke="none" /><path d="M 104.64783097203109 120.47920084513623 l 6.943211749257613 30.59307207577287 a52.371073434431004,52.371073434431004 0 0,0 -0.8784314450288452,0.19145004493015264 l -6.417017887609632 -30.70775357883674" fill="red" stroke="none" /><path d="M 103.94208987418118 120.62667999033965 l 5.851211245550895 30.616009723249686 a52.17012551168475,52.17012551168475 0 0,0 -0.8810919745369744,0.16056430847857803 l -5.324784537462864 -30.71194220565963" fill="red" stroke="none" /><path d="M 102.875027216393 120.80226474461374 l 4.229408073330807 30.60188994134652 a51.892775217403845,51.892775217403845 0 0,0 -0.8834675249456483,0.11438255874025428 l -3.703462726494383 -30.66998409628717" fill="red" stroke="none" /><path d="M 102.51750503828377 120.84855314841334 l 3.7728863479220762 31.244911271836063 a52.47187874562377,52.47187874562377 0 0,0 -0.8951804919101468,0.10030684128635745 l -3.2359699544111304 -31.305073873629393" fill="red" stroke="none" /><path d="M 102.15924093988457 120.88869738790638 l 3.1740922535329323 30.706463248557988 a51.87007850441881,51.87007850441881 0 0,0 -0.8864854201185449,0.08395109096064295 l -2.646507270029372 -30.756426095023812" fill="red" stroke="none" /><path d="M 101.80034050326958 120.92268563240118 l 2.8656629229123856 33.303346981104845 a54.426410877203374,54.426410877203374 0 0,0 -0.9315495034461546,0.07210782309754755 l -2.293544424690995 -33.347632571197444" fill="red" stroke="none" /><path d="M 101.44090949804482 120.95050786540614 l 2.1229451933413963 30.867157188758927 a51.940075778987406,51.940075778987406 0 0,0 -0.8900442676064938,0.05354285296431956 l -1.5927565736024374 -30.899052019547938" fill="red" stroke="none" /><line stroke="#e1ed5e" stroke-width="0.3" x1="101.45913802915013" x2="101.54496967792366" y1="184.9874750549273" y2="189.98673829345242" /><path d="M 101.47630435890484 185.9873277026323 a86.0,86.0 0 0,1 -42.54439059252881,-10.42667462771756" fill="none" id="id7" stroke="none" /><text fill="#e1ed5e" style="font-size:6.75px; font-family:Arial;" text-anchor="middle"><textPath startOffset="22.145653131862474" xlink:href="#id7">July</textPath></text><path d="M 100.36049292484886 120.99690560180557 l 0.5301451305145977 30.878296059039176 a51.882846717378285,51.882846717378285 0 0,0 -0.8906380553634462,0.007645056533542791 l -3.782057938099566e-15 -30.882846717378285" fill="red" stroke="none" /><path d="M 100.0 121.0 l 3.789326106723281e-15 30.94219581810492 a51.94219581810492,51.94219581810492 0 0,0 -0.8916568615971647,-0.007653801759739449 l 0.5311639367483089 -30.937636414539615" fill="red" stroke="none" /><path d="M 99.63950707515114 120.99690560180557 l -0.5338775790392823 31.095692473599662 a52.100275170520334,52.100275170520334 0 0,0 -0.89410692879553,-0.023029022870146448 l 1.0675978219055564 -31.08194573337947" fill="red" stroke="none" /><path d="M 97.84075906011543 120.88869738790638 l -3.203718417745505 30.993069512624942 a52.15821191138226,52.15821191138226 0 0,0 -0.8898292745021817,-0.09970722621422357 l 3.7352835938484863 -30.93350652590375" fill="red" stroke="none" /><path d="M 97.48249496171623 120.84855314841334 l -4.018024109395222 33.27500359381208 a54.51671794659925,54.51671794659925 0 0,0 -0.9281397973158764,-0.12016627876863087 l 4.588641728601893 -33.20112571884305" fill="red" stroke="none" /><path d="M 97.12497278360702 120.80226474461374 l -4.232860648333676 30.62687105416913 a51.91799378738722,51.91799378738722 0 0,0 -0.8818021405322479,-0.12959454813381566 l 4.757987894473609 -30.54969543273643" fill="red" stroke="none" /><path d="M 95.35216902796893 120.47920084513623 l -12.086101391182819 53.253592764917464 a75.60786563499457,75.60786563499457 0 0,0 -1.263255665508309,-0.29812489739311543 l 12.998489210431014 -53.03827172387812" fill="red" stroke="none" /><path d="M 95.00130118170881 120.39639698878247 l -7.341862548076143 29.957304612888514 a51.84384939245156,51.84384939245156 0 0,0 -0.8625698360258687,-0.21926187926467267 l 7.855037677327389 -29.826857501788577" fill="red" stroke="none" /><path d="M 94.30408787586889 120.21278271476187 l -9.830494454669072 34.884956800700024 a57.24360401795034,57.24360401795034 0 0,0 -0.9435381136193112,-0.2746501936027777 l 10.427892580669988 -34.71106291279473" fill="red" stroke="none" /><path d="M 92.93061703081489 119.77432235084164 l -10.438933782183836 29.199555676609243 a52.00944034032575,52.00944034032575 0 0,0 -0.8381218489316253,-0.3077699521249492 l 10.938644782769579 -29.016054875475575" fill="red" stroke="none" /><path d="M 92.25597844496254 119.51999308798841 l -20.11725337899102 50.70862007760986 a75.55335034340149,75.55335034340149 0 0,0 -1.2014621090140285,-0.48862418022682386 l 20.98476994919549 -50.355808640803744" fill="red" stroke="none" /><path d="M 91.92203290615298 119.3841803445677 l -11.861925945009316 28.46430408550531 a51.83702148711836,51.83702148711836 0 0,0 -0.8184446729888164,-0.34934536317035403 l 12.348805693168565 -28.256484072675555" fill="red" stroke="none" /><path d="M 90.6110303473126 118.78422872680471 l -14.367074007574205 28.743772136483443 a53.13436248275662,53.13436248275662 0 0,0 -0.8123808278483936,-0.4148074391419582 l 14.85838205713618 -28.49290674566865" fill="red" stroke="none" /><path d="M 90.28995756902619 118.62028667847754 l -25.21476534414061 48.352637238821224 a75.53220992504444,75.53220992504444 0 0,0 -1.144533046024114,-0.6093993809276523 l 26.041087205951285 -47.912667390171" fill="red" stroke="none" /><line stroke="#e1ed5e" stroke-width="0.3" x1="58.13341422392154" x2="55.67067388415222" y1="173.97424548756322" y2="178.32567169271397" /><path d="M 57.64086615596768 174.84453072859336 a86.0,86.0 0 0,1 -31.369924170532247,-30.572349798747897" fill="none" id="id8" stroke="none" /><text fill="#e1ed5e" style="font-size:6.75px; font-family:Arial;" text-anchor="middle"><textPath startOffset="22.145653131862474" xlink:href="#id8">August</textPath></text><path d="M 89.65649057296885 118.27599006163327 l -15.17203587871177 26.807533641284376 a51.80315783541536,51.80315783541536 0 0,0 -0.7701588602301537,-0.444651425272658 l 15.629987206802323 -26.543135318735548" fill="red" stroke="none" /><path d="M 89.03521579738668 117.91015095944536 l -16.133011589770963 26.352061989000475 a51.8983047112266,51.8983047112266 0 0,0 -0.7558268207473787,-0.4716918368563246 l 16.58300253930805 -26.071234355302604" fill="red" stroke="none" /><path d="M 88.4268655584334 117.5232005979908 l -17.030340657484107 25.786106356923643 a51.90235887372571,51.90235887372571 0 0,0 -0.7392470569358417,-0.4973984114543604 l 17.470484002516955 -25.489958271412164" fill="red" stroke="none" /><path d="M 88.1277618465304 117.32195027204791 l -17.435459813920524 25.438856933539416 a51.84040695269639,51.84040695269639 0 0,0 -0.7297275605127007,-0.5094065107362254 l 17.86958246560699 -25.13580560699806" fill="red" stroke="none" /><path d="M 87.83215693770417 117.11559508785305 l -17.86110010872996 25.123874109775866 a51.82576758781425,51.82576758781425 0 0,0 -0.7206718232184669,-0.5217108233839391 l 18.289752942322384 -24.813562515018862" fill="red" stroke="none" /><path d="M 87.54013794807813 116.9041958592261 l -18.497234865454885 25.09505159180521 a52.1754600938489,52.1754600938489 0 0,0 -0.7164113319174722,-0.5376084194311713 l 18.925299186283127 -24.773824145110023" fill="red" stroke="none" /><path d="M 87.2517909369889 116.68781488649013 l -18.72182072346498 24.50746430553466 a51.84027201385582,51.84027201385582 0 0,0 -0.7025345658356215,-0.5462951276361104 l 19.13976523393583 -24.182468126277758" fill="red" stroke="none" /><path d="M 86.96720088162412 116.46651593811092 l -5.890285896744393 7.442183810077671 a30.491131007860343,30.491131007860343 0 0,0 -0.40763626387874186,-0.32836291912363147 l 6.017172930978396 -7.339972597160629" fill="red" stroke="none" /><path d="M 86.40962598614128 116.0094264158162 l -39.9156307400354 47.02051264533584 a82.67808514217222,82.67808514217222 0 0,0 -1.0741084857475127,-0.9277893276349594 l 40.716918705545766 -46.32837918523616" fill="red" stroke="none" /><path d="M 85.86807049272751 115.53346607816431 l -21.07381361134705 23.163812747647654 a52.315616569594795,52.315616569594795 0 0,0 -0.6591026018889762,-0.6100555284779392 l 21.46834598454999 -22.79863947303734" fill="red" stroke="none" /><path d="M 85.60350026404147 115.28858382429668 l -21.10419321014167 22.411921845940384 a51.78443132298418,51.78443132298418 0 0,0 -0.6419482036757533,-0.6149718576655187 l 21.48581389968274 -22.046337857969284" fill="red" stroke="none" /><path d="M 85.34317274990678 115.03919595460226 l -21.773629385063234 22.341661901130035 a52.196807418428165,52.196807418428165 0 0,0 -0.6363240210732344,-0.6308853869067652 l 22.15394532626643 -21.96459650399461" fill="red" stroke="none" /><path d="M 84.83555147118756 114.52719865689866 l -22.36198427679679 21.422275088622136 a51.96727645060682,51.96727645060682 0 0,0 -0.6115909148277561,-0.6494883575184449 l 22.7264310253608 -21.0352452711592" fill="red" stroke="none" /><path d="M 84.58840730492382 114.26474011684316 l -20.499234605425876 18.973785514979337 a48.932474938263695,48.932474938263695 0 0,0 -0.5652919487390412,-0.6213548762381309 l 20.821924255006795 -18.61909306318353" fill="red" stroke="none" /><path d="M 84.1078160697243 113.72728997021213 l -24.12411710986334 20.837837788396683 a52.87771180662022,52.87771180662022 0 0,0 -0.5874598873232695,-0.6920262701199345 l 24.478271560693724 -20.420644735827196" fill="red" stroke="none" /><path d="M 83.8745106332314 113.45245675266167 l -23.722915893897145 19.790500173430257 a51.89402265201896,51.89402265201896 0 0,0 -0.564787806648644,-0.6889492908985472 l 24.059150519784417 -19.380348600833212" fill="red" stroke="none" /><path d="M 83.64595745247003 113.17365903436017 l -24.018891096386014 19.34791845915851 a51.842326082873484,51.842326082873484 0 0,0 -0.5523270789697787,-0.697847221176195 l 24.347484605997355 -18.932751294067636" fill="red" stroke="none" /><path d="M 83.20337586046588 112.60449989151573 l -24.59065879626154 18.45328880106595 a51.74450142073702,51.74450142073702 0 0,0 -0.5270497310255842,-0.7150441829678751 l 24.903810546870954 -18.02843830882919" fill="red" stroke="none" /><path d="M 82.98947788004972 112.3143062007846 l -44.83218426627505 32.455044049319426 a76.34667677763954,76.34667677763954 0 0,0 -0.7594127645839133,-1.0682091572532932 l 45.38271212938893 -31.68065766535663" fill="red" stroke="none" /><path d="M 82.78059297857968 112.02048342749411 l -9.46797602449038 6.60938258516818 a32.546709841225294,32.546709841225294 0 0,0 -0.3158739761207323,-0.46086957116829225 l 9.580039737426436 -6.445878278929837" fill="red" stroke="none" /><path d="M 82.576782715395 111.72311816256416 l -32.14628727041517 21.62945671875393 a59.745544043418796,59.745544043418796 0 0,0 -0.5652371183244126,-0.8558410394209633 l 32.51284882766031 -21.074435800993903" fill="red" stroke="none" /><path d="M 82.37810715431573 111.42229804090323 l -25.955713686612444 16.824180023625946 a51.931409706781466,51.931409706781466 0 0,0 -0.47846709653284497,-0.7522297470220095 l 26.24069847477118 -16.376136601925264" fill="red" stroke="none" /><path d="M 81.99639281039703 110.81064883170644 l -42.61950315757012 25.59178708833268 a70.7127912691762,70.7127912691762 0 0,0 -0.6159632644399233,-1.046040285451001 l 43.05254013213982 -24.856395634588118" fill="red" stroke="none" /><line stroke="#e1ed5e" stroke-width="0.3" x1="26.387840678322732" x2="22.057713659400548" y1="142.50000000000003" y2="145.00000000000006" /><path d="M 25.521815274538298 143.00000000000003 a86.0,86.0 0 0,1 -11.493303480769221,-40.785679425670985" fill="none" id="id9" stroke="none" /><text fill="#e1ed5e" style="font-size:6.75px; font-family:Arial;" text-anchor="middle"><textPath startOffset="21.40746469413373" xlink:href="#id9">September</textPath></text><path d="M 81.63589988554817 110.18625677009913 l -27.058075210685868 15.008658201759522 a51.94186896624663,51.94186896624663 0 0,0 -0.4258111567719309,-0.7834445683502367 l 27.311731717073126 -14.541958799934697" fill="red" stroke="none" /><path d="M 81.4637452351635 109.86951160357371 l -27.304243815913797 14.537971914325063 a51.93338581113569,51.93338581113569 0 0,0 -0.4122322078822467,-0.7905096134682299 l 27.54978409277099 -14.06711605775233" fill="red" stroke="none" /><path d="M 81.1358732173502 109.22738970284198 l -27.6263887675388 13.513451122198648 a51.75436095202184,51.75436095202184 0 0,0 -0.38352628834115216,-0.8014224354860681 l 27.854294313839862 -13.037216184647475" fill="red" stroke="none" /><path d="M 80.28708602549918 107.23885506374661 l -28.91192222263115 10.61685831200109 a51.799625436433146,51.799625436433146 0 0,0 -0.2993520826072838,-0.8373410527728908 l 29.089914475282377 -10.118982302847279" fill="red" stroke="none" /><path d="M 80.16572619554312 106.89939002012753 l -29.384555076751536 10.221473598739538 a52.111583045360675,52.111583045360675 0 0,0 -0.2866498831753052,-0.8474294452614923 l 29.555690381499208 -9.715542479003883" fill="red" stroke="none" /><path d="M 80.05021161711548 106.5578916946017 l -35.15339518394527 11.555619232113045 a58.00396639275589,58.00396639275589 0 0,0 -0.30282292102458813,-0.9485884870474379 l 35.34658282074711 -10.950461711374215" fill="red" stroke="none" /><path d="M 79.48165901384964 104.47187691870673 l -36.416409083943456 7.936786865692039 a58.27126824137517,58.27126824137517 0 0,0 -0.2046217482517323,-0.9791891392912527 l 36.547288543019555 -7.310481275115377" fill="red" stroke="none" /><path d="M 79.407916724674 104.11899336999214 l -31.680172824946048 6.336921819975113 a53.30773790241166,53.30773790241166 0 0,0 -0.17178725113843774,-0.8988634883390632 l 31.784286368366644 -5.792155766602735" fill="red" stroke="none" /><path d="M 79.34024301695615 103.76489593502545 l -61.31508926633285 11.173651777414497 a83.32487999010735,83.32487999010735 0 0,0 -0.24436085436325874,-1.4094084715972204 l 61.49786493818834 -10.119450272896684" fill="red" stroke="none" /><path d="M 79.13060592940153 102.33845913500099 l -40.155195896853215 4.499473455965918 a61.40649723615744,61.40649723615744 0 0,0 -0.10839009231550198,-1.0485758195872252 l 40.22651838165038 -3.8094931140957615" fill="red" stroke="none" /><path d="M 79.0935383218832 101.97986365728391 l -34.695189516720134 3.2856705196859295 a55.850420461811645,55.850420461811645 0 0,0 -0.08219686510869373,-0.9552521678620192 l 34.74648000452657 -2.6895973044482484" fill="red" stroke="none" /><path d="M 79.06263194458094 101.62068470465958 l -32.032725573038896 2.479535548468567 a53.12854811804821,53.12854811804821 0 0,0 -0.06258046807103312,-0.9099062712280203 l 32.07057000227499 -1.9292858530862034" fill="red" stroke="none" /><line stroke="#e1ed5e" stroke-width="0.3" x1="15.003131293944662" x2="10.003315487706104" y1="100.72959589197737" y2="100.7725132973878" /><path d="M 14.003168132696942 100.73817937305945 a86.0,86.0 0 0,1 10.791469493833604,-42.45332614584628" fill="none" id="id10" stroke="none" /><text fill="#e1ed5e" style="font-size:6.75px; font-family:Arial;" text-anchor="middle"><textPath startOffset="22.145653131862435" xlink:href="#id10">October</textPath></text><path d="M 79.00077361379809 100.18025310272382 l -61.53719093643786 0.5282227733155738 a82.5394579732862,82.5394579732862 0 0,0 0.0,-1.41695175207876 l 61.53719093643786 0.5282227733155511" fill="red" stroke="none" /><path d="M 79.06263194458094 98.37931529534042 l -36.00893061333981 -2.78731896586608 a57.11664755945377,57.11664755945377 0 0,0 0.08406041236726225,-0.976909411800809 l 35.95577657827481 3.4050494250425696" fill="red" stroke="none" /><path d="M 79.17382384314186 97.30363454192245 l -30.585871335796963 -3.959953394895754 a51.84115361428091,51.84115361428091 0 0,0 0.12184024756993177,-0.8815753367645747 l 30.513386571671823 4.4844170398603955" fill="red" stroke="none" /><path d="M 79.2786578344484 96.59031103205396 l -36.46591130524974 -6.000451828372135 a57.95629999698232,57.95629999698232 0 0,0 0.16996425298995121,-0.9803086450034454 l 36.357532234767554 6.625553506296174" fill="red" stroke="none" /><path d="M 79.34024301695615 96.23510406497455 l -53.30140753552072 -9.713292016276704 a75.17922191265882,75.17922191265882 0 0,0 0.24226936619866488,-1.2676556972411295 l 53.12681187703989 10.626850278551148" fill="red" stroke="none" /><path d="M 79.48165901384962 95.52812308129327 l -30.40180920447522 -6.6259328159223525 a52.115478279892,52.115478279892 0 0,0 0.1980118624506179,-0.8724768015979706 l 30.283586480466944 7.146843951459331" fill="red" stroke="none" /><path d="M 79.56144815229197 95.17655741523228 l -60.3667849491336 -14.246396877762065 a83.02506387819082,83.02506387819082 0 0,0 0.3392660044061856,-1.384321072785118 l 60.11333141821112 15.2805737751553" fill="red" stroke="none" /><path d="M 79.73907114497095 94.47779374421319 l -31.17872635313613 -8.497900513184868 a53.3160531336321,53.3160531336321 0 0,0 0.24825352723991678,-0.8809641888636317 l 31.028254333821632 9.031872625951513" fill="red" stroke="none" /><path d="M 79.83685265289637 94.1308016681162 l -60.2654964095807 -17.54240768607334 a83.76675971338324,83.76675971338324 0 0,0 0.41374269423065757,-1.3772148665753685 l 59.95547739534641 18.574360156239432" fill="red" stroke="none" /><path d="M 80.16572619554312 93.10060997987247 l -29.538288858228068 -10.274950188209482 a52.274352272146366,52.274352272146366 0 0,0 0.3020955477528901,-0.8450150130582497 l 29.357553140431236 10.780500157648655" fill="red" stroke="none" /><path d="M 80.28708602549916 92.7611449362534 l -37.64179739221533 -13.822589395643183 a61.099487384717726,61.099487384717726 0 0,0 0.36999904904776426,-0.9814664361306179 l 37.398967659353126 14.466724111967947" fill="red" stroke="none" /><path d="M 80.41425534168474 92.42381321644754 l -58.757233974945805 -22.728560350657368 a84.0,84.0 0 0,0 0.5317653001354743,-1.3403959311456688 l 58.3584099998442 23.73385729901662" fill="red" stroke="none" /><path d="M 80.68587082218212 91.75594674310238 l -57.79390158795021 -24.668779950077518 a83.83855317385196,83.83855317385196 0 0,0 0.576354593286773,-1.318812101354104 l 57.36191311264646 25.65725412120749" fill="red" stroke="none" /><path d="M 80.9802524753101 91.09779779509293 l -55.65537918801 -26.049527664827384 a82.4499725314974,82.4499725314974 0 0,0 0.6109964717398607,-1.2767476320152347 l 55.200003458310235 27.001087798907704" fill="red" stroke="none" /><path d="M 81.1358732173502 90.77261029715801 l -30.970962044595936 -15.149449510711534 a55.47762042898842,55.47762042898842 0 0,0 0.42580417502620377,-0.851893584961276 l 30.706337956357988 15.67887495183658" fill="red" stroke="none" /><path d="M 81.46374523516351 90.13048839642627 l -55.22887440345468 -29.40626484111771 a83.56961706594126,83.56961706594126 0 0,0 0.685090390893626,-1.2604891559054205 l 54.7159386629457 30.350008830497753" fill="red" stroke="none" /><line stroke="#e1ed5e" stroke-width="0.3" x1="26.387840678322718" x2="22.05771365940052" y1="57.49999999999999" y2="54.99999999999999" /><path d="M 25.521815274538284 56.99999999999999 a86.0,86.0 0 0,1 29.574782752854787,-30.34633250058573" fill="none" id="id11" stroke="none" /><text fill="#e1ed5e" style="font-size:6.75px; font-family:Arial;" text-anchor="middle"><textPath startOffset="21.40746469413373" xlink:href="#id11">November</textPath></text><line stroke="#e1ed5e" stroke-width="0.3" x1="56.869717070023135" x2="54.33264160355391" y1="26.7553504044142" y2="22.446841604673864" /><path d="M 56.362301976729285 25.89364864446614 a86.0,86.0 0 0,1 42.16139366436587,-11.88097634709845" fill="none" id="id12" stroke="none" /><text fill="#e1ed5e" style="font-size:6.75px; font-family:Arial;" text-anchor="middle"><textPath startOffset="22.145653131862474" xlink:href="#id12">December</textPath></text></svg>