<?xml version="1.0" encoding="utf-8" ?>
<svg baseProfile="full" height="200mm" version="1.1" viewBox="0,0,200,200" width="200mm" xmlns="http://www.w3.org/2000/svg" xmlns:ev="http://www.w3.org/2001/xml-events" xmlns:xlink="http://www.w3.org/1999/xlink"><defs /><rect fill="#1a1a1a" height="200" width="200" x="0" y="0" /><text alignment-baseline="middle" fill="#e1ed5e" style="dominant-baseline: central; font-size:9.0px; font-family:Arial;" text-anchor="middle" x="100.0" y="100.0">2024</text><line stroke="#e1ed5e" stroke-width="0.3" x1="100.0" x2="100.0" y1="15.0" y2="10.0" /><path d="M 100.0 14.0 a86.0,86.0 0 0,1 42.35913384403234,11.155469271406648" fill="none" id="id1" stroke="none" /><text fill="#e1ed5e" style="font-size:6.75px; font-family:Arial;" text-anchor="middle"><textPath startOffset="22.145653131862478" xlink:href="#id1">January</textPath></text><line stroke="#e1ed5e" stroke-width="0.3" x1="143.13028292997686" x2="145.6673583964461" y1="26.7553504044142" y2="22.446841604673864" /><path d="M 143.63769802327073 25.89364864446614 a86.0,86.0 0 0,1 29.32050498858742,28.57503671076993" fill="none" id="id2" stroke="none" /><text fill="#e1ed5e" style="font-size:6.75px; font-family:Arial;" text-anchor="middle"><textPath startOffset="20.669276256404974" xlink:href="#id2">February</textPath></text><line stroke="#e1ed5e" stroke-width="0.3" x1="172.87174338648825" x2="177.1583165268699" y1="56.24261187166439" y2="53.66864786411523" /><path d="M 173.72905801456457 55.72781907015455 a86.0,86.0 0 0,1 12.242430191666344,42.057860355516425" fill="none" id="id3" stroke="none" /><text fill="#e1ed5e" style="font-size:6.75px; font-family:Arial;" text-anchor="middle"><textPath startOffset="22.145653131862474" xlink:href="#id3">March</textPath></text><path d="M 120.51834098615036 95.52812308129327 l 14.342792708507865 -3.1259449146626777 a35.67948344761258,35.67948344761258 0 0,0 0.12528984695386022,0.5995572731093906 l -14.394340266286092 2.879271190267883" fill="red" stroke="none" /><line stroke="#e1ed5e" stroke-width="0.3" x1="184.99686870605535" x2="189.99668451229388" y1="99.2704041080226" y2="99.22748670261217" /><path d="M 185.99683186730306 99.26182062694052 a86.0,86.0 0 0,1 -10.086455211305974,41.156179273409016" fill="none" id="id4" stroke="none" /><text fill="#e1ed5e" style="font-size:6.75px; font-family:Arial;" text-anchor="middle"><textPath startOffset="21.40746469413373" xlink:href="#id4">April</textPath></text><line stroke="#e1ed5e" stroke-width="0.3" x1="174.33088141563837" x2="178.70328620479359" y1="141.23008692659167" y2="143.65538615756765" /><path d="M 175.20536237346943 141.71514677278685 a86.0,86.0 0 0,1 -30.301960400862466,31.631185727798858" fill="none" id="id5" stroke="none" /><text fill="#e1ed5e" style="font-size:6.75px; font-family:Arial;" text-anchor="middle"><textPath startOffset="22.145653131862474" xlink:href="#id5">May</textPath></text><path d="M 115.6541949942343 113.99807769240083 l 11.05114485885978 9.882001877533263 a35.82503840801345,35.82503840801345 0 0,0 -0.41386841358152493,0.4549138856009711 l -10.879878744436375 -10.070253338691906" fill="red" stroke="none" /><path d="M 113.86319453409587 115.77377054828091 l 18.725813339859087 21.306538130617017 a49.36590651381834,49.36590651381834 0 0,0 -0.641334871289436,0.5539697869609288 l -18.357298988806797 -21.624852050042666" fill="red" stroke="none" /><path d="M 113.31354834802062 116.24036423190432 l 15.005486286075094 18.304253411070224 a44.668762359241846,44.668762359241846 0 0,0 -0.5971771724543543,0.48104365817521594 l -14.689058343265486 -18.559145363038844" fill="red" stroke="none" /><path d="M 113.03279911837588 116.46651593811092 l 35.135062119781324 44.39200321641991 a77.61380167174369,77.61380167174369 0 0,0 -1.0518150530872268,0.817897747127105 l -34.367837122058866 -44.98860201516781" fill="red" stroke="none" /><path d="M 112.16784306229584 117.11559508785304 l 4.326883521747949 6.086303543807235 a28.467597460906315,28.467597460906315 0 0,0 -0.40072197866349324,0.2797350627443316 l -4.221766451910698 -6.1596834223566885" fill="red" stroke="none" /><path d="M 111.5731344415666 117.5232005979908 l 15.718289264078585 23.79949331984169 a49.52157954374963,49.52157954374963 0 0,0 -0.7133804440624583,0.4624045850232791 l -15.307423187759117 -24.065811746568865" fill="red" stroke="none" /><path d="M 110.96478420261333 117.91015095944535 l 8.992891466420403 14.6892123683665 a38.22338691807707,38.22338691807707 0 0,0 -0.5625522299908866,0.33779645067111636 l -8.739406479872079 -14.84142281957354" fill="red" stroke="none" /><line stroke="#e1ed5e" stroke-width="0.3" x1="143.1302829299769" x2="145.66735839644613" y1="173.24464959558577" y2="177.55315839532614" /><path d="M 143.63769802327073 174.10635135553383 a86.0,86.0 0 0,1 -40.68552437913181,11.842963189579606" fill="none" id="id6" stroke="none" /><text fill="#e1ed5e" style="font-size:6.75px; font-family:Arial;" text-anchor="middle"><textPath startOffset="21.407464694133747" xlink:href="#id6">June</textPath></text><path d="M 110.02825361518725 118.45085714620011 l 5.523243446692697 10.16214584604021 a32.566132731714006,32.566132731714006 0 0,0 -0.49347179341957087,0.26274593508662175 l -5.347982837486572 -10.2554622488494" fill="red" stroke="none" /><path d="M 109.71004243097381 118.62028667847754 l 13.41821780117958 25.73120189209689 a50.01970571476808,50.01970571476808 0 0,0 -0.7647602801385519,0.39049204817147704 l -12.974530299327446 -25.957751891941204" fill="red" stroke="none" /><path d="M 109.3889696526874 118.78422872680471 l 22.49144016783514 44.99794675413942 a71.30586539273203,71.30586539273203 0 0,0 -1.0996035083302271,0.5378711777588026 l -21.715676410242843 -45.37741168199545" fill="red" stroke="none" /><path d="M 107.407793817531 119.65005319985036 l 8.474974913034085 22.480877844413655 a45.02530058983666,45.02530058983666 0 0,0 -0.7255738176016457,0.2664407560679093 l -8.087811943778313 -22.623049449490285" fill="red" stroke="none" /><path d="M 107.06938296918513 119.77432235084164 l 9.627782461331176 26.930621066082576 a49.599869687249395,49.599869687249395 0 0,0 -0.8042128255155956,0.27974696715007025 l -9.16406386377056 -27.091926465801237" fill="red" stroke="none" /><path d="M 105.3480935250658 120.30758222061773 l 7.300856295957438 27.722540530785874 a49.667782546532735,49.667782546532735 0 0,0 -0.8263647770947873,0.21005869486316797 l -6.823886225637254 -27.84378445748431" fill="red" stroke="none" /><path d="M 104.9986988182912 120.39639698878246 l 11.996853428887823 48.95125592613318 a71.3999002870046,71.3999002870046 0 0,0 -1.1929490112804138,0.28153271843042743 l -11.15477226386753 -49.14998478820983" fill="red" stroke="none" /><path d="M 104.64783097203109 120.47920084513623 l 6.413353989216194 28.25842101971255 a49.97705071118052,49.97705071118052 0 0,0 -0.8382759793813868,0.18269834808926294 l -5.927315593215671 -28.36435082593553" fill="red" stroke="none" /><path d="M 103.94208987418118 120.62667999033965 l 5.404687389436575 28.279608225037865 a49.7914377400498,49.7914377400498 0 0,0 -0.8409187396643195,0.153243406843916 l -4.918433916221198 -28.368219805813144" fill="red" stroke="none" /><path d="M 102.875027216393 120.80226474461374 l 3.9066489858990043 28.26656596694957 a49.535252896425106,49.535252896425106 0 0,0 -0.8433310242248182,0.10918608516120445 l -3.4208401397834107 -28.32946364831117" fill="red" stroke="none" /><path d="M 102.51750503828377 120.84855314841334 l 3.48496583197143 28.860516369727815 a50.07016326024564,50.07016326024564 0 0,0 -0.8542067570063185,0.09571564882735095 l -2.9890231733643122 -28.91608777906214" fill="red" stroke="none" /><path d="M 102.15924093988457 120.88869738790638 l 2.9318675494107214 28.363158964713445 a49.51428823914236,49.51428823914236 0 0,0 -0.8462237937003998,0.08013827307898942 l -2.4445441923253064 -28.409308993297618" fill="red" stroke="none" /><path d="M 101.80034050326958 120.92268563240118 l 2.6469754059242345 30.761866543729855 a51.87553905689444,51.87553905689444 0 0,0 -0.8878893880855278,0.06872825404276724 l -2.118517023063471 -30.802772564767675" fill="red" stroke="none" /><path d="M 101.44090949804482 120.95050786540614 l 1.9609367417116672 28.51158985803033 a49.578943807242645,49.578943807242645 0 0,0 -0.8495839497306384,0.05110886071274051 l -1.4712084398485634 -28.541050696567762" fill="red" stroke="none" /><line stroke="#e1ed5e" stroke-width="0.3" x1="101.45913802915013" x2="101.54496967792366" y1="184.9874750549273" y2="189.98673829345242" /><path d="M 101.47630435890484 185.9873277026323 a86.0,86.0 0 0,1 -42.54439059252881,-10.42667462771756" fill="none" id="id7" stroke="none" /><text fill="#e1ed5e" style="font-size:6.75px; font-family:Arial;" text-anchor="middle"><textPath startOffset="22.145653131862474" xlink:href="#id7">July</textPath></text><path d="M 100.36049292484886 120.99690560180557 l 0.4896881314346884 28.52187868699408 a49.52608207065378,49.52608207065378 0 0,0 -0.8501810562835371,0.007297781854136489 l -3.493437510004085e-15 -28.52608207065378" fill="red" stroke="none" /><path d="M 100.0 121.0 l 3.5001510224131193e-15 28.58090205968007 a49.58090205968007,49.58090205968007 0 0,0 -0.8511221142923118,-0.007305859705329912 l 0.4906291894434561 -28.576690598169176" fill="red" stroke="none" /><path d="M 99.63950707515114 120.99690560180557 l -0.4931357453776004 28.722684915136536 a49.726917892415486,49.726917892415486 0 0,0 -0.8533771019392307,-0.02197996700897067 l 0.986126161387575 -28.709987230777518" fill="red" stroke="none" /><path d="M 97.84075906011543 120.88869738790638 l -2.9592328502685272 28.627893426712927 a49.7804333030853,49.7804333030853 0 0,0 -0.8492639073929239,-0.0951617922183724 l 3.4502326592622503 -28.572875873987584" fill="red" stroke="none" /><path d="M 97.48249496171623 120.84855314841334 l -3.711396379854321 30.73568612715516 a51.95895451715697,51.95895451715697 0 0,0 -0.884594218631006,-0.11452843179501745 l 4.238468420376122 -30.667446099159744" fill="red" stroke="none" /><path d="M 97.12497278360702 120.80226474461374 l -3.90983808432598 28.289640694519708 a49.55854696007259,49.55854696007259 0 0,0 -0.8417280715819275,-0.12370504002447327 l 4.394891261515593 -28.218354581196355" fill="red" stroke="none" /><path d="M 95.35216902796893 120.47920084513623 l -11.163773966637494 49.18964795153998 a71.44057210990587,71.44057210990587 0 0,0 -1.1936285557996622,-0.2816930890866654 l 12.006534676177045 -48.990758718807086" fill="red" stroke="none" /><path d="M 95.00130118170881 120.39639698878247 l -6.781582524256968 27.67117091967934 a49.49006075106571,49.49006075106571 0 0,0 -0.8234078697322286,-0.20930706057450718 l 7.2555956872145755 -27.55067862726957" fill="red" stroke="none" /><path d="M 94.30408787586889 120.21278271476187 l -9.08029930580191 32.22277887251903 a54.47774355822395,54.47774355822395 0 0,0 -0.8979488324153161,-0.2613798182695979 l 9.632108150598832 -32.062155359946914" fill="red" stroke="none" /><path d="M 92.93061703081489 119.77432235084164 l -9.642306764198961 26.971248126192513 a49.64301494639767,49.64301494639767 0 0,0 -0.7999873715456044,-0.2937664438112516 l 10.103883287398686 -26.801750833372544" fill="red" stroke="none" /><path d="M 92.25597844496254 119.51999308798841 l -18.582044141750405 46.8388899268642 a71.39021704722913,71.39021704722913 0 0,0 -1.135259261788967,-0.46170005859923974 l 19.383357864729813 -46.51300261168567" fill="red" stroke="none" /><path d="M 91.92203290615298 119.3841803445677 l -10.956706035552882 26.292105836547073 a49.4837539041067,49.4837539041067 0 0,0 -0.7812893877857153,-0.33348598130697815 l 11.406430498509028 -26.10014520558069" fill="red" stroke="none" /><path d="M 90.6110303473126 118.78422872680471 l -13.27067857460811 26.5502468243674 a50.68209083379057,50.68209083379057 0 0,0 -0.774887605398558,-0.39566313260928554 l 13.72449340172025 -26.318525740085278" fill="red" stroke="none" /><path d="M 90.28995756902619 118.62028667847754 l -23.290549351931407 44.6626993563713 a71.37068991896341,71.37068991896341 0 0,0 -1.0814738932020684,-0.5758239338708206 l 24.053812060920038 -44.2563049547779" fill="red" stroke="none" /><line stroke="#e1ed5e" stroke-width="0.3" x1="58.13341422392154" x2="55.67067388415222" y1="173.97424548756322" y2="178.32567169271397" /><path d="M 57.64086615596768 174.84453072859336 a86.0,86.0 0 0,1 -31.369924170532247,-30.572349798747897" fill="none" id="id8" stroke="none" /><text fill="#e1ed5e" style="font-size:6.75px; font-family:Arial;" text-anchor="middle"><textPath startOffset="22.145653131862474" xlink:href="#id8">August</textPath></text><path d="M 89.65649057296885 118.27599006163327 l -14.014211339251077 24.76176862066194 a49.45247449141097,49.45247449141097 0 0,0 -0.7352111913885692,-0.4244743792594191 l 14.437214998500046 -24.51754734412635" fill="red" stroke="none" /><path d="M 89.03521579738668 117.91015095944536 l -14.901852049722033 24.341055405562 a49.5403604176339,49.5403604176339 0 0,0 -0.7214866327808906,-0.45026101977591554 l 15.317502811292636 -24.081658588944535" fill="red" stroke="none" /><path d="M 88.4268655584334 117.5232005979908 l -15.730703187190668 23.818289581649545 a49.54410519457224,49.54410519457224 0 0,0 -0.7056583698385229,-0.4747984437598067 l 16.137257845126197 -23.544741463832615" fill="red" stroke="none" /><path d="M 88.1277618465304 117.32195027204791 l -16.104906459662836 23.497539825608705 a49.486881014434644,49.486881014434644 0 0,0 -0.6965983309698415,-0.4862797355696821 l 16.505899881806442 -23.217615274233893" fill="red" stroke="none" /><path d="M 87.83215693770417 117.11559508785305 l -16.49806483956953 23.206594306118458 a49.4733588243363,49.4733588243363 0 0,0 -0.6879600122518819,-0.4980299949070592 l 16.894005862195367 -22.91996353983833" fill="red" stroke="none" /><path d="M 87.54013794807813 116.9041958592261 l -17.085654204125074 23.17997132279577 a49.796365223905795,49.796365223905795 0 0,0 -0.6837444321629093,-0.5130945688507198 l 17.48105162519875 -22.883257726681034" fill="red" stroke="none" /><path d="M 87.2517909369889 116.68781488649013 l -17.293101227261673 22.637224622492575 a49.48675637319039,49.48675637319039 0 0,0 -0.67063993981282,-0.5214936735278592 l 17.67915111170972 -22.33702989734392" fill="red" stroke="none" /><path d="M 86.96720088162412 116.46651593811092 l -5.440780134287089 6.874247963407591 a29.76683372330435,29.76683372330435 0 0,0 -0.39795312556098617,-0.320562868328244 l 5.557984030203338 -6.779836801285936" fill="red" stroke="none" /><path d="M 86.40962598614128 116.0094264158162 l -36.8695466714029 43.43223327175621 a77.97124150593002,77.97124150593002 0 0,0 -1.0129597462468245,-0.8749705028515519 l 37.60968589741259 -42.792918636439936" fill="red" stroke="none" /><path d="M 85.86807049272751 115.53346607816431 l -19.46560633222544 21.396111231443744 a49.925825929599455,49.925825929599455 0 0,0 -0.6289946277872949,-0.5821880371353769 l 19.830030731326705 -21.05880544817599" fill="red" stroke="none" /><path d="M 85.60350026404147 115.28858382429668 l -19.4936675707641 20.701599427963856 a49.43517705651458,49.43517705651458 0 0,0 -0.6128255597109754,-0.5870730235281199 l 19.84616561634039 -20.363914274130153" fill="red" stroke="none" /><path d="M 85.34317274990678 115.03919595460226 l -20.112017020270354 20.6367012347927 a49.816083468746044,49.816083468746044 0 0,0 -0.6073009464513901,-0.602110371261208 l 20.463309886851707 -20.288410853302832" fill="red" stroke="none" /><path d="M 84.83555147118756 114.52719865689866 l -20.65547274771201 19.787475646611444 a49.604068712277886,49.604068712277886 0 0,0 -0.583778866913597,-0.6199529264303641 l 20.992107448361864 -19.42998126023659" fill="red" stroke="none" /><path d="M 84.58840730492382 114.26474011684316 l -18.934875210545567 17.525837813607822 a46.80086220086102,46.80086220086102 0 0,0 -0.5406665129767259,-0.5942872085939432 l 19.232939424364172 -17.198213029456205" fill="red" stroke="none" /><path d="M 84.1078160697243 113.72728997021213 l -22.283131825758215 19.247638547267844 a50.44502595703372,50.44502595703372 0 0,0 -0.5604332761809909,-0.6601889901517775 l 22.610259665446318 -18.86228277466651" fill="red" stroke="none" /><path d="M 83.8745106332314 113.45245675266167 l -21.91254750371585 18.28022647435802 a49.53640513548305,49.53640513548305 0 0,0 -0.5391287122475485,-0.6576493678396009 l 22.223123035202025 -17.90137482481992" fill="red" stroke="none" /><path d="M 83.64595745247003 113.17365903436017 l -22.185935931743277 17.871419526610488 a49.48865368990841,49.48865368990841 0 0,0 -0.5272511015612791,-0.6661645428881077 l 22.489453463946116 -17.487935039807702" fill="red" stroke="none" /><path d="M 83.20337586046588 112.60449989151573 l -22.714070286754662 17.04506179854429 a49.398294327438485,49.398294327438485 0 0,0 -0.5031521615544104,-0.682622540319121 l 23.003324467892906 -16.65263294895629" fill="red" stroke="none" /><path d="M 82.98947788004972 112.3143062007846 l -41.41090293553751 29.9783002075582 a72.1230023108091,72.1230023108091 0 0,0 -0.7174002967341323,-1.0091133598570847 l 41.9194183308016 -29.26300962099161" fill="red" stroke="none" /><path d="M 82.78059297857968 112.02048342749411 l -8.745445767653734 6.105000351368612 a31.665545038355212,31.665545038355212 0 0,0 -0.3073220508644455,-0.44839205664198706 l 8.848957555333504 -5.953973559656574" fill="red" stroke="none" /><path d="M 82.576782715395 111.72311816256416 l -29.693105604369716 19.978846611819314 a56.788752875321826,56.788752875321826 0 0,0 -0.5372636828807981,-0.8134856928060623 l 30.03169372617124 -19.466181040674194" fill="red" stroke="none" /><path d="M 82.37810715431573 111.42229804090323 l -23.97495365639511 15.540275302902833 a49.57093906955641,49.57093906955641 0 0,0 -0.4567190342595302,-0.7180381808712294 l 24.23819038228053 -15.12642344735293" fill="red" stroke="none" /><path d="M 81.99639281039703 110.81064883170644 l -39.36707830108165 23.638799411767764 a66.91905586565653,66.91905586565653 0 0,0 -0.5829168862439619,-0.9899203106459178 l 39.76706889745538 -22.959527932828287" fill="red" stroke="none" /><line stroke="#e1ed5e" stroke-width="0.3" x1="26.387840678322732" x2="22.057713659400548" y1="142.50000000000003" y2="145.00000000000006" /><path d="M 25.521815274538298 143.00000000000003 a86.0,86.0 0 0,1 -11.493303480769221,-40.785679425670985" fill="none" id="id9" stroke="none" /><text fill="#e1ed5e" style="font-size:6.75px; font-family:Arial;" text-anchor="middle"><textPath startOffset="21.40746469413373" xlink:href="#id9">September</textPath></text><path d="M 81.63589988554817 110.18625677009913 l -24.993190595334877 13.863301513356364 a49.58060015088844,49.58060015088844 0 0,0 -0.40645385165896836,-0.747829307201099 l 25.227489796609174 -13.432217372680679" fill="red" stroke="none" /><path d="M 81.4637452351635 109.86951160357371 l -25.220573320127503 13.428534738526276 a49.57276437133331,49.57276437133331 0 0,0 -0.3934942771098755,-0.7545771605234256 l 25.447375666212327 -12.993611334898347" fill="red" stroke="none" /><path d="M 81.1358732173502 109.22738970284198 l -25.518134403559962 12.482198266803167 a49.407401447684975,49.407401447684975 0 0,0 -0.3661341178838693,-0.7650794883922668 l 25.728647779403744 -12.042306276345796" fill="red" stroke="none" /><path d="M 80.28708602549918 107.23885506374661 l -26.705564862290952 9.806653328050325 a49.44921166061706,49.44921166061706 0 0,0 -0.28576894850445456,-0.7993466092047817 l 26.86997398083935 -9.346771762464623" fill="red" stroke="none" /><path d="M 80.16572619554312 106.89939002012753 l -27.142129655339602 9.441441633571584 a49.73736282868357,49.73736282868357 0 0,0 -0.273590023774171,-0.8088202915269769 l 27.30020510068614 -8.974119667570445" fill="red" stroke="none" /><path d="M 80.05021161711548 106.5578916946017 l -32.470731900342024 10.673774526329208 a55.1800803507365,55.1800803507365 0 0,0 -0.28808018060413865,-0.9024070626590518 l 32.64917679672342 -10.114798429978764" fill="red" stroke="none" /><path d="M 79.48165901384964 104.47187691870673 l -33.63736134021976 7.331106344565575 a55.42698357637277,55.42698357637277 0 0,0 -0.1946339357629501,-0.9313938409036081 l 33.75825298680708 -6.752596052376558" fill="red" stroke="none" /><path d="M 79.407916724674 104.11899336999214 l -29.262561780238137 5.853331901887332 a50.842235444013,50.842235444013 0 0,0 -0.16384202767428085,-0.8572907218427288 l 29.358730100194574 -5.350138615011289" fill="red" stroke="none" /><path d="M 79.34024301695615 103.76489593502545 l -56.63594695746224 10.320956178306965 a78.5686774574769,78.5686774574769 0 0,0 -0.23041268288630903,-1.3289591251005033 l 56.80477445784078 -9.347204020285869" fill="red" stroke="none" /><path d="M 79.13060592940153 102.33845913500099 l -37.090829877164126 4.156104851803898 a58.322953641370866,58.322953641370866 0 0,0 -0.10294725499468191,-0.9959213058522777 l 37.156709524640476 -3.5187790236686887" fill="red" stroke="none" /><path d="M 79.0935383218832 101.97986365728391 l -32.04749331135703 3.0349309362386783 a53.1908781074579,53.1908781074579 0 0,0 -0.07828273084893203,-0.9097639946574075 l 32.094869664903705 -2.484345894205609" fill="red" stroke="none" /><path d="M 79.06263194458094 101.62068470465958 l -29.588210148031635 2.2903145943769534 a50.67672018106614,50.67672018106614 0 0,0 -0.059692443734568154,-0.8679150312100349 l 29.62316655293127 -1.7820561390125753" fill="red" stroke="none" /><line stroke="#e1ed5e" stroke-width="0.3" x1="15.003131293944662" x2="10.003315487706104" y1="100.72959589197737" y2="100.7725132973878" /><path d="M 14.003168132696942 100.73817937305945 a86.0,86.0 0 0,1 10.791469493833604,-42.45332614584628" fill="none" id="id10" stroke="none" /><text fill="#e1ed5e" style="font-size:6.75px; font-family:Arial;" text-anchor="middle"><textPath startOffset="22.145653131862435" xlink:href="#id10">October</textPath></text><path d="M 79.00077361379809 100.18025310272382 l -56.84109936868344 0.4879124752029197 a77.84319340100451,77.84319340100451 0 0,0 0.0,-1.3363311558534536 l 56.84109936868344 0.48791247520289877" fill="red" stroke="none" /><path d="M 79.06263194458094 98.37931529534042 l -33.260978800072536 -2.5746101162572983 a54.3604755360233,54.3604755360233 0 0,0 0.08000406510697336,-0.9297685079613707 l 33.21188111226782 3.1451996715943493" fill="red" stroke="none" /><path d="M 79.17382384314186 97.30363454192245 l -28.251769790264635 -3.6577572194856893 a49.48757069598616,49.48757069598616 0 0,0 0.11630871315279641,-0.8415519092529716 l 28.184816560556634 4.142197436938728" fill="red" stroke="none" /><path d="M 79.2786578344484 96.59031103205396 l -33.683085895361494 -5.542538966164289 a55.136051523656775,55.136051523656775 0 0,0 0.16169351408771307,-0.9326052208786695 l 33.58297756378155 6.1199372199635516" fill="red" stroke="none" /><path d="M 79.34024301695615 96.23510406497455 l -49.23381383051158 -8.972040944548572 a71.04463950322881,71.04463950322881 0 0,0 0.22894543660289857,-1.1979392674393416 l 49.07254210162652 9.815882777021228" fill="red" stroke="none" /><path d="M 79.48165901384962 95.52812308129327 l -28.08175400408295 -6.120287583310091 a49.74096080593424,49.74096080593424 0 0,0 0.18898992419045754,-0.832724476964379 l 27.97255321833483 6.601446394213478" fill="red" stroke="none" /><path d="M 79.56144815229197 95.17655741523228 l -55.76001064796528 -13.159210686282426 a78.2917412315874,78.2917412315874 0 0,0 0.3199241889727827,-1.3053998654061334 l 55.5258989324762 14.114466376296678" fill="red" stroke="none" /><path d="M 79.73907114497095 94.47779374421319 l -28.7993822249402 -7.8493996905717 a50.849916114464186,50.849916114464186 0 0,0 0.2367705464549199,-0.8402151410435978 l 28.660393186410698 8.342622755518311" fill="red" stroke="none" /><path d="M 79.83685265289637 94.1308016681162 l -55.666451747176595 -16.203692812042593 a78.9768359853121,78.9768359853121 0 0,0 0.39008419346982565,-1.2984634120529164 l 55.38009123370314 17.156893827686233" fill="red" stroke="none" /><path d="M 80.16572619554312 93.10060997987247 l -27.284131540967714 -9.490837260666412 a49.88771063710801,49.88771063710801 0 0,0 0.2883030514198282,-0.8064349460705637 l 27.117188319503942 9.957807163117897" fill="red" stroke="none" /><path d="M 80.28708602549916 92.7611449362534 l -34.769236512546826 -12.767745251514802 a58.03937265226016,58.03937265226016 0 0,0 0.35146796819176435,-0.9323105425352302 l 34.54493786054062 13.362724074244177" fill="red" stroke="none" /><path d="M 80.41425534168474 92.42381321644754 l -54.2732894396919 -20.99407427832158 a79.19227699109442,79.19227699109442 0 0,0 0.5013298207450112,-1.2636786411550442 l 53.90490094398076 21.922653936690207" fill="red" stroke="none" /><path d="M 80.68587082218212 91.75594674310238 l -53.38347189844524 -22.786229775988367 a79.04315066686362,79.04315066686362 0 0,0 0.5433882292820129,-1.2433786090326686 l 52.98444978714625 23.699270454796903" fill="red" stroke="none" /><path d="M 80.9802524753101 91.09779779509293 l -51.40814669449316 -24.06160840252082 a77.7605368674292,77.7605368674292 0 0,0 0.5762453547021665,-1.2041311629521354 l 50.98752208183109 24.940552067538047" fill="red" stroke="none" /><path d="M 81.1358732173502 90.77261029715801 l -28.607473047298388 -13.99334860618929 a52.84652758726206,52.84652758726206 0 0,0 0.405609900141565,-0.8114915075835478 l 28.363043233945078 14.482371969936608" fill="red" stroke="none" /><path d="M 81.46374523516351 90.13048839642627 l -51.01418979670158 -27.16218268107624 a78.79473789726924,78.79473789726924 0 0,0 0.6459466930883081,-1.1884691607902023 l 50.54039775399792 28.03390667534106" fill="red" stroke="none" /><line stroke="#e1ed5e" stroke-width="0.3" x1="26.387840678322718" x2="22.05771365940052" y1="57.49999999999999" y2="54.99999999999999" /><path d="M 25.521815274538284 56.99999999999999 a86.0,86.0 0 0,1 29.574782752854787,-30.34633250058573" fill="none" id="id11" stroke="none" /><text fill="#e1ed5e" style="font-size:6.75px; font-family:Arial;" text-anchor="middle"><textPath startOffset="21.40746469413373" xlink:href="#id11">November</textPath></text><path d="M 81.81346652052679 89.5 l -49.92851766660793 -28.826243115055085 a78.65248623011016,78.65248623011016 0 0,0 0.6851241664353651,-1.1634906170566464 l 49.42631979004279 29.679084900405304" fill="red" stroke="none" /><path d="M 82.18462484594161 88.88188828441811 l -26.629549023847293 -16.61880810381101 a52.389770053391295,52.389770053391295 0 0,0 0.4826901735770939,-0.7588691255700216 l 26.34034115864431 17.073490904059703" fill="red" stroke="none" /><path d="M 82.37810715431573 88.57770195909679 l -47.9091585914682 -31.054137776956793 a78.09331791035328,78.09331791035328 0 0,0 0.7388206548753009,-1.1186686378428028 l 47.36901349767217 31.871986293138658" fill="red" stroke="none" /><path d="M 82.78059297857968 87.97951657250589 l -23.308779083266312 -16.271338051129582 a49.426319218756596,49.426319218756596 0 0,0 0.4916386580969575,-0.6915513422093141 l 23.026025326639385 16.669066620048415" fill="red" stroke="none" /><path d="M 83.8745106332314 86.54754324733833 l -33.47867947224026 -27.929105126239296 a64.59881755687334,64.59881755687334 0 0,0 0.7176788250966957,-0.8454238513861699 l 32.994306083636445 28.49969576007502" fill="red" stroke="none" /><path d="M 84.10781606972428 86.27271002978789 l -24.399296969247935 -21.07553159689445 a53.24133565293547,53.24133565293547 0 0,0 0.6033737535935985,-0.6865285717972576 l 24.033912151695745 21.491272446503007" fill="red" stroke="none" /><path d="M 84.34580500576568 86.00192230759919 l -42.87538933587732 -38.33943752691196 a78.51705382391424,78.51705382391424 0 0,0 0.9070675133716458,-0.9970260920359452 l 42.21092412166381 39.06980119450556" fill="red" stroke="none" /><path d="M 84.58840730492382 85.73525988315684 l -41.99338652788062 -38.868451645347534 a78.22063478664585,78.22063478664585 0 0,0 0.9205606461411988,-0.9776035051579359 l 41.31997004800314 39.58359661044998" fill="red" stroke="none" /><path d="M 85.60350026404147 84.71141617570332 l -43.189499207875585 -45.86575147289003 a84.0,84.0 0 0,0 1.058280914744187,-0.9795290154705376 l 42.395788521817444 46.600398234492936" fill="red" stroke="none" /><path d="M 86.13680546590413 84.22622945171909 l -27.028087619376272 -30.75300223323873 a61.94221130713713,61.94221130713713 0 0,0 0.8047193482596531,-0.6950974067922671 l 26.49618879135377 31.212443772495707" fill="red" stroke="none" /><line stroke="#e1ed5e" stroke-width="0.3" x1="56.869717070023135" x2="54.33264160355391" y1="26.7553504044142" y2="22.446841604673864" /><path d="M 56.362301976729285 25.89364864446614 a86.0,86.0 0 0,1 42.16139366436587,-11.88097634709845" fill="none" id="id12" stroke="none" /><text fill="#e1ed5e" style="font-size:6.75px; font-family:Arial;" text-anchor="middle"><textPath startOffset="22.145653131862474" xlink:href="#id12">December</textPath></text></svg>